<?xml version="1.0" encoding="utf-8"?>
<!-- Generator: Adobe Illustrator 21.0.0, SVG Export Plug-In . SVG Version: 6.00 Build 0)  -->
<svg xmlns="http://www.w3.org/2000/svg" xmlns:xlink="http://www.w3.org/1999/xlink" version="1.1" id="Layer_1" x="0px" y="0px" viewBox="0 0 256 256" style="enable-background:new 0 0 256 256;" xml:space="preserve" width="512" height="512">
<style type="text/css">
	.st0{fill:#F9D0B4;}
	.st1{fill:#E9E9EA;}
	.st2{fill:#6D6C6B;}
	.st3{fill:#60BAE2;}
	.st4{fill:#F75C64;}
	.st5{fill:#FFCD29;}
	.st6{fill:#6DCC6D;}
	.st7{fill:#231F20;}
</style>
<g id="Layer_7">
	<path class="st0" d="M170.3,122.1c-0.6-1.5,0.1-3.1,1.5-3.7c0,0,0,0,0,0l0.1,0l-1.4-3.4l-2.1-5.1c-0.6-1.5,0.1-3.1,1.6-3.7h0   c-0.8-2.1-1.5-4.4-1.8-6.7c-0.2-1.1-0.3-2.3-0.4-3.4l0,0c0-0.5,0-1,0-1.6c0-1.6,0.1-3.1,0.4-4.7c0.1-0.5,0.2-1,0.3-1.5   c0.4-1.5,0.9-3,1.5-4.4c0.8-1.8,1.7-3.9,2.5-6c0.2-0.4,0.3-0.9,0.5-1.3c0.6-1.8,1.2-3.6,1.7-5.3c0.5-1.8,0.9-3.7,1-5.7   c0-1,0.1-2,0.1-3c0-0.1,0-0.2,0-0.3c-0.2-0.1-0.5-0.1-0.7-0.1c-20.3-0.6-31-8.7-35.2-12.7c-1-1-2.7-1-3.7,0   c-0.1,0.1-0.1,0.1-0.2,0.2C118,72,91.6,68.9,82.8,67c-0.7-0.2-1.5,0-2.1,0.5c0.8,5,3.4,11.7,5.5,16.3c1,2.2,1.6,4.6,2,7   c0.1,0.4,0.1,0.9,0.1,1.3c0,0.3,0.1,0.6,0.1,0.9c0,1,0,1.9,0,2.9l0,0c-0.1,2.2-0.5,4.5-1.1,6.6c-0.3,1.2-0.7,2.3-1.1,3.4h0   c1.5,0.6,2.2,2.3,1.6,3.7c0,0,0,0,0,0l-3.5,8.6l0.1,0c1.4,0.6,2.1,2.3,1.6,3.7l-2.1,6.1c7.7,18,25.4,29.6,45,29.7l0,0   c19-0.1,36.3-11.1,44.3-28.3L170.3,122.1z"/>
	<path class="st1" d="M110.6,102.1c-2.8,0-5.1-2.3-5-5.1s2.3-5.1,5.1-5c2.8,0,5,2.3,5,5C115.6,99.9,113.4,102.1,110.6,102.1z"/>
	<path class="st1" d="M147.9,102.1c-2.8,0-5.1-2.3-5.1-5c0-2.8,2.3-5.1,5-5.1c2.8,0,5.1,2.3,5.1,5c0,0,0,0,0,0   C153,99.8,150.7,102.1,147.9,102.1C147.9,102.1,147.9,102.1,147.9,102.1z"/>
	<path class="st2" d="M175.7,62.1L175.7,62.1c0-1,0-2,0.1-3c0-0.7,0.1-1.3,0.1-2c0.1-0.9,0.1-1.7,0.3-2.6c0.1-0.6,0.2-1.1,0.3-1.6   c0.1-0.5,0.2-0.9,0.3-1.3c0.9-2.9,2.7-4.8,6.1-4.7c0.3,0,0.7,0.1,1,0.2c1,0.3,1.9,0.9,2.5,1.7c0.3,0.3,0.5,0.6,0.7,0.9l-5.2-12.4   l-5.2-12.4c-1.3-3.2,0.1-6.8,3.3-8.1c0.3-0.1,0.7-0.3,1-0.3c-8.8-5.1-19.6-5.1-28.3,0.2c-5-8.5-14.1-13.7-24-13.7h-14.4   c-13.6,0-26.6,5.5-36.1,15.2c1.1,1.2,1.7,2.6,1.7,4.2c0,0,0,0.1,0,0.1c0,0.8-0.2,1.6-0.5,2.4L68.9,49.8c0.8-1.6,2.4-2.7,4.2-2.8   c7.4-0.3,7,8.9,7.2,16.8c0,0.5,0,1.1,0.1,1.6c0,0.7,0.1,1.4,0.2,2v0c0.6-0.5,1.4-0.6,2.1-0.5c8.9,1.9,35.2,5,53.1-17.5   c0.9-1.1,2.6-1.3,3.7-0.4c0.1,0.1,0.1,0.1,0.2,0.2c4.1,4,14.8,12.1,35.2,12.7C175.2,62,175.4,62.1,175.7,62.1z"/>
	<path class="st0" d="M169.9,83.8c2.3-5.3,5.5-13.3,5.7-18.4c0.4-8.3-0.6-18.7,7.3-18.4c1.8,0.1,3.4,1.2,4.2,2.8l-10.5-24.9   c-1.3-3.2,0.2-6.8,3.3-8.2c2.9-1.2,6.3-0.1,7.8,2.6l13.8,23.9c4.6,8.9,5.5,19.2,2.6,28.7l-5.2,16.8c-0.3,1.8-0.4,3.6-0.1,5.4   L170,106.1c-1.3-3.2-2.1-6.6-2.3-10.1l0,0C167.4,91.8,168.2,87.6,169.9,83.8z"/>
	<path class="st0" d="M128.5,157.9L128.5,157.9c-7.6,0-15.1-1.8-21.8-5.2v14.6l9.7,21.6c0.8,1.7,2.4,2.8,4.3,2.8h16.4   c1.8,0,3.4-1,4.2-2.6l10.5-21.7V152C144.7,155.9,136.7,157.9,128.5,157.9z"/>
	<path class="st0" d="M86.1,83.8c-2.3-5.3-5.5-13.3-5.7-18.4C80.1,57.1,81,46.7,73.1,47c-1.8,0.1-3.4,1.2-4.2,2.8l10.5-24.9   c1.3-3.2-0.2-6.8-3.4-8.2c-2.9-1.2-6.2-0.1-7.8,2.6L54.5,43.4C49.9,52.2,49,62.5,51.9,72l5.2,16.8c0.3,1.8,0.4,3.6,0.1,5.4   L86,106.1c1.3-3.2,2.1-6.6,2.3-10.1l0,0C88.6,91.8,87.8,87.6,86.1,83.8z"/>
	<path class="st1" d="M170,106.1l31.1-12.8c1.5-0.6,3.1,0.1,3.7,1.6l3.5,8.6l-36.4,15l-3.5-8.6C167.8,108.4,168.5,106.7,170,106.1z"/>
	<path class="st1" d="M174.7,172.5l-11.3,33.9c-0.9,2.2-3.3,3.2-5.5,2.3c-0.7-0.3-1.2-0.7-1.7-1.3l-14.9-18.5l10.5-21.7L174.7,172.5   z"/>
	<path class="st1" d="M95.1,206.4c0.9,2.2,3.3,3.2,5.5,2.3c0.7-0.3,1.2-0.7,1.7-1.3l14.4-18c-0.1-0.2-0.3-0.4-0.4-0.7l-9.7-21.6l0,0   l-22.9,5.3l0,0L95.1,206.4z"/>
	<path class="st1" d="M86,106.1L54.9,93.3c-1.5-0.6-3.1,0.1-3.7,1.6l-3.5,8.6l36.4,15l3.5-8.6C88.2,108.4,87.5,106.7,86,106.1   C86,106.1,86,106.1,86,106.1z"/>
	<path class="st3" d="M236.1,224.7L236.1,224.7c11.6-4.8,17.1-18,12.3-29.6c0,0,0,0,0,0l-36.3-90.2c-0.6-1.5-2.3-2.2-3.7-1.6   c0,0,0,0,0,0l-36.6,15.1c-1.5,0.6-2.2,2.3-1.6,3.7c0,0,0,0,0,0l36.3,90.2C211.3,223.9,224.6,229.4,236.1,224.7z"/>
	<path class="st3" d="M19.9,224.7L19.9,224.7c-11.6-4.8-17.1-18-12.3-29.6c0,0,0,0,0,0l36.3-90.2c0.6-1.5,2.3-2.2,3.7-1.6   c0,0,0,0,0,0l36.6,15.1c1.5,0.6,2.2,2.3,1.6,3.7c0,0,0,0,0,0l-36.3,90.2C44.7,223.9,31.4,229.4,19.9,224.7   C19.9,224.7,19.9,224.7,19.9,224.7z"/>
	<path class="st3" d="M29.1,226.4L29.1,226.4l1-0.1C29.7,226.3,29.4,226.4,29.1,226.4z"/>
	<path class="st3" d="M206.6,212.4l-14.8-36.7l-17.1-3.1l-11.3,33.9c-0.9,2.2-3.3,3.2-5.5,2.3c-0.7-0.3-1.2-0.7-1.7-1.3l-14.9-18.5   l0,0c-0.8,1.6-2.4,2.6-4.2,2.6h-16.4c-1.6,0-3-0.8-3.9-2.1l-14.4,18c-1.5,1.8-4.1,2.1-5.9,0.6c-0.6-0.4-1-1-1.3-1.7l-11.3-33.9   L64,176.1l-14.6,36.3c-3.1,7.6-10.1,12.9-18.2,13.9l36.7-3.1c1.9-0.2,3.7,1.3,3.8,3.2c0,0.1,0,0.2,0,0.3v22.8c0,2.2,1.8,4,4,4   h107.1c2.2,0,4-1.8,4-4v-22.8c0-2,1.6-3.5,3.5-3.5c0.1,0,0.2,0,0.3,0l31.9,2.7C215.3,224.2,209.4,219.2,206.6,212.4z"/>
	<path class="st4" d="M38,71.7h-1.8v-1.8c0-1.4-1.1-2.5-2.5-2.5s-2.5,1.1-2.5,2.5v1.8h-1.8c-1.4,0-2.5,1.1-2.5,2.5s1.1,2.5,2.5,2.5   h1.8v1.8c0,1.4,1.1,2.5,2.5,2.5c1.4,0,2.5-1.1,2.5-2.5v-1.8H38c1.4,0,2.5-1.1,2.5-2.5S39.4,71.7,38,71.7L38,71.7z"/>
	<path class="st5" d="M201.5,2c0-0.2-0.1-0.3-0.1-0.5c-0.1-0.1-0.1-0.3-0.2-0.4c-0.1-0.1-0.2-0.3-0.3-0.4c-1-0.9-2.5-0.9-3.5,0   c-0.1,0.1-0.2,0.2-0.3,0.4c-0.1,0.1-0.2,0.3-0.2,0.4c-0.1,0.2-0.1,0.3-0.1,0.5c0,0.2-0.1,0.3-0.1,0.5c0,0.2,0,0.3,0.1,0.5   c0,0.2,0.1,0.3,0.1,0.5c0.1,0.2,0.1,0.3,0.2,0.4c0.1,0.1,0.2,0.3,0.3,0.4c1,1,2.5,1,3.5,0c0,0,0,0,0,0c0.1-0.1,0.2-0.2,0.3-0.4   c0.1-0.1,0.2-0.3,0.2-0.4c0.1-0.1,0.1-0.3,0.1-0.5c0-0.2,0-0.3,0.1-0.5C201.5,2.3,201.5,2.1,201.5,2z"/>
	<path class="st5" d="M25.8,96.6c0-0.2-0.1-0.3-0.1-0.5c-0.1-0.1-0.1-0.3-0.2-0.4c-0.1-0.1-0.2-0.3-0.3-0.4c-1-0.9-2.5-0.9-3.5,0   c-0.1,0.1-0.2,0.2-0.3,0.4c-0.2,0.3-0.3,0.6-0.4,0.9c-0.1,0.3-0.1,0.7,0,1c0,0.2,0.1,0.3,0.1,0.5c0.1,0.2,0.1,0.3,0.2,0.4   c0.1,0.1,0.2,0.3,0.3,0.4c1,1,2.5,1,3.5,0c0,0,0,0,0,0c0.1-0.1,0.2-0.2,0.3-0.4c0.1-0.1,0.2-0.3,0.2-0.4c0.1-0.1,0.1-0.3,0.1-0.5   C25.9,97.2,25.9,96.9,25.8,96.6z"/>
	<path class="st3" d="M220.4,80.9c0-0.2-0.1-0.3-0.1-0.5c-0.1-0.1-0.1-0.3-0.2-0.4c-0.1-0.1-0.2-0.3-0.3-0.4c-1-0.9-2.5-0.9-3.5,0   c-0.1,0.1-0.2,0.2-0.3,0.4c-0.2,0.3-0.3,0.6-0.4,0.9c-0.1,0.3-0.1,0.7,0,1c0,0.2,0.1,0.3,0.1,0.5c0.1,0.2,0.1,0.3,0.2,0.4   c0.1,0.1,0.2,0.3,0.3,0.4c1,1,2.5,1,3.5,0c0,0,0,0,0,0c0.1-0.1,0.2-0.2,0.3-0.4c0.1-0.1,0.2-0.3,0.2-0.4c0.1-0.1,0.1-0.3,0.1-0.5   C220.5,81.5,220.5,81.2,220.4,80.9z"/>
	<path class="st6" d="M226.2,21.1c-4.1-0.8-7.2-4-8-8c0-0.1-0.1-0.2-0.2-0.2c-0.1,0-0.1,0.1-0.2,0.2c-0.8,4.1-4,7.2-8,8   c-0.1,0-0.2,0.1-0.2,0.2c0,0.1,0.1,0.1,0.2,0.2c4.1,0.8,7.2,4,8,8c0,0.1,0.1,0.2,0.2,0.2c0.1,0,0.1-0.1,0.2-0.2c0.8-4.1,4-7.2,8-8   c0.1,0,0.2-0.1,0.2-0.2C226.3,21.2,226.3,21.1,226.2,21.1z"/>
	<path class="st7" d="M144.9,133.2c-0.8,0-1.6-0.4-2.1-1.1c-5.1-7.5-15.3-9.5-22.8-4.4c-1.7,1.2-3.3,2.7-4.4,4.4   c-0.8,1.1-2.3,1.4-3.5,0.7s-1.4-2.3-0.7-3.5c6.6-9.8,19.9-12.4,29.8-5.8c2.3,1.5,4.2,3.5,5.8,5.8c0.8,1.1,0.5,2.7-0.7,3.5   C145.9,133.1,145.4,133.2,144.9,133.2L144.9,133.2z"/>
	<path class="st7" d="M110.6,104.6c-4.2,0-7.6-3.4-7.5-7.6c0-4.2,3.4-7.6,7.6-7.5c4.2,0,7.5,3.4,7.5,7.5   C118.1,101.2,114.8,104.6,110.6,104.6z M110.6,94.5c-0.6,0-1.2,0.2-1.6,0.6c-1.1,0.9-1.2,2.5-0.3,3.6s2.5,1.2,3.6,0.3   c0.6-0.5,0.9-1.2,0.9-2c0-1.2-0.9-2.3-2.1-2.5C110.9,94.5,110.7,94.5,110.6,94.5z"/>
	<path class="st7" d="M147.9,104.6c-4.2,0-7.6-3.4-7.6-7.5c0-4.2,3.4-7.6,7.5-7.6c4.2,0,7.6,3.4,7.6,7.5c0,0,0,0,0,0   C155.5,101.2,152.1,104.6,147.9,104.6z M147.9,94.5c-0.6,0-1.2,0.2-1.6,0.6c-1.1,0.9-1.2,2.5-0.4,3.6c0.5,0.6,1.2,0.9,2,0.9   c1.4,0,2.5-1.1,2.5-2.6c0-1.2-0.9-2.3-2.1-2.5C148.2,94.5,148.1,94.5,147.9,94.5L147.9,94.5z"/>
	<path class="st7" d="M95.4,70.8c-4.4,0-8.8-0.4-13.1-1.3c0,0-0.1,0-0.1,0c-1.1,0.8-2.7,0.6-3.5-0.5c-0.2-0.3-0.4-0.7-0.4-1   c0,0,0-0.1,0-0.2C78,67,78,66.3,77.9,65.5c0-0.5,0-1.1-0.1-1.6c0-0.6,0-1.2,0-1.8c-0.1-4.7-0.2-10.1-2.2-11.9   c-0.7-0.6-1.5-0.8-2.4-0.7c-0.3,0-1.2,0.1-2.2,1.6c-0.7,1.2-2.3,1.5-3.4,0.8c-1-0.6-1.5-2-1-3.1L77.1,24c0.2-0.4,0.3-0.9,0.3-1.3   c0-0.1,0-0.1,0-0.2c0-0.9-0.4-1.8-1-2.5c-0.9-1-0.9-2.5,0-3.5c9.9-10.2,23.6-16,37.9-16h14.4c9.9,0.1,19.1,4.8,24.8,12.9   c9.1-4.6,19.9-4.2,28.7,1c1.2,0.7,1.6,2.2,0.9,3.4c-0.3,0.6-0.9,1-1.6,1.2c-1.2,0.3-2.1,1.1-2.6,2.2c-0.3,0.9-0.3,1.9,0,2.8   l10.5,24.9c0.5,1.3-0.1,2.7-1.3,3.3c-1.1,0.5-2.4,0.1-3.1-1c-0.1-0.2-0.3-0.4-0.5-0.7c-0.3-0.4-0.8-0.7-1.2-0.9   c-0.1,0-0.3-0.1-0.5-0.1c-1.6-0.1-2.8,0.4-3.6,2.9c-0.1,0.3-0.2,0.7-0.3,1.1c-0.1,0.5-0.2,0.9-0.2,1.4c-0.1,0.7-0.2,1.5-0.2,2.4   c0,0.6-0.1,1.3-0.1,1.9c0,1-0.1,1.9-0.1,2.9c0,0.8-0.4,1.5-1.1,2c-0.6,0.5-1.5,0.6-2.2,0.4l-0.1,0c-20.7-0.6-31.9-8.7-36.8-13.4   c-0.1-0.1-0.1-0.1-0.2,0c0,0,0,0,0,0C124.9,67.3,107.7,70.8,95.4,70.8z M82.9,64.5c0.1,0,0.2,0,0.4,0.1c9.7,2,33.9,4.5,50.6-16.6   c1.8-2.2,5-2.6,7.2-0.8c0.1,0.1,0.3,0.2,0.4,0.4c3.4,3.3,13.1,10.9,31.7,11.9c0-0.1,0-0.2,0-0.4c0-0.7,0.1-1.4,0.1-2.1   c0.1-1,0.2-1.9,0.3-2.8c0.1-0.7,0.2-1.3,0.3-1.8s0.3-1,0.4-1.5c1.6-5,4.9-6.3,7.8-6.4l-7.8-18.6c-1.3-3.1-0.7-6.6,1.5-9.1   c-7.2-2.7-15.3-2-21.9,2c-1.2,0.7-2.7,0.3-3.4-0.9c0,0,0,0,0,0c-4.6-7.7-12.9-12.4-21.8-12.5h-14.4c-12.2,0-24,4.7-32.8,13.1   c0.3,0.5,0.5,1.1,0.6,1.7c0.2,0.7,0.3,1.3,0.3,2c0,0.1,0,0.2,0,0.3c0,1.2-0.2,2.3-0.7,3.4l-7.8,18.6c1.9,0,3.8,0.7,5.2,2.1   c3.5,3.3,3.6,9.4,3.8,15.4c0,0.6,0,1.2,0,1.8C82.9,64,82.9,64.3,82.9,64.5z"/>
	<path class="st7" d="M128.5,160.4c-20.6,0-39.1-12.3-47.3-31.2c-0.2-0.6-0.3-1.2-0.1-1.8l2.1-6.1c0,0,0-0.1,0-0.1l0,0   c0,0,0-0.1,0-0.1c0-0.2-0.1-0.3-0.2-0.4c-1.3-0.5-1.9-2-1.4-3.3l3.5-8.6c0,0,0-0.1,0-0.1c0-0.1-0.1-0.3-0.2-0.3   c-1.3-0.5-1.9-2-1.4-3.2c0.4-1,0.8-2.1,1-3.2c0.6-2,0.9-4,1.1-6.1c0.1-0.9,0.1-1.8,0-2.6c0-0.3,0-0.5-0.1-0.8   c0-0.4-0.1-0.8-0.1-1.3c-0.3-2.2-0.9-4.3-1.8-6.4C81.7,80,79,73.1,78.2,67.9c-0.1-0.9,0.2-1.8,1-2.4c1.2-0.9,2.7-1.2,4.1-0.9   c9.7,2,33.9,4.5,50.7-16.6c1.8-2.2,5-2.6,7.2-0.8c0.1,0.1,0.3,0.2,0.4,0.4c3.5,3.4,13.7,11.4,33.5,12c0.5,0,1,0.1,1.4,0.3   c1,0.3,1.7,1.3,1.7,2.4v0.2c0,1.1-0.1,2.2-0.1,3.2c-0.1,2.1-0.5,4.2-1.1,6.2c-0.4,1.7-1,3.5-1.8,5.5c-0.2,0.5-0.3,0.9-0.5,1.4   c-0.8,2-1.6,4.1-2.5,6.2c-0.6,1.3-1,2.6-1.4,4c-0.1,0.5-0.2,0.9-0.3,1.4c-0.2,1.4-0.4,2.8-0.4,4.2c0,0.5,0,0.9,0,1.4   c0.1,1.1,0.2,2.1,0.4,3.1c0.4,2.1,0.9,4.2,1.7,6.2c0.5,1.3-0.1,2.7-1.4,3.2c-0.2,0.1-0.3,0.3-0.2,0.5c0,0,0,0,0,0l3.5,8.6   c0.5,1.3-0.1,2.7-1.4,3.3c0,0,0,0,0,0c-0.2,0-0.3,0.2-0.3,0.4c0,0,0,0.1,0,0.1c0,0,0,0.1,0,0.1l2.6,7.4c0.2,0.6,0.2,1.3-0.1,1.9   C166.7,148.7,148.5,160.3,128.5,160.4z M86.3,128.1c10.6,23.3,38,33.7,61.4,23.2c9.8-4.4,17.8-12.2,22.5-21.9L168,123   c-0.7-1.9-0.4-4,0.9-5.5l-2.8-6.8c-0.8-1.9-0.4-4,0.9-5.5c-0.6-1.8-1-3.6-1.3-5.4c-0.2-1.2-0.4-2.4-0.4-3.7c0-0.6-0.1-1.1-0.1-1.7   c0-1.7,0.1-3.4,0.4-5.1c0.1-0.6,0.2-1.1,0.3-1.7c0.4-1.7,1-3.3,1.6-4.9c0.9-2,1.7-4,2.4-5.9c0.2-0.4,0.3-0.9,0.5-1.3   c0.7-1.9,1.2-3.6,1.6-5.1c0.5-1.7,0.8-3.4,0.9-5.1c0-0.3,0-0.6,0-0.9c-19.7-1-30.4-8.7-35.1-13.3c0,0-0.1,0-0.1,0   c0,0-0.1,0-0.1,0.1c-18,22.6-44.5,20.4-54.2,18.6c1.2,4.5,2.8,8.8,4.7,13.1c1.1,2.5,1.8,5.1,2.2,7.7c0.1,0.5,0.1,1,0.2,1.5   c0,0.4,0.1,0.7,0.1,1c0.1,1.1,0.1,2.1,0,3.2c-0.2,2.4-0.6,4.8-1.2,7.1c-0.2,0.7-0.4,1.3-0.6,1.9c1.3,1.5,1.7,3.7,0.9,5.6l-2.8,6.8   c1.3,1.5,1.6,3.6,0.9,5.5L86.3,128.1z"/>
	<path class="st7" d="M227.5,228.9c-10.2,0-19.4-6.2-23.3-15.6L168,123.1c-1.1-2.7,0.2-5.8,2.9-7l36.6-15.1c2.7-1.1,5.9,0.2,7,2.9   l36.3,90.2c5.3,12.8-0.9,27.5-13.7,32.8l0,0C234,228.2,230.8,228.9,227.5,228.9z M209.5,105.6c0,0-0.1,0-0.1,0l-36.6,15.1   c-0.2,0.1-0.3,0.3-0.2,0.5c0,0,0,0,0,0l36.3,90.2c4.2,10.3,16,15.2,26.3,10.9l0,0c10.3-4.2,15.2-16,11-26.3l-36.3-90.2   C209.8,105.7,209.7,105.6,209.5,105.6L209.5,105.6z"/>
	<path class="st7" d="M171.9,120.9c-1,0-1.9-0.6-2.3-1.6l-3.5-8.6c-1.1-2.7,0.2-5.9,2.9-7l0,0L200.2,91c2.7-1.1,5.9,0.2,7,2.9   l3.5,8.6c0.5,1.3-0.1,2.7-1.4,3.3l-36.4,15C172.6,120.8,172.3,120.9,171.9,120.9z M170.9,108.4c-0.2,0.1-0.3,0.3-0.2,0.5l2.6,6.3   l31.8-13.1l-2.6-6.3c-0.1-0.2-0.3-0.3-0.5-0.2c0,0,0,0,0,0L170.9,108.4z"/>
	<path class="st7" d="M170,108.6c-1,0-1.9-0.6-2.3-1.6c-1.4-3.5-2.2-7.1-2.4-10.8c-0.3-4.6,0.5-9.2,2.4-13.4l0,0   c3.4-7.7,5.3-13.9,5.5-17.5c0-1.1,0.1-2.2,0.1-3.3c0.1-6,0.3-12.2,3.8-15.4c1.4-1.3,3.3-2,5.2-2.1l-7.8-18.6   c-1.9-4.5,0.2-9.6,4.7-11.4c4.1-1.7,8.8-0.1,11,3.7l13.8,23.9c0,0,0,0.1,0.1,0.1c4.9,9.4,5.9,20.4,2.7,30.6l-5.2,16.7   c-0.3,1.5-0.3,3-0.1,4.5c0.1,1.1-0.5,2.2-1.5,2.6l-28.8,11.8C170.6,108.5,170.3,108.6,170,108.6z M182.5,49.5   c-0.8-0.1-1.6,0.2-2.1,0.7c-1.9,1.8-2.1,7.2-2.2,11.9c0,1.2-0.1,2.3-0.1,3.4c-0.2,5.4-3.3,13.5-5.9,19.3l0,0c-1.5,3.5-2.2,7.3-2,11   c0.1,2.3,0.6,4.7,1.3,6.9l24.6-10.1c-0.1-1.5,0-2.9,0.4-4.4c0-0.1,0-0.1,0-0.2l5.2-16.8c2.8-8.9,1.9-18.5-2.4-26.7l-13.7-23.9   c-1-1.8-3.3-2.4-5.1-1.4c-1.6,0.9-2.3,2.9-1.6,4.7l10.5,24.9c0.5,1.3-0.1,2.7-1.3,3.3c-1.1,0.5-2.4,0.1-3.1-1   c-1-1.6-1.9-1.6-2.2-1.6C182.7,49.5,182.6,49.5,182.5,49.5L182.5,49.5z M169.9,83.8L169.9,83.8z"/>
	<path class="st7" d="M189.9,69.1h-0.1c-1.4-0.1-2.4-1.2-2.4-2.6c0.1-2.7,0-10.7-2.2-14.8c-0.6-1.2-0.2-2.7,1.1-3.4   c1.2-0.6,2.7-0.2,3.4,1.1l0,0c3.2,6.2,2.7,16.9,2.7,17.3C192.4,68,191.3,69.1,189.9,69.1z"/>
	<path class="st7" d="M159.4,211.5c-2,0-3.9-0.9-5.2-2.5l-14.9-18.5c-0.6-0.8-0.7-1.8-0.3-2.7l10.5-21.7c0.5-1,1.7-1.6,2.8-1.3   l22.9,5.3c1.3,0.3,2.2,1.7,1.9,3c0,0.1,0,0.2-0.1,0.2l-11.3,33.9c0,0.1,0,0.1-0.1,0.1c-0.9,2.2-2.9,3.8-5.2,4.1   C160.1,211.5,159.8,211.5,159.4,211.5z M144.2,188.6l13.9,17.3c0.6,0.7,1.7,0.9,2.4,0.3c0.2-0.2,0.4-0.4,0.5-0.6l10.4-31.2   l-18.2-4.2L144.2,188.6z"/>
	<path class="st7" d="M99.1,211.5c-0.3,0-0.7,0-1-0.1c-2.4-0.3-4.4-1.9-5.2-4.1c0,0,0-0.1-0.1-0.1l-11.3-33.9   c-0.4-1.3,0.3-2.7,1.6-3.2c0.1,0,0.2,0,0.2-0.1l22.9-5.3c1.2-0.3,2.4,0.3,2.8,1.4l9.7,21.6c0,0.1,0.1,0.2,0.2,0.3   c0.6,0.9,0.5,2.1-0.1,2.9l-14.4,18C103,210.6,101.1,211.5,99.1,211.5z M97.5,205.5c0.4,0.9,1.4,1.3,2.3,0.9   c0.2-0.1,0.5-0.3,0.6-0.5l13.4-16.7l-8.6-19l-18.2,4.2L97.5,205.5z"/>
	<path class="st7" d="M137.1,194.1h-16.4c-2.8,0-5.4-1.7-6.5-4.2l-9.7-21.6c-0.1-0.3-0.2-0.7-0.2-1v-14.6c0-1.4,1.1-2.5,2.5-2.5   c0.4,0,0.8,0.1,1.1,0.3c6.4,3.2,13.5,4.9,20.7,4.9l0,0c7.7,0,15.3-1.9,22.1-5.6c1.2-0.7,2.7-0.2,3.4,1c0.2,0.4,0.3,0.8,0.3,1.2   v15.3c0,0.4-0.1,0.8-0.2,1.1L143.5,190C142.3,192.5,139.8,194.1,137.1,194.1z M109.2,166.7l9.5,21.1c0.4,0.8,1.1,1.3,2,1.3h16.4   c0.8,0,1.6-0.5,2-1.2l10.3-21.2V156c-6.5,2.9-13.6,4.4-20.8,4.4c-6.6,0-13.2-1.3-19.3-3.8L109.2,166.7z"/>
	<path class="st7" d="M28.5,228.9c-13.9,0-25.1-11.3-25.1-25.2c0-3.3,0.6-6.5,1.9-9.5L41.5,104c1.1-2.7,4.3-4.1,7-2.9c0,0,0,0,0,0   l36.6,15.1c2.7,1.1,4,4.3,2.9,7l-36.3,90.2C47.9,222.7,38.7,228.9,28.5,228.9z M46.5,105.6c-0.1,0-0.3,0.1-0.3,0.2L9.9,196.1   c-4.3,10.3,0.5,22.1,10.8,26.4s22.1-0.5,26.4-10.8c0-0.1,0.1-0.2,0.1-0.3l36.3-90.2c0-0.1,0-0.2,0-0.3c0-0.1-0.1-0.2-0.2-0.2   l-36.6-15.1C46.6,105.7,46.5,105.6,46.5,105.6z"/>
	<path class="st7" d="M84.1,120.9c-0.3,0-0.6-0.1-1-0.2l-36.4-15c-1.3-0.5-1.9-2-1.4-3.3l3.5-8.6c1.1-2.7,4.3-4,7-2.9L87,103.8l0,0   c2.7,1.1,4,4.3,2.9,7l-3.5,8.6C86,120.3,85.1,120.9,84.1,120.9z M50.9,102l31.8,13.1l2.6-6.3c0.1-0.2,0-0.4-0.2-0.5L53.9,95.6   c-0.2-0.1-0.4,0-0.5,0.2L50.9,102z"/>
	<path class="st7" d="M86,108.6c-0.3,0-0.6-0.1-1-0.2L56.3,96.6c-1-0.4-1.7-1.5-1.5-2.6c0.2-1.5,0.2-3-0.1-4.5l-5.2-16.7   c-3.2-10.2-2.2-21.1,2.7-30.6c0,0,0-0.1,0.1-0.1l13.8-23.9C68.5,14,73.8,12.5,78,15c3.8,2.2,5.4,6.9,3.7,11l-7.8,18.6   c1.9,0,3.8,0.7,5.2,2.1c3.5,3.3,3.6,9.4,3.8,15.4c0,1.1,0.1,2.2,0.1,3.3c0.2,3.6,2.1,9.8,5.5,17.5c1.8,4.2,2.7,8.8,2.4,13.4   c-0.2,3.7-1.1,7.4-2.4,10.8C88,108,87.1,108.6,86,108.6L86,108.6z M59.9,92.6l24.6,10.1c0.7-2.2,1.1-4.6,1.3-6.9   c0.2-3.8-0.4-7.6-2-11l0,0c-2.6-5.8-5.7-13.9-5.9-19.3c-0.1-1.1-0.1-2.3-0.1-3.4c-0.1-4.7-0.2-10.1-2.2-11.9   c-0.7-0.6-1.5-0.8-2.4-0.7c-0.3,0-1.2,0.1-2.2,1.6c-0.7,1.2-2.3,1.5-3.4,0.8c-1-0.6-1.5-2-1-3.1L77.1,24c0.8-1.9-0.1-4.1-2-4.9   c-1.7-0.7-3.8-0.1-4.7,1.6L56.7,44.6c-4.3,8.3-5.1,17.9-2.4,26.7l5.2,16.8c0,0.1,0,0.1,0,0.2C59.9,89.7,60,91.2,59.9,92.6z"/>
	<path class="st7" d="M66.1,69.1c-1.3,0-2.4-1.1-2.5-2.4c0-0.5-0.5-11.2,2.7-17.3c0.6-1.2,2.1-1.7,3.4-1.1c1.2,0.6,1.7,2.1,1.1,3.4   c-2.1,4.1-2.3,12.1-2.2,14.8c0.1,1.4-1,2.5-2.4,2.6L66.1,69.1z"/>
	<path class="st7" d="M29.1,228.9c-1.4,0-2.5-1.1-2.5-2.5c0-1.4,1.1-2.5,2.4-2.5c0.2,0,0.5,0,0.7,0l0.1,0c1.4-0.1,2.6,1,2.7,2.3   c0.1,1.4-0.9,2.5-2.3,2.7l-1,0.1C29.2,228.9,29.2,228.9,29.1,228.9z"/>
	<path class="st7" d="M182.8,256H75.7c-3.6,0-6.5-2.9-6.5-6.5v-22.8c0-0.6-0.5-1-1-1c0,0-0.1,0-0.1,0l-36.7,3.1   c-1.4,0.1-2.6-0.9-2.7-2.3c-0.1-1.3,0.9-2.5,2.2-2.7c7.2-0.9,13.5-5.6,16.2-12.3l14.6-36.2c0.3-0.8,1-1.4,1.9-1.5l19.8-3.6   c1.2-0.2,2.4,0.5,2.8,1.7l11.3,33.8c0.4,0.9,1.4,1.3,2.3,0.9c0.2-0.1,0.5-0.3,0.6-0.5l14.4-18c0.9-1.1,2.4-1.2,3.5-0.4   c0.2,0.2,0.4,0.4,0.5,0.6c0.4,0.6,1.1,1,1.8,1h16.4c0.8,0,1.6-0.5,2-1.2c0.6-1.2,2.1-1.8,3.3-1.2c0.3,0.2,0.6,0.4,0.9,0.7   l14.9,18.5c0.6,0.7,1.7,0.9,2.4,0.3c0.2-0.2,0.4-0.4,0.5-0.6l11.3-33.8c0.4-1.2,1.6-1.9,2.8-1.7l17.1,3.1c0.8,0.2,1.6,0.7,1.9,1.5   l14.8,36.7c2.5,6.1,7.8,10.5,14.2,12c1.3,0.3,2.2,1.6,1.9,3c-0.3,1.2-1.4,2-2.6,1.9l-31.9-2.7c-0.6,0-1.1,0.4-1.1,1   c0,0,0,0.1,0,0.1v22.8C189.3,253.1,186.4,256,182.8,256z M68.2,220.6c3.3,0,6,2.7,6,6c0,0,0,0,0,0v22.8c0,0.8,0.7,1.5,1.5,1.5   h107.1c0.8,0,1.5-0.7,1.5-1.5v-22.8c0-3.3,2.7-6,6-6c0.2,0,0.3,0,0.5,0l19.7,1.6c-2.7-2.5-4.9-5.6-6.3-9l0,0L190,177.8l-13.6-2.4   l-10.6,31.8c0,0.1,0,0.1-0.1,0.1c-1.4,3.4-5.3,5.1-8.7,3.7c-1.1-0.4-2-1.1-2.7-2l-13-16.2c-1.2,0.8-2.6,1.3-4.1,1.3h-16.4   c-1.3,0-2.5-0.3-3.6-1L104.3,209c-2.3,2.9-6.5,3.3-9.4,1c-0.9-0.7-1.6-1.6-2-2.7c0,0,0-0.1-0.1-0.1l-10.6-31.8l-16.3,2.9l-14.1,35   c-1.5,3.5-3.7,6.7-6.6,9.3l22.5-1.9C67.8,220.7,68,220.6,68.2,220.6z"/>
	<path class="st7" d="M129.3,211.7c-0.2,0-0.3,0-0.5-0.1c-0.2,0-0.3-0.1-0.5-0.1c-0.2-0.1-0.3-0.1-0.4-0.2c-0.1-0.1-0.3-0.2-0.4-0.3   c-1-1-1-2.5,0-3.5c0,0,0,0,0,0c0.1-0.1,0.2-0.2,0.4-0.3c0.1-0.1,0.3-0.2,0.4-0.2c0.2-0.1,0.3-0.1,0.5-0.1c1.4-0.3,2.7,0.6,2.9,2   c0.3,1.4-0.6,2.7-2,2.9C129.6,211.7,129.4,211.7,129.3,211.7L129.3,211.7z"/>
	<path class="st7" d="M129.3,224.8c-0.2,0-0.3,0-0.5-0.1c-0.2,0-0.3-0.1-0.5-0.1c-0.2-0.1-0.3-0.1-0.4-0.2c-0.1-0.1-0.3-0.2-0.4-0.3   c-1-1-1-2.5,0-3.5c0,0,0,0,0,0c0.1-0.1,0.2-0.2,0.4-0.3c0.1-0.1,0.3-0.2,0.4-0.2c0.9-0.4,2-0.2,2.7,0.5c1,1,1,2.6,0,3.5   C130.6,224.5,129.9,224.8,129.3,224.8L129.3,224.8z"/>
	<path class="st7" d="M129.3,237.9c-0.2,0-0.3,0-0.5-0.1c-0.2,0-0.3-0.1-0.5-0.1c-0.2-0.1-0.3-0.1-0.4-0.2c-0.1-0.1-0.3-0.2-0.4-0.3   c-0.5-0.5-0.7-1.1-0.7-1.8c0-0.2,0-0.3,0.1-0.5c0-0.2,0.1-0.3,0.2-0.5c0.1-0.2,0.1-0.3,0.2-0.4c0.2-0.3,0.4-0.5,0.7-0.7   c0.1-0.1,0.3-0.2,0.4-0.2c0.2-0.1,0.3-0.1,0.5-0.1c0.8-0.2,1.7,0.1,2.2,0.7c0.1,0.1,0.2,0.2,0.3,0.4c0.1,0.1,0.2,0.3,0.2,0.4   c0.1,0.2,0.1,0.3,0.1,0.5c0,0.2,0.1,0.3,0.1,0.5C131.8,236.8,130.6,237.9,129.3,237.9C129.3,237.9,129.3,237.9,129.3,237.9z"/>
</g>
</svg>
