<svg id="Layer_1" enable-background="new 0 0 512 512" height="512" viewBox="0 0 512 512" width="512" xmlns="http://www.w3.org/2000/svg"><g><path d="m336.333 335.267h-96.4c-79.258 0-143.533-64.132-143.533-143.533 0-79.145 64.389-143.534 143.533-143.534s143.534 64.389 143.534 143.533c0 8.284-6.716 15-15 15s-15-6.716-15-15c0-27.166-22.101-49.267-49.267-49.267-36.025 0-65.333 29.308-65.333 65.333 0 53.743 43.724 97.467 97.467 97.467 8.284 0 15 6.716 15 15s-6.716 15.001-15.001 15.001z" fill="#17bcfe"/><path d="m336.333 335.267c8.284 0 15-6.716 15-15s-6.716-15-15-15c-53.743 0-97.467-43.724-97.467-97.467 0-36.025 29.309-65.333 65.333-65.333 27.166 0 49.267 22.101 49.267 49.267 0 8.284 6.716 15 15 15s15-6.716 15-15c0-79.145-64.389-143.533-143.534-143.533-15.411 0-30.258 2.451-44.183 6.967v273.169c13.92 4.493 28.766 6.93 44.183 6.93z" fill="#0096ff"/><path d="m497 512h-482c-8.284 0-15-6.716-15-15v-301.25c0-107.937 87.813-195.75 195.75-195.75 103.515 0 187.717 84.202 187.717 187.701v4.033c0 8.284-6.716 15-15 15s-15-6.716-15-15c0-62.603-50.931-113.533-113.534-113.533s-113.533 50.93-113.533 113.532 50.931 113.533 113.533 113.533h257.067c8.284 0 15 6.716 15 15v176.734c0 8.284-6.716 15-15 15z" fill="#9bf0ff"/><g fill="#2de1fd"><path d="m512 497v-176.733c0-8.284-6.716-15-15-15h-257.067c-15.663 0-30.596-3.189-44.183-8.951v215.684h301.25c8.284 0 15-6.716 15-15z"/><path d="m239.933 78.2c62.603 0 113.534 50.931 113.534 113.533 0 8.284 6.716 15 15 15s15-6.716 15-15v-4.033c0-103.498-84.202-187.7-187.717-187.7v87.151c13.587-5.762 28.52-8.951 44.183-8.951z"/><path d="m499.448 392.346c-5.025-.815-9.857.936-13.161 4.305-5.204 5.147-12.092 7.981-19.412 7.981-9.822 0-16.16-4.814-19.657-8.224-10.857-10.793-25.267-16.736-40.593-16.736-15.299 0-29.683 5.92-40.534 16.678-3.548 3.413-9.778 8.282-19.716 8.282-9.822 0-16.16-4.814-19.657-8.224-10.857-10.793-25.267-16.736-40.593-16.736-15.299 0-29.683 5.92-40.534 16.678-3.548 3.413-9.778 8.282-19.716 8.282-9.829 0-16.157-4.812-19.656-8.224-10.858-10.793-25.268-16.736-40.594-16.736-15.299 0-29.683 5.92-40.534 16.678-3.548 3.413-9.778 8.282-19.716 8.282-9.829 0-16.157-4.812-19.656-8.224-10.858-10.793-25.268-16.736-40.594-16.736-15.392 0-29.856 5.992-40.73 16.873l.016.015c-2.847 2.955-4.404 7.022-4.405 11.018l-.002 89.484c.032 8.255 6.732 14.938 14.996 14.938h482c8.284 0 15-6.716 15-15v-89.451c0-7.421-5.227-14.015-12.552-15.203z"/></g><path d="m512 497v-89.451c0-7.421-5.227-14.014-12.552-15.203-5.025-.815-9.857.936-13.161 4.305-5.204 5.147-12.092 7.981-19.412 7.981-9.822 0-16.16-4.814-19.657-8.224-10.857-10.793-25.267-16.736-40.593-16.736-15.299 0-29.683 5.92-40.534 16.678-3.548 3.413-9.778 8.282-19.716 8.282-9.822 0-16.16-4.814-19.657-8.224-10.857-10.793-25.267-16.736-40.593-16.736-15.299 0-29.683 5.92-40.534 16.678-3.548 3.413-9.778 8.282-19.716 8.282-9.829 0-16.157-4.812-19.656-8.224-3.201-3.182-6.718-5.93-10.469-8.241v123.833h301.25c8.284 0 15-6.716 15-15z" fill="#17bcfe"/></g></svg>