<svg id="Flat" height="512" viewBox="0 0 512 512" width="512" xmlns="http://www.w3.org/2000/svg"><path d="m488 424a32 32 0 0 1 -32-32v-128a244.484 244.484 0 0 0 -23-104.1 31.945 31.945 0 0 0 31-31.9h-49.323c-1.825-2.668-3.547-5.431-5.475-8-36.688-48.912-91.702-80-153.202-80-110.457 0-200 100.288-200 224v128a32 32 0 0 1 -32 32h-8v4c0 26.51 39.4 60 88 60s88-33.49 88-60h128c0 26.51 39.4 60 88 60s88-33.49 88-60v-4z" fill="#a32d1e"/><ellipse cx="80" cy="248" fill="#fedac5" rx="32" ry="40"/><ellipse cx="432" cy="248" fill="#fedac5" rx="32" ry="40"/><path d="m364 160c-86.2 0-159.521-29.679-172-72-62.161 28.161-104 94.642-104 175.707 0 106.039 75.216 192 168 192s168-85.961 168-192a213.774 213.774 0 0 0 -17-84.189 32.548 32.548 0 0 0 -31.248-19.734q-5.825.216-11.752.216z" fill="#fee8d6"/><ellipse cx="152" cy="264" fill="#fed4c5" rx="24" ry="16"/><ellipse cx="360" cy="264" fill="#fed4c5" rx="24" ry="16"/><g fill="#915c39"><path d="m192 247.707a16 16 0 1 1 16-16 16.016 16.016 0 0 1 -16 16z"/><path d="m152 231.707a8 8 0 0 1 -8-8 40.047 40.047 0 0 1 40-40 8 8 0 0 1 0 16 24.027 24.027 0 0 0 -24 24 8 8 0 0 1 -8 8z"/><path d="m320 247.707a16 16 0 1 1 16-16 16.016 16.016 0 0 1 -16 16z"/><path d="m360 232a8 8 0 0 1 -8-8 24.027 24.027 0 0 0 -24-24 8 8 0 0 1 0-16 40.047 40.047 0 0 1 40 40 8 8 0 0 1 -8 8z"/><path d="m264 264h-16a8 8 0 0 1 -7.891-9.316l8-48a8 8 0 0 1 15.782 2.632l-6.446 38.684h6.555a8 8 0 0 1 0 16z"/><path d="m256 328c-30.117 0-45.168-19.227-54.914-35.977a8 8 0 0 1 13.828-8.046c11.734 20.168 23.254 28.023 41.086 28.023s29.352-7.855 41.086-28.023a8 8 0 0 1 13.828 8.046c-9.746 16.75-24.797 35.977-54.914 35.977z"/></g></svg>