<svg id="Flat" height="512" viewBox="0 0 512 512" width="512" xmlns="http://www.w3.org/2000/svg"><path d="m160 96h192a80 80 0 0 1 80 80v64a0 0 0 0 1 0 0h-352a0 0 0 0 1 0 0v-64a80 80 0 0 1 80-80z" fill="#f9bb2a"/><ellipse cx="80" cy="264" fill="#fedac5" rx="32" ry="40"/><ellipse cx="432" cy="264" fill="#fedac5" rx="32" ry="40"/><path d="m424 279.707c0 106.039-75.216 192.293-168 192.293s-168-86.254-168-192.293 75.216-192 168-192 168 85.961 168 192z" fill="#fee8d6"/><ellipse cx="152" cy="280" fill="#fed4c5" rx="24" ry="16"/><ellipse cx="360" cy="280" fill="#fed4c5" rx="24" ry="16"/><g fill="#915c39"><path d="m192 263.7a16 16 0 1 1 16-16 16.021 16.021 0 0 1 -16 16z"/><path d="m152 247.7a8 8 0 0 1 -8-8 40.047 40.047 0 0 1 40-40 8 8 0 0 1 0 16 24.027 24.027 0 0 0 -24 24 8 8 0 0 1 -8 8z"/><path d="m320 263.7a16 16 0 1 1 16-16 16.021 16.021 0 0 1 -16 16z"/><path d="m360 248a8 8 0 0 1 -8-8 24.027 24.027 0 0 0 -24-24 8 8 0 0 1 0-16 40.047 40.047 0 0 1 40 40 8 8 0 0 1 -8 8z"/><path d="m264 280h-16a8 8 0 0 1 -7.891-9.312l8-48a8 8 0 1 1 15.782 2.624l-6.446 38.688h6.555a8 8 0 0 1 0 16z"/></g><path d="m368 96a48 48 0 0 0 48-48v-8h-160c-61.856 0-112 25.072-112 56s50.144 56 112 56h144a48.141 48.141 0 0 0 48-48v-8z" fill="#eca518"/><path d="m256 344c-19.273 0-33.383-5.688-45.742-18.43a8 8 0 0 1 11.484-11.14c6.836 7.047 15.711 13.57 34.258 13.57s27.422-6.523 34.258-13.57a8 8 0 1 1 11.484 11.14c-12.359 12.742-26.469 18.43-45.742 18.43z" fill="#915c39"/></svg>