<?xml version="1.0" encoding="iso-8859-1"?>
<!-- Generator: Adobe Illustrator 19.0.0, SVG Export Plug-In . SVG Version: 6.00 Build 0)  -->
<svg version="1.1" id="Capa_1" xmlns="http://www.w3.org/2000/svg" xmlns:xlink="http://www.w3.org/1999/xlink" x="0px" y="0px"
	 viewBox="0 0 512 512" style="enable-background:new 0 0 512 512;" xml:space="preserve">
<path style="fill:#78B9EB;" d="M400.131,110.11c-11.599-0.034-23.114,1.947-34.036,5.842c0.085-1.947,0.169-3.895,0.169-5.842
	c0-56.109-45.492-101.601-101.601-101.601S163.062,54.001,163.062,110.11c-0.017,4.42,0.262,8.831,0.847,13.208
	c-8.382-3.183-17.281-4.784-26.247-4.741c-36.238,0-67.471,25.527-74.677,61.045c-36.424,8.518-59.055,44.95-50.538,81.374
	c7.163,30.641,34.485,52.316,65.947,52.316h135.468l16.933-33.867h-67.734l50.8-101.601h101.601l-33.867,67.734h67.734
	l-33.867,67.734h84.667c2.879,0,5.673-0.085,8.467-0.339c55.923-4.581,97.554-53.62,92.973-109.551
	C497.252,150.632,453.098,110.017,400.131,110.11z"/>
<polygon style="fill:#FF9811;" points="281.596,245.577 315.463,177.844 213.863,177.844 163.062,279.444 230.796,279.444 
	213.863,313.311 196.929,347.178 252.471,347.178 239.263,465.712 315.463,313.311 349.33,245.577 "/>
<g>
	<path style="fill:#231F20;" d="M400.131,321.778h-84.667c-4.674,0.025-8.484-3.742-8.509-8.424
		c-0.008-1.329,0.296-2.642,0.889-3.827l27.788-55.482h-54.035c-4.674,0.025-8.484-3.742-8.509-8.424
		c-0.008-1.329,0.296-2.642,0.889-3.827l27.788-55.482h-82.669l-42.334,84.667h54.035c4.674,0,8.467,3.785,8.467,8.467
		c0,1.312-0.305,2.616-0.889,3.785l-16.933,33.867c-1.431,2.87-4.369,4.682-7.578,4.682H78.395
		c-42.088,0.008-76.209-34.096-76.226-76.175c-0.008-33.444,21.785-62.976,53.738-72.839c10.025-36.915,43.502-62.569,81.755-62.654
		c5.69-0.008,11.362,0.559,16.933,1.693c0-0.559,0-1.126,0-1.693C154.57,49.327,203.829,0.025,264.621,0
		c58.683-0.025,107.07,46,109.974,104.606c59.182-13.885,118.416,22.826,132.301,82.009s-22.826,118.416-82.009,132.301
		c-5.122,1.202-10.329,2.04-15.579,2.498C406.32,321.685,403.272,321.778,400.131,321.778z M329.162,304.845h70.968
		c2.616,0,5.156-0.076,7.696-0.305c51.266-4.157,89.459-49.09,85.302-100.356c-3.929-48.421-44.416-85.692-92.999-85.607
		c-10.617-0.042-21.167,1.77-31.166,5.343c-4.403,1.583-9.254-0.694-10.837-5.097c-0.373-1.041-0.542-2.142-0.491-3.243
		c0.085-1.82,0.161-3.641,0.161-5.47c0-51.435-41.699-93.134-93.134-93.134s-93.134,41.699-93.134,93.134
		c-0.017,4.03,0.237,8.06,0.77,12.057c0.635,4.631-2.608,8.907-7.239,9.542c-1.414,0.195-2.862,0.025-4.191-0.491
		c-7.417-2.811-15.282-4.225-23.207-4.174c-32.19,0.059-59.911,22.716-66.371,54.255c-0.652,3.26-3.158,5.834-6.392,6.579
		c-31.869,7.476-51.639,39.37-44.162,71.239c6.282,26.78,30.158,45.712,57.658,45.729H208.63l8.467-16.933h-54.035
		c-4.674,0-8.467-3.785-8.467-8.467c0-1.312,0.305-2.616,0.889-3.785l50.8-101.601c1.431-2.87,4.369-4.682,7.578-4.682h101.601
		c4.674-0.025,8.484,3.742,8.509,8.424c0.008,1.329-0.296,2.642-0.889,3.827l-27.788,55.482h54.035
		c4.674-0.025,8.484,3.742,8.509,8.424c0.008,1.329-0.296,2.642-0.889,3.827L329.162,304.845z"/>
	<path style="fill:#231F20;" d="M225.589,512l17.416-156.355H183.23l33.867-67.734h-67.734l59.267-118.534h120.532l-33.867,67.734
		h67.734L225.589,512z M210.628,338.711h51.308l-9,80.713l82.695-165.381h-67.734l33.867-67.734h-82.669l-42.334,84.667h67.734
		L210.628,338.711z"/>
</g>
<g>
</g>
<g>
</g>
<g>
</g>
<g>
</g>
<g>
</g>
<g>
</g>
<g>
</g>
<g>
</g>
<g>
</g>
<g>
</g>
<g>
</g>
<g>
</g>
<g>
</g>
<g>
</g>
<g>
</g>
</svg>
