<?xml version="1.0" encoding="utf-8"?>
<!-- Generator: Adobe Illustrator 21.0.0, SVG Export Plug-In . SVG Version: 6.00 Build 0)  -->
<svg xmlns="http://www.w3.org/2000/svg" xmlns:xlink="http://www.w3.org/1999/xlink" version="1.1" id="Layer_1" x="0px" y="0px" viewBox="0 0 256 256" style="enable-background:new 0 0 256 256;" xml:space="preserve" width="512" height="512">
<style type="text/css">
	.st0{fill:#F9D0B4;}
	.st1{fill:#E9E9EA;}
	.st2{fill:#55ACD5;}
	.st3{fill:#EA4647;}
	.st4{fill:#B26E3B;}
	.st5{fill:#6DCC6D;}
	.st6{fill:#FFCD29;}
	.st7{fill:#231F20;}
</style>
<g id="Layer_40">
	<path class="st0" d="M202.7,175.3c0-4.2-3.4-7.6-7.6-7.6l0,0c4.2,0,7.6-3.4,7.6-7.6s-3.4-7.6-7.6-7.6h-26.3v-12.7H160   c-2.9,0-5.7,1-7.9,2.9c-9.8,6.6-5.5,10.1-33.1,10.1v55.3c16.1,0.4,21.3-1,29.7,1.7c4.2,1.2,8.5,3.4,15.8,3.4h30.8   c4.2,0,7.6-3.4,7.6-7.6s-3.4-7.6-7.6-7.6c4.2,0,7.6-3.4,7.6-7.6s-3.4-7.6-7.6-7.6C199.3,182.9,202.7,179.5,202.7,175.3   C202.7,175.3,202.7,175.3,202.7,175.3z"/>
	<path class="st0" d="M193.3,139.8h-3.9v12.7h5.8c1.4,0,2.7,0.4,3.9,1.1v-8.1C199,142.4,196.4,139.9,193.3,139.8z"/>
	<path class="st1" d="M116.6,147.6h-10.8v65.7h10.8c1.3,0,2.3-1,2.3-2.3l0,0v-61C118.9,148.7,117.8,147.6,116.6,147.6   C116.6,147.6,116.6,147.6,116.6,147.6z"/>
	<path class="st2" d="M55.6,143h47.8c1.3,0,2.3,1,2.3,2.3v71.3c0,1.3-1,2.3-2.3,2.3H55.6c-1.3,0-2.3-1-2.3-2.3v-71.3   C53.3,144.1,54.3,143,55.6,143z"/>
	<path class="st3" d="M83.1,32.3c-1.4,0-2.6,1.1-2.6,2.6c0,0,0,0,0,0v70.9c0,1.4,1.1,2.6,2.6,2.6l0,0h85.8V32.3H83.1z"/>
	<path class="st1" d="M135.5,70.4l8.7-8.7c2-2,1.9-5.3-0.1-7.3c-2-1.9-5.2-1.9-7.2,0l-8.7,8.7l-8.7-8.7c-2-2-5.3-2.1-7.3-0.1   c-2,2-2.1,5.3-0.1,7.3c0,0,0.1,0.1,0.1,0.1l8.7,8.7l-8.7,8.7c-2,2-1.9,5.3,0.1,7.3c2,1.9,5.2,1.9,7.2,0l8.7-8.7l8.7,8.7   c2,2,5.3,1.9,7.3-0.1c1.9-2,1.9-5.2,0-7.2L135.5,70.4z"/>
	<path class="st4" d="M168.9,213.3v15c0,5.7,4.6,10.2,10.2,10.2c0.1,0,0.1,0,0.2,0c5.7-0.2,10.1-4.9,10.1-10.6v-14.6H168.9z"/>
	<path class="st4" d="M179.3,17.5c-5.7-0.1-10.3,4.4-10.4,10.1c0,0.1,0,0.1,0,0.2v124.8h20.5V28.1C189.4,22.4,185,17.7,179.3,17.5z"/>
	<path class="st5" d="M163.1,251.7c-0.1-0.1-0.2-0.2-0.4-0.3c-0.1-0.1-0.3-0.2-0.4-0.2c-0.1-0.1-0.3-0.1-0.5-0.1   c-0.3-0.1-0.7-0.1-1,0c-0.2,0-0.3,0.1-0.5,0.1c-0.1,0.1-0.3,0.1-0.4,0.2c-0.1,0.1-0.3,0.2-0.4,0.3c-0.9,1-0.9,2.5,0,3.5   c0.1,0.1,0.2,0.2,0.4,0.3c0.3,0.2,0.6,0.3,0.9,0.4c0.3,0.1,0.7,0.1,1,0c0.2,0,0.3-0.1,0.5-0.1c0.2-0.1,0.3-0.1,0.4-0.2   c0.1-0.1,0.3-0.2,0.4-0.3C164,254.3,164.1,252.7,163.1,251.7C163.1,251.7,163.1,251.7,163.1,251.7z"/>
	<path class="st3" d="M214.7,123.7c-0.1-0.1-0.2-0.2-0.4-0.3c-0.1-0.1-0.3-0.2-0.4-0.2c-0.1-0.1-0.3-0.1-0.5-0.1   c-0.3-0.1-0.7-0.1-1,0c-0.2,0-0.3,0.1-0.5,0.1c-0.1,0.1-0.3,0.1-0.4,0.2c-0.1,0.1-0.3,0.2-0.4,0.3c-0.9,1-0.9,2.5,0,3.5   c0.1,0.1,0.2,0.2,0.4,0.3c0.3,0.2,0.6,0.3,0.9,0.4c0.3,0.1,0.7,0.1,1,0c0.2,0,0.3-0.1,0.5-0.1c0.2-0.1,0.3-0.1,0.4-0.2   c0.1-0.1,0.3-0.2,0.4-0.3C215.7,126.3,215.7,124.7,214.7,123.7C214.7,123.7,214.7,123.7,214.7,123.7z"/>
	<path class="st2" d="M60.5,30.6c-0.1-0.1-0.2-0.2-0.4-0.3c-0.1-0.1-0.3-0.2-0.4-0.2c-0.1-0.1-0.3-0.1-0.5-0.1c-0.3-0.1-0.7-0.1-1,0   c-0.3,0.1-0.6,0.2-0.9,0.4c-0.1,0.1-0.3,0.2-0.4,0.3c-0.9,1-0.9,2.5,0,3.5c0.1,0.1,0.2,0.2,0.4,0.3c0.1,0.1,0.3,0.2,0.4,0.2   c0.2,0.1,0.3,0.1,0.5,0.1c0.3,0.1,0.7,0.1,1,0c0.2,0,0.3-0.1,0.5-0.1c0.1-0.1,0.3-0.1,0.4-0.2c0.1-0.1,0.3-0.2,0.4-0.3   C61.5,33.1,61.5,31.6,60.5,30.6C60.5,30.6,60.5,30.6,60.5,30.6z"/>
	<path class="st6" d="M85.9,7.7C82,6.9,79,4,78.3,0.1c0-0.1-0.1-0.2-0.2-0.1C78,0,78,0.1,78,0.1c-0.7,3.8-3.7,6.8-7.5,7.5   c-0.1,0-0.2,0.1-0.1,0.2c0,0.1,0.1,0.1,0.1,0.1c3.8,0.7,6.8,3.7,7.5,7.5c0,0.1,0.1,0.2,0.2,0.1c0.1,0,0.1-0.1,0.1-0.1   C79,11.7,82,8.7,85.9,8C85.9,8,86,7.9,86,7.8C86,7.7,85.9,7.7,85.9,7.7z"/>
	<path class="st2" d="M139.9,231h-1.8v-1.8c0-1.4-1.1-2.5-2.5-2.5s-2.5,1.1-2.5,2.5v1.8h-1.8c-1.4,0-2.5,1.1-2.5,2.5   s1.1,2.5,2.5,2.5h1.8v1.8c0,1.4,1.1,2.5,2.5,2.5s2.5-1.1,2.5-2.5V236h1.8c1.4,0,2.5-1.1,2.5-2.5S141.3,231,139.9,231L139.9,231z"/>
	<path class="st7" d="M103.4,140.5H55.6c-2.7,0-4.8,2.2-4.8,4.8v71.3c0,2.7,2.2,4.8,4.8,4.8h47.8c2.7,0,4.8-2.2,4.8-4.8v-71.3   C108.2,142.7,106.1,140.5,103.4,140.5z M103.2,216.5H55.8v-71h47.5L103.2,216.5z"/>
	<path class="st7" d="M116.6,145.1h-10.8c-1.4,0-2.5,1.1-2.5,2.5v65.7c0,1.4,1.1,2.5,2.5,2.5h10.8c2.7,0,4.8-2.2,4.8-4.8v-61   C121.4,147.3,119.2,145.1,116.6,145.1z M116.4,210.8h-8.1v-60.7h8.1V210.8z"/>
	<path class="st7" d="M195.1,165.3h-21.9c-1.4,0-2.5,1.1-2.5,2.5s1.1,2.5,2.5,2.5h21.9c1.4,0,2.5-1.1,2.5-2.5   S196.5,165.3,195.1,165.3z"/>
	<path class="st7" d="M195.1,180.4h-21.9c-1.4,0-2.5,1.1-2.5,2.5s1.1,2.5,2.5,2.5h21.9c1.4,0,2.5-1.1,2.5-2.5   S196.5,180.4,195.1,180.4L195.1,180.4z"/>
	<path class="st7" d="M195.1,195.6h-21.9c-1.4,0-2.5,1.1-2.5,2.5s1.1,2.5,2.5,2.5h21.9c1.4,0,2.5-1.1,2.5-2.5   S196.5,195.6,195.1,195.6z"/>
	<path class="st7" d="M205.2,175.3c0-2.9-1.3-5.7-3.5-7.6c4.2-3.7,4.6-10,1-14.2c-1.7-1.9-3.9-3.1-6.4-3.4c-0.2,0-0.4-0.1-0.6-0.1   h-24.3v-10.2c0-1.4-1.1-2.5-2.5-2.5H160c-3.3,0-6.6,1.1-9.2,3.2l-0.1,0.1l0,0c-1.9,1.3-3.7,2.7-5.3,4.3c-4,3.6-6,5.4-26.4,5.4   c-1.4,0-2.5,1.1-2.5,2.5v55.3c0,1.4,1.1,2.5,2.4,2.5c5.1,0.1,9.1,0.1,12.4,0c7.2-0.1,11.2-0.2,16.6,1.6l0.1,0c1,0.3,2,0.6,3,1   c4.3,1.6,8.8,2.5,13.4,2.6h30.8c5.6,0,10.1-4.5,10.1-10.1c0-2.9-1.3-5.7-3.5-7.6c4.2-3.7,4.6-10,1-14.2c-0.3-0.3-0.6-0.7-1-1   C204,181,205.2,178.3,205.2,175.3z M195.1,170.3c2.8,0,5.1,2.3,5.1,5.1c0,2.8-2.3,5.1-5.1,5.1c-1.4,0-2.5,1.1-2.5,2.5   s1.1,2.5,2.5,2.5c2.8,0,5.1,2.3,5.1,5.1s-2.3,5.1-5.1,5.1c-1.4,0-2.5,1.1-2.5,2.5s1.1,2.5,2.5,2.5c2.8,0,5.1,2.3,5.1,5.1   s-2.3,5.1-5.1,5.1h-30.8c-4,0-8-0.8-11.8-2.3c-1.1-0.4-2.2-0.7-3.3-1c-6.2-2-10.7-1.9-18.1-1.8c-2.8,0-5.9,0.1-9.8,0v-50.4   c19.1-0.2,22.3-2.2,27.2-6.7c1.5-1.4,3.1-2.7,4.8-3.8l0,0c0.1-0.1,0.2-0.2,0.4-0.3c1.8-1.4,3.9-2.2,6.2-2.2h6.4v10.2   c0,1.4,1.1,2.5,2.5,2.5h26.3c2.8,0,5.1,2.3,5.1,5.1c0,2.8-2.3,5.1-5.1,5.1c-1.4,0-2.5,1.1-2.5,2.5S193.7,170.3,195.1,170.3   L195.1,170.3z"/>
	<path class="st7" d="M189.4,210.8h-20.5c-1.4,0-2.5,1.1-2.5,2.5v15c0,7,5.7,12.7,12.7,12.7h0.2c7-0.3,12.6-6.1,12.5-13.1v-14.6   C191.9,211.9,190.8,210.8,189.4,210.8z M186.9,227.9c0.1,4.3-3.3,7.9-7.6,8.1c-4.3,0.1-7.8-3.3-7.9-7.6c0,0,0-0.1,0-0.1v-12.5h15.5   L186.9,227.9z"/>
	<path class="st7" d="M168.9,29.8H83.1c-2.8,0-5.1,2.3-5.1,5.1v70.9c0,2.8,2.3,5,5.1,5.1h85.8c1.4,0,2.5-1.1,2.5-2.5V32.3   C171.4,31,170.3,29.8,168.9,29.8L168.9,29.8z M166.4,105.9L83,105.8v-71c0,0,0-0.1,0.1-0.1l0,0h83.3L166.4,105.9z"/>
	<path class="st7" d="M179.4,15c-7-0.1-12.9,5.5-13,12.5c0,0.1,0,0.2,0,0.2v124.8c0,1.4,1.1,2.5,2.5,2.5h20.5c1.4,0,2.5-1.1,2.5-2.5   V28.1C191.9,21,186.4,15.2,179.4,15z M186.9,150.1h-15.5V27.7c0-4.3,3.5-7.7,7.7-7.7c0,0,0.1,0,0.1,0c4.3,0.2,7.7,3.8,7.6,8.1   L186.9,150.1z"/>
	<path class="st7" d="M193.3,137.3h-3.9c-1.4,0-2.5,1.1-2.5,2.5v12.7c0,1.4,1.1,2.5,2.5,2.5h5.8c0.9,0,1.8,0.3,2.6,0.7   c1.2,0.7,2.7,0.3,3.4-0.9c0.2-0.4,0.4-0.8,0.4-1.3v-8.1C201.5,141,197.8,137.3,193.3,137.3z M196.5,150.2c-0.5-0.1-0.9-0.1-1.4-0.1   h-3.3v-7.7h1.4c1.8,0,3.2,1.5,3.2,3.2L196.5,150.2z"/>
	<path class="st7" d="M191.9,39.3h-25.4c-1.4,0-2.5,1.1-2.5,2.5s1.1,2.5,2.5,2.5h25.4c1.4,0,2.5-1.1,2.5-2.5S193.3,39.3,191.9,39.3z   "/>
	<path class="st7" d="M191.9,96.4h-25.4c-1.4,0-2.5,1.1-2.5,2.5s1.1,2.5,2.5,2.5h25.4c1.4,0,2.5-1.1,2.5-2.5S193.3,96.4,191.9,96.4z   "/>
	<path class="st7" d="M139.1,70.4l6.9-6.9c3-3,3-7.8,0-10.8c-3-3-7.8-3-10.8,0l0,0l-6.9,6.9l-6.9-6.9c-3-3-7.8-3-10.8,0   c-3,3-3,7.8,0,10.8l0,0l6.9,6.9l-6.9,6.9c-3,2.9-3.1,7.8-0.2,10.8c2.9,3,7.8,3.1,10.8,0.2c0.1-0.1,0.1-0.1,0.2-0.2l6.9-6.9l6.9,6.9   c3,3,7.8,3,10.8,0c3-3,3-7.8,0-10.8L139.1,70.4z M142.4,84.6c-1.1,1-2.7,1-3.8,0l-8.7-8.7c-1-1-2.6-1-3.5,0l-8.7,8.7   c-1.1,1-2.7,1-3.8,0c-1-1-1-2.7,0-3.8c0,0,0,0,0,0l8.7-8.7c1-1,1-2.6,0-3.5l-8.7-8.7c-1-1-1-2.7,0-3.8c0,0,0,0,0,0   c1.1-1,2.7-1,3.8,0l8.7,8.7c1,1,2.6,1,3.5,0l8.7-8.7c1.1-1,2.7-1,3.8,0c1,1,1,2.7,0,3.8c0,0,0,0,0,0l-8.7,8.7c-1,1-1,2.6,0,3.5   l8.7,8.7C143.5,81.8,143.5,83.5,142.4,84.6C142.4,84.6,142.4,84.6,142.4,84.6L142.4,84.6z"/>
</g>
</svg>
