<?xml version="1.0" encoding="iso-8859-1"?>
<!-- Generator: Adobe Illustrator 19.0.0, SVG Export Plug-In . SVG Version: 6.00 Build 0)  -->
<svg version="1.1" id="Capa_1" xmlns="http://www.w3.org/2000/svg" xmlns:xlink="http://www.w3.org/1999/xlink" x="0px" y="0px"
	 viewBox="0 0 512.002 512.002" style="enable-background:new 0 0 512.002 512.002;" xml:space="preserve">
<path style="fill:#78B9EB;" d="M401.262,110.922c-11.691-0.034-23.297,1.963-34.305,5.888c0.085-1.963,0.171-3.925,0.171-5.888
	c0-47.78-33.034-89.21-79.619-99.843c-1.792-0.427-3.669-0.768-5.547-1.024c-2.645-0.512-5.291-0.853-8.022-1.109
	c-3.072-0.256-6.144-0.427-9.216-0.427c-27.547-0.034-53.941,11.043-73.218,30.721c-6.486,6.545-12.007,13.987-16.385,22.102
	c-0.111,0.247-0.256,0.478-0.427,0.683v0.085c-3.49,6.332-6.264,13.022-8.278,19.969c-1.698,5.888-2.867,11.913-3.499,18.006
	c-0.418,3.601-0.614,7.219-0.597,10.838c-0.017,4.455,0.265,8.901,0.853,13.312c-8.448-3.209-17.417-4.821-26.454-4.779
	c-11.461,0.009-22.768,2.569-33.11,7.51c-3.337,1.63-6.554,3.482-9.643,5.547c-1.826,1.186-3.567,2.492-5.206,3.925
	c-2.91,2.296-5.649,4.813-8.192,7.51c-2.458,2.586-4.711,5.351-6.742,8.278c-6.076,8.627-10.283,18.416-12.374,28.758
	c-4.932,1.144-9.72,2.859-14.251,5.12c-5.555,2.705-10.727,6.153-15.361,10.24c-3.311,2.867-6.315,6.067-8.96,9.558
	C-0.1,235.744,5.456,278.574,35.306,301.563c11.947,9.199,26.599,14.183,41.678,14.166h324.277c2.901,0,5.717-0.085,8.534-0.341
	c56.365-4.617,98.324-54.043,93.708-110.416C499.151,151.764,454.648,110.829,401.262,110.922z"/>
<path style="fill:#231F20;" d="M401.262,324.263H76.985C34.59,324.212,0.233,289.855,0.182,247.46
	c-0.043-16.931,5.564-33.384,15.941-46.764c2.987-3.934,6.375-7.552,10.112-10.786c5.188-4.574,10.974-8.423,17.187-11.461
	c3.499-1.775,7.143-3.234,10.897-4.378c2.577-9.592,6.818-18.663,12.536-26.787c2.278-3.285,4.813-6.392,7.578-9.285
	c2.799-2.97,5.82-5.735,9.029-8.261c1.826-1.587,3.755-3.038,5.786-4.352c3.396-2.27,6.946-4.309,10.616-6.11
	c16.794-7.962,35.705-10.292,53.924-6.648c0-0.563,0-1.135,0-1.707c-0.026-3.977,0.196-7.945,0.666-11.887
	c0.683-6.554,1.946-13.031,3.78-19.363c2.116-7.305,5.018-14.362,8.645-21.052c0.205-0.461,0.444-0.905,0.717-1.331l0.068-0.094l0,0
	c4.753-8.781,10.735-16.837,17.767-23.928c23.322-23.758,56.066-35.799,89.228-32.82c3.089,0.29,5.974,0.666,8.909,1.22
	c1.707,0.23,3.857,0.623,5.905,1.109c48.275,11.307,83.322,53.088,86.044,102.6c59.65-13.995,119.351,23.007,133.346,82.657
	c13.995,59.65-23.007,119.351-82.657,133.346c-5.163,1.212-10.411,2.057-15.702,2.517
	C407.5,324.169,404.428,324.263,401.262,324.263z M136.72,127.99c-10.189,0-20.25,2.287-29.45,6.682
	c-2.944,1.459-5.803,3.106-8.534,4.932c-1.493,0.964-2.919,2.04-4.267,3.2c-2.731,2.133-5.299,4.463-7.68,6.98
	c-2.176,2.296-4.173,4.762-5.974,7.365c-5.376,7.663-9.114,16.359-10.983,25.533c-0.657,3.251-3.132,5.828-6.358,6.605
	c-4.292,0.973-8.448,2.458-12.382,4.42c-4.907,2.381-9.464,5.419-13.56,9.02c-2.884,2.492-5.504,5.274-7.817,8.312
	c-8.098,10.411-12.485,23.229-12.468,36.421c0.043,32.974,26.761,59.693,59.735,59.735h324.277c2.637,0,5.188-0.077,7.749-0.307
	c51.671-4.19,90.166-49.478,85.976-101.149c-3.96-48.804-44.759-86.369-93.725-86.283c-10.701-0.034-21.334,1.784-31.412,5.385
	c-4.438,1.596-9.327-0.7-10.923-5.137c-0.375-1.041-0.546-2.142-0.495-3.251c0.077-1.86,0.162-3.687,0.162-5.53
	c-0.213-43.718-30.397-81.581-72.971-91.523c-1.613-0.384-3.217-0.674-4.821-0.896c-2.825-0.529-5.206-0.853-7.68-1.067
	c-2.731-0.222-5.564-0.384-8.397-0.384c-25.26-0.077-49.478,10.078-67.125,28.161c-5.922,5.974-10.957,12.766-14.959,20.165l0,0
	l-0.282,0.529l-0.196,0.358c-3.183,5.769-5.709,11.879-7.552,18.202c-1.553,5.41-2.628,10.957-3.209,16.555
	c-0.384,3.285-0.563,6.588-0.546,9.899c-0.026,4.071,0.239,8.133,0.777,12.16c0.64,4.668-2.628,8.969-7.305,9.609
	c-1.425,0.196-2.884,0.026-4.224-0.495C152.635,129.372,144.707,127.947,136.72,127.99z"/>
<g>
	<path style="fill:#006DF0;" d="M256.191,392.532c-4.711,0-8.534-3.823-8.534-8.534v-34.134c0-4.711,3.823-8.534,8.534-8.534
		c4.711,0,8.534,3.823,8.534,8.534v34.134C264.724,388.717,260.91,392.532,256.191,392.532z"/>
	<path style="fill:#006DF0;" d="M307.392,392.532c-4.711,0-8.534-3.823-8.534-8.534v-34.134c0-4.711,3.823-8.534,8.534-8.534
		s8.534,3.823,8.534,8.534v34.134C315.926,388.717,312.111,392.532,307.392,392.532z"/>
	<path style="fill:#006DF0;" d="M358.594,392.532c-4.711,0-8.534-3.823-8.534-8.534v-34.134c0-4.711,3.823-8.534,8.534-8.534
		s8.534,3.823,8.534,8.534v34.134C367.128,388.717,363.313,392.532,358.594,392.532z"/>
	<path style="fill:#006DF0;" d="M409.796,392.532c-4.711,0-8.534-3.823-8.534-8.534v-34.134c0-4.711,3.823-8.534,8.534-8.534
		s8.534,3.823,8.534,8.534v34.134C418.329,388.717,414.515,392.532,409.796,392.532z"/>
	<path style="fill:#006DF0;" d="M204.989,392.532c-4.711,0-8.534-3.823-8.534-8.534v-34.134c0-4.711,3.823-8.534,8.534-8.534
		s8.534,3.823,8.534,8.534v34.134C213.522,388.717,209.708,392.532,204.989,392.532z"/>
	<path style="fill:#006DF0;" d="M153.787,392.532c-4.711,0-8.534-3.823-8.534-8.534v-34.134c0-4.711,3.823-8.534,8.534-8.534
		c4.711,0,8.534,3.823,8.534,8.534v34.134C162.321,388.717,158.506,392.532,153.787,392.532z"/>
	<path style="fill:#006DF0;" d="M230.59,452.267c-4.711,0-8.534-3.823-8.534-8.534v-34.134c0-4.711,3.823-8.534,8.534-8.534
		s8.534,3.823,8.534,8.534v34.134C239.123,448.453,235.309,452.267,230.59,452.267z"/>
	<path style="fill:#006DF0;" d="M281.791,452.267c-4.711,0-8.534-3.823-8.534-8.534v-34.134c0-4.711,3.823-8.534,8.534-8.534
		s8.534,3.823,8.534,8.534v34.134C290.325,448.453,286.51,452.267,281.791,452.267z"/>
	<path style="fill:#006DF0;" d="M332.993,452.267c-4.711,0-8.534-3.823-8.534-8.534v-34.134c0-4.711,3.823-8.534,8.534-8.534
		s8.534,3.823,8.534,8.534v34.134C341.527,448.453,337.712,452.267,332.993,452.267z"/>
	<path style="fill:#006DF0;" d="M384.195,452.267c-4.711,0-8.534-3.823-8.534-8.534v-34.134c0-4.711,3.823-8.534,8.534-8.534
		s8.534,3.823,8.534,8.534v34.134C392.728,448.453,388.914,452.267,384.195,452.267z"/>
	<path style="fill:#006DF0;" d="M179.388,452.267c-4.711,0-8.534-3.823-8.534-8.534v-34.134c0-4.711,3.823-8.534,8.534-8.534
		s8.534,3.823,8.534,8.534v34.134C187.922,448.453,184.107,452.267,179.388,452.267z"/>
	<path style="fill:#006DF0;" d="M128.186,452.267c-4.711,0-8.534-3.823-8.534-8.534v-34.134c0-4.711,3.823-8.534,8.534-8.534
		s8.534,3.823,8.534,8.534v34.134C136.72,448.453,132.905,452.267,128.186,452.267z"/>
	<path style="fill:#006DF0;" d="M102.585,392.532c-4.711,0-8.534-3.823-8.534-8.534v-34.134c0-4.711,3.823-8.534,8.534-8.534
		s8.534,3.823,8.534,8.534v34.134C111.119,388.717,107.304,392.532,102.585,392.532z"/>
	<path style="fill:#006DF0;" d="M256.191,512.002c-4.711,0-8.534-3.823-8.534-8.534v-34.134c0-4.711,3.823-8.534,8.534-8.534
		c4.711,0,8.534,3.823,8.534,8.534v34.134C264.724,508.188,260.91,512.002,256.191,512.002z"/>
	<path style="fill:#006DF0;" d="M307.392,512.002c-4.711,0-8.534-3.823-8.534-8.534v-34.134c0-4.711,3.823-8.534,8.534-8.534
		s8.534,3.823,8.534,8.534v34.134C315.926,508.188,312.111,512.002,307.392,512.002z"/>
	<path style="fill:#006DF0;" d="M358.594,512.002c-4.711,0-8.534-3.823-8.534-8.534v-34.134c0-4.711,3.823-8.534,8.534-8.534
		s8.534,3.823,8.534,8.534v34.134C367.128,508.188,363.313,512.002,358.594,512.002z"/>
	<path style="fill:#006DF0;" d="M204.989,512.002c-4.711,0-8.534-3.823-8.534-8.534v-34.134c0-4.711,3.823-8.534,8.534-8.534
		s8.534,3.823,8.534,8.534v34.134C213.522,508.188,209.708,512.002,204.989,512.002z"/>
	<path style="fill:#006DF0;" d="M153.787,512.002c-4.711,0-8.534-3.823-8.534-8.534v-34.134c0-4.711,3.823-8.534,8.534-8.534
		c4.711,0,8.534,3.823,8.534,8.534v34.134C162.321,508.188,158.506,512.002,153.787,512.002z"/>
</g>
<g>
</g>
<g>
</g>
<g>
</g>
<g>
</g>
<g>
</g>
<g>
</g>
<g>
</g>
<g>
</g>
<g>
</g>
<g>
</g>
<g>
</g>
<g>
</g>
<g>
</g>
<g>
</g>
<g>
</g>
</svg>
