<svg xmlns="http://www.w3.org/2000/svg" viewBox="0 0 382 382"><defs><style>.cls-1{fill:none;}.cls-2{fill:#414141;}</style></defs><title>Browse</title><g id="Layer_2" data-name="Layer 2"><g id="Layer_1-2" data-name="Layer 1"><rect class="cls-1" width="382" height="382"/><path class="cls-2" d="M330,181a10,10,0,0,0-10,10A129,129,0,1,1,191,62a10,10,0,0,0,0-20C108.84,42,42,108.84,42,191s66.84,149,149,149,149-66.84,149-149A10,10,0,0,0,330,181Z"/><path class="cls-2" d="M260.59,82.36a130.53,130.53,0,0,1,39.05,39.05,10,10,0,0,0,16.83-10.8,150.69,150.69,0,0,0-45.08-45.08,10,10,0,0,0-10.8,16.83Z"/><path class="cls-2" d="M191,274.16a10,10,0,0,0,10-10V201h63.16a10,10,0,0,0,0-20H201V117.84a10,10,0,0,0-20,0V181H117.84a10,10,0,0,0,0,20H181v63.16A10,10,0,0,0,191,274.16Z"/></g></g></svg>