<svg xmlns="http://www.w3.org/2000/svg" viewBox="0 0 382 382"><defs><style>.cls-1{fill:none;}.cls-2{fill:#414141;}</style></defs><title>Webcam_Icon</title><g id="Layer_2" data-name="Layer 2"><g id="Layer_1-2" data-name="Layer 1"><rect class="cls-1" width="382" height="382"/><path class="cls-2" d="M332.22,93.36H284.55V66.53c0-10.77-9.33-19.53-20.78-19.53H118.23c-11.45,0-20.78,8.76-20.78,19.53V93.36H49.78C38.32,93.36,29,102.12,29,112.88V315.47C29,326.24,38.32,335,49.78,335H332.22c11.46,0,20.78-8.76,20.78-19.53V112.88C353,102.12,343.68,93.36,332.22,93.36ZM333,314.84a1.83,1.83,0,0,1-.78.16H49.78a1.83,1.83,0,0,1-.78-.16V113.51a1.85,1.85,0,0,1,.78-.15h67.67V67.15a1.92,1.92,0,0,1,.78-.15H263.77a1.92,1.92,0,0,1,.78.15v46.21h67.67a1.85,1.85,0,0,1,.78.15Z"/><path class="cls-2" d="M191,125a72,72,0,1,0,72,72A72.08,72.08,0,0,0,191,125Zm0,124a52,52,0,1,1,52-52A52.06,52.06,0,0,1,191,249Z"/></g></g></svg>