<?xml version="1.0" encoding="UTF-8"?>
<svg width="24px" height="24px" viewBox="0 0 24 24" version="1.1" xmlns="http://www.w3.org/2000/svg" xmlns:xlink="http://www.w3.org/1999/xlink">
    <title>Slice 1</title>
    <g id="Page-1" stroke="none" stroke-width="1" fill="none" fill-rule="evenodd">
        <g id="noun_configure_1734119">
            <rect id="Rectangle" x="0" y="0" width="24" height="24"></rect>
            <path d="M4.90833139,12.8004437 C5.00757032,12.8052437 5.10543093,12.8278215 5.19666672,12.867866 L5.7631556,13.1222661 C5.78969935,13.1098217 5.81633201,13.0976883 5.84309807,13.0857328 C5.92730888,13.0487105 6.01276462,13.0143105 6.09937638,12.983066 C6.17304972,12.7895104 6.24685645,12.5959992 6.32097441,12.4024879 C6.32097441,12.4024879 6.41060957,12.1924434 6.56533693,12.0700878 C6.89248749,11.8113765 7.40535533,11.855421 7.84250459,11.9058654 C8.12288124,11.9382655 8.37778123,12.1347545 8.48231112,12.402799 L8.702931,12.983066 C8.73049736,12.9930216 8.75793035,13.0032883 8.78531887,13.0137772 C8.87095246,13.0471105 8.95574128,13.0831994 9.03910731,13.1223106 C9.22811479,13.0375105 9.41712226,12.9528882 9.60621866,12.8685771 C9.60621866,12.8685771 9.86138542,12.7719548 10.0802713,12.8166215 C10.2754145,12.8564437 10.4359664,12.9859105 10.5916274,13.128755 C10.6926004,13.2213773 10.7895273,13.3183995 10.8821858,13.4193329 C11.0157938,13.5648441 11.1423768,13.7208887 11.1840376,13.9084443 C11.2200962,14.0708 11.2016,14.2436889 11.134596,14.3962668 L10.8800961,14.9625782 C10.9315385,15.0723116 10.9780457,15.184445 11.0193508,15.2986673 C11.1329953,15.3418673 11.2465955,15.3851562 11.3601956,15.4284896 C11.4400936,15.4589785 11.5199916,15.4895118 11.5998896,15.5200896 C11.5998896,15.5200896 11.8236663,15.6159564 11.948782,15.785512 C12.1924331,16.1157344 12.1454814,16.6200902 12.096929,17.0409794 C12.0644718,17.3226684 11.8680392,17.5760908 11.5998896,17.6806242 L11.0193063,17.9012021 C10.9781791,18.0150243 10.9316719,18.1272911 10.8800517,18.2372467 C10.9648405,18.4261801 11.0495404,18.6152024 11.134018,18.8043581 C11.134018,18.8043581 11.2211633,19.028136 11.1947529,19.2253806 C11.1395312,19.6378252 10.7415084,19.9676921 10.409556,20.2309367 C10.1879135,20.4067145 9.8684104,20.4472923 9.60555173,20.3319145 L9.03906285,20.0775144 C9.00687244,20.0926255 8.98055101,20.1044922 8.98055101,20.1044922 C8.88931522,20.1451588 8.79674557,20.1827589 8.70284207,20.2167144 C8.65958066,20.3303145 8.61627478,20.4439146 8.5729689,20.5574702 C8.54242359,20.6373813 8.51187827,20.717248 8.4812885,20.7971592 C8.4812885,20.7971592 8.38018217,21.0291593 8.20473557,21.1537816 C7.86962634,21.3918706 7.36560641,21.3404484 6.96006955,21.293915 C6.6776032,21.2614706 6.42417045,21.0643593 6.31990733,20.7969814 L6.09928745,20.21667 C6.06576319,20.2045811 6.03877483,20.1943589 6.03877483,20.1943589 C5.94562718,20.1587144 5.85354661,20.1199144 5.76306668,20.0774699 C5.57410366,20.16227 5.38500727,20.2468922 5.19568856,20.3313367 C5.19568856,20.3313367 4.98147119,20.4162257 4.78783968,20.3936923 C4.37140967,20.3452478 4.03220994,19.9393365 3.76859542,19.6071141 C3.59203728,19.3846251 3.55206604,19.0666249 3.66757802,18.8035137 L3.92212231,18.2372022 C3.87063545,18.1275577 3.82417278,18.0153355 3.78286769,17.9011132 C3.58923618,17.8274687 3.39564913,17.7536464 3.20201762,17.6795575 C3.20201762,17.6795575 2.98615517,17.5880463 2.86139512,17.4248907 C2.61063008,17.0968461 2.65589228,16.5870236 2.70524497,16.1588455 C2.73774661,15.8767565 2.93480169,15.623423 3.20228439,15.5191119 L3.78286769,15.2985784 C3.82421724,15.1843117 3.87067991,15.0722227 3.92212231,14.9624893 C3.8373335,14.7736003 3.75267807,14.584578 3.66820049,14.3953779 C3.66820049,14.3953779 3.57794286,14.1686667 3.60933295,13.9611999 C3.6705125,13.5568886 4.06079893,13.2319995 4.39261798,12.9688438 C4.53009413,12.8598215 4.70469596,12.800577 4.8812541,12.7999104 C4.89481498,12.8000437 4.89477052,12.8000437 4.90833139,12.8004437 L4.90833139,12.8004437 Z M9.08765969,19.265025 C9.10895693,19.2692028 9.12545229,19.2696473 9.1888994,19.2947584 C9.43272838,19.4042695 9.67655736,19.5137807 9.9204308,19.6232474 C9.93190197,19.628403 9.94337313,19.6099585 9.95840125,19.5971141 C10.1212207,19.4564918 10.2741251,19.3034695 10.4123126,19.1397361 C10.4425023,19.1040027 10.3963064,19.0545805 10.375187,19.007336 C10.338995,18.9264026 10.3027141,18.8454692 10.2664777,18.7645359 C10.2212599,18.6636914 10.1759977,18.5628469 10.1307355,18.4620024 L10.0970334,18.3869357 C10.0855178,18.3578245 10.0815607,18.3508023 10.0740911,18.3203578 C10.0113109,18.064091 10.2319308,17.8377354 10.3385948,17.4904018 L10.3504662,17.4572018 C10.3636269,17.4288018 10.3660278,17.4211574 10.3829678,17.3947129 C10.4148025,17.3452018 10.4579305,17.3032017 10.5082614,17.2726684 C10.5351164,17.2564017 10.5428527,17.2542239 10.5715751,17.2417795 C10.8214509,17.1468461 11.0713267,17.0519571 11.321158,16.9570238 C11.3332072,16.952446 11.3280496,16.9313793 11.3295613,16.9116904 C11.3451675,16.6973347 11.3451675,16.4812457 11.327027,16.2674234 C11.3227587,16.2173789 11.2556212,16.2185789 11.2071133,16.2000456 C11.1242363,16.1684011 11.0413594,16.1368011 10.9584824,16.1052011 C10.855153,16.0658233 10.7517791,16.0265344 10.6484497,15.987201 L10.5714862,15.9579565 C10.5427638,15.9455121 10.5350274,15.9433343 10.5081725,15.9270232 C10.2824839,15.7901787 10.2782601,15.4738674 10.1081933,15.1532894 L10.0930763,15.1214228 C10.0823165,15.092045 10.0785817,15.0849338 10.071868,15.0542672 C10.0593297,14.996756 10.0600856,14.9365782 10.0741355,14.8794226 C10.0816051,14.8489337 10.0855178,14.8419115 10.0970334,14.8128004 C10.2065875,14.5690669 10.3160971,14.3253334 10.4256512,14.0815555 C10.4308977,14.0699111 10.4123571,14.0586222 10.3995076,14.0435999 C10.2589636,13.8810221 10.1061926,13.7283109 9.94199482,13.5898664 C9.90313513,13.5571108 9.85693923,13.6057775 9.8094984,13.6269775 C9.7285333,13.6631553 9.64756821,13.6993775 9.56660312,13.7356442 C9.4657191,13.7808442 9.36483508,13.8260887 9.2639066,13.8713332 L9.18881048,13.9050221 C9.15973241,13.9165332 9.15270743,13.9204443 9.12220657,13.927911 C8.86241578,13.991511 8.62952442,13.7671109 8.29201425,13.6635553 L8.25880122,13.6516886 C8.23039008,13.6385331 8.22269817,13.6361331 8.19628781,13.6191997 C8.14671281,13.5873775 8.10469633,13.5443108 8.07419548,13.4939552 C8.05787796,13.4671107 8.05569933,13.4593774 8.04325,13.4306663 C7.94827942,13.1808884 7.85330883,12.931066 7.75833824,12.6812881 C7.75398098,12.6697325 7.73268373,12.6744881 7.71298712,12.6729325 C7.49823621,12.6572881 7.28259607,12.6574214 7.06842317,12.6755103 C7.01773662,12.679777 7.01964848,12.7468881 7.00110787,12.795377 C6.96945101,12.8781771 6.93783861,12.9610216 6.90622621,13.0438661 C6.86683298,13.1471995 6.82752867,13.2504884 6.7881799,13.3538218 L6.75892398,13.4307107 C6.74647466,13.4594218 6.74429602,13.4671552 6.72797851,13.4939996 C6.58925743,13.722622 6.26575275,13.7285776 5.95394155,13.8938665 L5.92206238,13.9089777 C5.89267307,13.9197332 5.88555917,13.9234665 5.85483601,13.9301777 C5.79734679,13.942711 5.7371454,13.941911 5.67996741,13.927911 C5.64946656,13.9204443 5.64244158,13.9165332 5.61331905,13.9050221 C5.36944561,13.7955109 5.12561663,13.6859998 4.88178765,13.5764886 C4.87022756,13.571333 4.85884531,13.5897775 4.8438172,13.6026219 C4.68117562,13.7431998 4.52849351,13.8957776 4.38990581,14.06 C4.35953834,14.0959555 4.40591209,14.1451556 4.42703148,14.1924 C4.46322346,14.2733778 4.49945989,14.3542668 4.53574079,14.4352002 C4.58095853,14.5360891 4.62622073,14.6369336 4.67148293,14.7377781 L4.70518504,14.8128893 C4.71670067,14.8419559 4.72065777,14.8489782 4.72808291,14.8794671 C4.79077417,15.1353339 4.56930952,15.3652451 4.46362362,15.7093342 L4.45175229,15.7425342 C4.43859157,15.7709342 4.43619063,15.7786231 4.41920619,15.8050231 C4.38741594,15.8545343 4.34428792,15.8965787 4.29395706,15.9270676 C4.26710208,15.9433343 4.25936571,15.9455565 4.23064334,15.9579565 C3.98076754,16.0528899 3.73089175,16.1478233 3.48101595,16.2427567 C3.4699894,16.2469345 3.47416882,16.2684456 3.47261265,16.2880901 C3.45700653,16.5024013 3.45705099,16.7185347 3.47519144,16.9323571 C3.47954871,16.9838238 3.54659723,16.9811571 3.59510515,16.9996905 C3.67793764,17.0313794 3.76085906,17.0629794 3.84373601,17.0945794 C3.94706543,17.1339127 4.05039485,17.1732461 4.15372427,17.2125795 L4.23064334,17.2417795 C4.25936571,17.2542239 4.26710208,17.2564017 4.29395706,17.2727128 C4.51902312,17.4091573 4.52520333,17.7280464 4.69406957,18.0465799 L4.70914215,18.0784466 C4.71990192,18.1078244 4.72368118,18.1149355 4.73035047,18.1456022 C4.74288872,18.2030689 4.7420884,18.2632467 4.72808291,18.3204023 C4.72061331,18.3508467 4.71670067,18.357869 4.70518504,18.3869801 C4.59563095,18.6307136 4.48607687,18.874447 4.37656724,19.1181805 C4.37180982,19.1287583 4.39097289,19.1424916 4.40266637,19.1561805 C4.54321039,19.3187584 4.69655943,19.4719585 4.86017917,19.6099141 C4.8961933,19.6402252 4.9454126,19.5939141 4.99267559,19.572803 C5.07368514,19.5366252 5.15465024,19.5003585 5.23561533,19.4641362 C5.33649935,19.4189362 5.43738337,19.3736918 5.53826738,19.3284473 L5.61336351,19.2947139 C5.64248604,19.2832028 5.64951102,19.2792917 5.68001187,19.271825 C5.93833543,19.208625 6.16998185,19.4316029 6.51042651,19.5362696 L6.54359507,19.5481363 C6.57196176,19.5613363 6.57965366,19.5637363 6.60606402,19.5806696 C6.6555501,19.6124919 6.69756658,19.6555586 6.72806744,19.7058253 C6.74434049,19.7326697 6.74651912,19.7404031 6.75892398,19.7691142 C6.85389457,20.0188921 6.94886516,20.26867 7.04383574,20.5184479 C7.04841532,20.5304924 7.06940133,20.5252924 7.08909794,20.5268035 C7.30362654,20.5424479 7.52046716,20.5424035 7.73357297,20.5242702 C7.78074703,20.5202702 7.78261443,20.4527146 7.80106611,20.4044034 C7.83276744,20.3215589 7.86437984,20.2387144 7.89599224,20.15587 C7.93534101,20.052581 7.97468978,19.9492476 8.01403854,19.8459587 L8.04329446,19.7690697 C8.05569933,19.7403586 8.05792243,19.7326253 8.07419548,19.7057808 C8.21313887,19.4767585 8.54028942,19.469114 8.8482769,19.3058695 C8.8482769,19.3058695 8.91741513,19.2716917 8.98210717,19.2636472 C9.04902231,19.2553361 9.06573998,19.2627584 9.08765969,19.265025 L9.08765969,19.265025 Z M7.41326955,14.7047894 C8.13670889,14.7118225 8.83925114,15.1685783 9.13390005,15.8305343 C9.364346,16.3481345 9.34558309,16.9704015 9.08388043,17.473024 C8.65811342,18.2908023 7.58782691,18.723647 6.68462817,18.3547134 C5.89325108,18.0315132 5.38647451,17.1254239 5.53279857,16.2766234 C5.68027865,15.4212896 6.46632032,14.7251559 7.36462825,14.7051114 C7.38085684,14.7048448 7.39704096,14.7047894 7.41326955,14.7047894 L7.41326955,14.7047894 Z M17.9217472,4.21768346 C18.1490808,4.22381679 18.3722795,4.30395017 18.5514164,4.44466136 C18.5514164,4.44466136 18.6922272,4.56168364 18.8132525,4.67155037 C19.0828249,4.91626162 19.3427046,5.17061731 19.5682153,5.46017303 C19.800084,5.75781763 19.8557058,6.18124009 19.6978662,6.5362625 L19.2181669,7.60359642 C19.3413708,7.85310767 19.4475902,8.10955225 19.5365584,8.37190795 C19.9040804,8.51168581 20.2716468,8.65106366 20.6380127,8.79195263 C21.0102476,8.93875271 21.2708832,9.30381957 21.3056524,9.71399758 C21.3092983,9.7571976 21.3125884,9.80044207 21.3155229,9.84364209 C21.3418888,10.2323979 21.338821,10.6225759 21.3073864,11.011065 C21.3026734,11.0691094 21.2603457,11.3450207 21.1339851,11.536043 C21.0152718,11.7155987 20.8405366,11.8559543 20.6385463,11.935821 C20.6385463,11.935821 19.5365584,12.3545324 19.5365584,12.3545324 C19.4516362,12.6049325 19.3502187,12.8516437 19.2339508,13.090755 L19.2181669,13.1228439 C19.3791634,13.4814663 19.5406489,13.8397776 19.6999559,14.1985778 C19.8512152,14.5475113 19.7999506,14.9742671 19.555188,15.2797784 C19.5445616,15.2928895 19.5444727,15.2928006 19.5336684,15.305734 C19.2335062,15.6622231 18.9102239,16.0048899 18.5450584,16.2889345 C18.2504095,16.5181791 17.8323788,16.5728458 17.4849092,16.4255568 L17.4686806,16.4184457 L16.4009284,15.9389788 C16.1514528,16.0620011 15.89513,16.1681789 15.6322714,16.2572012 C15.4924832,16.6245791 15.3531396,16.9920904 15.2120176,17.3584018 C15.0673831,17.7242242 14.7071085,17.9891132 14.3112198,18.0237355 C14.282453,18.0262688 14.2536417,18.0286244 14.2248304,18.0308021 C13.8008418,18.0631577 13.3732519,18.0597799 12.9494857,18.0237355 L12.8316617,17.9947132 C12.7415819,17.9387576 12.7073462,17.9321799 12.6503906,17.8379576 C12.5274534,17.6345352 12.6448773,17.3180906 12.8941751,17.2599128 C12.9742509,17.2412461 13.0558385,17.2548906 13.1326686,17.2603573 C13.5025915,17.2858684 13.8742929,17.2831128 14.2436378,17.2512906 C14.3531474,17.2415573 14.4501632,17.1757794 14.4893786,17.0765349 C14.6357027,16.696757 14.7796702,16.3168012 14.9241714,15.9371565 L14.9735685,15.8072898 C15.0123393,15.7388009 15.052933,15.6689786 15.1170915,15.6250675 C15.1866299,15.5775563 15.2696847,15.5603563 15.3505609,15.5337785 C15.640319,15.4375563 15.9220295,15.3173784 16.1921354,15.1747117 C16.1921354,15.1747117 16.2619406,15.1383117 16.3181849,15.1277783 C16.4227148,15.1082228 16.4496142,15.1277783 16.5485419,15.1552006 C16.9633268,15.3414673 17.374288,15.5364452 17.7928967,15.7138675 C17.9751015,15.7891565 18.1577954,15.6064452 18.3346648,15.4424452 C18.4633819,15.3230673 18.5876529,15.1989339 18.707122,15.0703561 C18.7646112,15.0084449 18.8210333,14.9454671 18.876255,14.881556 C18.9693582,14.7737337 19.0460549,14.6402669 18.9895883,14.5100002 C18.8244124,14.1380444 18.6574136,13.7676442 18.4910372,13.3970663 L18.4340815,13.2703106 C18.4130955,13.1945328 18.3923763,13.1164883 18.406693,13.0400883 C18.4222102,12.9572882 18.4688063,12.8864882 18.5071769,12.8105326 C18.6465649,12.532488 18.7622547,12.2432878 18.8533571,11.9451099 L18.9042215,11.839421 C18.984075,11.7540876 18.9848309,11.7535098 19.0865152,11.6959987 C19.5114819,11.5345319 19.9400945,11.3822652 20.3614598,11.2115095 C20.5345499,11.1396872 20.541397,10.9017316 20.5510897,10.6756425 C20.5644283,10.364309 20.5611826,10.0537311 20.5293034,9.74088648 C20.5084063,9.5527086 20.2642217,9.47910856 20.0566291,9.39981963 C19.8243602,9.31115291 19.5920913,9.22270842 19.3597335,9.13430837 L19.2163884,9.07977501 L19.0864263,9.03035276 L18.9843418,8.97257495 C18.8652284,8.84528599 18.8174764,8.658797 18.7581642,8.49630802 C18.6705743,8.25635233 18.5655998,8.02270776 18.4455082,7.7969743 L18.406693,7.68626313 C18.4028248,7.56950751 18.4029137,7.56857418 18.434126,7.45604078 C18.6204658,7.04141834 18.8158757,6.63084033 18.9929674,6.21221788 C19.0677968,6.03141778 18.8855475,5.84737324 18.7214832,5.67066203 C18.5172697,5.45066191 18.3024743,5.2385729 18.0694941,5.05226169 C17.899294,4.91857273 17.6369688,5.0835506 17.3928286,5.19275066 C17.1535792,5.29981738 16.9144187,5.40701744 16.6753027,5.51426194 L16.5484974,5.57119531 C16.4726455,5.59221754 16.3945704,5.61292866 16.3181404,5.5985731 C16.2354858,5.58310643 16.1647914,5.53661751 16.0884948,5.4981286 C15.8104301,5.3587063 15.5206276,5.24297291 15.2228663,5.15212841 L15.1170915,5.10128394 C15.0317247,5.02146167 15.0311022,5.02075056 14.9735241,4.91906162 C14.8120385,4.49421694 14.6598455,4.06572782 14.4888895,3.64457203 C14.4231749,3.48621639 14.2172274,3.46826082 14.0113689,3.45777193 C13.6864414,3.44123859 13.3607581,3.44701637 13.0369422,3.47506083 C12.9274326,3.48479417 12.8303278,3.55066087 12.791068,3.64986092 C12.6446994,4.02963891 12.5008208,4.40955023 12.3563197,4.78923932 L12.3069225,4.91910606 C12.2681073,4.98755054 12.227558,5.05741725 12.1633551,5.10128394 C12.0938611,5.14883952 12.0109397,5.16599509 11.9299302,5.19257288 C11.6453741,5.28710626 11.3686433,5.40470633 11.1030725,5.54386196 L11.0730607,5.55981752 L10.9623062,5.5985731 C10.8455048,5.60248421 10.8445266,5.60239533 10.7319047,5.57119531 C10.3171642,5.38492854 9.906203,5.18995066 9.48754989,5.01248389 C9.30547847,4.93732829 9.12314027,5.11955062 8.94582628,5.28395071 C8.81710912,5.40332855 8.69279369,5.52746195 8.57336906,5.6560398 C8.51583538,5.71795094 8.45945771,5.78088431 8.40423605,5.8448399 C8.3110884,5.95266218 8.23425826,6.08577337 8.2909027,6.21635122 C8.45603415,6.58835142 8.62303299,6.95870718 8.78940936,7.3293296 L8.84636504,7.45608523 C8.86735105,7.53186305 8.88807029,7.60990754 8.87375356,7.68630758 C8.84836582,7.82186321 8.76095376,7.93635216 8.7007079,8.06577445 C8.59279891,8.29755236 8.50196327,8.53630804 8.42708946,8.78128595 L8.37622506,8.8869749 C8.29641598,8.97226384 8.29566013,8.97284161 8.19397579,9.0303972 C7.76896463,9.19186396 7.34035206,9.34408626 6.91903123,9.51484191 C6.75541149,9.5827975 6.74145046,9.79884207 6.73113531,10.0117311 C6.71548472,10.3365313 6.72228739,10.6617759 6.75118762,10.9862649 L6.7429177,11.1072872 C6.70334663,11.2056428 6.70276862,11.2405317 6.61975828,11.3128429 C6.44057688,11.4690652 6.10849106,11.4080874 6.00809613,11.172665 C5.98328639,11.1145317 5.97786204,11.0500428 5.9730157,10.9907538 C5.95887682,10.8180871 5.95056245,10.6449759 5.94798366,10.4717313 C5.94135884,10.02222 5.91614895,9.53857526 6.14646151,9.19035285 C6.26521921,9.01079719 6.43990996,8.87039711 6.64194476,8.7905304 C6.64194476,8.7905304 7.74393259,8.37186351 7.74393259,8.37186351 C7.82903264,8.12093004 7.93031681,7.87457435 8.04654018,7.63564088 L8.06232415,7.60355198 C7.9012832,7.24492956 7.73979764,6.88661825 7.58053516,6.52781805 C7.42740843,6.17475119 7.48387502,5.74786207 7.7252586,5.44657302 C7.73592945,5.43350634 7.73597391,5.43359523 7.74682261,5.42061745 C8.0469848,5.06417281 8.37035609,4.72141707 8.73538817,4.43746135 C9.03003709,4.20821678 9.44811219,4.15355009 9.79553737,4.30083906 L9.81181042,4.30795017 L10.8795626,4.7874171 C11.1295718,4.6640837 11.3858501,4.5580392 11.6481752,4.46919471 C11.7880078,4.10181673 11.9272625,3.73426097 12.0684734,3.3679941 C12.2167983,2.99266056 12.5811189,2.73550487 12.9907908,2.70079374 C13.4511491,2.66177149 13.9197774,2.64679371 14.3729774,2.70737152 C14.7442341,2.75697155 15.078632,3.01759391 15.2164638,3.37532744 L15.6323603,4.46919471 C15.649656,4.47506137 15.6669072,4.48097249 15.6841584,4.48692805 C15.9175833,4.56852809 16.1462952,4.66355037 16.3689159,4.77168376 L16.4009729,4.78746155 C16.7597358,4.62648368 17.1181876,4.46497248 17.4773507,4.30572795 C17.6193175,4.24443903 17.7506579,4.21475012 17.9217472,4.21768346 L17.9217472,4.21768346 Z M7.39379524,15.4801744 C6.85149363,15.4854674 6.3504971,15.9273788 6.28825047,16.4709791 C6.23387358,16.9462238 6.51829626,17.442224 6.96571621,17.6318241 C7.48480872,17.8517798 8.15636104,17.6048463 8.40797085,17.0909349 C8.66580532,16.564268 8.43086872,15.8492009 7.87989704,15.587423 C7.72894894,15.5156896 7.56177225,15.4797341 7.39379524,15.4801744 Z M13.6591418,7.43111855 C14.7286725,7.44110744 15.7652124,8.07866335 16.252159,9.02844165 C16.6632536,9.83021986 16.6747692,10.8238204 16.2838158,11.6342653 C15.7329331,12.7763993 14.3946748,13.485333 13.1035906,13.2461773 C12.202526,13.0792883 11.3956317,12.4614657 10.9966307,11.6342653 C10.6103014,10.8333315 10.6163482,9.85613099 11.0122813,9.060175 C11.4923363,8.09501891 12.530877,7.44128522 13.6213492,7.43111855 C13.6339319,7.43111855 13.6465146,7.43111855 13.6591418,7.43111855 Z M13.62624,8.20651802 C12.6459888,8.2156412 11.7177136,8.96488606 11.5239042,9.94164215 C11.3841161,10.6461314 11.6242992,11.4151541 12.1426803,11.9150654 C12.7411817,12.4922658 13.6870194,12.6800436 14.46737,12.3555546 C15.1559067,12.0692433 15.6733986,11.4031096 15.776817,10.6650648 C15.9052229,9.74897537 15.3729696,8.77928595 14.5274824,8.39693019 C14.245683,8.26946345 13.9374288,8.20550786 13.62624,8.20651802 L13.62624,8.20651802 Z" id="Shape" fill="#23C87E"></path>
        </g>
    </g>
</svg>