<?xml version="1.0" encoding="UTF-8"?>
<svg width="87px" height="95px" viewBox="0 0 87 95" version="1.1" xmlns="http://www.w3.org/2000/svg" xmlns:xlink="http://www.w3.org/1999/xlink">
    <title>Slice 1</title>
    <g id="Page-1" stroke="none" stroke-width="1" fill="none" fill-rule="evenodd">
        <g id="noun_CSV-File_1926540" transform="translate(3.000000, 3.000000)" fill-rule="nonzero">
            <g id="Group">
                <g>
                    <g id="Path" stroke="#535461" stroke-width="2">
                        <path d="M67.7305948,88.8212316 L4.59803427,88.8212316 C2.11819556,88.8212316 0.103326613,86.8049173 0.103326613,84.3232996 L0.103326613,4.65303309 C0.103326613,2.17141544 2.11819556,0.155101103 4.59803427,0.155101103 L57.2429435,0.155101103 L71.9153226,14.7863051 L71.9153226,15.1999081 C71.9153226,20.525046 71.9669859,26.2120864 71.9669859,31.9508272 L72.0186492,47.4609375 L69.9521169,47.4609375 L69.9004536,31.9508272 C69.9004536,26.4188879 69.8487903,20.8352482 69.8487903,15.6652114 L56.3646673,2.22311581 L4.59803427,2.22311581 C3.25478831,2.22311581 2.16985887,3.30882353 2.16985887,4.65303309 L2.16985887,84.2715993 C2.16985887,85.6158088 3.25478831,86.7015165 4.59803427,86.7015165 L67.7305948,86.7015165 C68.4022177,86.7015165 69.0221774,86.4430147 69.4871472,85.9777114 C69.9521169,85.5124081 70.2104335,84.8920037 70.2104335,84.2198989 L70.1587702,71.1397059 L72.2253024,71.1397059 L72.2769657,84.2198989 C72.2769657,85.4090074 71.811996,86.5464154 70.9853831,87.4253217 C70.1071069,88.3559283 68.9705141,88.8212316 67.7305948,88.8212316 Z"></path>
                        <path d="M70.9337198,16.3890165 L59.2061492,16.3890165 C57.3462702,16.3890165 55.796371,14.8897059 55.796371,12.9767923 L55.796371,1.13740809 L57.8629032,1.13740809 L57.8629032,12.9767923 C57.8629032,13.7005974 58.4311996,14.3210018 59.2061492,14.3210018 L70.9337198,14.3210018 L70.9337198,16.3890165 Z" fill="#23C87E"></path>
                    </g>
                    <path d="M78.3215726,72.2254136 L30.0680444,72.2254136 C28.2598286,72.2254136 26.813256,70.7778033 26.813256,68.9682904 L26.813256,49.8908548 C26.813256,48.0813419 28.2598286,46.6337316 30.0680444,46.6337316 L78.3215726,46.6337316 C80.1297883,46.6337316 81.5763609,48.0813419 81.5763609,49.8908548 L81.5763609,68.9682904 C81.5246976,70.7778033 80.078125,72.2254136 78.3215726,72.2254136 Z M30.016381,48.7534467 C29.3964214,48.7534467 28.828125,49.2704504 28.828125,49.9425551 L28.828125,69.0199908 C28.828125,69.6403952 29.3447581,70.2090993 30.016381,70.2090993 L78.2699093,70.2090993 C78.889869,70.2090993 79.4581653,69.6920956 79.4581653,69.0199908 L79.4581653,49.9425551 C79.4581653,49.3221507 78.9415323,48.7534467 78.2699093,48.7534467 L30.016381,48.7534467 Z" id="Shape" fill="#6C63FF"></path>
                </g>
                <g transform="translate(10.332661, 9.306066)" fill="#535461" stroke="#535461">
                    <path d="M21.078629,26.3154871 L2.47983871,26.3154871 C1.18825605,26.3154871 0.206653226,25.2814798 0.206653226,24.040671 L0.206653226,2.74011949 C0.206653226,1.44761029 1.23991935,0.465303309 2.47983871,0.465303309 L21.078629,0.465303309 C22.3702117,0.465303309 23.3518145,1.49931066 23.3518145,2.74011949 L23.3518145,24.040671 C23.3518145,25.2814798 22.3185484,26.3154871 21.078629,26.3154871 Z M2.47983871,2.48161765 C2.3765121,2.48161765 2.27318548,2.58501838 2.27318548,2.68841912 L2.27318548,23.9889706 C2.27318548,24.0923713 2.3765121,24.1957721 2.47983871,24.1957721 L21.078629,24.1957721 C21.1819556,24.1957721 21.2852823,24.0923713 21.2852823,23.9889706 L21.2852823,2.74011949 C21.2852823,2.63671875 21.1819556,2.53331801 21.078629,2.53331801 L2.47983871,2.53331801 L2.47983871,2.48161765 Z" id="Shape"></path>
                    <rect id="Rectangle" x="1.18825605" y="8.84076287" width="21.1302923" height="2.06801471"></rect>
                    <rect id="Rectangle" x="1.18825605" y="16.595818" width="21.1302923" height="2.06801471"></rect>
                </g>
            </g>
            <g id="Group" transform="translate(37.000000, 52.000000)" fill="#6C63FF">
                <path d="M11.4583333,14.8958333 C10.7291667,15.2604167 9.32291667,15.625 7.5,15.625 C3.28125,15.625 0.0520833333,12.96875 0.0520833333,8.02083333 C0.0520833333,3.33333333 3.22916667,0.104166667 7.91666667,0.104166667 C9.79166667,0.104166667 10.9895833,0.520833333 11.5104167,0.78125 L11.0416667,2.34375 C10.3125,1.97916667 9.27083333,1.71875 8.02083333,1.71875 C4.47916667,1.71875 2.13541667,3.95833333 2.13541667,7.91666667 C2.13541667,11.6145833 4.27083333,13.9583333 7.91666667,13.9583333 C9.11458333,13.9583333 10.3125,13.6979167 11.09375,13.3333333 L11.4583333,14.8958333 Z" id="Path"></path>
                <path d="M13.59375,13.0208333 C14.4791667,13.5416667 15.7291667,14.0104167 17.0833333,14.0104167 C19.0625,14.0104167 20.2083333,12.96875 20.2083333,11.4583333 C20.2083333,10.0520833 19.4270833,9.27083333 17.3958333,8.48958333 C14.9479167,7.60416667 13.4375,6.35416667 13.4375,4.21875 C13.4375,1.875 15.3645833,0.15625 18.28125,0.15625 C19.84375,0.15625 20.9375,0.520833333 21.6145833,0.885416667 L21.09375,2.44791667 C20.625,2.1875 19.5833333,1.71875 18.2291667,1.71875 C16.1979167,1.71875 15.4166667,2.96875 15.4166667,3.95833333 C15.4166667,5.36458333 16.3541667,6.04166667 18.3854167,6.875 C20.9375,7.86458333 22.2395833,9.0625 22.2395833,11.3020833 C22.2395833,13.6458333 20.5208333,15.625 16.9791667,15.625 C15.5208333,15.625 13.9583333,15.2083333 13.125,14.6875 L13.59375,13.0208333 Z" id="Path"></path>
                <path d="M28.1770833,15.4166667 L23.28125,0.364583333 L25.3645833,0.364583333 L27.7083333,7.76041667 C28.3333333,9.79166667 28.90625,11.6145833 29.3229167,13.3854167 L29.375,13.3854167 C29.7916667,11.6666667 30.4166667,9.73958333 31.09375,7.76041667 L33.6458333,0.3125 L35.7291667,0.3125 L30.3645833,15.3645833 L28.1770833,15.3645833 L28.1770833,15.4166667 Z" id="Path"></path>
            </g>
        </g>
    </g>
</svg>