<?xml version="1.0" encoding="UTF-8"?>
<svg width="17px" height="24px" viewBox="0 0 17 24" version="1.1" xmlns="http://www.w3.org/2000/svg" xmlns:xlink="http://www.w3.org/1999/xlink">
    <title>Slice 1</title>
    <g id="Page-1" stroke="none" stroke-width="1" fill="none" fill-rule="evenodd">
        <g id="noun_CSV-File_56841-Copy" fill-rule="nonzero">
            <g id="Group-6">
                <path d="M2.70204104,0.336344855 C1.40750188,0.336344855 0.353988021,1.37608769 0.353988021,2.65370527 L0.353988021,21.2443839 C0.353988021,22.5220015 1.40750188,23.5617443 2.70204104,23.5617443 L14.2253834,23.5617443 C15.5199225,23.5617443 16.5734364,22.5220015 16.5734364,21.2443839 L16.5738251,2.65370527 C16.5738251,1.37608769 15.5203113,0.336344855 14.2257721,0.336344855 L2.70204104,0.336344855 Z" id="Path" fill="#60D7A1" opacity="0.198893229"></path>
                <path d="M3.47719139,4.8641189 C2.91329424,4.8641189 2.44861996,5.31588718 2.44861996,5.8641189 L2.44861996,18.8641189 C2.44861996,19.4123523 2.91329424,19.8641189 3.47719139,19.8641189 L13.4200485,19.8641189 C13.9839457,19.8641189 14.44862,19.4123523 14.44862,18.8641189 L14.44862,5.8641189 C14.44862,5.31588718 13.9839457,4.8641189 13.4200485,4.8641189 L3.47719139,4.8641189 Z M3.7712006,5.8641189 L13.1260393,5.8641189 C13.3103296,5.8641189 13.44862,6.00005449 13.44862,6.18119203 L13.44862,18.5470458 C13.44862,18.7281738 13.3103296,18.8641189 13.1260393,18.8641189 L3.7712006,18.8641189 C3.58691028,18.8641189 3.44861996,18.7281738 3.44861996,18.5470458 L3.44861996,6.18119203 C3.44861996,6.00005449 3.58691028,5.8641189 3.7712006,5.8641189 Z M4.79644604,8.8641189 C4.6043417,8.8641189 4.44861996,9.0879689 4.44861996,9.3641189 C4.44861996,9.6402689 4.6043417,9.8641189 4.79644604,9.8641189 L12.1007939,9.8641189 C12.2928982,9.8641189 12.44862,9.6402689 12.44862,9.3641189 C12.44862,9.0879689 12.2928982,8.8641189 12.1007939,8.8641189 L4.79644604,8.8641189 Z M4.79644604,10.8641189 C4.6043417,10.8641189 4.44861996,11.0879689 4.44861996,11.3641189 C4.44861996,11.6402689 4.6043417,11.8641189 4.79644604,11.8641189 L12.1007939,11.8641189 C12.2928982,11.8641189 12.44862,11.6402689 12.44862,11.3641189 C12.44862,11.0879689 12.2928982,10.8641189 12.1007939,10.8641189 L4.79644604,10.8641189 Z M4.79644604,12.8641189 C4.6043417,12.8641189 4.44861996,13.0879689 4.44861996,13.3641189 C4.44861996,13.6402689 4.6043417,13.8641189 4.79644604,13.8641189 L12.1007939,13.8641189 C12.2928982,13.8641189 12.44862,13.6402689 12.44862,13.3641189 C12.44862,13.0879689 12.2928982,12.8641189 12.1007939,12.8641189 L4.79644604,12.8641189 Z M4.82361996,14.8641189 C4.61650746,14.8641189 4.44861996,15.0879689 4.44861996,15.3641189 C4.44861996,15.6402689 4.61650746,15.8641189 4.82361996,15.8641189 L10.07362,15.8641189 C10.2807325,15.8641189 10.44862,15.6402689 10.44862,15.3641189 C10.44862,15.0879689 10.2807325,14.8641189 10.07362,14.8641189 L4.82361996,14.8641189 Z" id="Shape" fill="#23C87E"></path>
            </g>
        </g>
    </g>
</svg>