<?xml version="1.0" encoding="UTF-8"?>
<svg width="26px" height="26px" viewBox="0 0 26 26" version="1.1" xmlns="http://www.w3.org/2000/svg" xmlns:xlink="http://www.w3.org/1999/xlink">
    <title>Slice 1</title>
    <g id="Page-1" stroke="none" stroke-width="1" fill="none" fill-rule="evenodd">
        <g id="Group-9" transform="translate(1.000000, 1.000000)" fill="#23C87E" fill-rule="nonzero">
            <g id="noun_Info_469213-(2)">
                <g id="Group">
                    <path d="M11.9292901,0 C5.38742133,0 0,5.38742133 0,11.9292901 C0,18.4711589 5.38742133,23.8585802 11.9292901,23.8585802 C18.4711589,23.8585802 23.8585802,18.4711589 23.8585802,11.9292901 C23.8585802,5.38742133 18.3749549,0 11.9292901,0 Z M11.9292901,22.319317 C6.2532569,22.319317 1.53926324,17.6053233 1.53926324,11.9292901 C1.53926324,6.2532569 6.2532569,1.53926324 11.9292901,1.53926324 C17.6053233,1.53926324 22.319317,6.2532569 22.319317,11.9292901 C22.319317,17.6053233 17.6053233,22.319317 11.9292901,22.319317 Z" id="Shape"></path>
                    <g transform="translate(10.582435, 5.285445)">
                        <path d="M2.7603975,12.2236742 C2.7603975,12.704694 2.3187339,13.1857137 1.6562385,13.1857137 L1.3249908,13.1857137 C0.772911299,13.1857137 0.2208318,12.8008979 0.2208318,12.2236742 L0.2208318,4.23874614 C0.2208318,3.75772638 0.662495399,3.27670662 1.3249908,3.27670662 L1.6562385,3.27670662 C2.208318,3.27670662 2.7603975,3.66152243 2.7603975,4.23874614 L2.7603975,12.2236742 Z" id="Path"></path>
                        <ellipse id="Oval" cx="1.5458226" cy="1.16021967" rx="1.2145749" ry="1.05824348"></ellipse>
                    </g>
                </g>
            </g>
        </g>
    </g>
</svg>
