<svg xmlns="http://www.w3.org/2000/svg" viewBox="0 0 382 382"><defs><style>.cls-1{fill:none;}.cls-2{fill:#23c87e;}</style></defs><title>Like_Icon_1</title><g id="Layer_2" data-name="Layer 2"><g id="Layer_1-2" data-name="Layer 1"><rect class="cls-1" width="382" height="382"/><rect class="cls-2" x="29.3" y="161.6" width="58.8" height="176.4" rx="10"/><path class="cls-2" d="M323.3,146.9H230.54l14-67.18L245,75a21.79,21.79,0,0,0-6.47-15.44L222.9,44l-96.73,96.87a28.75,28.75,0,0,0-8.67,20.73v147A29.4,29.4,0,0,0,146.9,338H279.2a29.21,29.21,0,0,0,27.05-17.93l44.39-103.64a28.9,28.9,0,0,0,2.06-10.73V176.3A29.39,29.39,0,0,0,323.3,146.9Zm4.4,58.8a3.74,3.74,0,0,1-.25,1.38L283.27,310.22l0,.12-.05.11a4.19,4.19,0,0,1-4,2.55H146.9a4.4,4.4,0,0,1-4.4-4.4v-147a3.75,3.75,0,0,1,1.11-2.81l.13-.12.12-.13L218,84.26l-12,57.55-6.26,30.09H323.3a4.4,4.4,0,0,1,4.4,4.4Z"/></g></g></svg>