<?xml version="1.0" encoding="UTF-8"?>
<svg width="171px" height="18px" viewBox="0 0 171 18" version="1.1" xmlns="http://www.w3.org/2000/svg" xmlns:xlink="http://www.w3.org/1999/xlink">
    <title>Slice 1</title>
    <g id="Page-1" stroke="none" stroke-width="1" fill="none" fill-rule="evenodd">
        <g id="Group-13" transform="translate(2.000000, 2.000000)" fill="#414141">
            <line x1="8.5" y1="6.5" x2="163.5" y2="6.5" id="Line-5" stroke="#414141" stroke-width="1.5" stroke-linecap="square" stroke-dasharray="4"></line>
            <path d="M78.0021796,7.04472893 C78.012257,7.18642805 78.0762299,7.32110401 78.1839123,7.42731339 L84.7262854,13.7872911 C84.9005394,13.9576273 85.1655741,14.0334728 85.4211987,13.9861558 C85.6768233,13.9388388 85.8840377,13.7755784 85.9645088,13.5580917 C86.04498,13.340605 85.9864305,13.1020735 85.8109939,12.9326691 L79.7059244,7 L85.8109939,1.06733092 C85.9864305,0.897926477 86.04498,0.659395017 85.9645088,0.441908296 C85.8840377,0.224421575 85.6768233,0.0611611536 85.4211987,0.0138441652 C85.1655741,-0.0334728232 84.9005394,0.0423726904 84.7262854,0.212708921 L78.1839123,6.57268661 C78.0525072,6.7018762 77.9868917,6.87230924 78.0021796,7.04472893 L78.0021796,7.04472893 Z" id="Path" fill-rule="nonzero" transform="translate(82.000000, 7.000000) rotate(-180.000000) translate(-82.000000, -7.000000) "></path>
            <path d="M0.00217955756,7.04472893 C0.0122569804,7.18642805 0.0762298831,7.32110401 0.183912345,7.42731339 L6.72628544,13.7872911 C6.90053941,13.9576273 7.16557407,14.0334728 7.42119868,13.9861558 C7.67682329,13.9388388 7.88403766,13.7755784 7.96450881,13.5580917 C8.04497996,13.340605 7.98643055,13.1020735 7.81099393,12.9326691 L1.70592444,7 L7.81099393,1.06733092 C7.98643055,0.897926477 8.04497996,0.659395017 7.96450881,0.441908296 C7.88403766,0.224421575 7.67682329,0.0611611536 7.42119868,0.0138441652 C7.16557407,-0.0334728232 6.90053941,0.0423726904 6.72628544,0.212708921 L0.183912345,6.57268661 C0.0525071887,6.7018762 -0.0131082659,6.87230924 0.00217955756,7.04472893 L0.00217955756,7.04472893 Z" id="Path-Copy-4" fill-rule="nonzero" transform="translate(4.000000, 7.000000) rotate(-180.000000) translate(-4.000000, -7.000000) "></path>
            <path d="M157.00218,7.04472893 C157.012257,7.18642805 157.07623,7.32110401 157.183912,7.42731339 L163.726285,13.7872911 C163.900539,13.9576273 164.165574,14.0334728 164.421199,13.9861558 C164.676823,13.9388388 164.884038,13.7755784 164.964509,13.5580917 C165.04498,13.340605 164.986431,13.1020735 164.810994,12.9326691 L158.705924,7 L164.810994,1.06733092 C164.986431,0.897926477 165.04498,0.659395017 164.964509,0.441908296 C164.884038,0.224421575 164.676823,0.0611611536 164.421199,0.0138441652 C164.165574,-0.0334728232 163.900539,0.0423726904 163.726285,0.212708921 L157.183912,6.57268661 C157.052507,6.7018762 156.986892,6.87230924 157.00218,7.04472893 L157.00218,7.04472893 Z" id="Path-Copy-2" fill-rule="nonzero" transform="translate(161.000000, 7.000000) rotate(-180.000000) translate(-161.000000, -7.000000) "></path>
        </g>
    </g>
</svg>