<?xml version="1.0" encoding="UTF-8"?>
<svg width="225px" height="154px" viewBox="0 0 225 154" version="1.1" xmlns="http://www.w3.org/2000/svg" xmlns:xlink="http://www.w3.org/1999/xlink">
    <title>Slice 1</title>
    <g id="Page-1" stroke="none" stroke-width="1" fill="none" fill-rule="evenodd">
        <g id="undraw_spreadsheets_xdjy" transform="translate(3.000000, 3.000000)" fill-rule="nonzero">
            <path d="M3.38089987,0.295211212 L214.201915,0.295211212 C215.858769,0.295211212 217.201915,1.63835696 217.201915,3.29521121 L217.201915,144.119723 C217.201915,145.776577 215.858769,147.119723 214.201915,147.119723 L3.38089987,147.119723 C1.72404562,147.119723 0.380899874,145.776577 0.380899874,144.119723 L0.380899874,3.29521121 C0.380899874,1.63835696 1.72404562,0.295211212 3.38089987,0.295211212 Z" id="Rectangle" fill="#535461" transform="translate(108.791407, 73.707467) rotate(-0.080000) translate(-108.791407, -73.707467) "></path>
            <polygon id="Path" fill="#FFFFFF" points="183.360149 143 6 143 6 6 213 6 213 124.337189 212.880953 142.801928"></polygon>
            <g id="Group" opacity="0.7" transform="translate(6.000000, 52.000000)" fill="#E0E0E0">
                <rect id="Rectangle" x="0.102256342" y="0.36375" width="206.637957" height="2.5725"></rect>
            </g>
            <g id="Group" opacity="0.7" transform="translate(6.000000, 42.000000)" fill="#E0E0E0">
                <rect id="Rectangle" x="0.102256342" y="0.36375" width="206.637957" height="2.5725"></rect>
            </g>
            <g id="Group" opacity="0.7" transform="translate(6.000000, 32.000000)" fill="#E0E0E0">
                <rect id="Rectangle" x="0.102256342" y="0.36375" width="206.637957" height="2.5725"></rect>
            </g>
            <g id="Group" opacity="0.7" transform="translate(6.000000, 21.000000)" fill="#E0E0E0">
                <rect id="Rectangle" x="0.102256342" y="0.36375" width="206.637957" height="2.5725"></rect>
            </g>
            <g id="Group" opacity="0.7" transform="translate(6.000000, 10.000000)" fill="#E0E0E0">
                <rect id="Rectangle" x="0.102256342" y="0.36375" width="206.637957" height="2.5725"></rect>
            </g>
            <g id="Group" opacity="0.7" transform="translate(6.000000, 62.000000)" fill="#E0E0E0">
                <rect id="Rectangle" x="0.102256342" y="0.3675" width="206.637957" height="2.5725"></rect>
            </g>
            <g id="Group" opacity="0.7" transform="translate(6.000000, 73.000000)" fill="#E0E0E0">
                <rect id="Rectangle" x="0.102256342" y="0" width="206.637957" height="2.94"></rect>
            </g>
            <g id="Group" opacity="0.7" transform="translate(6.000000, 83.000000)" fill="#E0E0E0">
                <rect id="Rectangle" x="0.102256342" y="0.00857142857" width="206.637957" height="2.94"></rect>
            </g>
            <g id="Group" opacity="0.7" transform="translate(6.000000, 92.000000)" fill="#E0E0E0">
                <rect id="Rectangle" x="0.102256342" y="0.0171428571" width="206.637957" height="2.94"></rect>
            </g>
            <g id="Group" opacity="0.7" transform="translate(6.000000, 104.000000)" fill="#E0E0E0">
                <rect id="Rectangle" x="0.102256342" y="0.0214285714" width="206.637957" height="2.94"></rect>
            </g>
            <g id="Group" opacity="0.7" transform="translate(6.000000, 112.000000)" fill="#E0E0E0">
                <rect id="Rectangle" x="0.102256342" y="0.03" width="206.637957" height="2.94"></rect>
            </g>
            <g id="Group" opacity="0.7" transform="translate(6.000000, 123.000000)" fill="#E0E0E0">
                <rect id="Rectangle" x="0.0996256684" y="0.0385714286" width="206.881003" height="2.94"></rect>
            </g>
            <g id="Group" opacity="0.7" transform="translate(6.000000, 134.000000)" fill="#E0E0E0">
                <rect id="Rectangle" x="0.102393048" y="0.0471428571" width="206.720495" height="2.94"></rect>
            </g>
            <rect id="Rectangle" fill="#E0E0E0" x="30" y="13" width="1" height="129"></rect>
            <rect id="Rectangle" fill="#E0E0E0" x="62" y="13" width="1" height="129"></rect>
            <rect id="Rectangle" fill="#E0E0E0" x="93" y="13" width="1" height="129"></rect>
            <rect id="Rectangle" fill="#E0E0E0" x="125" y="13" width="1" height="129"></rect>
            <rect id="Rectangle" fill="#E0E0E0" x="157" y="13" width="1" height="129"></rect>
            <polygon id="Path" fill="#E0E0E0" points="190 142 189 142 189 13.0607709 190 13"></polygon>
            <circle id="Oval" fill="#FF5252" cx="10.5" cy="8.5" r="1.5"></circle>
            <circle id="Oval" fill="#FFFF00" cx="14.5" cy="8.5" r="1.5"></circle>
            <circle id="Oval" fill="#69F0AE" cx="18.5" cy="8.5" r="1.5"></circle>
            <rect id="Rectangle" fill="#6C63FF" x="63" y="84" width="31" height="8"></rect>
            <rect id="Rectangle" fill="#6C63FF" x="94" y="126" width="31" height="8"></rect>
            <rect id="Rectangle" fill="#6C63FF" x="126" y="115" width="31" height="8"></rect>
            <rect id="Rectangle" fill="#6C63FF" x="126" y="55" width="31" height="8"></rect>
            <rect id="Rectangle" fill="#6C63FF" x="158" y="95" width="31" height="8"></rect>
            <rect id="Rectangle" fill="#6C63FF" x="31" y="24" width="31" height="8"></rect>
            <rect id="Rectangle" fill="#6C63FF" x="94" y="45" width="31" height="8"></rect>
            <rect id="Rectangle" fill="#6C63FF" x="31" y="65" width="31" height="8"></rect>
        </g>
    </g>
</svg>