<svg xmlns="http://www.w3.org/2000/svg" viewBox="0 0 382 382"><defs><style>.cls-1{fill:none;}.cls-2{fill:#23c87e;}.cls-3{fill:#fff;}</style></defs><title>Play_Green</title><g id="Layer_2" data-name="Layer 2"><g id="Layer_1-2" data-name="Layer 1"><rect class="cls-1" width="382" height="382"/><path class="cls-2" d="M306.59,186.88,80.16,56.16a4.6,4.6,0,0,0-2.35-.66,4.76,4.76,0,0,0-2.4.66A4.64,4.64,0,0,0,73,60.27V321.73a4.76,4.76,0,0,0,7.13,4.12L306.59,195.12a4.76,4.76,0,0,0,0-8.24Z"/><path class="cls-3" d="M314.09,173.89,87.66,43.17A19.76,19.76,0,0,0,58,60.27V321.73a19.84,19.84,0,0,0,19.76,19.78,19.73,19.73,0,0,0,9.87-2.67L314.09,208.11a19.76,19.76,0,0,0,0-34.22Zm-7.5,21.23L80.16,325.85A4.76,4.76,0,0,1,73,321.73V60.27a4.64,4.64,0,0,1,2.38-4.11,4.76,4.76,0,0,1,2.4-.66,4.6,4.6,0,0,1,2.35.66L306.59,186.88a4.76,4.76,0,0,1,0,8.24Z"/></g></g></svg>