<?xml version="1.0" encoding="UTF-8"?>
<svg width="17px" height="24px" viewBox="0 0 17 24" version="1.1" xmlns="http://www.w3.org/2000/svg" xmlns:xlink="http://www.w3.org/1999/xlink">
    <title>Slice 1</title>
    <g id="Page-1" stroke="none" stroke-width="1" fill="none" fill-rule="evenodd">
        <g id="upload_CSV" fill-rule="nonzero">
            <path d="M2.70204104,0.336344855 C1.40750188,0.336344855 0.353988021,1.37608769 0.353988021,2.65370527 L0.353988021,21.2443839 C0.353988021,22.5220015 1.40750188,23.5617443 2.70204104,23.5617443 L14.2253834,23.5617443 C15.5199225,23.5617443 16.5734364,22.5220015 16.5734364,21.2443839 L16.5738251,2.65370527 C16.5738251,1.37608769 15.5203113,0.336344855 14.2257721,0.336344855 L2.70204104,0.336344855 Z" id="Path" fill="#2B2F96" opacity="0.172665551"></path>
            <path d="M12.8215602,10.0003649 C12.6567234,9.83018777 12.3897891,9.83018777 12.2249523,10.0003649 L8.88613031,13.4473566 L8.88613031,4.41871654 C8.88613031,4.17813519 8.69713303,3.98301486 8.46410134,3.98301486 C8.23106964,3.98301486 8.04207237,4.17813519 8.04207237,4.41871654 L8.04207237,13.4477589 L4.70325036,10.0007672 C4.53841356,9.83059008 4.27147926,9.83059008 4.10664246,10.0007672 C3.94180566,10.1709443 3.94180566,10.4465266 4.10664246,10.6167037 L8.1406627,14.7814164 C8.14806672,14.7906695 8.15586042,14.7999227 8.16443349,14.8087735 C8.24665705,14.8936609 8.35459982,14.9363057 8.4625426,14.9363057 C8.46293228,14.9363057 8.46332197,14.9363057 8.46371165,14.9363057 C8.46410134,14.9363057 8.46449102,14.9363057 8.46488071,14.9363057 C8.57282348,14.9363057 8.68076626,14.8936609 8.76298982,14.8087735 C8.77156289,14.7999227 8.77935659,14.7906695 8.78676061,14.7814164 L12.8207808,10.6167037 C12.9860073,10.4461243 12.9860073,10.170542 12.8215602,10.0003649 Z" id="Path" fill="#31359D" transform="translate(8.463907, 9.459660) scale(1, -1) translate(-8.463907, -9.459660) "></path>
            <g id="Group" transform="translate(2.987261, 17.923567)" fill="#31359D">
                <path d="M0.760471338,2.73752611 L0.716266985,2.73752611 C0.597345541,2.73752611 0.489377389,2.78333079 0.403707006,2.87016051 C0.318819002,2.95699023 0.274223461,3.06652314 0.274223461,3.21429299 C0.274223461,3.33537665 0.318819002,3.44530786 0.404489384,3.53253588 C0.489377389,3.618569 0.597345541,3.66437367 0.716266985,3.66437367 L0.760471338,3.66437367 C0.87978397,3.66437367 0.987752123,3.618569 1.07185775,3.53213758 C1.15713694,3.44570616 1.20212367,3.33577495 1.20212367,3.18720849 C1.20212367,3.06572654 1.15713694,2.95579533 1.07264013,2.86976221 C0.987752123,2.78333079 0.87978397,2.73752611 0.760471338,2.73752611 Z" id="Path"></path>
                <path d="M4.3085552,3.04859958 C4.3085552,2.95380382 4.27452176,2.86617749 4.21193153,2.79647473 C4.09379246,2.66344204 3.89898036,2.6534845 3.76675849,2.72000085 C3.65996391,2.77735626 3.54964862,2.82355924 3.43933333,2.85860977 C3.33527707,2.89127049 3.20540234,2.90799915 3.05283864,2.90799915 C2.73128132,2.90799915 2.48913535,2.8132034 2.31231794,2.61843397 C2.14840977,2.43680849 2.06899841,2.1982259 2.06899841,1.88834735 C2.06899841,1.57846879 2.14840977,1.3402845 2.31231794,1.15865902 C2.39251168,1.06983779 2.49422081,0.998940127 2.6150982,0.947957537 C2.8666327,0.841212739 3.23435032,0.854356688 3.43894214,0.918483227 C3.55003981,0.953533758 3.65996391,1.00013503 3.77106157,1.05948195 C3.89272134,1.12042208 4.09418365,1.11285435 4.21036677,0.982211465 C4.27413057,0.9113138 4.30816401,0.824484076 4.30816401,0.730883227 C4.30816401,0.649629724 4.28899575,0.577537155 4.25144161,0.516995329 C4.21349628,0.456055202 4.14895011,0.403479406 4.02768153,0.335768153 C3.93223142,0.283192357 3.80392144,0.229819958 3.63610138,0.172464544 C3.46006635,0.111922718 3.25038907,0.0812535032 3.01254618,0.0812535032 C2.51299788,0.0812535032 2.09638163,0.245353715 1.77599788,0.568376221 C1.44466083,0.898966454 1.27723195,1.34307261 1.27723195,1.88874565 C1.27723195,2.43481699 1.44505202,2.87892314 1.77443312,3.20792017 C1.9309087,3.36763907 2.11867941,3.49031592 2.33109501,3.57356093 C2.54077229,3.65521274 2.76922665,3.69623779 3.01019904,3.69623779 C3.2492155,3.69623779 3.45928397,3.66556858 3.63571019,3.60502675 C3.80431263,3.54727304 3.96391773,3.47597707 4.103181,3.39751168 C4.23383811,3.33059703 4.3085552,3.20353885 4.3085552,3.04859958 Z" id="Path"></path>
                <path d="M5.66676327,0.958711677 C5.7825552,0.890203822 5.93746603,0.855551592 6.12758386,0.855551592 C6.35017038,0.855551592 6.54889437,0.886619108 6.71632325,0.946762633 C6.80434076,0.979423355 6.87358121,0.994558811 6.93499788,0.994558811 C7.00345594,0.994558811 7.10360032,0.970660722 7.19005308,0.8575431 C7.24755786,0.78266242 7.27807059,0.696230998 7.27807059,0.607409766 C7.27807059,0.432953715 7.18614119,0.299124416 7.0261449,0.240972399 C6.74135934,0.135024204 6.42449628,0.0812535032 6.0837707,0.0812535032 C5.68319321,0.0812535032 5.35498567,0.189193206 5.10814544,0.4018862 C4.86991136,0.607808068 4.74864278,0.875864968 4.74864278,1.19888747 C4.74864278,1.50836773 4.87225849,1.76089087 5.11870754,1.95088068 C5.22159023,2.02735456 5.33933811,2.0906845 5.46921285,2.13848068 C5.58656953,2.18189554 5.70588217,2.22092909 5.82636837,2.25518301 C5.94411624,2.28864034 6.06069055,2.31970786 6.17530892,2.34838556 C6.27819161,2.37427516 6.36777389,2.40295287 6.4417086,2.43402038 C6.52229352,2.46986752 6.61852601,2.52682463 6.61852601,2.59652739 C6.61852601,2.69092484 6.61852601,2.91238047 6.04426062,2.91238047 C5.87096391,2.91238047 5.71918259,2.8952535 5.59282856,2.86099958 C5.46295382,2.82594904 5.36906847,2.79647473 5.31156369,2.77058514 C5.0987569,2.67419618 4.93250159,2.69729766 4.81553609,2.83391507 C4.7513811,2.90760085 4.71773885,2.99642208 4.71773885,3.09121783 C4.71773885,3.18083567 4.74473089,3.26368238 4.79558546,3.33139363 C4.840181,3.39034225 4.89416507,3.43455372 4.95910244,3.46442633 C5.3076518,3.6177724 5.68593153,3.69583949 6.0837707,3.69583949 C6.46674469,3.69583949 6.78399894,3.59905223 7.02653609,3.40707091 C7.27807059,3.20672527 7.4055982,2.94304968 7.4055982,2.62321359 C7.4055982,2.28824204 7.28080892,2.02576136 7.03514225,1.84413588 C6.93186837,1.767662 6.81490287,1.70473036 6.68581051,1.65812909 C6.56845382,1.61590913 6.44796762,1.57886709 6.32435191,1.54740127 C6.20621285,1.51752866 6.09120329,1.48885096 5.97932325,1.46216476 C5.88035244,1.43826667 5.79233493,1.40799575 5.71331476,1.37055541 C5.54001805,1.29328493 5.54001805,1.20844671 5.54001805,1.16781996 C5.54001805,1.07421911 5.57835456,1.01168577 5.66676327,0.958711677 Z" id="Path"></path>
                <path d="M10.4936438,0.103160085 C10.3399066,0.103160085 10.212379,0.19835414 10.1431385,0.36723397 L9.29073779,2.53160425 L8.43677229,0.36444586 C8.36831423,0.198752442 8.22865977,0.103558386 8.0537983,0.103558386 C7.94622134,0.103558386 7.85038004,0.145778344 7.77801008,0.226235244 C7.70955202,0.301514225 7.67356263,0.391928662 7.67356263,0.486326115 C7.67356263,0.560410191 7.68255998,0.616570701 7.70133705,0.660782166 L8.7907983,3.3509104 C8.91636996,3.63171295 9.12722081,3.67353461 9.24144798,3.67353461 L9.33807166,3.67353461 C9.45229883,3.67353461 9.66314968,3.63171295 9.79145966,3.34413928 L10.877009,0.663570276 C10.8973508,0.616172399 10.9063482,0.56001189 10.9063482,0.486724416 C10.9063482,0.420606369 10.8879623,0.322225902 10.8015096,0.226633546 C10.7518286,0.170074735 10.657552,0.103160085 10.4936438,0.103160085 Z" id="Path"></path>
            </g>
        </g>
    </g>
</svg>