<svg xmlns="http://www.w3.org/2000/svg" viewBox="0 0 382 382"><defs><style>.cls-1{fill:none;}.cls-2{fill:#414141;}</style></defs><title>Web_Cam_Recorder</title><g id="Layer_2" data-name="Layer 2"><g id="Layer_1-2" data-name="Layer 1"><rect class="cls-1" width="382" height="382"/><path class="cls-2" d="M357,98.77a10,10,0,0,0-3.12.5L295,118.48V73a10,10,0,0,0-10-10H25A10,10,0,0,0,15,73V309a10,10,0,0,0,10,10H285a10,10,0,0,0,10-10V263.52l58.9,19.21a10,10,0,0,0,13.1-9.51V108.78A10,10,0,0,0,357,98.77ZM275,299H35V83H275V299Zm72-39.56-52-16.95v-103l52-16.95Z"/></g></g></svg>