<?xml version="1.0" encoding="UTF-8"?>
<svg width="18px" height="14px" viewBox="0 0 18 14" version="1.1" xmlns="http://www.w3.org/2000/svg" xmlns:xlink="http://www.w3.org/1999/xlink">
    <title>Slice 1</title>
    <g id="Page-1" stroke="none" stroke-width="1" fill="none" fill-rule="evenodd">
        <g id="noun_View_1221860" transform="translate(1.000000, 3.000000)" fill="#23C87E" fill-rule="nonzero">
            <path d="M8.02980405,0 C5.02818682,0 2.2177554,1.3271028 0.0955929053,3.73831776 C0.0382371621,3.81308411 0,3.90654206 0,4 C0,4.09345794 0.0382371621,4.18691589 0.114711486,4.26168224 C2.23687398,6.6728972 5.0473054,8 8.02980405,8 C10.954947,8 13.7462598,6.6728972 15.9066594,4.24299065 C16.0404895,4.09345794 16.0213709,3.88785047 15.9066594,3.75700935 C13.7462598,1.3271028 10.9358284,0 8.02980405,0 Z M8.02980405,7.25233645 C5.3532027,7.25233645 2.82955,6.09345794 0.89857331,4 C2.82955,1.90654206 5.3532027,0.747663551 8.02980405,0.747663551 C10.6299311,0.747663551 13.1153466,1.90654206 15.103679,4 C13.1153466,6.09345794 10.6299311,7.25233645 8.02980405,7.25233645 Z" id="Shape"></path>
            <path d="M8,1 C6.34,1 5,2.34 5,4 C5,5.66 6.34,7 8,7 C9.66,7 11,5.66 11,4 C11,2.34 9.66,1 8,1 Z M8,6.2 C6.78,6.2 5.8,5.22 5.8,4 C5.8,2.78 6.78,1.8 8,1.8 C9.22,1.8 10.2,2.78 10.2,4 C10.2,5.22 9.22,6.2 8,6.2 Z" id="Shape"></path>
        </g>
    </g>
</svg>