<svg xmlns="http://www.w3.org/2000/svg" viewBox="0 0 382 382"><defs><style>.cls-1{fill:none;}.cls-2{fill:#414141;}</style></defs><title>My Projects_1</title><g id="Layer_2" data-name="Layer 2"><g id="Layer_1-2" data-name="Layer 1"><rect class="cls-1" width="382" height="382"/><path class="cls-2" d="M338,63H194.07a6.49,6.49,0,0,0-5.8,3.55l-21.11,41.54A3.5,3.5,0,0,1,164,110H44a6.51,6.51,0,0,0-6.5,6.5v196A6.51,6.51,0,0,0,44,319H338a6.51,6.51,0,0,0,6.5-6.5V69.5A6.51,6.51,0,0,0,338,63Zm-8.5,15V304H52.5V125H164a18.43,18.43,0,0,0,16.49-10.12L199.28,78Z"/><path class="cls-2" d="M160.57,188.52A30.43,30.43,0,1,0,191,158.09,30.46,30.46,0,0,0,160.57,188.52ZM191,173.09a15.43,15.43,0,1,1-15.43,15.43A15.45,15.45,0,0,1,191,173.09Z"/><path class="cls-2" d="M135,280.41v1.5h15v-1.5a41,41,0,1,1,82,0v1.5h15v-1.5a56,56,0,0,0-112,0Z"/></g></g></svg>