<svg xmlns="http://www.w3.org/2000/svg" viewBox="0 0 382 382"><defs><style>.cls-1{fill:none;}.cls-2{fill:#414141;}</style></defs><title>Shared Projects_1</title><g id="Layer_2" data-name="Layer 2"><g id="Layer_1-2" data-name="Layer 1"><rect class="cls-1" width="382" height="382"/><path class="cls-2" d="M338,63H194.07a6.49,6.49,0,0,0-5.8,3.55l-21.12,41.54A3.48,3.48,0,0,1,164,110H44a6.51,6.51,0,0,0-6.5,6.5v196A6.51,6.51,0,0,0,44,319H338a6.51,6.51,0,0,0,6.5-6.5V69.5A6.51,6.51,0,0,0,338,63Zm-8.5,15V304H52.5V125H164a18.44,18.44,0,0,0,16.5-10.12L199.28,78Z"/><path class="cls-2" d="M223,234.35A21.24,21.24,0,0,0,208.53,240l-29.18-19.6a21.38,21.38,0,0,0,0-12.86L208.53,188a21.52,21.52,0,1,0-6.17-10.32l-29.71,20a21.32,21.32,0,1,0,0,32.78l29.71,20a21.31,21.31,0,1,0,20.62-16Z"/></g></g></svg>