<svg xmlns="http://www.w3.org/2000/svg" xmlns:xlink="http://www.w3.org/1999/xlink" viewBox="0 0 486 446.75"><defs><style>.cls-1,.cls-2,.cls-3,.cls-4{opacity:0.2;}.cls-1{fill:url(#linear-gradient);}.cls-2{fill:url(#linear-gradient-2);}.cls-3{fill:url(#linear-gradient-3);}.cls-4{fill:url(#linear-gradient-4);}.cls-5{fill:#0b0b2b;}.cls-6{fill:none;}.cls-7{fill:url(#linear-gradient-5);}.cls-8{fill:#ffc127;}.cls-9{fill:url(#linear-gradient-6);}.cls-10{fill:url(#linear-gradient-8);}.cls-11{fill:url(#linear-gradient-9);}.cls-12{fill:url(#linear-gradient-10);}.cls-13{fill:url(#linear-gradient-11);}.cls-14{fill:url(#linear-gradient-12);}.cls-15{fill:url(#linear-gradient-13);}.cls-16{fill:url(#linear-gradient-14);}.cls-17{fill:url(#linear-gradient-15);}.cls-18{fill:url(#linear-gradient-16);}.cls-19{fill:url(#linear-gradient-17);}.cls-20{fill:url(#linear-gradient-18);}.cls-21{fill:#ffd112;}.cls-22{fill:#efaf20;}.cls-23{fill:url(#linear-gradient-19);}.cls-24{fill:url(#linear-gradient-20);}.cls-25{fill:url(#linear-gradient-21);}.cls-26{fill:url(#linear-gradient-22);}.cls-27{fill:url(#linear-gradient-23);}.cls-28{fill:url(#linear-gradient-24);}.cls-29{fill:url(#linear-gradient-25);}.cls-30{fill:url(#linear-gradient-26);}.cls-31{fill:url(#linear-gradient-27);}.cls-32,.cls-44{fill:#fff;}.cls-32{opacity:0.35;}.cls-33{fill:url(#linear-gradient-28);}.cls-34{fill:url(#linear-gradient-29);}.cls-35{fill:url(#linear-gradient-30);}.cls-36{fill:url(#linear-gradient-31);}.cls-37{fill:url(#linear-gradient-32);}.cls-38{fill:url(#linear-gradient-33);}.cls-39{fill:url(#linear-gradient-34);}.cls-40{fill:url(#linear-gradient-35);}.cls-41{fill:url(#linear-gradient-36);}.cls-42{fill:url(#linear-gradient-37);}.cls-43{fill:url(#linear-gradient-38);}.cls-45{fill:#009ff7;}</style><linearGradient id="linear-gradient" x1="56.1" y1="391.56" x2="395.2" y2="52.46" gradientUnits="userSpaceOnUse"><stop offset="0" stop-color="#3c80d7"/><stop offset="1" stop-color="#93278f"/></linearGradient><linearGradient id="linear-gradient-2" x1="7.08" y1="439.67" x2="41.25" y2="405.5" xlink:href="#linear-gradient"/><linearGradient id="linear-gradient-3" x1="442.74" y1="57.99" x2="463.1" y2="37.63" xlink:href="#linear-gradient"/><linearGradient id="linear-gradient-4" x1="373.8" y1="12.29" x2="383.98" y2="2.11" xlink:href="#linear-gradient"/><linearGradient id="linear-gradient-5" x1="291" y1="308.43" x2="397.07" y2="308.43" gradientUnits="userSpaceOnUse"><stop offset="0" stop-color="#fbb03b"/><stop offset="0.09" stop-color="#fbc034"/><stop offset="0.25" stop-color="#fcd42c"/><stop offset="0.43" stop-color="#fce326"/><stop offset="0.65" stop-color="#fceb22"/><stop offset="1" stop-color="#fcee21"/></linearGradient><linearGradient id="linear-gradient-6" x1="291" y1="283.21" x2="397.07" y2="283.21" xlink:href="#linear-gradient-5"/><linearGradient id="linear-gradient-8" x1="291" y1="294.33" x2="397.07" y2="294.33" xlink:href="#linear-gradient-5"/><linearGradient id="linear-gradient-9" x1="291" y1="267.36" x2="397.07" y2="267.36" xlink:href="#linear-gradient-5"/><linearGradient id="linear-gradient-10" x1="291" y1="264.59" x2="397.07" y2="264.59" xlink:href="#linear-gradient-5"/><linearGradient id="linear-gradient-11" x1="291" y1="275.71" x2="397.07" y2="275.71" xlink:href="#linear-gradient-5"/><linearGradient id="linear-gradient-12" x1="291" y1="245.96" x2="397.07" y2="245.96" xlink:href="#linear-gradient-5"/><linearGradient id="linear-gradient-13" x1="291" y1="243.08" x2="397.07" y2="243.08" xlink:href="#linear-gradient-5"/><linearGradient id="linear-gradient-14" x1="291" y1="257.08" x2="397.07" y2="257.08" xlink:href="#linear-gradient-5"/><linearGradient id="linear-gradient-15" x1="291" y1="227.34" x2="397.07" y2="227.34" xlink:href="#linear-gradient-5"/><linearGradient id="linear-gradient-16" x1="291" y1="227.34" x2="397.07" y2="227.34" xlink:href="#linear-gradient-5"/><linearGradient id="linear-gradient-17" x1="291" y1="238.32" x2="397.07" y2="238.32" xlink:href="#linear-gradient-5"/><linearGradient id="linear-gradient-18" x1="291" y1="238.46" x2="397.07" y2="238.46" xlink:href="#linear-gradient-5"/><linearGradient id="linear-gradient-19" x1="781.92" y1="1066.07" x2="887.98" y2="1066.07" gradientTransform="translate(592.18 -1059.9) rotate(45)" xlink:href="#linear-gradient-5"/><linearGradient id="linear-gradient-20" x1="291" y1="262.75" x2="397.07" y2="262.75" xlink:href="#linear-gradient-5"/><linearGradient id="linear-gradient-21" x1="781.92" y1="1073.22" x2="887.98" y2="1073.22" gradientTransform="translate(592.18 -1059.9) rotate(45)" xlink:href="#linear-gradient-5"/><linearGradient id="linear-gradient-22" x1="781.92" y1="1071.52" x2="887.98" y2="1071.52" gradientTransform="translate(592.18 -1059.9) rotate(45)" xlink:href="#linear-gradient-5"/><linearGradient id="linear-gradient-23" x1="291" y1="247.69" x2="397.07" y2="247.69" xlink:href="#linear-gradient-5"/><linearGradient id="linear-gradient-24" x1="781.92" y1="1063.01" x2="887.98" y2="1063.01" gradientTransform="translate(592.18 -1059.9) rotate(45)" xlink:href="#linear-gradient-5"/><linearGradient id="linear-gradient-25" x1="291" y1="253.95" x2="397.07" y2="253.95" xlink:href="#linear-gradient-5"/><linearGradient id="linear-gradient-26" x1="781.92" y1="1070.78" x2="887.98" y2="1070.78" gradientTransform="translate(592.18 -1059.9) rotate(45)" xlink:href="#linear-gradient-5"/><linearGradient id="linear-gradient-27" x1="291" y1="241.04" x2="397.07" y2="241.04" xlink:href="#linear-gradient-5"/><linearGradient id="linear-gradient-28" x1="291" y1="259.56" x2="397.07" y2="259.56" xlink:href="#linear-gradient-5"/><linearGradient id="linear-gradient-29" x1="291" y1="278.08" x2="397.07" y2="278.08" xlink:href="#linear-gradient-5"/><linearGradient id="linear-gradient-30" x1="291" y1="297.05" x2="397.07" y2="297.05" xlink:href="#linear-gradient-5"/><linearGradient id="linear-gradient-31" x1="291" y1="315.57" x2="397.07" y2="315.57" xlink:href="#linear-gradient-5"/><linearGradient id="linear-gradient-32" x1="291" y1="240.82" x2="397.07" y2="240.82" xlink:href="#linear-gradient-5"/><linearGradient id="linear-gradient-33" x1="781.92" y1="1073.17" x2="887.98" y2="1073.17" gradientTransform="translate(592.18 -1059.9) rotate(45)" xlink:href="#linear-gradient-5"/><linearGradient id="linear-gradient-34" x1="781.92" y1="1072.88" x2="887.98" y2="1072.88" gradientTransform="translate(592.18 -1059.9) rotate(45)" xlink:href="#linear-gradient-5"/><linearGradient id="linear-gradient-35" x1="291" y1="259.34" x2="397.07" y2="259.34" xlink:href="#linear-gradient-5"/><linearGradient id="linear-gradient-36" x1="291" y1="277.86" x2="397.07" y2="277.86" xlink:href="#linear-gradient-5"/><linearGradient id="linear-gradient-37" x1="291" y1="296.83" x2="397.07" y2="296.83" xlink:href="#linear-gradient-5"/><linearGradient id="linear-gradient-38" x1="291" y1="315.35" x2="397.07" y2="315.35" xlink:href="#linear-gradient-5"/></defs><title>Reduce Cloud Bills</title><g id="Layer_2" data-name="Layer 2"><g id="Layer_1-2" data-name="Layer 1"><path class="cls-1" d="M441.26,98.79C344.44,11,267.57,9.37,247.58,10.7c-4,.26-7.93.32-11.9.23C201.47,10.17,50,15.24,44.37,165a87,87,0,0,1-22.76,55.46C8.4,234.87-1.79,265,16.15,327.76c21.28,74.48,77.3,83.78,114.92,80.8a97,97,0,0,0,52.8-20.83c36.26-28.89,124.67-91.1,176-56.91C425.5,374.6,554.21,201.23,441.26,98.79Z"/><circle class="cls-2" cx="24.16" cy="422.59" r="24.16"/><circle class="cls-3" cx="452.92" cy="47.81" r="14.39"/><circle class="cls-4" cx="378.89" cy="7.2" r="7.2"/><path class="cls-5" d="M409,247.34a44.78,44.78,0,0,1-44.78,44.78H117a44.86,44.86,0,0,1-39.88-24.4,43.65,43.65,0,0,1-1.81-4,44.67,44.67,0,0,1-3.08-15.42c0-.32,0-.64,0-1a44.75,44.75,0,0,1,.27-4.94h0A44.76,44.76,0,0,1,117,202.56h18.62a.91.91,0,0,0,.9-.92,50.47,50.47,0,0,1,3.3-18c.52-1.37,1.1-2.7,1.73-4A50.63,50.63,0,0,1,212.73,158a9.72,9.72,0,0,0,13.16-3.34,65.16,65.16,0,0,1,120.64,37.68,9.76,9.76,0,0,0,9.78,10.25h7.91A44.78,44.78,0,0,1,409,247.34Z"/><path class="cls-6" d="M291.35,220.34c-.06-.16-.11-.32-.16-.48C291.24,220,291.29,220.18,291.35,220.34Z"/><path class="cls-6" d="M291.7,221a5.06,5.06,0,0,1-.24-.46A5.06,5.06,0,0,0,291.7,221Z"/><path class="cls-6" d="M292.16,221.73l-.32-.45Z"/><path class="cls-6" d="M291.12,219.63q-.06-.3-.09-.6Q291.06,219.33,291.12,219.63Z"/><path class="cls-6" d="M302,227.65l1,.33h0Z"/><path class="cls-6" d="M390.4,225.83l.29-.15Z"/><path class="cls-6" d="M391.57,225.21l.59-.35Z"/><path class="cls-6" d="M389.13,226.43l.06,0Z"/><path class="cls-6" d="M392.64,224.57c.33-.2.63-.41.92-.62C393.27,224.16,393,224.37,392.64,224.57Z"/><path class="cls-6" d="M298.76,226.35l-.82-.39Z"/><path class="cls-6" d="M301.51,227.47l-1-.36Z"/><path class="cls-6" d="M297.55,225.77c-.28-.14-.54-.28-.8-.43C297,225.49,297.27,225.63,297.55,225.77Z"/><path class="cls-6" d="M292.75,222.42l-.41-.46Z"/><path class="cls-6" d="M296.43,225.17c-.3-.17-.59-.34-.87-.52C295.84,224.83,296.13,225,296.43,225.17Z"/><path class="cls-6" d="M293.49,223.13c-.19-.17-.38-.34-.55-.51C293.11,222.79,293.3,223,293.49,223.13Z"/><path class="cls-6" d="M295.42,224.56a17.64,17.64,0,0,1-1.77-1.28A17.64,17.64,0,0,0,295.42,224.56Z"/><path class="cls-6" d="M300.07,226.91l-.86-.36Z"/><path class="cls-7" d="M344,307.92c-29,0-52.52-6.46-53-14.49h0v15h0a2.46,2.46,0,0,0,0,.26c0,6.55,15.36,12.1,36.6,14v-15A21.55,21.55,0,0,0,331,308h.08v15l2.63.16V307.7c3.34.18,6.78.27,10.29.27h.24v15.47c29.18,0,52.8-6.62,52.8-14.75a2.46,2.46,0,0,0,0-.26h0v-15h0C396.56,301.46,373,307.92,344,307.92Z"/><path class="cls-8" d="M344.27,304.81v.27H344c-3.51,0-7-.1-10.29-.28v-.27c-.88,0-1.76-.1-2.63-.16v.71H331a21.45,21.45,0,0,1-3.43-.28v-.71c-19.54-1.77-34.1-6.61-36.3-12.47a4.44,4.44,0,0,0-.3,1.55,2.28,2.28,0,0,0,0,.26c.49,8,24,14.49,53,14.49s52.53-6.46,53-14.49a2.28,2.28,0,0,0,0-.26,4.44,4.44,0,0,0-.3-1.55C394,299,371.57,304.78,344.27,304.81Z"/><path class="cls-9" d="M385.14,283.86c6.35,2.16,10.53,4.83,11.63,7.76a4.44,4.44,0,0,0,.3-1.55,2.28,2.28,0,0,0,0-.26h0v-15h0C396.84,278.24,392.4,281.38,385.14,283.86Z"/><path class="cls-9" d="M302.93,283.86c-7.26-2.48-11.7-5.62-11.91-9.05h0v15h0a2.28,2.28,0,0,0,0,.26,4.44,4.44,0,0,0,.3,1.55C292.4,288.69,296.58,286,302.93,283.86Z"/><path class="cls-8" d="M385.14,283.86c-9.72,3.31-24.52,5.43-41.11,5.43s-31.38-2.12-41.1-5.43c-6.35,2.16-10.53,4.83-11.63,7.76,2.2,5.86,16.76,10.7,36.3,12.47V289.28a21.55,21.55,0,0,0,3.43.27h.08v14.82c.87.06,1.75.12,2.63.16V289.28c3.34.18,6.78.27,10.29.27h.24v15.26c27.3,0,49.72-5.8,52.5-13.19C395.67,288.69,391.49,286,385.14,283.86Z"/><path class="cls-10" d="M385.14,283.86c-9.72,3.31-24.52,5.43-41.11,5.43s-31.38-2.12-41.1-5.43c-6.35,2.16-10.53,4.83-11.63,7.76,2.2,5.86,16.76,10.7,36.3,12.47V289.28a21.55,21.55,0,0,0,3.43.27h.08v14.82c.87.06,1.75.12,2.63.16V289.28c3.34.18,6.78.27,10.29.27h.24v15.26c27.3,0,49.72-5.8,52.5-13.19C395.67,288.69,391.49,286,385.14,283.86Z"/><path class="cls-8" d="M344,286.19c-4.45,0-8.78-.16-12.92-.45v0H331a20.36,20.36,0,0,1-3.43-.28v0c-19.54-1.77-34.1-6.6-36.3-12.47a4.45,4.45,0,0,0-.3,1.56,2.46,2.46,0,0,0,0,.26c.21,3.43,4.65,6.57,11.91,9.05,9.72,3.31,24.52,5.43,41.1,5.43s31.39-2.12,41.11-5.43c7.26-2.48,11.7-5.62,11.91-9.05a2.46,2.46,0,0,0,0-.26,4.45,4.45,0,0,0-.3-1.56C394,280.41,371.44,286.19,344,286.19Z"/><path class="cls-11" d="M385.14,265.23c6.35,2.16,10.53,4.84,11.63,7.76a4.4,4.4,0,0,0,.3-1.55,2.46,2.46,0,0,0,0-.26h0v-1.87a73.54,73.54,0,0,1-4.29-7.58A35,35,0,0,1,385.14,265.23Z"/><path class="cls-12" d="M302.93,265.23c-7.26-2.47-11.7-5.62-11.91-9.05h0v15h0a2.46,2.46,0,0,0,0,.26,4.4,4.4,0,0,0,.3,1.55C292.4,270.07,296.58,267.39,302.93,265.23Z"/><path class="cls-8" d="M385.14,265.23c-9.68,3.3-24.38,5.41-40.87,5.43v15.12H344c-3.51,0-7-.09-10.29-.28V270.39c-12.35-.68-23.15-2.55-30.81-5.16-6.35,2.16-10.53,4.84-11.63,7.76,2.2,5.87,16.76,10.7,36.3,12.47V270a21.55,21.55,0,0,0,3.43.28h.08v15.48c4.14.29,8.47.45,12.92.45,27.41,0,50-5.78,52.74-13.2C395.67,270.07,391.49,267.39,385.14,265.23Z"/><path class="cls-13" d="M385.14,265.23c-9.68,3.3-24.38,5.41-40.87,5.43v15.12H344c-3.51,0-7-.09-10.29-.28V270.39c-12.35-.68-23.15-2.55-30.81-5.16-6.35,2.16-10.53,4.84-11.63,7.76,2.2,5.87,16.76,10.7,36.3,12.47V270a21.55,21.55,0,0,0,3.43.28h.08v15.48c4.14.29,8.47.45,12.92.45,27.41,0,50-5.78,52.74-13.2C395.67,270.07,391.49,267.39,385.14,265.23Z"/><path class="cls-8" d="M302.93,265.23c7.66,2.61,18.46,4.48,30.81,5.16V270c3.34.18,6.78.28,10.29.28h.24v.4c16.49,0,31.19-2.13,40.87-5.43a35,35,0,0,0,7.64-3.5c-.41-.83-.78-1.65-1.11-2.43C383,264.19,365,267.56,344,267.56c-4.45,0-8.78-.15-12.92-.44v.24H331a20.36,20.36,0,0,1-3.43-.28v-.24c-19.54-1.77-34.1-6.61-36.3-12.47a4.44,4.44,0,0,0-.3,1.55,2.28,2.28,0,0,0,0,.26C291.23,259.61,295.67,262.76,302.93,265.23Z"/><path class="cls-14" d="M302.93,246.61c-7.26-2.48-11.7-5.62-11.91-9.06h0v15h0a2.11,2.11,0,0,0,0,.26,4.44,4.44,0,0,0,.3,1.55C292.4,251.44,296.58,248.77,302.93,246.61Z"/><path class="cls-15" d="M385.14,246.61a41.66,41.66,0,0,1,4.93,2,4.53,4.53,0,0,1,1-1.6l.19-.18h0l5.82-5.81v-3.47h0C396.84,241,392.4,244.13,385.14,246.61Z"/><path class="cls-8" d="M327.6,266.84V251.56a21.55,21.55,0,0,0,3.43.28h.08v15.28c4.14.29,8.47.44,12.92.44,20.93,0,39-3.37,47.64-8.26-1.91-4.57-2.52-8.28-1.6-10.69a41.66,41.66,0,0,0-4.93-2c-9.68,3.3-24.38,5.41-40.87,5.43v15.32H344c-3.51,0-7-.09-10.29-.28V251.76c-12.35-.67-23.15-2.54-30.81-5.15-6.35,2.16-10.53,4.83-11.63,7.76C293.5,260.23,308.06,265.07,327.6,266.84Z"/><path class="cls-16" d="M327.6,266.84V251.56a21.55,21.55,0,0,0,3.43.28h.08v15.28c4.14.29,8.47.44,12.92.44,20.93,0,39-3.37,47.64-8.26-1.91-4.57-2.52-8.28-1.6-10.69a41.66,41.66,0,0,0-4.93-2c-9.68,3.3-24.38,5.41-40.87,5.43v15.32H344c-3.51,0-7-.09-10.29-.28V251.76c-12.35-.67-23.15-2.54-30.81-5.15-6.35,2.16-10.53,4.83-11.63,7.76C293.5,260.23,308.06,265.07,327.6,266.84Z"/><path class="cls-8" d="M302.93,246.61c7.66,2.61,18.46,4.48,30.81,5.15v-.2c3.34.18,6.78.28,10.29.28h.24v.2c16.49,0,31.19-2.13,40.87-5.43,7.26-2.48,11.7-5.62,11.91-9.06a2.11,2.11,0,0,0,0-.25,4.4,4.4,0,0,0-.3-1.55c-2.78,7.38-25.2,13.16-52.5,13.19H344c-3.51,0-7-.1-10.29-.28-.88,0-1.76-.1-2.63-.17v.45H331a21.45,21.45,0,0,1-3.43-.28v-.45c-19.55-1.77-34.1-6.61-36.3-12.47a4.45,4.45,0,0,0-.3,1.56,2.11,2.11,0,0,0,0,.25C291.23,241,295.67,244.13,302.93,246.61Z"/><path class="cls-8" d="M346.86,233.39l1.15,0Z"/><path class="cls-8" d="M338.77,233.34h0Z"/><path class="cls-8" d="M364.61,232.26l.29,0Z"/><path class="cls-8" d="M349.53,233.34l1.05,0Z"/><path class="cls-8" d="M366.94,232l.18,0Z"/><path class="cls-8" d="M326.08,232.55q3.72.38,7.66.59c.25,0,.51,0,.75,0C331.6,233,328.79,232.82,326.08,232.55Z"/><path class="cls-8" d="M357.28,233l.75-.06Z"/><path class="cls-8" d="M359.78,232.75l.59-.05Z"/><path class="cls-8" d="M352.16,233.24l.94,0Z"/><path class="cls-8" d="M362.22,232.52l.45,0Z"/><path class="cls-8" d="M354.74,233.11l.87-.05Z"/><path class="cls-8" d="M302.93,228l.25.09-.25-.09Z"/><path class="cls-8" d="M305.05,228.66l-1.59-.5Z"/><path class="cls-8" d="M314.22,230.86l-1.36-.26Z"/><path class="cls-8" d="M321.23,232q-2.26-.3-4.41-.66Q319,231.69,321.23,232Z"/><path class="cls-8" d="M316.64,231.3l-1.83-.32Z"/><path class="cls-8" d="M369.21,231.65h0Z"/><path class="cls-8" d="M323.5,232.27l-2.12-.26Z"/><path class="cls-8" d="M325.89,232.53l-2.13-.23Z"/><path class="cls-8" d="M306.7,229.14l-1.26-.36Z"/><path class="cls-8" d="M345.37,233.41h0Z"/><path class="cls-8" d="M308.43,229.6l-1.12-.3Z"/><path class="cls-8" d="M310.25,230l-1.13-.27Z"/><path class="cls-8" d="M312.17,230.45l-1.21-.26Z"/><path class="cls-17" d="M392.64,224.57l-.48.29-.59.35c-.28.16-.58.31-.88.47l-.29.15-1.21.57-.06,0c-1.21.54-2.55,1.06-4,1.55,6.35,2.16,10.53,4.84,11.63,7.77a4.44,4.44,0,0,0,.3-1.55c0-.09,0-.18,0-.27h0v-15h0c-.11,1.76-1.33,3.44-3.46,5l0,0C393.27,224.16,393,224.37,392.64,224.57Z"/><path class="cls-18" d="M302.93,228l-1-.33-.46-.18-1-.36-.48-.2-.86-.36-.45-.2-.82-.39-.39-.19c-.28-.14-.54-.28-.8-.43l-.32-.17c-.3-.17-.59-.34-.87-.52l-.14-.09a17.64,17.64,0,0,1-1.77-1.28l-.16-.15c-.19-.17-.38-.34-.55-.51a1.8,1.8,0,0,1-.19-.2l-.41-.46-.18-.23-.32-.45c0-.08-.1-.16-.14-.24a5.06,5.06,0,0,1-.24-.46,2.56,2.56,0,0,1-.11-.24c-.06-.16-.11-.32-.16-.48s-.05-.15-.07-.23-.07-.4-.09-.6c0,0,0-.06,0-.1h0v15h0a2.45,2.45,0,0,0,0,.27,4.39,4.39,0,0,0,.3,1.54C292.4,232.81,296.59,230.14,302.93,228Z"/><path class="cls-8" d="M327.6,248.21V233.14a21.55,21.55,0,0,0,3.43.28h.08v15.07c.87.07,1.75.12,2.63.17V233.14q-3.94-.21-7.66-.59l-.19,0-2.13-.23-.26,0-2.12-.26-.15,0q-2.26-.3-4.41-.66l-.18,0-1.83-.32-.59-.12-1.36-.26-.69-.15-1.21-.26-.71-.16-1.13-.27-.69-.16-1.12-.3-.61-.16-1.26-.36-.39-.12-1.59-.5-.28-.09-.25-.09c-6.34,2.16-10.53,4.83-11.63,7.76C293.5,241.6,308.05,246.44,327.6,248.21Z"/><path class="cls-19" d="M327.6,248.21V233.14a21.55,21.55,0,0,0,3.43.28h.08v15.07c.87.07,1.75.12,2.63.17V233.14q-3.94-.21-7.66-.59l-.19,0-2.13-.23-.26,0-2.12-.26-.15,0q-2.26-.3-4.41-.66l-.18,0-1.83-.32-.59-.12-1.36-.26-.69-.15-1.21-.26-.71-.16-1.13-.27-.69-.16-1.12-.3-.61-.16-1.26-.36-.39-.12-1.59-.5-.28-.09-.25-.09c-6.34,2.16-10.53,4.83-11.63,7.76C293.5,241.6,308.05,246.44,327.6,248.21Z"/><path class="cls-8" d="M385.14,228a94.32,94.32,0,0,1-15.91,3.67h0l-2.09.3-.18,0-2,.26-.29,0-1.94.22-.45,0c-.61.07-1.23.12-1.85.18l-.59.05-1.75.14-.75.06-1.67.11-.87.05-1.64.09-.94,0-1.58.06-1.05,0-1.52,0-1.15,0-1.49,0h-1.1v15.52c27.3,0,49.72-5.81,52.5-13.19C395.67,232.82,391.49,230.14,385.14,228Z"/><path class="cls-20" d="M385.14,228a94.32,94.32,0,0,1-15.91,3.67h0l-2.09.3-.18,0-2,.26-.29,0-1.94.22-.45,0c-.61.07-1.23.12-1.85.18l-.59.05-1.75.14-.75.06-1.67.11-.87.05-1.64.09-.94,0-1.58.06-1.05,0-1.52,0-1.15,0-1.49,0h-1.1v15.52c27.3,0,49.72-5.81,52.5-13.19C395.67,232.82,391.49,230.14,385.14,228Z"/><path class="cls-21" d="M291.12,219.63c0,.08.05.16.07.23s.1.32.16.48a2.56,2.56,0,0,0,.11.24,5.06,5.06,0,0,0,.24.46c0,.08.09.16.14.24l.32.45.18.23.41.46a1.8,1.8,0,0,0,.19.2c.17.17.36.34.55.51l.16.15a17.64,17.64,0,0,0,1.77,1.28l.14.09c.28.18.57.35.87.52l.32.17c.26.15.52.29.8.43l.39.19.82.39.45.2.86.36.48.2,1,.36.46.18,1,.33.25.09.28.09,1.59.5.39.12,1.26.36.61.16,1.12.3.69.16,1.13.27.71.16,1.21.26.69.15,1.36.26.59.12,1.83.32.18,0q2.15.36,4.41.66l.15,0,2.12.26.26,0,2.13.23.19,0c2.71.27,5.52.48,8.41.62,1.41.07,2.84.13,4.28.17h.17c1.68,0,3.37.07,5.09.07h1.34l1.49,0,1.15,0,1.52,0,1.05,0,1.58-.06.94,0,1.64-.09.87-.05,1.67-.11.75-.06,1.75-.14.59-.05c.62-.06,1.24-.11,1.85-.18l.45,0,1.94-.22.29,0,2-.26.18,0,2.09-.3h0A94.32,94.32,0,0,0,385.14,228c1.44-.49,2.78-1,4-1.55l.06,0,1.21-.57.29-.15c.3-.16.6-.31.88-.47l.59-.35.48-.29c.33-.2.63-.41.92-.62l0,0c2.13-1.56,3.35-3.24,3.45-5a2.28,2.28,0,0,0,0-.26c0-8.14-23.75-14.74-53-14.74s-53,6.6-53,14.74a2.28,2.28,0,0,0,0,.26h0s0,.07,0,.1Q291.06,219.33,291.12,219.63Zm52.91-11c25.29,0,45.79,4.52,45.79,10.09a.91.91,0,0,1,0,.17,2.76,2.76,0,0,1-.53,1.38c-3.38,4.83-22.35,8.54-45.25,8.54s-41.86-3.71-45.24-8.54a2.76,2.76,0,0,1-.53-1.38.91.91,0,0,1,0-.17C298.25,213.1,318.75,208.58,344,208.58Z"/><path class="cls-22" d="M298.79,220.22c3.38-4.84,22.35-8.53,45.24-8.53s41.87,3.69,45.25,8.53a2.76,2.76,0,0,0,.53-1.38.91.91,0,0,0,0-.17c0-5.57-20.5-10.09-45.79-10.09s-45.78,4.52-45.78,10.09a.91.91,0,0,0,0,.17A2.76,2.76,0,0,0,298.79,220.22Z"/><ellipse class="cls-8" cx="344.03" cy="220.22" rx="45.24" ry="8.54"/><path class="cls-23" d="M429.12,284c-20.49-20.49-32.57-41.71-27.25-47.73h0l-4.79,4.8v11.54h0a2.11,2.11,0,0,1,0,.26,4.44,4.44,0,0,1-.3,1.55,4.44,4.44,0,0,1,.3,1.55,2.28,2.28,0,0,1,0,.26h0v13.13a127.27,127.27,0,0,0,8.74,12l10.52-10.52a21.79,21.79,0,0,0,2.23,2.62l.06,0L408.06,284c.57.66,1.14,1.33,1.73,2l10.88-10.89c2.23,2.48,4.6,5,7.08,7.47l.17.17-11,11,1.18,1.2c20.71,20.71,42.17,32.83,47.93,27.08l.17-.19h0l10.61-10.61h0C470.83,316.53,449.61,304.45,429.12,284Z"/><path class="cls-24" d="M397.05,256.18c-.12,2-1.63,3.84-4.27,5.55a73.54,73.54,0,0,0,4.29,7.58V256.18Z"/><path class="cls-25" d="M397.05,256.18c-.12,2-1.63,3.84-4.27,5.55a73.54,73.54,0,0,0,4.29,7.58V256.18Z"/><path class="cls-8" d="M391.67,259.3c.33.78.7,1.6,1.11,2.43,2.64-1.71,4.15-3.58,4.27-5.55a2.28,2.28,0,0,0,0-.26,4.44,4.44,0,0,0-.3-1.55C396.11,256.12,394.34,257.78,391.67,259.3Z"/><path class="cls-26" d="M391.67,259.3c.33.78.7,1.6,1.11,2.43,2.64-1.71,4.15-3.58,4.27-5.55a2.28,2.28,0,0,0,0-.26,4.44,4.44,0,0,0-.3-1.55C396.11,256.12,394.34,257.78,391.67,259.3Z"/><path class="cls-27" d="M391.26,246.83l-.19.18a4.53,4.53,0,0,0-1,1.6c3.57,1.73,5.92,3.68,6.7,5.76a4.44,4.44,0,0,0,.3-1.55,2.11,2.11,0,0,0,0-.26h0V241l-5.82,5.81Z"/><path class="cls-28" d="M391.26,246.83l-.19.18a4.53,4.53,0,0,0-1,1.6c3.57,1.73,5.92,3.68,6.7,5.76a4.44,4.44,0,0,0,.3-1.55,2.11,2.11,0,0,0,0-.26h0V241l-5.82,5.81Z"/><path class="cls-8" d="M390.07,248.61c-.92,2.41-.31,6.12,1.6,10.69,2.67-1.52,4.44-3.18,5.1-4.93C396,252.29,393.64,250.34,390.07,248.61Z"/><path class="cls-29" d="M390.07,248.61c-.92,2.41-.31,6.12,1.6,10.69,2.67-1.52,4.44-3.18,5.1-4.93C396,252.29,393.64,250.34,390.07,248.61Z"/><path class="cls-30" d="M390.07,248.61c-.92,2.41-.31,6.12,1.6,10.69,2.67-1.52,4.44-3.18,5.1-4.93C396,252.29,393.64,250.34,390.07,248.61Z"/><path class="cls-21" d="M450,263.11c-20.71-20.71-42.16-32.83-47.92-27.08l-.18.2c-5.32,6,6.76,27.24,27.25,47.73s41.71,32.57,47.73,27.25L477,311C482.8,305.27,470.68,283.82,450,263.11Zm21.95,42.8a.63.63,0,0,1-.13.11,2.75,2.75,0,0,1-1.35.6c-5.81,1-21.84-9.77-38-25.95s-27-32.23-26-38a2.66,2.66,0,0,1,.6-1.35.45.45,0,0,1,.11-.13c3.94-3.94,21.63,7.36,39.51,25.24S475.86,302,471.92,305.91Z"/><path class="cls-22" d="M407.17,241.16a.45.45,0,0,0-.11.13,2.66,2.66,0,0,0-.6,1.35c5.81-1,21.84,9.77,38,25.95s27,32.22,26,38a2.75,2.75,0,0,0,1.35-.6.63.63,0,0,0,.13-.11c3.94-3.94-7.36-21.63-25.24-39.51S411.11,237.22,407.17,241.16Z"/><path class="cls-8" d="M444.48,268.59c-16.18-16.18-32.21-27-38-25.95-1,5.8,9.76,21.84,26,38s32.22,27,38,25.95C471.47,300.81,460.67,284.78,444.48,268.59Z"/><path class="cls-8" d="M344.27,233.42H344c-1.72,0-3.41,0-5.09-.07h-.17c-1.44,0-2.87-.1-4.28-.17-.24,0-.5,0-.75,0v15.52c3.33.18,6.78.28,10.29.28h.24Z"/><path class="cls-31" d="M344.27,233.42H344c-1.72,0-3.41,0-5.09-.07h-.17c-1.44,0-2.87-.1-4.28-.17-.24,0-.5,0-.75,0v15.52c3.33.18,6.78.28,10.29.28h.24Z"/><path class="cls-32" d="M344.27,233.42H344c-1.72,0-3.41,0-5.09-.07h-.17c-1.44,0-2.87-.1-4.28-.17-.24,0-.5,0-.75,0v15.52c3.33.18,6.78.28,10.29.28h.24Z"/><path class="cls-21" d="M334.49,233.17c1.41.07,2.84.13,4.28.17C337.33,233.3,335.9,233.24,334.49,233.17Z"/><path class="cls-32" d="M334.49,233.17c1.41.07,2.84.13,4.28.17C337.33,233.3,335.9,233.24,334.49,233.17Z"/><path class="cls-21" d="M344.08,233.42H344c-1.72,0-3.41,0-5.09-.07,1.68,0,3.37.07,5.09.07Z"/><path class="cls-32" d="M344.08,233.42H344c-1.72,0-3.41,0-5.09-.07,1.68,0,3.37.07,5.09.07Z"/><path class="cls-8" d="M333.74,251.76v15.32c3.33.19,6.78.28,10.29.28h.24V252H344C340.51,252,337.07,251.94,333.74,251.76Z"/><path class="cls-33" d="M333.74,251.76v15.32c3.33.19,6.78.28,10.29.28h.24V252H344C340.51,252,337.07,251.94,333.74,251.76Z"/><path class="cls-32" d="M333.74,251.76v15.32c3.33.19,6.78.28,10.29.28h.24V252H344C340.51,252,337.07,251.94,333.74,251.76Z"/><path class="cls-8" d="M344,251.84c-3.51,0-6.95-.1-10.29-.28v.2c3.33.18,6.77.28,10.29.28h.24v-.2Z"/><path class="cls-32" d="M344,251.84c-3.51,0-6.95-.1-10.29-.28v.2c3.33.18,6.77.28,10.29.28h.24v-.2Z"/><path class="cls-8" d="M333.74,270.39V285.5c3.33.19,6.78.28,10.29.28h.24V270.66H344C340.51,270.67,337.07,270.57,333.74,270.39Z"/><path class="cls-34" d="M333.74,270.39V285.5c3.33.19,6.78.28,10.29.28h.24V270.66H344C340.51,270.67,337.07,270.57,333.74,270.39Z"/><path class="cls-32" d="M333.74,270.39V285.5c3.33.19,6.78.28,10.29.28h.24V270.66H344C340.51,270.67,337.07,270.57,333.74,270.39Z"/><path class="cls-8" d="M344,270.26c-3.51,0-6.95-.1-10.29-.28v.41c3.33.18,6.77.28,10.29.28h.24v-.4Z"/><path class="cls-32" d="M344,270.26c-3.51,0-6.95-.1-10.29-.28v.41c3.33.18,6.77.28,10.29.28h.24v-.4Z"/><path class="cls-8" d="M344,305.08h.24v-.27H344c-3.52,0-7-.09-10.29-.28v.27C337.07,305,340.52,305.08,344,305.08Z"/><path class="cls-32" d="M344,305.08h.24v-.27H344c-3.52,0-7-.09-10.29-.28v.27C337.07,305,340.52,305.08,344,305.08Z"/><path class="cls-8" d="M344.27,304.81V289.55H344c-3.51,0-6.95-.09-10.29-.27v15.25c3.33.19,6.77.28,10.29.28Z"/><path class="cls-35" d="M344.27,304.81V289.55H344c-3.51,0-6.95-.09-10.29-.27v15.25c3.33.19,6.77.28,10.29.28Z"/><path class="cls-32" d="M344.27,304.81V289.55H344c-3.51,0-6.95-.09-10.29-.27v15.25c3.33.19,6.77.28,10.29.28Z"/><path class="cls-32" d="M333.74,323.16v.06c3.33.18,6.78.28,10.29.28h.24v-.06H344C340.51,323.44,337.07,323.34,333.74,323.16Z"/><path class="cls-36" d="M344,308c-3.51,0-6.95-.09-10.29-.27v15.46c3.33.18,6.77.28,10.29.28h.24V308Z"/><path class="cls-32" d="M344,308c-3.51,0-6.95-.09-10.29-.27v15.46c3.33.18,6.77.28,10.29.28h.24V308Z"/><path class="cls-8" d="M327.6,248.66a21.45,21.45,0,0,0,3.43.28h.08v-.45c-1.18-.08-2.35-.17-3.51-.28Z"/><path class="cls-32" d="M327.6,248.66a21.45,21.45,0,0,0,3.43.28h.08v-.45c-1.18-.08-2.35-.17-3.51-.28Z"/><path class="cls-8" d="M331.11,233.42H331a21.55,21.55,0,0,1-3.43-.28v15.07c1.16.11,2.33.2,3.51.28Z"/><path class="cls-37" d="M331.11,233.42H331a21.55,21.55,0,0,1-3.43-.28v15.07c1.16.11,2.33.2,3.51.28Z"/><path class="cls-32" d="M331.11,233.42H331a21.55,21.55,0,0,1-3.43-.28v15.07c1.16.11,2.33.2,3.51.28Z"/><path class="cls-32" d="M409.7,286.11c2.22,2.48,4.59,5,7.08,7.47l.16.17,0,0c-2.53-2.57-4.93-5.16-7.17-7.71Z"/><path class="cls-38" d="M427.75,282.6c-2.48-2.49-4.85-5-7.08-7.47L409.79,286c2.24,2.55,4.64,5.14,7.17,7.71l11-11Z"/><path class="cls-32" d="M427.75,282.6c-2.48-2.49-4.85-5-7.08-7.47L409.79,286c2.24,2.55,4.64,5.14,7.17,7.71l11-11Z"/><path class="cls-32" d="M405.36,281.76a20.22,20.22,0,0,0,2.22,2.63l.06.05.42-.42c-.77-.91-1.52-1.81-2.25-2.71Z"/><path class="cls-39" d="M418.56,273.41a21.79,21.79,0,0,1-2.23-2.62l-10.52,10.52c.73.9,1.48,1.8,2.25,2.71l10.56-10.56Z"/><path class="cls-32" d="M418.56,273.41a21.79,21.79,0,0,1-2.23-2.62l-10.52,10.52c.73.9,1.48,1.8,2.25,2.71l10.56-10.56Z"/><path class="cls-8" d="M327.6,267.08a20.36,20.36,0,0,0,3.43.28h.08v-.24c-1.18-.08-2.35-.18-3.51-.28Z"/><path class="cls-32" d="M327.6,267.08a20.36,20.36,0,0,0,3.43.28h.08v-.24c-1.18-.08-2.35-.18-3.51-.28Z"/><path class="cls-8" d="M331.11,251.84H331a21.55,21.55,0,0,1-3.43-.28v15.28c1.16.1,2.33.2,3.51.28Z"/><path class="cls-40" d="M331.11,251.84H331a21.55,21.55,0,0,1-3.43-.28v15.28c1.16.1,2.33.2,3.51.28Z"/><path class="cls-32" d="M331.11,251.84H331a21.55,21.55,0,0,1-3.43-.28v15.28c1.16.1,2.33.2,3.51.28Z"/><path class="cls-8" d="M331,285.78h.08v0c-1.18-.08-2.35-.17-3.51-.28v0A20.36,20.36,0,0,0,331,285.78Z"/><path class="cls-32" d="M331,285.78h.08v0c-1.18-.08-2.35-.17-3.51-.28v0A20.36,20.36,0,0,0,331,285.78Z"/><path class="cls-8" d="M331.11,270.26H331a21.55,21.55,0,0,1-3.43-.28v15.48c1.16.11,2.33.2,3.51.28Z"/><path class="cls-41" d="M331.11,270.26H331a21.55,21.55,0,0,1-3.43-.28v15.48c1.16.11,2.33.2,3.51.28Z"/><path class="cls-32" d="M331.11,270.26H331a21.55,21.55,0,0,1-3.43-.28v15.48c1.16.11,2.33.2,3.51.28Z"/><path class="cls-8" d="M331,305.08h.08v-.71c-1.18-.08-2.35-.18-3.51-.28v.71A21.45,21.45,0,0,0,331,305.08Z"/><path class="cls-32" d="M331,305.08h.08v-.71c-1.18-.08-2.35-.18-3.51-.28v.71A21.45,21.45,0,0,0,331,305.08Z"/><path class="cls-8" d="M331.11,289.55H331a21.55,21.55,0,0,1-3.43-.27v14.81c1.16.1,2.33.2,3.51.28Z"/><path class="cls-42" d="M331.11,289.55H331a21.55,21.55,0,0,1-3.43-.27v14.81c1.16.1,2.33.2,3.51.28Z"/><path class="cls-32" d="M331.11,289.55H331a21.55,21.55,0,0,1-3.43-.27v14.81c1.16.1,2.33.2,3.51.28Z"/><path class="cls-32" d="M327.6,323.22a21.45,21.45,0,0,0,3.43.28h.08V323c-1.18-.09-2.35-.18-3.51-.29Z"/><path class="cls-43" d="M331,308a21.55,21.55,0,0,1-3.43-.27v15c1.16.11,2.33.2,3.51.29V308Z"/><path class="cls-32" d="M331,308a21.55,21.55,0,0,1-3.43-.27v15c1.16.11,2.33.2,3.51.29V308Z"/><path class="cls-44" d="M182.93,179.63v4h-43.1c.52-1.37,1.1-2.7,1.73-4Z"/><path class="cls-44" d="M221.61,234.27v4H185.27a14.83,14.83,0,0,1-10.55-4.37L155.6,214.78a10.89,10.89,0,0,0-7.73-3.2H90.05a45.15,45.15,0,0,1,6.34-4h51.48A14.83,14.83,0,0,1,158.43,212l19.12,19.12a10.81,10.81,0,0,0,7.72,3.2Z"/><path class="cls-45" d="M183.18,173.63a8,8,0,1,0,8,8,8,8,0,0,0-8-8Z"/><path class="cls-45" d="M219.86,227.9a8,8,0,1,0,8,8,8,8,0,0,0-8-8Z"/><path class="cls-44" d="M135,227.72v4H91.64a6.76,6.76,0,0,0-4.8,2L72.24,248.3c0-.32,0-.64,0-1a44.75,44.75,0,0,1,.27-4.94h0L84,230.88a10.72,10.72,0,0,1,7.63-3.16Z"/><path class="cls-45" d="M137,221.72a8,8,0,1,0,8,8,8,8,0,0,0-8-8Z"/><path class="cls-44" d="M147,263.72v4H77.13a43.65,43.65,0,0,1-1.81-4Z"/><path class="cls-45" d="M146,257.72a8,8,0,1,0,8,8,8,8,0,0,0-8-8Z"/></g></g></svg>