<svg xmlns="http://www.w3.org/2000/svg" viewBox="0 0 378 378"><defs><style>.cls-1{fill:#fff;}</style></defs><title>Github Icon</title><g id="Layer_2" data-name="Layer 2"><g id="Layer_1-2" data-name="Layer 1"><circle class="cls-1" cx="189" cy="189" r="189"/><path d="M324.94,114A156.24,156.24,0,0,0,267.8,56.9,153.51,153.51,0,0,0,189,35.84,153.57,153.57,0,0,0,110.19,56.9,156.28,156.28,0,0,0,53.06,114,153.59,153.59,0,0,0,32,192.83q0,51.33,30,92.3t77.37,56.73q5.52,1,8.18-1.43a8,8,0,0,0,2.65-6.13q0-.62-.1-11t-.1-18.19l-4.7.81a60.4,60.4,0,0,1-11.35.72,86.08,86.08,0,0,1-14.21-1.43A31.75,31.75,0,0,1,106,299a26,26,0,0,1-9-12.57l-2-4.7a50.72,50.72,0,0,0-6.44-10.43c-2.93-3.82-5.89-6.4-8.89-7.77l-1.43-1a14.61,14.61,0,0,1-2.66-2.46,11,11,0,0,1-1.84-2.86c-.41-1-.07-1.74,1-2.35s3.07-.92,5.93-.92l4.09.61q4.1.83,10.12,4.91a32.93,32.93,0,0,1,9.91,10.63,36.05,36.05,0,0,0,11.35,12.77,24,24,0,0,0,13.39,4.4,58,58,0,0,0,11.65-1,40.77,40.77,0,0,0,9.2-3.07q1.83-13.69,10-21.06a138.57,138.57,0,0,1-21-3.68,83,83,0,0,1-19.21-8,55,55,0,0,1-16.46-13.7Q97.21,228.61,93,215.32t-4.19-30.67q0-24.74,16.15-42.11-7.56-18.6,1.43-41.7Q112.34,99,124,103.6a122.89,122.89,0,0,1,17.07,7.87q5.41,3.27,8.69,5.52a147.72,147.72,0,0,1,78.5,0l7.77-4.9a109.58,109.58,0,0,1,18.8-9q10.85-4.08,16.57-2.25,9.19,23.1,1.63,41.7,16.14,17.39,16.15,42.12,0,17.37-4.19,30.76t-10.83,21.47a57.2,57.2,0,0,1-16.56,13.59,83.28,83.28,0,0,1-19.22,8,139.54,139.54,0,0,1-21,3.69q10.62,9.19,10.63,29v43.13a8.15,8.15,0,0,0,2.55,6.13q2.57,2.46,8.08,1.43,47.43-15.74,77.37-56.72T346,192.83A153.75,153.75,0,0,0,324.94,114Z"/></g></g></svg>