<svg xmlns="http://www.w3.org/2000/svg" viewBox="0 0 378 378"><defs><style>.cls-1{fill:#fff;}.cls-2{fill:#fbbb00;}.cls-3{fill:#518ef8;}.cls-4{fill:#28b446;}.cls-5{fill:#f14336;}</style></defs><title>Google Icon</title><g id="Layer_2" data-name="Layer 2"><g id="Layer_1-2" data-name="Layer 1"><circle class="cls-1" cx="189" cy="189" r="189"/><path class="cls-2" d="M105.49,220.29,95,259.28l-38.16.8A150.24,150.24,0,0,1,55.77,120h0l34,6.23L104.64,160a89.5,89.5,0,0,0,.85,60.27Z"/><path class="cls-3" d="M336.38,161a150,150,0,0,1-53.47,145h0l-42.8-2.19L234,266a89.41,89.41,0,0,0,38.47-45.65H192.3V161H336.38Z"/><path class="cls-4" d="M282.9,306h0a150.06,150.06,0,0,1-226-45.89l48.61-39.8A89.2,89.2,0,0,0,234,266Z"/><path class="cls-5" d="M284.74,73.53l-48.59,39.79A89.18,89.18,0,0,0,104.65,160L55.78,120h0a150,150,0,0,1,229-46.49Z"/></g></g></svg>