<svg xmlns="http://www.w3.org/2000/svg" xmlns:xlink="http://www.w3.org/1999/xlink" viewBox="0 0 486 446.75"><defs><style>.cls-1,.cls-2,.cls-3,.cls-4{opacity:0.2;}.cls-1{fill:url(#linear-gradient);}.cls-2{fill:url(#linear-gradient-2);}.cls-3{fill:url(#linear-gradient-3);}.cls-4{fill:url(#linear-gradient-4);}.cls-5{fill:#fff;}.cls-6{fill:#0b0b2b;}.cls-7{fill:none;stroke:#fff;stroke-miterlimit:10;stroke-width:4px;}.cls-8{fill:#009ff7;}.cls-9{opacity:0.5;}</style><linearGradient id="linear-gradient" x1="56.1" y1="391.56" x2="395.2" y2="52.46" gradientUnits="userSpaceOnUse"><stop offset="0" stop-color="#3c80d7"/><stop offset="1" stop-color="#93278f"/></linearGradient><linearGradient id="linear-gradient-2" x1="7.08" y1="439.67" x2="41.25" y2="405.5" xlink:href="#linear-gradient"/><linearGradient id="linear-gradient-3" x1="442.74" y1="57.99" x2="463.1" y2="37.63" xlink:href="#linear-gradient"/><linearGradient id="linear-gradient-4" x1="373.8" y1="12.29" x2="383.98" y2="2.11" xlink:href="#linear-gradient"/></defs><title>Machine Learning Optimization_1</title><g id="Layer_2" data-name="Layer 2"><g id="Layer_1-2" data-name="Layer 1"><path class="cls-1" d="M441.26,98.79C344.44,11,267.57,9.37,247.58,10.7c-4,.26-7.93.32-11.9.23C201.47,10.17,50,15.24,44.37,165a87,87,0,0,1-22.76,55.46C8.4,234.87-1.79,265,16.15,327.76c21.28,74.48,77.3,83.78,114.92,80.8a97,97,0,0,0,52.8-20.83c36.26-28.89,124.67-91.1,176-56.91C425.5,374.6,554.21,201.23,441.26,98.79Z"/><circle class="cls-2" cx="24.16" cy="422.59" r="24.16"/><circle class="cls-3" cx="452.92" cy="47.81" r="14.39"/><circle class="cls-4" cx="378.89" cy="7.2" r="7.2"/><rect class="cls-5" x="123.62" y="104.19" width="238.57" height="238.57" rx="8.84" transform="translate(19.43 466.38) rotate(-90)"/><rect class="cls-6" x="137.81" y="118.38" width="210.19" height="210.19" rx="5.37" transform="translate(19.43 466.38) rotate(-90)"/><line class="cls-7" x1="242.8" y1="142.06" x2="242.8" y2="169.24"/><path class="cls-8" d="M242.8,164.33a8.4,8.4,0,1,0,8.4,8.4,8.4,8.4,0,0,0-8.4-8.4Z"/><path class="cls-7" d="M220.14,142.06v24.48a14.39,14.39,0,0,1-4.23,10.2l-14,14"/><path class="cls-8" d="M199.61,185.07a8.4,8.4,0,1,0,8.4,8.4,8.4,8.4,0,0,0-8.4-8.4Z"/><path class="cls-7" d="M265.47,142.06v24.48a14.43,14.43,0,0,0,4.22,10.2l14,14"/><path class="cls-8" d="M286,185.07a8.4,8.4,0,1,0,8.4,8.4,8.41,8.41,0,0,0-8.4-8.4Z"/><line class="cls-7" x1="242.8" y1="304.89" x2="242.8" y2="277.7"/><path class="cls-8" d="M242.8,265.82a8.4,8.4,0,1,0,8.4,8.4,8.4,8.4,0,0,0-8.4-8.4Z"/><path class="cls-7" d="M220.14,304.89V280.41a14.43,14.43,0,0,0-4.23-10.21l-14-14"/><path class="cls-8" d="M199.61,245.07a8.4,8.4,0,1,0,8.4,8.4,8.4,8.4,0,0,0-8.4-8.4Z"/><path class="cls-7" d="M265.47,304.89V280.41a14.47,14.47,0,0,1,4.22-10.21l14-14"/><path class="cls-8" d="M286,245.07a8.4,8.4,0,1,0,8.4,8.4,8.41,8.41,0,0,0-8.4-8.4Z"/><path class="cls-5" d="M321.25,144.06a.87.87,0,0,1,.87.87V301.82a.87.87,0,0,1-.87.87H164.36a.87.87,0,0,1-.87-.87V144.93a.87.87,0,0,1,.87-.87H321.25m0-4H164.36a4.87,4.87,0,0,0-4.87,4.87V301.82a4.87,4.87,0,0,0,4.87,4.87H321.25a4.87,4.87,0,0,0,4.87-4.87V144.93a4.87,4.87,0,0,0-4.87-4.87Z"/><g class="cls-9"><path class="cls-5" d="M236.81,212.88a3.48,3.48,0,0,0-3.34,2.5H221.29a9.32,9.32,0,0,0-6.65,2.75l-12.08,12.08a7.4,7.4,0,0,1-5.23,2.17h-36v2h36a9.34,9.34,0,0,0,6.65-2.76l12.07-12.08a7.39,7.39,0,0,1,5.24-2.16h12.18a3.49,3.49,0,1,0,3.34-4.5Z"/><path class="cls-5" d="M288.29,216.88h36v-2h-36a9.32,9.32,0,0,0-6.65,2.75l-12.08,12.08a7.4,7.4,0,0,1-5.23,2.17H252.14a3.5,3.5,0,1,0,0,2h12.19a9.3,9.3,0,0,0,6.64-2.76L283.05,219A7.39,7.39,0,0,1,288.29,216.88Z"/><path class="cls-5" d="M187,215.88a3.5,3.5,0,1,0-3.34-4.5H161.5v2h22.16A3.5,3.5,0,0,0,187,215.88Z"/><path class="cls-5" d="M302.34,234.38a3.5,3.5,0,1,0,0,2H324.5v-2Z"/><path class="cls-5" d="M286,169.88a3.49,3.49,0,0,0,1-6.84V140.88h-2V163a3.49,3.49,0,0,0,1,6.84Z"/><path class="cls-5" d="M300,185.88a3.5,3.5,0,0,0,1-6.85v-14.1a5.18,5.18,0,0,1,1.51-3.66l2.89-2.88a7.16,7.16,0,0,0,2.1-5.07V141.38h-2v11.94A5.18,5.18,0,0,1,304,157l-2.89,2.88a7.16,7.16,0,0,0-2.1,5.07V179a3.5,3.5,0,0,0,1,6.85Z"/><path class="cls-5" d="M198,169.88a3.49,3.49,0,0,0,1-6.84V140.88h-2V163a3.49,3.49,0,0,0,1,6.84Z"/><path class="cls-5" d="M169,179.88a3.5,3.5,0,0,0,3.5-3.5,3.57,3.57,0,0,0-.42-1.67l6-6a6.38,6.38,0,0,0,1.88-4.54V141.88h-2v22.25a4.39,4.39,0,0,1-1.29,3.12l-6.05,6.05a3.44,3.44,0,0,0-1.66-.42,3.5,3.5,0,0,0,0,7Z"/><path class="cls-5" d="M198,274.88a3.49,3.49,0,0,0-1,6.83v22.17h2V281.71a3.49,3.49,0,0,0-1-6.83Z"/><path class="cls-5" d="M286,274.88a3.49,3.49,0,0,0-1,6.83v22.17h2V281.71a3.49,3.49,0,0,0-1-6.83Z"/><path class="cls-5" d="M309,265.88a3.5,3.5,0,0,0-3.5,3.5,3.56,3.56,0,0,0,.42,1.66l-6,6a6.38,6.38,0,0,0-1.88,4.54v22.26h2V281.62a4.39,4.39,0,0,1,1.29-3.12l6-6.05a3.45,3.45,0,0,0,1.66.43,3.5,3.5,0,0,0,0-7Z"/><path class="cls-5" d="M181.5,259.38a3.49,3.49,0,0,0-1,6.84v14.1A5.14,5.14,0,0,1,179,284l-2.88,2.88a7.16,7.16,0,0,0-2.1,5.07v11.95h2V291.93a5.14,5.14,0,0,1,1.52-3.66l2.88-2.88a7.14,7.14,0,0,0,2.1-5.07v-14.1a3.49,3.49,0,0,0-1-6.84Z"/></g></g></g></svg>