<svg xmlns="http://www.w3.org/2000/svg" xmlns:xlink="http://www.w3.org/1999/xlink" viewBox="0 0 486 446.75"><defs><style>.cls-1,.cls-2,.cls-3,.cls-4{opacity:0.2;}.cls-1{fill:url(#linear-gradient);}.cls-2{fill:url(#linear-gradient-2);}.cls-3{fill:url(#linear-gradient-3);}.cls-4{fill:url(#linear-gradient-4);}.cls-5{fill:#0b0b2b;}.cls-6{fill:#009ff7;}.cls-7{fill:#fff;}.cls-8{fill:#07d3dd;}.cls-9{fill:#f7b806;}.cls-10{fill:#ff4851;}.cls-11{fill:none;}.cls-12{fill:#ffce00;}.cls-13{fill:#ffb806;}</style><linearGradient id="linear-gradient" x1="56.1" y1="391.56" x2="395.2" y2="52.46" gradientUnits="userSpaceOnUse"><stop offset="0" stop-color="#3c80d7"/><stop offset="1" stop-color="#93278f"/></linearGradient><linearGradient id="linear-gradient-2" x1="7.08" y1="439.67" x2="41.25" y2="405.5" xlink:href="#linear-gradient"/><linearGradient id="linear-gradient-3" x1="442.74" y1="57.99" x2="463.1" y2="37.63" xlink:href="#linear-gradient"/><linearGradient id="linear-gradient-4" x1="373.8" y1="12.29" x2="383.98" y2="2.11" xlink:href="#linear-gradient"/></defs><title>Secure SSH Icon</title><g id="Layer_2" data-name="Layer 2"><g id="Layer_1-2" data-name="Layer 1"><path class="cls-1" d="M441.26,98.79C344.44,11,267.57,9.37,247.58,10.7c-4,.26-7.93.32-11.9.23C201.47,10.17,50,15.24,44.37,165a87,87,0,0,1-22.76,55.46C8.4,234.87-1.79,265,16.15,327.76c21.28,74.48,77.3,83.78,114.92,80.8a97,97,0,0,0,52.8-20.83c36.26-28.89,124.67-91.1,176-56.91C425.5,374.6,554.21,201.23,441.26,98.79Z"/><circle class="cls-2" cx="24.16" cy="422.59" r="24.16"/><circle class="cls-3" cx="452.92" cy="47.81" r="14.39"/><circle class="cls-4" cx="378.89" cy="7.2" r="7.2"/><path class="cls-5" d="M393,185.81h.14V125.31a6.56,6.56,0,0,0-6.56-6.56H99.46a6.56,6.56,0,0,0-6.56,6.56V321.44A6.56,6.56,0,0,0,99.46,328h95.29c0-.14,0-.27,0-.41a48.22,48.22,0,0,1,96.44,0c0,.14,0,.27,0,.41h95.37a6.56,6.56,0,0,0,6.56-6.56V279.37H393a46.79,46.79,0,0,1,0-93.57Z"/><rect class="cls-6" x="121.74" y="172.61" width="125.66" height="6.98" rx="3.49"/><rect class="cls-6" x="121.74" y="242.43" width="125.66" height="6.98" rx="3.49"/><rect class="cls-6" x="137.2" y="186.58" width="125.66" height="6.98" rx="3.49"/><rect class="cls-6" x="152.66" y="200.54" width="98.24" height="6.98" rx="3.49"/><rect class="cls-6" x="255.38" y="200.54" width="16.46" height="6.98" rx="3.49"/><rect class="cls-6" x="137.2" y="214.5" width="74.3" height="6.98" rx="3.49"/><rect class="cls-6" x="137.2" y="228.47" width="19.95" height="6.98" rx="3.49"/><path class="cls-7" d="M99.35,118.75H386.65a6.45,6.45,0,0,1,6.45,6.45v16.48a0,0,0,0,1,0,0H92.9a0,0,0,0,1,0,0V125.2A6.45,6.45,0,0,1,99.35,118.75Z"/><circle class="cls-8" cx="117.3" cy="130.21" r="4.44"/><circle class="cls-9" cx="132.09" cy="130.21" r="4.44"/><circle class="cls-10" cx="146.88" cy="130.21" r="4.44"/><circle class="cls-7" cx="392.96" cy="232.59" r="40.22"/><circle class="cls-5" cx="242.96" cy="327.59" r="41.78"/><circle class="cls-11" cx="415.75" cy="232.59" r="4.27"/><path class="cls-12" d="M410.06,217.66a14.92,14.92,0,0,0-13.8,9.24H367.68a.78.78,0,0,0-.5.17l-5.2,4.1-.84.67a.49.49,0,0,0,0,.8l.84.67,4.9,3.86a.83.83,0,0,0,1,0l2.19-1.72a.86.86,0,0,1,1,0l2.49,2a.79.79,0,0,0,.5.16h3.68a.77.77,0,0,0,.5-.16l.71-.56a.86.86,0,0,1,1,0l.06.05a.86.86,0,0,0,1,0l1.48-1.18a.86.86,0,0,1,1,0l2.13,1.69a.79.79,0,0,0,.5.16H388a.65.65,0,0,0,.72-.56v-.56a.73.73,0,0,1,1.42,0V237a.65.65,0,0,0,.71.56H396a14.93,14.93,0,1,0,14.06-19.91Zm0,28.09a13.16,13.16,0,1,1,13.16-13.16A13.18,13.18,0,0,1,410.06,245.75Z"/><path class="cls-12" d="M410.06,221.57a11,11,0,1,0,11,11A11,11,0,0,0,410.06,221.57Zm5.69,15.29a4.27,4.27,0,1,1,4.27-4.27A4.27,4.27,0,0,1,415.75,236.86Z"/><path class="cls-13" d="M410.06,219.44a13.16,13.16,0,1,0,13.16,13.15A13.17,13.17,0,0,0,410.06,219.44Zm0,24.18a11,11,0,1,1,11-11A11,11,0,0,1,410.06,243.62Z"/><path class="cls-7" d="M263,333.12l-4.43-3.49a15.18,15.18,0,0,0,.15-2,16.87,16.87,0,0,0-.15-2.1l4.43-3.42a1,1,0,0,0,.25-1.34l-4.2-7.27a1,1,0,0,0-1.28-.46l-5.23,2.1A15.33,15.33,0,0,0,249,313l-.78-5.56a1.07,1.07,0,0,0-1.05-.89h-8.4a1.06,1.06,0,0,0-1.05.89l-.78,5.56a15.4,15.4,0,0,0-3.55,2.06l-5.23-2.1a1,1,0,0,0-1.28.46l-4.2,7.27a1,1,0,0,0,.25,1.34l4.44,3.42a16.87,16.87,0,0,0-.15,2.1,15.18,15.18,0,0,0,.15,2l-4.44,3.49a1,1,0,0,0-.25,1.34l4.2,7.27a1.05,1.05,0,0,0,1.28.46l5.23-2.12a14.78,14.78,0,0,0,3.55,2.08l.78,5.56a1,1,0,0,0,1.05.88h8.4a1.06,1.06,0,0,0,1.05-.88l.78-5.56a15.4,15.4,0,0,0,3.54-2.08l5.23,2.12a1,1,0,0,0,1.28-.46l4.2-7.27A1,1,0,0,0,263,333.12Zm-20,1.82a7.35,7.35,0,1,1,7.35-7.35A7.35,7.35,0,0,1,243,334.94Z"/></g></g></svg>