<svg xmlns="http://www.w3.org/2000/svg" viewBox="0 0 382 382"><defs><style>.cls-1{fill:none;}.cls-2{fill:#777;}</style></defs><title>CPU_Icon</title><g id="Layer_2" data-name="Layer 2"><g id="Layer_1-2" data-name="Layer 1"><rect class="cls-1" width="382" height="382"/><path class="cls-2" d="M275,97H107a10,10,0,0,0-10,10V275a10,10,0,0,0,10,10H275a10,10,0,0,0,10-10V107A10,10,0,0,0,275,97ZM265,265H117V117H265Z"/><rect class="cls-2" x="158" y="158" width="66" height="66" rx="3.51"/><rect class="cls-2" x="123" y="39" width="24" height="40.82"/><rect class="cls-2" x="179" y="39" width="24" height="40.82"/><rect class="cls-2" x="235" y="39" width="24" height="40.82"/><rect class="cls-2" x="123" y="302" width="24" height="40.82"/><rect class="cls-2" x="179" y="302" width="24" height="40.82"/><rect class="cls-2" x="235" y="302" width="24" height="40.82"/><rect class="cls-2" x="302.59" y="123.41" width="40.82" height="24"/><rect class="cls-2" x="302.59" y="179.41" width="40.82" height="24"/><rect class="cls-2" x="302.59" y="235.41" width="40.82" height="24"/><rect class="cls-2" x="38.59" y="123.41" width="40.82" height="24"/><rect class="cls-2" x="38.59" y="179.41" width="40.82" height="24"/><rect class="cls-2" x="38.59" y="235.41" width="40.82" height="24"/></g></g></svg>