<svg height="480pt" viewBox="0 0 480 480" width="480pt" xmlns="http://www.w3.org/2000/svg"><path d="m432 80c0-17.671875-14.328125-32-32-32h-320c-17.671875 0-32 14.328125-32 32v320c0 17.671875 14.328125 32 32 32h320c17.671875 0 32-14.328125 32-32zm-48 304h-288v-288h288zm0 0" fill="#9bc9ff"/><path d="m96 96v288h288v-288zm48 64c0-8.835938 7.164062-16 16-16s16 7.164062 16 16-7.164062 16-16 16-16-7.164062-16-16zm0 0" fill="#9bc9ff"/><g fill="#1e81ce"><path d="m184 328h16v32h-16zm0 0"/><path d="m216 328h16v32h-16zm0 0"/><path d="m248 328h16v32h-16zm0 0"/><path d="m280 328h16v32h-16zm0 0"/><path d="m312 328h16v32h-16zm0 0"/><path d="m152 328h16v32h-16zm0 0"/><path d="m480 128v-16h-40v-32c-.027344-22.082031-17.917969-39.972656-40-40h-32v-40h-16v40h-32v-40h-16v40h-32v-40h-16v40h-32v-40h-16v40h-32v-40h-16v40h-32v-40h-16v40h-32c-22.082031.027344-39.972656 17.917969-40 40v32h-40v16h40v32h-40v16h40v32h-40v16h40v32h-40v16h40v32h-40v16h40v32h-40v16h40v32c.027344 22.082031 17.917969 39.972656 40 40h32v40h16v-40h32v40h16v-40h32v40h16v-40h32v40h16v-40h32v40h16v-40h32v40h16v-40h32c22.082031-.027344 39.972656-17.917969 40-40v-32h40v-16h-40v-32h40v-16h-40v-32h40v-16h-40v-32h40v-16h-40v-32h40v-16h-40v-32zm-56 272c0 13.253906-10.746094 24-24 24h-320c-13.253906 0-24-10.746094-24-24v-320c0-13.253906 10.746094-24 24-24h320c13.253906 0 24 10.746094 24 24zm0 0"/><path d="m88 392h304v-304h-304zm16-288h272v272h-272zm0 0"/><path d="m184 160c0-13.253906-10.746094-24-24-24s-24 10.746094-24 24 10.746094 24 24 24 24-10.746094 24-24zm-32 0c0-4.417969 3.582031-8 8-8s8 3.582031 8 8-3.582031 8-8 8-8-3.582031-8-8zm0 0"/><path d="m160 200h176v16h-176zm0 0"/><path d="m160 232h144v16h-144zm0 0"/><path d="m160 264h64v16h-64zm0 0"/><path d="m240 264h16v16h-16zm0 0"/><path d="m320 232h16v16h-16zm0 0"/></g></svg>