<svg xmlns="http://www.w3.org/2000/svg" viewBox="0 0 382 382"><defs><style>.cls-1{fill:none;}.cls-2{fill:#777;}</style></defs><title>GPU</title><g id="Layer_2" data-name="Layer 2"><g id="Layer_1-2" data-name="Layer 1"><rect class="cls-1" width="382" height="382"/><path class="cls-2" d="M53.21,103H15v20.61a5.79,5.79,0,0,0,5.79,5.79h6a5.79,5.79,0,0,1,5.79,5.79v138A5.79,5.79,0,0,0,38.39,279H53.21A5.79,5.79,0,0,0,59,273.21V108.79A5.79,5.79,0,0,0,53.21,103Z"/><path class="cls-2" d="M352.87,103H85.4V255.61a5.79,5.79,0,0,0,5.79,5.79h8.9a2.91,2.91,0,0,1,2.91,2.91V275a4,4,0,0,0,4,4H222.24a4,4,0,0,0,4-4V264.31a2.91,2.91,0,0,1,2.91-2.91H352.87A14.13,14.13,0,0,0,367,247.27V117.13A14.13,14.13,0,0,0,352.87,103ZM347,241.4H229.11A23,23,0,0,0,206.82,259H122.38a23,23,0,0,0-17-17V123H347Z"/><path class="cls-2" d="M214,214h63a31,31,0,0,0,31-31h0a31,31,0,0,0-31-31H214a5,5,0,0,0-5,5v52A5,5,0,0,0,214,214Z"/></g></g></svg>