<svg height="480pt" viewBox="0 -40 480 480" width="480pt" xmlns="http://www.w3.org/2000/svg"><path d="m88 24c0-8.835938-7.164062-16-16-16h-64v32h48v352h32zm0 0" fill="#9bc9ff"/><path d="m88 72v256h384v-256zm48 56h48v48h-48zm275.0625 120c-24.058594 41.375-75.046875 58.53125-119.226562 40.113281-44.179688-18.417969-67.882813-66.710937-55.429688-112.925781 12.457031-46.214844 57.21875-76.058594 104.667969-69.78125 47.453125 6.277344 82.914062 46.730469 82.925781 94.59375-.035156 16.855469-4.496094 33.410156-12.9375 48zm0 0" fill="#9bc9ff"/><path d="m352 200c0 13.253906-10.746094 24-24 24s-24-10.746094-24-24 10.746094-24 24-24 24 10.746094 24 24zm0 0" fill="#9bc9ff"/><g fill="#1e81ce"><path d="m472 64h-376v-40c0-13.253906-10.746094-24-24-24h-64c-4.417969 0-8 3.582031-8 8v32c0 4.417969 3.582031 8 8 8h40v48h-24c-4.417969 0-8 3.582031-8 8s3.582031 8 8 8h24v8h-24c-4.417969 0-8 3.582031-8 8v112c0 4.417969 3.582031 8 8 8h24v8h-24c-4.417969 0-8 3.582031-8 8s3.582031 8 8 8h24v120c0 4.417969 3.582031 8 8 8h32c4.417969 0 8-3.582031 8-8v-56h40v40c0 4.417969 3.582031 8 8 8h96c4.417969 0 8-3.582031 8-8v-8c0-4.417969 3.582031-8 8-8s8 3.582031 8 8v8c0 4.417969 3.582031 8 8 8h160c4.417969 0 8-3.582031 8-8v-40h32c4.417969 0 8-3.582031 8-8v-256c0-4.417969-3.582031-8-8-8zm-440 168v-96h16v96zm48 152h-16v-344c0-4.417969-3.582031-8-8-8h-40v-16h56c4.417969 0 8 3.582031 8 8zm344-16h-16v-24h-16v24h-16v-24h-16v24h-16v-24h-16v24h-16v-24h-16v24h-16c0-13.253906-10.746094-24-24-24s-24 10.746094-24 24h-16v-24h-16v24h-16v-24h-16v24h-16v-32h272zm40-48h-368v-240h368zm0 0"/><path d="m238.832031 253.265625c18.726563 31.421875 52.589844 50.691406 89.167969 50.734375 18.714844-.011719 37.074219-5.109375 53.113281-14.753906l.152344-.078125c14.796875-8.882813 27.164063-21.289063 36-36.113281.339844-.4375.628906-.910157.863281-1.414063 18.78125-32.503906 18.417969-72.644531-.953125-104.800781v-.054688c-14.046875-23.726562-36.984375-40.863281-63.71875-47.609375-26.738281-6.746093-55.058593-2.539062-78.679687 11.679688h-.058594c-23.722656 14.050781-40.859375 36.984375-47.605469 63.722656-6.746093 26.734375-2.542969 55.054687 11.679688 78.679687zm9.96875-91.449219 19.007813 6.503906c7.875 2.703126 15.050781 7.117188 21.015625 12.925782l8.902343 8.714844-.054687.175781-9.015625-2.304688c-10.375-2.644531-21.210938-2.949219-31.71875-.894531l-16.394531 3.199219c1.125-9.839844 3.917969-19.417969 8.257812-28.320313zm70.046875-1.945312c-2.898437-10.285156-8.039062-19.804688-15.046875-27.871094l-11-12.617188c9.082031-3.957031 18.773438-6.339843 28.65625-7.054687l3.878907 19.734375c1.597656 8.171875 1.359374 16.597656-.695313 24.664062l-3.039063 11.921876-.257812.0625zm88.351563 78.3125-19.007813-6.503906c-7.875-2.703126-15.050781-7.117188-21.015625-12.925782l-8.902343-8.714844.054687-.175781 9.015625 2.304688c10.378906 2.636719 21.210938 2.941406 31.71875.894531l16.394531-3.199219c-1.125 9.839844-3.917969 19.417969-8.257812 28.320313zm-70.046875 1.945312c2.90625 10.304688 8.058594 19.835938 15.085937 27.910156l10.960938 12.578126c-9.082031 3.957031-18.773438 6.339843-28.65625 7.054687l-3.878907-19.734375c-1.597656-8.171875-1.359374-16.597656.695313-24.664062l3.039063-11.921876.257812-.0625zm-9.152344-56.128906c8.835938 0 16 7.164062 16 16s-7.164062 16-16 16-16-7.164062-16-16 7.164062-16 16-16zm-18.753906 55.136719 8.714844-8.90625.175781.058593-2.304688 9.015626c-2.640625 10.375-2.945312 21.210937-.894531 31.71875l3.199219 16.390624c-9.839844-1.109374-19.414063-3.886718-28.320313-8.214843l6.503906-19.007813c2.695313-7.886718 7.113282-15.082031 12.925782-21.054687zm106.402344-45.65625-19.738282 3.878906c-8.167968 1.59375-16.59375 1.359375-24.664062-.695313l-11.917969-3.039062-.0625-.257812 8.796875-2.480469c10.304688-2.902344 19.839844-8.058594 27.914062-15.085938l12.640626-11c3.957031 9.089844 6.34375 18.789063 7.054687 28.679688zm-68.921876-32.617188-8.710937 8.90625-.175781-.058593 2.304687-9.015626c2.636719-10.375 2.945313-21.210937.894531-31.71875l-3.199218-16.390624c9.847656 1.117187 19.433594 3.910156 28.34375 8.253906l-6.503906 19.007812c-2.703126 7.875-7.117188 15.054688-12.925782 21.015625zm-86.664062 41.777344c8.171875-1.605469 16.597656-1.367187 24.664062.695313l11.921876 3.039062.0625.257812-8.800782 2.480469c-10.300781 2.902344-19.835937 8.058594-27.910156 15.085938l-12.617188 11c-3.957031-9.082031-6.339843-18.773438-7.054687-28.65625zm-4.796875 46.863281 15.199219-13.246094c6.277344-5.46875 13.691406-9.476562 21.703125-11.738281l12-3.359375.121093.152344-6.496093 6.648438c-7.476563 7.664062-13.15625 16.890624-16.632813 27.015624l-5.375 15.710938c-7.960937-5.871094-14.882812-13.03125-20.480468-21.183594zm122.199219 23.199219-13.25-15.199219c-5.46875-6.277344-9.476563-13.691406-11.734375-21.703125l-3.359375-12 .152344-.121093 6.648437 6.496093c7.664063 7.472657 16.890625 13.15625 27.015625 16.632813l15.710938 5.375c-5.855469 7.96875-13.003907 14.902344-21.144532 20.511718zm23.199218-122.199219-15.199218 13.25c-6.277344 5.464844-13.691406 9.472656-21.703125 11.734375l-12 3.359375-.121094-.152344 6.496094-6.648437c7.472656-7.664063 13.152343-16.890625 16.632812-27.015625l5.375-15.710938c7.984375 5.863282 14.929688 13.019532 20.550781 21.175782zm-122.199218-23.199218 13.246094 15.199218c5.46875 6.277344 9.476562 13.691406 11.738281 21.703125l3.359375 12-.152344.121094-6.648438-6.496094c-7.664062-7.472656-16.890624-13.15625-27.015624-16.632812l-15.710938-5.375c5.875-7.976563 13.046875-14.914063 21.214844-20.519531zm0 0"/><path d="m192 120h-64v64h64zm-16 48h-32v-32h32zm0 0"/><path d="m128 200h64v16h-64zm0 0"/><path d="m128 232h64v16h-64zm0 0"/><path d="m128 264h16v16h-16zm0 0"/><path d="m152 264h16v16h-16zm0 0"/><path d="m176 264h16v16h-16zm0 0"/></g></svg>