<svg xmlns="http://www.w3.org/2000/svg" viewBox="0 0 382 382"><defs><style>.cls-1{fill:none;}.cls-2{fill:#777;}</style></defs><title>TPU_Icon</title><g id="Layer_2" data-name="Layer 2"><g id="Layer_1-2" data-name="Layer 1"><rect class="cls-1" width="382" height="382"/><rect class="cls-2" x="164.6" y="164.6" width="52.8" height="52.8" rx="2.81"/><path class="cls-2" d="M331.8,243.8a11.19,11.19,0,0,0-10.39,7h-7.23L295.3,232H266.2V194.65h16.62a11.19,11.19,0,1,0,.26-8H266.2V150h29.1l18.88-18.88h7.23a11.2,11.2,0,1,0-.12-8H310.87L292,142H266.2V123.8a8,8,0,0,0-8-8H240V90.49L258.84,71.6V60.38a11.18,11.18,0,1,0-8,.51v7.4L232,87.17V115.8H194.65V99.18a11.19,11.19,0,1,0-8-.26V115.8H150V87.17L131.16,68.29v-7.7a11.2,11.2,0,1,0-8,.12V71.6L142,90.49V115.8H123.8a8,8,0,0,0-8,8V142H90.16L71.27,123.16H60.71a11.2,11.2,0,1,0-.12,8H68L86.84,150h29v37.31H99.18a11.19,11.19,0,1,0-.26,8H115.8V232h-29L68,250.84H60.59a11.2,11.2,0,1,0,.12,8H71.27L90.16,240H115.8V258.2a8,8,0,0,0,8,8h17.91v25.54l-18.88,18.89v10.78a11.21,11.21,0,1,0,8-.12v-7.35l18.88-18.88V266.2H187v12.74a11.2,11.2,0,1,0,8,0V266.2h36.6v28.86l18.88,18.88v7.29a11.19,11.19,0,1,0,8,.23V310.63l-18.88-18.89V266.2H258.2a8,8,0,0,0,8-8V240H292l18.88,18.88h10.42a11.2,11.2,0,1,0,10.51-15Zm-85.6,2.4H135.8V135.8H246.2Z"/></g></g></svg>