<svg xmlns="http://www.w3.org/2000/svg" viewBox="0 0 382 382"><defs><style>.cls-1{fill:none;}.cls-2{fill:#414141;}</style></defs><title>Audio_1</title><g id="Layer_2" data-name="Layer 2"><g id="Layer_1-2" data-name="Layer 1"><rect class="cls-1" width="382" height="382"/><path class="cls-2" d="M231.92,64.67h0a8.47,8.47,0,0,0-4.1,1.07L96.28,138.5H40.05a8.14,8.14,0,0,0-8.13,8.13v88.74a8.14,8.14,0,0,0,8.13,8.13H96.28l131.53,72.76a8.49,8.49,0,0,0,12.61-7.44V73.18a8.42,8.42,0,0,0-2.59-6.12A8.63,8.63,0,0,0,231.92,64.67Zm-11.5,28V289.32l-106-58.64V151.32Zm-127,65.82v65H51.92v-65Z"/><path class="cls-2" d="M318.2,110a6.44,6.44,0,0,0-4.65-2.07,6.33,6.33,0,0,0-4.71,1.9l-5,5a6.47,6.47,0,0,0-.16,9,98.9,98.9,0,0,1,0,134.44,6.47,6.47,0,0,0,.15,9l5,4.95a6.45,6.45,0,0,0,4.6,1.9h.11A6.44,6.44,0,0,0,318.2,272a118.89,118.89,0,0,0,0-162Z"/><path class="cls-2" d="M272.7,148.87a6.52,6.52,0,0,0-4.82,1.9l-5,5a6.5,6.5,0,0,0-.4,8.76,41.06,41.06,0,0,1,0,53,6.49,6.49,0,0,0,.4,8.75l5,5a6.5,6.5,0,0,0,4.59,1.9h.24a6.58,6.58,0,0,0,4.71-2.27,61,61,0,0,0,0-79.72A6.58,6.58,0,0,0,272.7,148.87Z"/></g></g></svg>