<svg xmlns="http://www.w3.org/2000/svg" viewBox="0 0 382 382"><defs><style>.cls-1{fill:none;}.cls-2{fill:#414141;}</style></defs><title>Broken_Image_1</title><g id="Layer_2" data-name="Layer 2"><g id="Layer_1-2" data-name="Layer 1"><rect class="cls-1" width="382" height="382"/><path class="cls-2" d="M333,60.5H234.3l-9.15,20h-.49l-14.3,31.26-5.27,11.53,10.48,7.12,13.69,9.3L195,201.65l-2-52.22-.21-5.47-3.68-4.05-13-14.25,7.16-13.72,6.82-13.08-13-7L156.31,80.5h-.1l-2.89-20H49A12.52,12.52,0,0,0,36.5,73V309A12.52,12.52,0,0,0,49,321.5H333A12.52,12.52,0,0,0,345.5,309V73A12.52,12.52,0,0,0,333,60.5Zm-7.5,158.86L279,172.86l-54.59,54.59-.32-.32L214,245.33l10.4,10.4L279,201.14l46.5,46.5V301.5H56.5V246.64l79.41-79.41,24,24-1.11-29.39L135.91,139,56.5,218.36V80.5h77.71L135,86l35,19-12,23,20,22,4,106,67-121-25-17,17.15-37.5H325.5Z"/></g></g></svg>