<svg xmlns="http://www.w3.org/2000/svg" viewBox="0 0 382 382"><defs><style>.cls-1{fill:none;}.cls-2{fill:#414141;}</style></defs><title>Browse_Model_1</title><g id="Layer_2" data-name="Layer 2"><g id="Layer_1-2" data-name="Layer 1"><rect class="cls-1" width="382" height="382"/><path class="cls-2" d="M328,215.61H269.74V106a35.41,35.41,0,1,0-20-.28V215.61H130.32V106a35.41,35.41,0,1,0-20-.28V215.61H54a12.2,12.2,0,0,0-12.19,12.18V333.32A12.2,12.2,0,0,0,54,345.5H328a12.2,12.2,0,0,0,12.19-12.18V227.79A12.2,12.2,0,0,0,328,215.61ZM244.81,71.92a15.42,15.42,0,1,1,15.41,15.41A15.43,15.43,0,0,1,244.81,71.92Zm4.93,174.8a35.19,35.19,0,0,0-23.49,23.83H154.78a35.55,35.55,0,0,0-24.46-24.11V235.61H249.74ZM120.81,296a15.42,15.42,0,1,1,15.42-15.42A15.44,15.44,0,0,1,120.81,296Zm-10.49-49.25a35.42,35.42,0,1,0,44.47,43.83h71.46a35.41,35.41,0,0,0,69.39-10,35.62,35.62,0,0,0-25.9-34.11V235.61h50.44V325.5H61.82V235.61h48.5Zm-4.93-174.8a15.42,15.42,0,1,1,15.42,15.41A15.44,15.44,0,0,1,105.39,71.92Z"/></g></g></svg>