<svg xmlns="http://www.w3.org/2000/svg" viewBox="0 0 382 382"><defs><style>.cls-1{fill:none;}.cls-2{fill:#23c87e;}</style></defs><title>Copy_to_Clipboard</title><g id="Layer_2" data-name="Layer 2"><g id="Layer_1-2" data-name="Layer 1"><rect class="cls-1" width="382" height="382"/><path class="cls-2" d="M117.29,94.13,104.11,81.87a2,2,0,0,0-2.83.1L1.14,189.68a2,2,0,0,0,0,2.73L101.45,300.29a2,2,0,0,0,2.83.11l13.18-12.26a2,2,0,0,0,.1-2.83l-86.38-92.9a2,2,0,0,1,0-2.73L117.4,97A2,2,0,0,0,117.29,94.13Z"/><path class="cls-2" d="M277.62,81.86,264.45,94.14a2,2,0,0,0-.1,2.82l86.43,92.72a2,2,0,0,1,0,2.73L264.19,285.3a2,2,0,0,0,.09,2.83l13.17,12.27a2,2,0,0,0,2.83-.09l100.58-107.9a2,2,0,0,0,0-2.73L280.45,82A2,2,0,0,0,277.62,81.86Z"/><rect class="cls-2" x="28.91" y="180" width="324" height="22" rx="2" transform="translate(-54.33 304.06) rotate(-69.76)"/></g></g></svg>