<svg xmlns="http://www.w3.org/2000/svg" viewBox="0 0 382 382"><defs><style>.cls-1{fill:none;}.cls-2{fill:#414141;}</style></defs><title>Create_New_1</title><g id="Layer_2" data-name="Layer 2"><g id="Layer_1-2" data-name="Layer 1"><rect class="cls-1" width="382" height="382"/><polygon class="cls-2" points="339.86 217.25 339.86 176 312.36 176 312.36 217.25 271.11 217.25 271.11 244.75 312.36 244.75 312.36 286 339.86 286 339.86 244.75 381.11 244.75 381.11 217.25 339.86 217.25"/><path class="cls-2" d="M280.42,177.24a63.86,63.86,0,0,0-75.84-42.62,63.83,63.83,0,0,0-122.17,19H67.08a66.2,66.2,0,0,0,0,132.39h181V266h-181a46.2,46.2,0,0,1,0-92.39H89.33a12.86,12.86,0,0,0,9.15-3.85,12.67,12.67,0,0,0,3.64-9.19c0-.25,0-.49,0-.74a43.84,43.84,0,0,1,85.8-12.67,12.8,12.8,0,0,0,16.66,8.33A43.81,43.81,0,0,1,259.71,179l.66,1.49h21.09Z"/></g></g></svg>