<svg xmlns="http://www.w3.org/2000/svg" viewBox="0 0 382 382"><defs><style>.cls-1{fill:none;}.cls-2{fill:#414141;}</style></defs><title>Dashboard_1</title><g id="Layer_2" data-name="Layer 2"><g id="Layer_1-2" data-name="Layer 1"><rect class="cls-1" width="382" height="382"/><path class="cls-2" d="M166.5,36.5H44.5A7.5,7.5,0,0,0,37,44v62a7.5,7.5,0,0,0,7.5,7.5h122A7.5,7.5,0,0,0,174,106V44A7.5,7.5,0,0,0,166.5,36.5ZM154,56.5v37H57v-37Z"/><path class="cls-2" d="M166.5,137.5H44.5A7.5,7.5,0,0,0,37,145V338a7.5,7.5,0,0,0,7.5,7.5h122A7.5,7.5,0,0,0,174,338V145A7.5,7.5,0,0,0,166.5,137.5Zm-12.5,20v168H57v-168Z"/><path class="cls-2" d="M337.5,268.5h-122A7.5,7.5,0,0,0,208,276v62a7.5,7.5,0,0,0,7.5,7.5h122A7.5,7.5,0,0,0,345,338V276A7.5,7.5,0,0,0,337.5,268.5Zm-12.5,20v37H228v-37Z"/><path class="cls-2" d="M337.5,36.5h-122A7.5,7.5,0,0,0,208,44V237a7.5,7.5,0,0,0,7.5,7.5h122A7.5,7.5,0,0,0,345,237V44A7.5,7.5,0,0,0,337.5,36.5ZM325,56.5v168H228V56.5Z"/></g></g></svg>