<svg xmlns="http://www.w3.org/2000/svg" viewBox="0 0 382 382"><defs><style>.cls-1{fill:none;}.cls-2{fill:#4b47b6;}</style></defs><title>Deploy_1</title><g id="Layer_2" data-name="Layer 2"><g id="Layer_1-2" data-name="Layer 1"><rect class="cls-1" width="382" height="382"/><path class="cls-2" d="M356.37,278.36,303.9,241.72v26.47H265.66V200.94H301a43.34,43.34,0,1,0,0-86.68H283.71a56.75,56.75,0,0,0-68-47.47A57.45,57.45,0,0,0,164.2,33.87a56.8,56.8,0,0,0-56.28,49.54H96.4a58.77,58.77,0,1,0,0,117.53h20.11v67.25H78.1V241.72L25.63,278.36,78.1,315V288.19h58.41V200.94H181V296H154.36L191,348.5,227.64,296H201V200.94h44.66v87.25H303.9V315ZM96.4,104.3h19.12a12.94,12.94,0,0,0,9.19-3.86,12.69,12.69,0,0,0,3.66-9.25c0-.2,0-.39,0-.58a35.84,35.84,0,0,1,70.15-10.37,12.85,12.85,0,0,0,16.73,8.37,35.86,35.86,0,0,1,48.14,33.68,12.84,12.84,0,0,0,3.68,9,12.71,12.71,0,0,0,9.15,3.84H301A22.44,22.44,0,1,1,301,180H96.4a37.87,37.87,0,0,1,0-75.74Z"/></g></g></svg>