<svg xmlns="http://www.w3.org/2000/svg" viewBox="0 0 382 382"><defs><style>.cls-1{fill:none;}.cls-2{fill:#414141;}</style></defs><title>Drop_Local_Files</title><g id="Layer_2" data-name="Layer 2"><g id="Layer_1-2" data-name="Layer 1"><rect class="cls-1" width="382" height="382"/><polygon class="cls-2" points="146.44 241.03 160.59 255.17 181 234.76 181 292.33 201 292.33 201 234.7 221.42 255.12 235.56 240.98 191.03 196.44 146.44 241.03"/><path class="cls-2" d="M191,159a84,84,0,1,0,84,84A84.09,84.09,0,0,0,191,159Zm0,148a64,64,0,1,1,64-64A64.07,64.07,0,0,1,191,307Z"/><path class="cls-2" d="M335.18,55H194a8.78,8.78,0,0,0-7.87,4.83l-20.71,40.73a1,1,0,0,1-.88.54H46.82A8.84,8.84,0,0,0,38,109.93V302.17A8.84,8.84,0,0,0,46.82,311H81V291.38H57.61V120.72H164.55a20.5,20.5,0,0,0,18.36-11.27l17.72-34.83H324.39V291.38H301V311h34.18a8.84,8.84,0,0,0,8.83-8.83V63.83A8.84,8.84,0,0,0,335.18,55Z"/></g></g></svg>