<svg xmlns="http://www.w3.org/2000/svg" viewBox="0 0 382 382"><defs><style>.cls-1{fill:none;}.cls-2{fill:#414141;}</style></defs><title>Grid_Table_1</title><g id="Layer_2" data-name="Layer 2"><g id="Layer_1-2" data-name="Layer 1"><rect class="cls-1" width="382" height="382"/><path class="cls-2" d="M333,36.5H49A12.52,12.52,0,0,0,36.5,49V333A12.52,12.52,0,0,0,49,345.5H333A12.52,12.52,0,0,0,345.5,333V49A12.52,12.52,0,0,0,333,36.5ZM325.5,281V325.5H254.41V281Zm0-80v60H254.41V201Zm0-80v60H254.41V121ZM234.41,281V325.5h-86V281Zm0-80v60h-86V201Zm0-80v60h-86V121Zm-106,160V325.5H56.5V281Zm0-80v60H56.5V201Zm0-80v60H56.5V121ZM325.5,56.5V101H56.5V56.5Z"/></g></g></svg>