<svg xmlns="http://www.w3.org/2000/svg" viewBox="0 0 382 382"><defs><style>.cls-1{fill:none;}.cls-2{fill:#414141;}</style></defs><title>Image_1</title><g id="Layer_2" data-name="Layer 2"><g id="Layer_1-2" data-name="Layer 1"><rect class="cls-1" width="382" height="382"/><path class="cls-2" d="M333,60.5H49A12.52,12.52,0,0,0,36.5,73V309A12.52,12.52,0,0,0,49,321.5H333A12.52,12.52,0,0,0,345.5,309V73A12.52,12.52,0,0,0,333,60.5ZM56.5,218.36V80.5h269V219.36L279,172.86l-54.59,54.59L135.91,139Zm269,29.28V301.5H56.5V246.64l79.41-79.41,88.5,88.5L279,201.14Z"/><circle class="cls-2" cx="226.5" cy="130.5" r="36"/></g></g></svg>