<svg xmlns="http://www.w3.org/2000/svg" viewBox="0 0 382 382"><defs><style>.cls-1{fill:none;}.cls-2{fill:#00203FFF;}</style></defs><title>Save_2</title><g id="Layer_2" data-name="Layer 2"><g id="Layer_1-2" data-name="Layer 1"><rect class="cls-1" width="382" height="382"/><path class="cls-2" d="M344.1,124.75,258,38.63a4.78,4.78,0,0,0-3.37-1.39H41.26A4.76,4.76,0,0,0,36.5,42V340.84a4.77,4.77,0,0,0,4.76,4.76H340.74a4.77,4.77,0,0,0,4.76-4.76V128.12A4.71,4.71,0,0,0,344.1,124.75ZM253.5,325.6h-125V292.5h125Zm72,0h-52V284a11.45,11.45,0,0,0-11.45-11.45H120A11.45,11.45,0,0,0,108.5,284V325.6h-52V57.24H248.31l77.19,77.18Z"/><circle class="cls-2" cx="191" cy="191" r="49.5"/></g></g></svg>