<svg xmlns="http://www.w3.org/2000/svg" viewBox="0 0 382 382"><defs><style>.cls-1{fill:none;}.cls-2{fill:#414141;}</style></defs><title>Serving_Model_List</title><g id="Layer_2" data-name="Layer 2"><g id="Layer_1-2" data-name="Layer 1"><rect class="cls-1" width="382" height="382"/><path class="cls-2" d="M357,247H326.5V201a17.52,17.52,0,0,0-17.5-17.5H198.37V135H229a10,10,0,0,0,10-10V49a10,10,0,0,0-10-10H153a10,10,0,0,0-10,10v76a10,10,0,0,0,10,10h30.37v48.45H73A17.52,17.52,0,0,0,55.5,201V247H25a10,10,0,0,0-10,10v76a10,10,0,0,0,10,10h76a10,10,0,0,0,10-10V257a10,10,0,0,0-10-10H70.5V201a2.5,2.5,0,0,1,2.5-2.5H309a2.5,2.5,0,0,1,2.5,2.5V247H281a10,10,0,0,0-10,10v76a10,10,0,0,0,10,10h76a10,10,0,0,0,10-10V257A10,10,0,0,0,357,247Z"/></g></g></svg>