<svg xmlns="http://www.w3.org/2000/svg" viewBox="0 0 382 382"><defs><style>.cls-1{fill:none;}.cls-2{fill:#414141;}</style></defs><title>Text_Icon</title><g id="Layer_2" data-name="Layer 2"><g id="Layer_1-2" data-name="Layer 1"><rect class="cls-1" width="382" height="382"/><path class="cls-2" d="M333,39H49A10,10,0,0,0,39,49V333a10,10,0,0,0,10,10H333a10,10,0,0,0,10-10V49A10,10,0,0,0,333,39ZM323,323H59V59H323Z"/><polygon class="cls-2" points="130 123 179 123 179 259 164.06 259 164.06 283 217.94 283 217.94 259 203 259 203 123 252 123 252 134 276 134 276 99 106 99 106 134 130 134 130 123"/></g></g></svg>