<svg xmlns="http://www.w3.org/2000/svg" viewBox="0 0 382 382"><defs><style>.cls-1{fill:none;}.cls-2{fill:#414141;}</style></defs><title>URL_1</title><g id="Layer_2" data-name="Layer 2"><g id="Layer_1-2" data-name="Layer 1"><rect class="cls-1" width="382" height="382"/><path class="cls-2" d="M171.18,303.05a64.86,64.86,0,0,1-91.73-91.73l35.3-35.3a5,5,0,0,0,0-7.07L104.5,158.7a5,5,0,0,0-7.07,0L62.13,194A89.36,89.36,0,0,0,188.5,320.37l35.3-35.3a5,5,0,0,0,0-7.07l-10.25-10.25a5,5,0,0,0-7.07,0Z"/><path class="cls-2" d="M320.87,61.63a89.46,89.46,0,0,0-126.37,0l-35.3,35.3a5,5,0,0,0,0,7.07l10.25,10.25a5,5,0,0,0,7.07,0L211.82,79a64.86,64.86,0,0,1,91.73,91.73L268.25,206a5,5,0,0,0,0,7.07L278.5,223.3a5,5,0,0,0,7.07,0l35.3-35.3A89.46,89.46,0,0,0,320.87,61.63Z"/><rect class="cls-2" x="109.56" y="179.1" width="163.19" height="24.49" rx="5" transform="translate(-79.31 191.2) rotate(-45)"/></g></g></svg>