<svg xmlns="http://www.w3.org/2000/svg" viewBox="0 0 382 382"><defs><style>.cls-1{fill:none;}.cls-2{fill:#414141;}</style></defs><title>Video_1</title><g id="Layer_2" data-name="Layer 2"><g id="Layer_1-2" data-name="Layer 1"><rect class="cls-1" width="382" height="382"/><path class="cls-2" d="M333,60.5H49A12.52,12.52,0,0,0,36.5,73V309A12.52,12.52,0,0,0,49,321.5H333A12.52,12.52,0,0,0,345.5,309V73A12.52,12.52,0,0,0,333,60.5Zm-7.5,20v221H56.5V80.5Z"/><path class="cls-2" d="M163.93,242.52l81.47-47a5.17,5.17,0,0,0,0-9l-81.47-47a5.17,5.17,0,0,0-7.76,4.48V238A5.17,5.17,0,0,0,163.93,242.52Z"/></g></g></svg>