<svg xmlns="http://www.w3.org/2000/svg" viewBox="0 0 382 382"><defs><style>.cls-1{fill:none;}.cls-2{fill:#414141;}</style></defs><title>Community_1</title><g id="Layer_2" data-name="Layer 2"><g id="Layer_1-2" data-name="Layer 1"><rect class="cls-1" width="382" height="382"/><path class="cls-2" d="M304.15,150.57a121.09,121.09,0,0,0-72.72-72.72,40.43,40.43,0,0,0-80.86,0,121.09,121.09,0,0,0-72.72,72.72,40.43,40.43,0,0,0,0,80.86,121.09,121.09,0,0,0,72.72,72.72,40.43,40.43,0,0,0,80.86,0,121.09,121.09,0,0,0,72.72-72.72,40.43,40.43,0,0,0,0-80.86ZM191,329.5a25.43,25.43,0,1,1,25.43-25.43A25.46,25.46,0,0,1,191,329.5ZM103.35,191a25.43,25.43,0,1,1-25.42-25.43A25.45,25.45,0,0,1,103.35,191ZM191,52.5a25.43,25.43,0,1,1-25.43,25.43A25.46,25.46,0,0,1,191,52.5ZM118.35,191A40.32,40.32,0,0,0,92,153.08,106.6,106.6,0,0,1,153.08,92a40.43,40.43,0,0,0,75.84,0,106.6,106.6,0,0,1,61.13,61.13,40.43,40.43,0,0,0,0,75.84,106.6,106.6,0,0,1-61.13,61.13,40.43,40.43,0,0,0-75.84,0A106.6,106.6,0,0,1,92,228.92,40.31,40.31,0,0,0,118.35,191Zm211.15,0a25.43,25.43,0,1,1-25.43-25.43A25.46,25.46,0,0,1,329.5,191Z"/></g></g></svg>