<svg xmlns="http://www.w3.org/2000/svg" viewBox="0 0 382 382"><defs><style>.cls-1{fill:none;}.cls-2{fill:#414141;}</style></defs><title>Projects_1</title><g id="Layer_2" data-name="Layer 2"><g id="Layer_1-2" data-name="Layer 1"><rect class="cls-1" width="382" height="382"/><path class="cls-2" d="M320.89,112.26,194.25,39.14a6.63,6.63,0,0,0-6.5,0L61.11,112.26a6.53,6.53,0,0,0-3.25,5.63V264.11a6.53,6.53,0,0,0,3.25,5.63l126.64,73.12a6.51,6.51,0,0,0,6.5,0l126.64-73.12a6.53,6.53,0,0,0,3.25-5.63V117.89A6.53,6.53,0,0,0,320.89,112.26Zm-11.75,19.11V250.22l-53.64-31V162.37ZM198.5,120.85V58.92l103.06,59.5-53.6,31Zm0,123v-48.5l42-24.28v48.53Zm0,17.32,49.79-28.75,53.63,31L198.5,323.08ZM233,158.07l-42,24.27-42-24.25,42-24.25ZM183.5,195.33v48.5l-42-24.25V171.09Zm0,65.82v61.93L80.06,263.36l53.52-31ZM80.35,118.47,183.5,58.92v61.93L134,149.43Zm46.15,44V219.1L72.86,250.19V131.47Z"/></g></g></svg>