<svg xmlns="http://www.w3.org/2000/svg" viewBox="0 0 382 382"><defs><style>.cls-1{fill:none;}.cls-2{fill:#414141;}</style></defs><title>Serving_Icon</title><g id="Layer_2" data-name="Layer 2"><g id="Layer_1-2" data-name="Layer 1"><rect class="cls-1" width="382" height="382"/><path class="cls-2" d="M323.85,162a28.54,28.54,0,0,0-27.49,21H253.17a62.84,62.84,0,0,0-12.71-31.06L284.39,108v35.61h15V82.39H238.18v15h35.61L230,141.23A62.88,62.88,0,0,0,198,127.83V84.64a28.5,28.5,0,1,0-15,0v43.19a62.88,62.88,0,0,0-31.95,13.4L107.21,97.39h36.4v-15H82.39v61.22h15V108.79l43.15,43.15A62.84,62.84,0,0,0,127.83,183H84.64a28.5,28.5,0,1,0,0,15h43.19a62.74,62.74,0,0,0,13.06,31.5L97.39,273V238.18h-15v61.21h61.22v-15h-36.4l44.28-44.28A62.81,62.81,0,0,0,183,253.17v43.19a28.5,28.5,0,1,0,15,0V253.17a62.81,62.81,0,0,0,31.51-13.06l44.28,44.28H238.18v15h61.21V238.18h-15v35.61L240.11,229.5A62.74,62.74,0,0,0,253.17,198h43.19a28.5,28.5,0,1,0,27.49-36ZM177,57.15a13.5,13.5,0,1,1,13.5,13.5A13.51,13.51,0,0,1,177,57.15ZM57.15,204a13.5,13.5,0,1,1,13.5-13.5A13.51,13.51,0,0,1,57.15,204ZM204,323.85a13.5,13.5,0,1,1-13.5-13.5A13.51,13.51,0,0,1,204,323.85Zm-13.5-85.22a48.13,48.13,0,1,1,48.13-48.13A48.17,48.17,0,0,1,190.5,238.63ZM323.85,204a13.5,13.5,0,1,1,13.5-13.5A13.52,13.52,0,0,1,323.85,204Z"/></g></g></svg>