<svg xmlns="http://www.w3.org/2000/svg" viewBox="0 0 382 382"><defs><style>.cls-1{fill:none;}.cls-2{fill:#414141;}</style></defs><title>Settings_15</title><g id="Layer_2" data-name="Layer 2"><g id="Layer_1-2" data-name="Layer 1"><rect class="cls-1" width="382" height="382"/><path class="cls-2" d="M337.5,151H316.18a5,5,0,0,1-4.69-3.29q-2.08-5.78-4.68-11.29a5,5,0,0,1,1-5.65l15.08-15.08a5,5,0,0,0,0-7.07l-49.5-49.5a5,5,0,0,0-7.07,0L251.23,74.2a5,5,0,0,1-5.65,1q-5.51-2.59-11.29-4.68A5,5,0,0,1,231,65.82V44.5a5,5,0,0,0-5-5H156a5,5,0,0,0-5,5V65.82a5,5,0,0,1-3.29,4.69q-5.78,2.08-11.29,4.68a5,5,0,0,1-5.65-1L115.69,59.12a5,5,0,0,0-7.07,0l-49.5,49.5a5,5,0,0,0,0,7.07L74.2,130.77a5,5,0,0,1,1,5.65q-2.59,5.51-4.68,11.29A5,5,0,0,1,65.82,151H44.5a5,5,0,0,0-5,5v70a5,5,0,0,0,5,5H65.82a5,5,0,0,1,4.69,3.29q2.08,5.78,4.68,11.29a5,5,0,0,1-1,5.65L59.12,266.31a5,5,0,0,0,0,7.07l49.5,49.5a5,5,0,0,0,7.07,0l15.08-15.08a5,5,0,0,1,5.65-1q5.51,2.6,11.29,4.68a5,5,0,0,1,3.29,4.69V337.5a5,5,0,0,0,5,5h70a5,5,0,0,0,5-5V316.18a5,5,0,0,1,3.29-4.69q5.78-2.08,11.29-4.68a5,5,0,0,1,5.65,1l15.08,15.08a5,5,0,0,0,7.07,0l49.5-49.5a5,5,0,0,0,0-7.07L307.8,251.23a5,5,0,0,1-1-5.65q2.6-5.51,4.68-11.29a5,5,0,0,1,4.69-3.29H337.5a5,5,0,0,0,5-5V156A5,5,0,0,0,337.5,151Zm-10,65H316.18a20,20,0,0,0-18.81,13.22c-1.21,3.37-2.6,6.72-4.13,10a20,20,0,0,0,3.95,22.65l8,8L269.84,305.2l-8-8a19.82,19.82,0,0,0-14.13-5.86,20.08,20.08,0,0,0-8.52,1.91c-3.24,1.53-6.59,2.92-10,4.13A20,20,0,0,0,216,316.18V327.5H166V316.18a20,20,0,0,0-13.22-18.81c-3.37-1.21-6.72-2.6-10-4.13a20.08,20.08,0,0,0-8.52-1.91,19.84,19.84,0,0,0-14.13,5.86l-8,8L76.8,269.84l8-8a20,20,0,0,0,4-22.65c-1.53-3.24-2.92-6.59-4.13-10A20,20,0,0,0,65.82,216H54.5V166H65.82a20,20,0,0,0,18.81-13.22c1.21-3.37,2.6-6.72,4.13-10a20,20,0,0,0-4-22.65l-8-8L112.16,76.8l8,8a19.84,19.84,0,0,0,14.13,5.86,20.08,20.08,0,0,0,8.52-1.91c3.24-1.53,6.59-2.92,10-4.13A20,20,0,0,0,166,65.82V54.5h50V65.82a20,20,0,0,0,13.22,18.81c3.37,1.21,6.72,2.6,10,4.13a20.08,20.08,0,0,0,8.52,1.91,19.82,19.82,0,0,0,14.13-5.86l8-8,35.36,35.36-8,8a20,20,0,0,0-3.95,22.65c1.53,3.24,2.92,6.59,4.13,10A20,20,0,0,0,316.18,166H327.5Z"/><path class="cls-2" d="M191,131a60,60,0,1,0,60,60A60,60,0,0,0,191,131Zm0,105a45,45,0,1,1,45-45A45.05,45.05,0,0,1,191,236Z"/></g></g></svg>