<svg xmlns="http://www.w3.org/2000/svg" viewBox="0 0 382 382"><defs><style>.cls-1{fill:none;}.cls-2{fill:#414141;}</style></defs><title>Settings</title><g id="Layer_2" data-name="Layer 2"><g id="Layer_1-2" data-name="Layer 1"><rect class="cls-1" width="382" height="382"/><path class="cls-2" d="M219,51.5V65.82a17,17,0,0,0,11.23,16c3.47,1.24,6.91,2.67,10.23,4.24a17.09,17.09,0,0,0,7.24,1.62,16.89,16.89,0,0,0,12-5l10.13-10.13,39.6,39.6-10.13,10.13A17,17,0,0,0,296,141.54c1.57,3.32,3,6.76,4.24,10.23a17,17,0,0,0,16,11.23H330.5v56H316.18a17,17,0,0,0-16,11.23c-1.24,3.47-2.67,6.91-4.24,10.23a17,17,0,0,0,3.36,19.25l10.13,10.13-39.6,39.6-10.13-10.13a16.89,16.89,0,0,0-12-5,17.09,17.09,0,0,0-7.24,1.62c-3.32,1.57-6.76,3-10.23,4.24a17,17,0,0,0-11.23,16V330.5H163V316.18a17,17,0,0,0-11.23-16c-3.47-1.24-6.91-2.67-10.23-4.24a17.09,17.09,0,0,0-7.24-1.62,16.89,16.89,0,0,0-12,5l-10.13,10.13-39.6-39.6,10.13-10.13a17,17,0,0,0,3.36-19.25c-1.57-3.32-3-6.76-4.24-10.23a17,17,0,0,0-16-11.23H51.5V163H65.82a17,17,0,0,0,16-11.23c1.24-3.47,2.67-6.91,4.24-10.23a17,17,0,0,0-3.36-19.25L72.56,112.16l39.6-39.6,10.13,10.13a16.89,16.89,0,0,0,12,5,17.09,17.09,0,0,0,7.24-1.62c3.32-1.57,6.76-3,10.23-4.24a17,17,0,0,0,11.23-16V51.5h56m7-12H156a5,5,0,0,0-5,5V65.82a5,5,0,0,1-3.29,4.69q-5.78,2.08-11.29,4.68a5,5,0,0,1-5.65-1L115.69,59.12a5,5,0,0,0-7.07,0l-49.5,49.5a5,5,0,0,0,0,7.07L74.2,130.77a5,5,0,0,1,1,5.65q-2.59,5.51-4.68,11.29A5,5,0,0,1,65.82,151H44.5a5,5,0,0,0-5,5v70a5,5,0,0,0,5,5H65.82a5,5,0,0,1,4.69,3.29q2.08,5.78,4.68,11.29a5,5,0,0,1-1,5.65L59.12,266.31a5,5,0,0,0,0,7.07l49.5,49.5a5,5,0,0,0,7.07,0l15.08-15.08a5,5,0,0,1,5.65-1q5.51,2.6,11.29,4.68a5,5,0,0,1,3.29,4.69V337.5a5,5,0,0,0,5,5h70a5,5,0,0,0,5-5V316.18a5,5,0,0,1,3.29-4.69q5.78-2.08,11.29-4.68a5,5,0,0,1,5.65,1l15.08,15.08a5,5,0,0,0,7.07,0l49.5-49.5a5,5,0,0,0,0-7.07L307.8,251.23a5,5,0,0,1-1-5.65q2.6-5.51,4.68-11.29a5,5,0,0,1,4.69-3.29H337.5a5,5,0,0,0,5-5V156a5,5,0,0,0-5-5H316.18a5,5,0,0,1-4.69-3.29q-2.08-5.78-4.68-11.29a5,5,0,0,1,1-5.65l15.08-15.08a5,5,0,0,0,0-7.07l-49.5-49.5a5,5,0,0,0-7.07,0L251.23,74.2a5,5,0,0,1-5.65,1q-5.51-2.59-11.29-4.68A5,5,0,0,1,231,65.82V44.5a5,5,0,0,0-5-5Z"/><path class="cls-2" d="M191,143a48,48,0,1,1-48,48,48.05,48.05,0,0,1,48-48m0-12a60,60,0,1,0,60,60,60,60,0,0,0-60-60Z"/></g></g></svg>