<?xml version="1.0" encoding="UTF-8"?>
<svg width="192px" height="123px" viewBox="0 0 192 123" version="1.1" xmlns="http://www.w3.org/2000/svg" xmlns:xlink="http://www.w3.org/1999/xlink">
    <title>Slice 1</title>
    <g id="Page-1" stroke="none" stroke-width="1" fill="none" fill-rule="evenodd">
        <g id="undraw_aircraft_fbvl" transform="translate(2.000000, 2.000000)" fill-rule="nonzero">
            <path d="M150.692022,69.0551195 C148.97942,69.7132618 145.971411,70.2544009 142.490113,70.6895061 C133.024349,71.8741621 120.052746,72.2946418 120.052746,72.2946418 C120.052746,72.2946418 53.3699443,78.0625272 3.39246281,56.6107469 C3.39246281,56.6107469 -3.87689342,52.6362991 2.86658703,47.2870654 C3.90498818,46.4877502 5.008925,45.7854515 6.16558111,45.1883229 L6.24796831,45.1023988 C7.0150073,44.3630564 7.84393713,43.6967733 8.72484325,43.1115186 C11.313905,41.3656135 15.6856857,39.2961218 21.0075486,40.2339745 L152.26965,62.3749759 C152.26965,62.3749759 157.063884,66.5998834 150.692022,69.0551195 Z" id="Path" fill="#3F3D56"></path>
            <path d="M123,60.3150656 L150.069471,38 L162,40.3976356 L150.318132,63.9967906 C150.318132,63.9967906 123.310826,64.2475893 123,60.3150656 Z" id="Path" fill="#3F3D56"></path>
            <polygon id="Path" fill="#3F3D56" points="54 49.2055317 109.116112 35 118 36.7065455 93.1028738 46.9993511 85.322191 55"></polygon>
            <path d="M143,70.6637112 C133.500364,71.8615929 120.482343,72.286767 120.482343,72.286767 C120.482343,72.286767 53.5609234,78.1190465 3.40460241,56.4277734 C3.40460241,56.4277734 -3.8907665,52.4089539 2.87684483,47 L2.89971433,47.0998235 C2.89971433,47.0998235 13.722263,54.7862317 65.4319505,61.2026633 L143,70.6637112 Z" id="Path" fill="#6C63FF"></path>
            <path d="M136.126784,73.7444292 L162.399761,83 L169,82.3683479 L153.285146,72.1774773 C153.285146,72.1774773 134.27676,68.678222 136.126784,73.7444292 Z" id="Path" fill="#3F3D56"></path>
            <path d="M12.3226581,50.9998359 C11.1940716,51.0222309 8.60815109,48.748116 7,47.2171093 C7.74150854,46.3937535 8.54284793,45.6517588 9.39443361,45 C10.690783,46.195081 12.9970987,48.1291984 14.2798916,48.0538696 C16.1320614,47.9622535 14.0223163,50.9631894 12.3226581,50.9998359 Z" id="Path" fill="#6C63FF"></path>
            <path d="M124,103.204372 L108.303359,104 L64.1713327,75.1741608 L55.9788875,69.8219055 L52,67.2212692 C59.4656678,61.1140999 89.9255223,69.5369043 89.9255223,69.5369043 C90.5086955,70.0136028 90.6943303,70.8058383 90.6680612,71.6811993 C90.6172743,73.3199564 89.8221974,75.2437147 89.515725,75.9358606 C89.4421716,76.1055042 89.3966385,76.1954153 89.3966385,76.1954153 L124,103.204372 Z" id="Path" fill="#3F3D56"></path>
            <path d="M70.3294994,89.2331288 L67.7378999,90.7423313 L69.3078592,88.1150307 C68.8633059,87.7886142 68.3132368,87.6078243 67.7445664,87.601227 L67.7029008,87.601227 C67.5231583,87.6044614 67.3434834,87.5921372 67.166248,87.5644172 L66.2896041,88.0766871 L66.6645943,87.4478528 C66.0435431,87.2472471 65.5070179,86.8715696 65.1313007,86.3742331 L63.563008,87.2944785 L64.5529824,85.6349693 C63.6363394,84.6211656 62.3997048,84 61.0380734,84 C59.406449,84 57.9531533,84.892638 57.0148442,86.2852761 C56.4484071,87.1342609 55.4301872,87.637918 54.3482466,87.6042945 L54.2615822,87.6042945 C52.4599622,87.6042945 51,89.4831288 51,91.8021472 C51,94.1211656 52.4599622,96 54.2615822,96 C54.6574561,95.998843 55.0470452,95.9088164 55.3965528,95.7377301 C56.6379642,95.1835067 58.0809291,95.1577219 59.3447839,95.6671779 C60.412878,96.1058283 61.6332696,96.1058283 62.7013636,95.6671779 C63.9544638,95.1673769 65.3815685,95.1925577 66.612929,95.7361963 C66.9603109,95.9030274 67.3460633,95.990856 67.7378999,95.9923313 C69.5395199,95.9923313 70.9994821,94.1134969 70.9994821,91.7944785 C71.0124394,90.9025669 70.7820827,90.0219112 70.3294994,89.2331288 L70.3294994,89.2331288 Z" id="Path" fill-opacity="0.255545236" fill="#3F3D56"></path>
            <path d="M68,97.2489412 C67.0225855,97.0478265 66.0122617,97.167068 65.0972767,97.5915294 C63.9888568,98.1312362 62.7213901,98.1312362 61.6129702,97.5915294 C60.3006996,96.964485 58.8013604,96.9961458 57.5124625,97.6781176 C57.1486321,97.8874665 56.7436023,97.9979067 56.3319871,98 C54.6703208,98 53.2873298,96.1778824 53,93.776 C53.3324815,93.5134245 53.6146918,93.1828641 53.8308331,92.8028235 C54.8053312,91.0955294 56.3146781,90 58.0092315,90 C59.7037849,90 61.1975537,91.0729412 62.1703208,92.7670588 C62.7607951,93.8056598 63.8083519,94.43205 64.9311101,94.4178824 L64.9743826,94.4178824 C66.2967921,94.4141176 67.4426494,95.5661176 68,97.2489412 Z" id="Path" fill-opacity="0.255545236" fill="#3F3D56" opacity="0.03"></path>
            <path d="M149.329499,85.2331288 L146.7379,86.7423313 L148.307859,84.1150307 C147.863306,83.7886142 147.313237,83.6078243 146.744566,83.601227 L146.702901,83.601227 C146.523158,83.6044614 146.343483,83.5921372 146.166248,83.5644172 L145.289604,84.0766871 L145.664594,83.4478528 C145.043543,83.2472471 144.507018,82.8715696 144.131301,82.3742331 L142.563008,83.2944785 L143.552982,81.6349693 C142.636339,80.6211656 141.399705,80 140.038073,80 C138.406449,80 136.953153,80.892638 136.014844,82.2852761 C135.448407,83.1342609 134.430187,83.637918 133.348247,83.6042945 L133.261582,83.6042945 C131.459962,83.6042945 130,85.4831288 130,87.8021472 C130,90.1211656 131.459962,92 133.261582,92 C133.657456,91.998843 134.047045,91.9088164 134.396553,91.7377301 C135.637964,91.1835067 137.080929,91.1577219 138.344784,91.6671779 C139.412878,92.1058283 140.63327,92.1058283 141.701364,91.6671779 C142.954464,91.1673769 144.381568,91.1925577 145.612929,91.7361963 C145.960311,91.9030274 146.346063,91.990856 146.7379,91.9923313 C148.53952,91.9923313 149.999482,90.1134969 149.999482,87.7944785 C150.012439,86.9025669 149.782083,86.0219112 149.329499,85.2331288 Z" id="Path" fill-opacity="0.255545236" fill="#3F3D56"></path>
            <path d="M145,92.2489412 C144.022585,92.0478265 143.012262,92.167068 142.097277,92.5915294 C140.988857,93.1312362 139.72139,93.1312362 138.61297,92.5915294 C137.3007,91.964485 135.80136,91.9961458 134.512462,92.6781176 C134.148632,92.8874665 133.743602,92.9979067 133.331987,93 C131.670321,93 130.28733,91.1778824 130,88.776 C130.332481,88.5134245 130.614692,88.1828641 130.830833,87.8028235 C131.805331,86.0955294 133.314678,85 135.009231,85 C136.703785,85 138.197554,86.0729412 139.170321,87.7670588 C139.76239,88.8085602 140.813938,89.4353723 141.939765,89.4178824 L141.983037,89.4178824 C143.296792,89.4141176 144.442649,90.5661176 145,92.2489412 Z" id="Path" fill-opacity="0.255545236" fill="#3F3D56" opacity="0.03"></path>
            <path d="M149.329389,31.2331232 L146.737804,32.7423241 L148.307755,30.1150263 C147.863204,29.7886101 147.313138,29.6078204 146.744471,29.6012231 L146.702805,29.6012231 C146.523064,29.6044575 146.34339,29.5921334 146.166156,29.5644134 L145.289517,30.0766827 L145.664505,29.4478491 C145.043457,29.2472436 144.506935,28.8715665 144.13122,28.3742306 L142.562936,29.294475 L143.552905,27.6349676 C142.636267,26.621165 141.39964,26 140.038016,26 C138.406401,26 136.953114,26.8926371 136.01481,28.2852736 C135.448376,29.1342575 134.430162,29.6379141 133.348228,29.6042906 L133.261564,29.6042906 C131.459954,29.6042906 130,31.4831229 130,33.8021389 C130,36.1211548 131.459954,38 133.261564,38 C133.657435,37.9988301 134.047022,37.9088036 134.396528,37.7377175 C135.637932,37.1834947 137.080889,37.1577099 138.344736,37.6671654 C139.411641,38.1082571 140.632026,38.1110453 141.701297,37.6748341 C142.95439,37.1750336 144.381486,37.2002144 145.61284,37.7438524 C145.96022,37.9106833 146.34597,37.9985119 146.737804,38 C148.539414,38 149.999368,36.1211548 149.999368,33.8021389 C150.013725,32.9076404 149.783328,32.0241913 149.329389,31.2331232 Z" id="Path" fill-opacity="0.255545236" fill="#3F3D56"></path>
            <path d="M145,37.2489412 C144.022585,37.0478265 143.012262,37.167068 142.097277,37.5915294 C140.988857,38.1312362 139.72139,38.1312362 138.61297,37.5915294 C137.3007,36.964485 135.80136,36.9961458 134.512462,37.6781176 C134.148632,37.8874665 133.743602,37.9979067 133.331987,38 C131.670321,38 130.28733,36.1778824 130,33.776 C130.332481,33.5134245 130.614692,33.1828641 130.830833,32.8028235 C131.805331,31.0955294 133.314678,30 135.009231,30 C136.703785,30 138.197554,31.0729412 139.170321,32.7670588 C139.76239,33.8085602 140.813938,34.4353723 141.939765,34.4178824 L141.983037,34.4178824 C143.296792,34.4141176 144.442649,35.5661176 145,37.2489412 Z" id="Path" fill-opacity="0.255545236" fill="#3F3D56" opacity="0.03"></path>
            <path d="M35.6943194,23.6087625 L34.528155,24.3635665 L35.2353773,23.0507302 C35.0355101,22.8866178 34.7875652,22.7956866 34.5311645,22.7924673 L34.5131077,22.7924673 C34.4319889,22.7933226 34.350945,22.7871514 34.2708465,22.77402 L33.8766077,23.0292083 L34.0451373,22.7217525 C33.7653878,22.6216239 33.523692,22.4338755 33.3544671,22.1852421 L32.6487495,22.6464258 L33.100168,21.8178324 C32.7200241,21.3155435 32.1384941,21.0151002 31.517194,21 C30.7828866,21 30.1283299,21.4458109 29.7115202,22.1421983 C29.4561109,22.5678099 28.9960751,22.8198407 28.5077376,22.801691 L28.4686147,22.801691 C27.6575662,22.801691 27,23.7425058 27,24.9016141 C27,26.0607225 27.6575662,27 28.4686147,27 C28.6469913,26.999409 28.8225589,26.9545676 28.9802223,26.8693313 C29.5392433,26.5913101 30.1896265,26.5783809 30.758811,26.8339739 C31.2377943,27.0514831 31.7845558,27.0514831 32.2635391,26.8339739 C32.8280419,26.5837864 33.4711246,26.5966906 34.0255758,26.8693313 C34.1819043,26.9519843 34.3551462,26.9957049 34.5311645,26.9969254 C35.342213,26.9969254 35.9997792,26.057648 35.9997792,24.8985396 C36.0054875,24.4492413 35.9004426,24.0056984 35.6943194,23.6087625 Z" id="Path" fill-opacity="0.255545236" fill="#3F3D56"></path>
            <path d="M35,26.9070755 C34.4785837,26.8816159 33.9392073,26.8965668 33.4514339,26.95 C33.1599753,26.9828113 32.8449712,26.9998373 32.5263645,27 C32.2041356,26.999976 31.8856248,26.9824485 31.5920444,26.9485849 C30.8917827,26.8704997 30.0924325,26.8746377 29.4051804,26.9599057 C29.2119857,26.9860564 28.9967171,26.9998177 28.7779833,27 C27.8917669,27 27.1535615,26.7721698 27,26.4721698 C27.1767769,26.4391025 27.3274345,26.3978111 27.4440333,26.3504717 C27.9620722,26.1367925 28.7668825,26 29.6641998,26 C30.5615171,26 31.3626272,26.1353774 31.8843663,26.3462264 C32.2006847,26.4766624 32.7630669,26.5549843 33.3644773,26.5523585 L33.3885291,26.5523585 C34.0860315,26.5523585 34.7021277,26.6966981 35,26.9070755 Z" id="Path" fill-opacity="0.255545236" fill="#3F3D56" opacity="0.03"></path>
            <path d="M157.694319,109.608762 L156.528155,110.363566 L157.235377,109.05073 C157.03551,108.886618 156.787565,108.795687 156.531164,108.792467 L156.513108,108.792467 C156.431989,108.793323 156.350945,108.787151 156.270847,108.77402 L155.876608,109.029208 L156.045137,108.721752 C155.765388,108.621624 155.523692,108.433875 155.354467,108.185242 L154.64875,108.646426 L155.100168,107.817832 C154.720024,107.315544 154.138494,107.0151 153.517194,107 C152.782887,107 152.12833,107.445811 151.71152,108.142198 C151.456111,108.56781 150.996075,108.819841 150.507738,108.801691 L150.468615,108.801691 C149.657566,108.801691 149,109.742506 149,110.901614 C149,112.060723 149.657566,113 150.468615,113 C150.646991,112.999409 150.822559,112.954568 150.980222,112.869331 C151.539243,112.59131 152.189626,112.578381 152.758811,112.833974 C153.237794,113.051483 153.784556,113.051483 154.263539,112.833974 C154.828042,112.583786 155.471125,112.596691 156.025576,112.869331 C156.181904,112.951984 156.355146,112.995705 156.531164,112.996925 C157.342213,112.996925 157.999779,112.057648 157.999779,110.89854 C158.005487,110.449241 157.900443,110.005698 157.694319,109.608762 L157.694319,109.608762 Z" id="Path" fill-opacity="0.255545236" fill="#3F3D56"></path>
            <path d="M155,111.907075 C154.478584,111.881616 153.939207,111.896567 153.451434,111.95 C153.159975,111.982811 152.844971,111.999837 152.526364,112 C152.204136,111.999976 151.885625,111.982449 151.592044,111.948585 C150.891783,111.8705 150.092433,111.874638 149.40518,111.959906 C149.211986,111.986056 148.996717,111.999818 148.777983,112 C147.891767,112 147.153562,111.77217 147,111.47217 C147.176777,111.439103 147.327434,111.397811 147.444033,111.350472 C147.962072,111.136792 148.766883,111 149.6642,111 C150.561517,111 151.362627,111.135377 151.884366,111.346226 C152.200685,111.476662 152.763067,111.554984 153.364477,111.552358 L153.388529,111.552358 C154.086031,111.552358 154.702128,111.696698 155,111.907075 Z" id="Path" fill-opacity="0.255545236" fill="#3F3D56" opacity="0.03"></path>
            <path d="M31.6943194,114.608762 L30.528155,115.363566 L31.2353773,114.05073 C31.0355101,113.886618 30.7875652,113.795687 30.5311645,113.792467 L30.5131077,113.792467 C30.4319889,113.793323 30.350945,113.787151 30.2708465,113.77402 L29.8766077,114.029208 L30.0451373,113.721752 C29.7653878,113.621624 29.523692,113.433875 29.3544671,113.185242 L28.6487495,113.646426 L29.100168,112.817832 C28.7200241,112.315544 28.1384941,112.0151 27.517194,112 C26.7828866,112 26.1283299,112.445811 25.7115202,113.142198 C25.4561109,113.56781 24.9960751,113.819841 24.5077376,113.801691 L24.4686147,113.801691 C23.6575662,113.801691 23,114.742506 23,115.901614 C23,117.060723 23.6575662,118 24.4686147,118 C24.6469913,117.999409 24.8225589,117.954568 24.9802223,117.869331 C25.5392433,117.59131 26.1896265,117.578381 26.758811,117.833974 C27.2377943,118.051483 27.7845558,118.051483 28.2635391,117.833974 C28.8280419,117.583786 29.4711246,117.596691 30.0255758,117.869331 C30.1819043,117.951984 30.3551462,117.995705 30.5311645,117.996925 C31.342213,117.996925 31.9997792,117.057648 31.9997792,115.89854 C32.0054875,115.449241 31.9004426,115.005698 31.6943194,114.608762 L31.6943194,114.608762 Z" id="Path" fill-opacity="0.255545236" fill="#3F3D56"></path>
            <path d="M28,117.907075 C27.4785837,117.881616 26.9392073,117.896567 26.4514339,117.95 C26.1599753,117.982811 25.8449712,117.999837 25.5263645,118 C25.2041356,117.999976 24.8856248,117.982449 24.5920444,117.948585 C23.8917827,117.8705 23.0924325,117.874638 22.4051804,117.959906 C22.2119857,117.986056 21.9967171,117.999818 21.7779833,118 C20.8917669,118 20.1535615,117.77217 20,117.47217 C20.1767769,117.439103 20.3274345,117.397811 20.4440333,117.350472 C20.9620722,117.136792 21.7668825,117 22.6641998,117 C23.5615171,117 24.3626272,117.135377 24.8843663,117.346226 C25.2006847,117.476662 25.7630669,117.554984 26.3644773,117.552358 L26.3885291,117.552358 C27.0860315,117.552358 27.7021277,117.696698 28,117.907075 Z" id="Path" fill-opacity="0.255545236" fill="#3F3D56" opacity="0.03"></path>
            <path d="M95.329389,5.23312322 L92.7378043,6.74232405 L94.3077547,4.11502626 C93.8632039,3.78861011 93.3131379,3.60782043 92.7444707,3.60122313 L92.7028054,3.60122313 C92.5230639,3.60445755 92.3433901,3.59213339 92.1661557,3.56441335 L91.2895167,4.07668274 L91.6645049,3.44784906 C91.0434572,3.24724365 90.506935,2.87156647 90.13122,2.37423058 L88.5629362,3.29447499 L89.552905,1.63496757 C88.6362673,0.621164977 87.3996397,0 86.0380161,0 C84.406401,0 82.9531136,0.892637079 82.0148099,2.28527362 C81.448376,3.13425754 80.4301619,3.63791411 79.3482275,3.60429061 L79.2615636,3.60429061 C77.4599539,3.60429061 76,5.48312295 76,7.80213886 C76,10.1211548 77.4599539,12 79.2615636,12 C79.6574352,11.9988301 80.0470221,11.9088036 80.3965277,11.7377175 C81.637932,11.1834947 83.0808887,11.1577099 84.3447362,11.6671654 C85.4116405,12.1082571 86.6320258,12.1110453 87.7012968,11.6748341 C88.9543898,11.1750336 90.3814864,11.2002144 91.6128398,11.7438524 C91.9602197,11.9106833 92.34597,11.9985119 92.7378043,12 C94.539414,12 95.9993679,10.1211548 95.9993679,7.80213886 C96.0137246,6.90764039 95.7833281,6.02419126 95.329389,5.23312322 L95.329389,5.23312322 Z" id="Path" fill-opacity="0.255545236" fill="#3F3D56"></path>
            <path d="M89,11.2489412 C88.0225855,11.0478265 87.0122617,11.167068 86.0972767,11.5915294 C84.9888568,12.1312362 83.7213901,12.1312362 82.6129702,11.5915294 C81.3006996,10.964485 79.8013604,10.9961458 78.5124625,11.6781176 C78.1486321,11.8874665 77.7436023,11.9979067 77.3319871,12 C75.6703208,12 74.2873298,10.1778824 74,7.776 C74.3324815,7.51342446 74.6146918,7.18286414 74.8308331,6.80282353 C75.8053312,5.09552941 77.3146781,4 79.0092315,4 C80.7037849,4 82.1975537,5.07294118 83.1703208,6.76705882 C83.7623901,7.80856019 84.8139384,8.43537226 85.9397646,8.41788235 L85.9830372,8.41788235 C87.2967921,8.41411765 88.4426494,9.56611765 89,11.2489412 Z" id="Path" fill-opacity="0.255545236" fill="#3F3D56" opacity="0.03"></path>
            <path d="M187.694319,37.6087625 L186.528155,38.3635665 L187.235377,37.0507302 C187.03551,36.8866178 186.787565,36.7956866 186.531164,36.7924673 L186.513108,36.7924673 C186.431989,36.7933226 186.350945,36.7871514 186.270847,36.77402 L185.876608,37.0292083 L186.045137,36.7217525 C185.765388,36.6216239 185.523692,36.4338755 185.354467,36.1852421 L184.64875,36.6464258 L185.100168,35.8178324 C184.720024,35.3155435 184.138494,35.0151002 183.517194,35 C182.782887,35 182.12833,35.4458109 181.71152,36.1421983 C181.456111,36.5678099 180.996075,36.8198407 180.507738,36.801691 L180.468615,36.801691 C179.657566,36.801691 179,37.7425058 179,38.9016141 C179,40.0607225 179.657566,41 180.468615,41 C180.646991,40.999409 180.822559,40.9545676 180.980222,40.8693313 C181.539243,40.5913101 182.189626,40.5783809 182.758811,40.8339739 C183.237794,41.0514831 183.784556,41.0514831 184.263539,40.8339739 C184.828042,40.5837864 185.471125,40.5966906 186.025576,40.8693313 C186.181904,40.9519843 186.355146,40.9957049 186.531164,40.9969254 C187.342213,40.9969254 187.999779,40.057648 187.999779,38.8985396 C188.005487,38.4492413 187.900443,38.0056984 187.694319,37.6087625 Z" id="Path" fill-opacity="0.255545236" fill="#3F3D56"></path>
            <path d="M187,38.9070755 C186.47798,38.8816159 185.937979,38.8965668 185.449641,38.95 C185.157845,38.9828113 184.842476,38.9998373 184.523501,39 C184.204022,38.9996427 183.888435,38.9821227 183.597361,38.9485849 C182.896288,38.8704997 182.096013,38.8746377 181.407965,38.9599057 C181.214547,38.9860564 180.999029,38.9998177 180.780042,39 C179.892799,39 179.153739,38.7721698 179,38.4721698 C179.176982,38.4391025 179.327814,38.3978111 179.444547,38.3504717 C179.963186,38.1367925 180.768928,38 181.667284,38 C182.56564,38 183.367678,38.1353774 183.890021,38.3462264 C184.205001,38.4759342 184.763759,38.5541501 185.362584,38.5523585 L185.386664,38.5523585 C186.084973,38.5523585 186.701783,38.6966981 187,38.9070755 Z" id="Path" fill-opacity="0.255545236" fill="#3F3D56" opacity="0.03"></path>
        </g>
    </g>
</svg>