<svg xmlns="http://www.w3.org/2000/svg" viewBox="0 0 382 382"><defs><style>.cls-1{fill:none;}.cls-2{fill:#dbddff;}</style></defs><title>Drive</title><g id="Layer_2" data-name="Layer 2"><g id="Layer_1-2" data-name="Layer 1"><rect class="cls-1" width="382" height="382"/><path class="cls-2" d="M341.86,283.63l.38-.1L282.6,64.69a12.51,12.51,0,0,0-12.06-9.19H111.46A12.51,12.51,0,0,0,99.4,64.69L39.76,283.53l.38.1A48,48,0,0,0,87,342H295a48,48,0,0,0,46.86-58.37ZM113.36,70.5H268.64l49.43,181.4A47.79,47.79,0,0,0,295,246H87a47.79,47.79,0,0,0-23.07,5.9ZM295,327H87a33,33,0,0,1,0-66H295a33,33,0,0,1,0,66Z"/><circle class="cls-2" cx="100" cy="294" r="14"/><path class="cls-2" d="M146,203.46h35.73c.5,0,1,0,1.5-.05s1.08.05,1.58.05h57.91a24.88,24.88,0,0,0,24.75-24.28,24.34,24.34,0,0,0-7.08-17.58A25.59,25.59,0,0,0,242.3,154h-2.9A28.36,28.36,0,0,0,212,133a29.4,29.4,0,0,0-3.64.23,30.91,30.91,0,0,0-58.9,7.16H146a31.53,31.53,0,1,0,0,63.05Zm0-48.05h8.09a9.8,9.8,0,0,0,7-2.89,9.92,9.92,0,0,0,2.91-7.07,15.9,15.9,0,0,1,31.34-3.82,9.86,9.86,0,0,0,12.58,7,13.15,13.15,0,0,1,4-.63,13.4,13.4,0,0,1,13.37,12,9.88,9.88,0,0,0,9.83,8.9h7.15a10.49,10.49,0,0,1,7.41,3.14,9.45,9.45,0,0,1,2.79,6.8,9.8,9.8,0,0,1-9.75,9.56H184.84c-.23,0-.51,0-.88,0l-.57,0-.94.06-.69,0H146a16.53,16.53,0,1,1,0-33.05Z"/></g></g></svg>