<?xml version="1.0" encoding="iso-8859-1"?>
<!-- Generator: Adobe Illustrator 19.0.0, SVG Export Plug-In . SVG Version: 6.00 Build 0)  -->
<svg version="1.1" id="Capa_1" xmlns="http://www.w3.org/2000/svg" xmlns:xlink="http://www.w3.org/1999/xlink" x="0px" y="0px"
	 viewBox="0 0 512 512" style="enable-background:new 0 0 512 512;" xml:space="preserve">
<g>
	<g>
		<path fill="#4b47b6" d="M399.548,0H112.452c-30.71,0-55.695,24.986-55.695,55.695v308.173c0,4.199,3.405,7.604,7.604,7.604
			c4.199,0,7.604-3.405,7.604-7.604v-33.791c5.526,3.748,12.188,5.941,19.353,5.941h329.365c7.165,0,13.827-2.193,19.353-5.941
			v67.606c0,22.325-18.163,40.488-40.488,40.488h-26.08c-16.284,0-29.532-13.248-29.532-29.532v-13.871
			c0-20.655-16.805-37.459-37.459-37.459H203.97c-20.655,0-37.459,16.804-37.459,37.459v13.871
			c0,16.284-13.247,29.532-29.531,29.532h-24.526c-22.325,0-40.488-18.163-40.488-40.488v-8.467c0-4.199-3.405-7.604-7.604-7.604
			c-4.199,0-7.604,3.405-7.604,7.604v8.467c0,30.711,24.986,55.695,55.695,55.695h287.094c30.711,0,55.695-24.986,55.695-55.695
			V55.695C455.243,24.986,430.257,0,399.548,0z M170.561,438.172c6.942-7.885,11.158-18.225,11.158-29.532v-13.871
			c0-12.27,9.982-22.251,22.251-22.251h102.506c12.27,0,22.251,9.982,22.251,22.251v13.871c0,11.307,4.216,21.647,11.158,29.532
			H170.561z M112.452,15.208h287.094c18.547,0,34.209,12.539,38.983,29.582c-5.213-3.157-11.322-4.977-17.848-4.977H91.318
			c-6.526,0-12.636,1.82-17.848,4.977C78.244,27.747,93.907,15.208,112.452,15.208z M440.035,110.784h-80.266
			c-4.199,0-7.604,3.405-7.604,7.604s3.405,7.604,7.604,7.604h80.266v175.467c0,10.671-8.682,19.353-19.353,19.353H91.318
			c-10.671,0-19.353-8.682-19.353-19.353V125.992h257.386c4.199,0,7.604-3.405,7.604-7.604s-3.405-7.604-7.604-7.604H71.965v-36.41
			c0-10.671,8.682-19.353,19.353-19.353h329.365c10.671,0,19.353,8.682,19.353,19.353V110.784z"/>
	</g>
</g>
<g>
	<g>
		<path fill="#4b47b6" d="M118.373,354.273c-4.697,0-9.26,0.905-13.547,2.684c-13.327,5.501-21.938,18.376-21.938,32.801
			c-0.001,14.424,8.611,27.299,21.926,32.796c4.302,1.784,8.863,2.689,13.559,2.689c19.566,0,35.485-15.919,35.485-35.485
			S137.94,354.273,118.373,354.273z M118.372,410.036c-2.685,0-5.286-0.514-7.744-1.534c-7.613-3.143-12.533-10.501-12.533-18.743
			c0-8.245,4.919-15.601,12.547-18.749c2.443-1.014,5.045-1.528,7.731-1.528c11.181,0,20.277,9.096,20.277,20.277
			S129.553,410.036,118.372,410.036z"/>
	</g>
</g>
<g>
	<g>
		<path fill="#4b47b6" d="M393.636,354.273c-4.697,0-9.26,0.905-13.547,2.684c-13.327,5.501-21.938,18.376-21.938,32.801
			c0,14.424,8.612,27.299,21.926,32.796c4.302,1.784,8.864,2.689,13.559,2.689c19.567,0,35.485-15.919,35.485-35.485
			C429.121,370.191,413.202,354.273,393.636,354.273z M393.636,410.035c-2.685,0-5.286-0.514-7.744-1.534
			c-7.613-3.143-12.533-10.5-12.533-18.743c0-8.244,4.919-15.601,12.547-18.749c2.443-1.014,5.045-1.528,7.731-1.528
			c11.181,0,20.277,9.096,20.277,20.277S404.817,410.035,393.636,410.035z"/>
	</g>
</g>
<g>
	<g>
		<path fill="#4b47b6" d="M167.195,456.632c-4.199,0-7.604,3.405-7.604,7.604v32.556h-43.412v-32.556c0-4.199-3.405-7.604-7.604-7.604
			s-7.604,3.405-7.604,7.604v40.16c0,4.199,3.405,7.604,7.604,7.604h58.62c4.199,0,7.604-3.405,7.604-7.604v-40.16
			C174.799,460.037,171.395,456.632,167.195,456.632z"/>
	</g>
</g>
<g>
	<g>
		<path fill="#4b47b6" d="M403.425,456.632c-4.199,0-7.604,3.405-7.604,7.604v32.556h-43.413v-32.556c0-4.199-3.405-7.604-7.604-7.604
			s-7.604,3.405-7.604,7.604v40.16c0,4.199,3.405,7.604,7.604,7.604h58.62c4.199,0,7.604-3.405,7.604-7.604v-40.16
			C411.029,460.037,407.625,456.632,403.425,456.632z"/>
	</g>
</g>
<g>
	<g>
		<path fill="#4b47b6" d="M470.269,131.063c-4.199,0-7.604,3.405-7.604,7.604c0,4.199,3.405,7.604,7.604,7.604c8.607,0,15.608,7.002,15.608,15.608
			v78.281c0,8.607-7.002,15.608-15.608,15.608c-4.199,0-7.604,3.405-7.604,7.604s3.405,7.604,7.604,7.604
			c16.992,0,30.816-13.824,30.816-30.816v-78.281C501.085,144.886,487.261,131.063,470.269,131.063z"/>
	</g>
</g>
<g>
	<g>
		<path fill="#4b47b6" d="M41.731,255.769c-8.607,0-15.608-7.002-15.608-15.608v-78.281c0.001-8.608,7.003-15.608,15.608-15.608
			c4.199,0,7.604-3.405,7.604-7.604c0-4.199-3.405-7.604-7.604-7.604c-16.992,0-30.816,13.824-30.816,30.816v78.281
			c0,16.992,13.824,30.816,30.816,30.816c4.199,0,7.604-3.405,7.604-7.604S45.93,255.769,41.731,255.769z"/>
	</g>
</g>
<g>
</g>
<g>
</g>
<g>
</g>
<g>
</g>
<g>
</g>
<g>
</g>
<g>
</g>
<g>
</g>
<g>
</g>
<g>
</g>
<g>
</g>
<g>
</g>
<g>
</g>
<g>
</g>
<g>
</g>
</svg>
