<svg xmlns="http://www.w3.org/2000/svg" viewBox="0 0 382 382"><defs><style>.cls-1{fill:none;}.cls-2{fill:#4b47b6;}</style></defs><title>Copy_1</title><g id="Layer_2" data-name="Layer 2"><g id="Layer_1-2" data-name="Layer 1"><rect class="cls-1" width="382" height="382"/><path class="cls-2" d="M320.48,125.79,266.22,71.54a6.42,6.42,0,0,0-4.59-1.91H108.88a6.51,6.51,0,0,0-6.5,6.5V341a6.51,6.51,0,0,0,6.5,6.5h207a6.51,6.51,0,0,0,6.5-6.5V130.38A6.49,6.49,0,0,0,320.48,125.79Zm-60.18,12h47.08V332.5h-190V84.63h136.9v47.13A6,6,0,0,0,260.3,137.78Z"/><path class="cls-2" d="M213.46,34.5H72.12A12.52,12.52,0,0,0,59.62,47V251.5h15V49.5H213.46Z"/></g></g></svg>