<svg xmlns="http://www.w3.org/2000/svg" xmlns:xlink="http://www.w3.org/1999/xlink" version="1.1" x="0px" y="0px" viewBox="0 0 90 112.5" enable-background="new 0 0 90 90" xml:space="preserve"><path fill="#000000" d="M50.533,73.148l-5.889,5.89h21.022v1.852H21.282L5.583,65.193c-1.446-1.446-1.446-3.792,0-5.236  l15.104-15.104l8.476-8.477c0.002-0.002,0.005-0.004,0.009-0.007l26.174-26.175c1.446-1.447,3.789-1.445,5.236,0L71.37,20.981  L30.718,61.635L18.62,49.537L6.893,61.266c-0.348,0.352-0.543,0.815-0.543,1.31c0.002,0.495,0.192,0.958,0.543,1.307l15.156,15.155  l19.978,0.001l3.047-3.048L32.976,63.893L73.63,23.239l10.788,10.79c1.444,1.446,1.444,3.788-0.002,5.234L50.533,73.148z"/><text x="0" y="105" fill="#000000" font-size="5px" font-weight="bold" font-family="'Helvetica Neue', Helvetica, Arial-Unicode, Arial, Sans-serif">Created by Tommy Lau</text><text x="0" y="110" fill="#000000" font-size="5px" font-weight="bold" font-family="'Helvetica Neue', Helvetica, Arial-Unicode, Arial, Sans-serif">from the Noun Project</text></svg>