<svg xmlns="http://www.w3.org/2000/svg" viewBox="0 0 382 382"><defs><style>.cls-1{fill:none;}.cls-2{fill:#4b47b6;}</style></defs><title>Grid</title><g id="Layer_2" data-name="Layer 2"><g id="Layer_1-2" data-name="Layer 1"><rect class="cls-1" width="382" height="382"/><path class="cls-2" d="M338,39H214a5,5,0,0,0-5,5V168a5,5,0,0,0,5,5H338a5,5,0,0,0,5-5V44A5,5,0,0,0,338,39ZM328,158H224V54H328Z"/><path class="cls-2" d="M168,39H44a5,5,0,0,0-5,5V168a5,5,0,0,0,5,5H168a5,5,0,0,0,5-5V44A5,5,0,0,0,168,39ZM158,158H54V54H158Z"/><path class="cls-2" d="M338,209H214a5,5,0,0,0-5,5V338a5,5,0,0,0,5,5H338a5,5,0,0,0,5-5V214A5,5,0,0,0,338,209ZM328,328H224V224H328Z"/><path class="cls-2" d="M168,209H44a5,5,0,0,0-5,5V338a5,5,0,0,0,5,5H168a5,5,0,0,0,5-5V214A5,5,0,0,0,168,209ZM158,328H54V224H158Z"/></g></g></svg>