<svg xmlns="http://www.w3.org/2000/svg" viewBox="0 0 382 382"><defs><style>.cls-1{fill:none;}.cls-2{fill:#4b47b6;}</style></defs><title>Log</title><g id="Layer_2" data-name="Layer 2"><g id="Layer_1-2" data-name="Layer 1"><rect class="cls-1" width="382" height="382"/><polygon class="cls-2" points="185.52 225.26 185.52 274.71 214.98 274.71 214.98 265.67 196.66 265.67 196.66 225.26 185.52 225.26"/><path class="cls-2" d="M223.56,231.67q-6.8,7.25-6.79,19,0,11.1,6.69,18t17.31,6.91q10.9,0,17.68-7.14t6.77-18.79q0-11.35-6.53-18.28t-17.13-6.93Q230.36,224.43,223.56,231.67Zm26.66,6.62q3.27,4.28,3.28,12,0,7.38-3.38,11.53A11.18,11.18,0,0,1,241,266a11.06,11.06,0,0,1-9-4.28q-3.45-4.28-3.45-11.62t3.45-11.64a11.22,11.22,0,0,1,9.31-4.39A10.67,10.67,0,0,1,250.22,238.29Z"/><path class="cls-2" d="M293,255.43h9.9v9.66a14.68,14.68,0,0,1-6.34,1.14q-6.66,0-10.57-4.18t-3.92-11.79q0-7.51,4.36-12a15,15,0,0,1,11.3-4.5,27.52,27.52,0,0,1,14,3.31V226.6a40.58,40.58,0,0,0-13.86-2.17q-12.5,0-20,7.34t-7.51,19q0,11.58,6.88,18.19t18.81,6.6q10.75,0,18-4.17V246.53H293Z"/><path class="cls-2" d="M312.56,109.5l-69-69A5,5,0,0,0,240,39H73a5,5,0,0,0-5,5V338a5,5,0,0,0,5,5H309a5,5,0,0,0,5-5V297H302v34H80V51H231v63a5,5,0,0,0,5,5h66v84h12V113A5,5,0,0,0,312.56,109.5Z"/></g></g></svg>