<svg xmlns="http://www.w3.org/2000/svg" viewBox="0 0 382 382"><defs><style>.cls-1{fill:none;}.cls-2{fill:#23c87e;}</style></defs><title>Start</title><g id="Layer_2" data-name="Layer 2"><g id="Layer_1-2" data-name="Layer 1"><rect class="cls-1" width="382" height="382"/><path class="cls-2" d="M338,39H44a5,5,0,0,0-5,5V338a5,5,0,0,0,5,5H338a5,5,0,0,0,5-5V44A5,5,0,0,0,338,39ZM328,328H54V54H328Z"/><path class="cls-2" d="M143.08,254.25l101.33-58.5a5.49,5.49,0,0,0,0-9.5l-101.33-58.5a5.49,5.49,0,0,0-8.23,4.75v117A5.49,5.49,0,0,0,143.08,254.25Z"/></g></g></svg>