<svg xmlns="http://www.w3.org/2000/svg" viewBox="0 0 382 382"><defs><style>.cls-1{fill:none;}.cls-2{opacity:0.6;}.cls-3{fill:#414141;}</style></defs><title>Billing</title><g id="Layer_2" data-name="Layer 2"><g id="Layer_1-2" data-name="Layer 1"><rect class="cls-1" width="382" height="382"/><g class="cls-2"><path class="cls-3" d="M293,183V31H55V323a28,28,0,0,0,28,28H316V351A37.05,37.05,0,0,0,351,314V182.94ZM83,335a12,12,0,0,1-12-12V47H277V314a36.8,36.8,0,0,0,6.55,21Zm252-21a21,21,0,0,1-42,0V199l42,0Z"/><rect class="cls-3" x="108" y="127" width="116" height="16"/><rect class="cls-3" x="108" y="179" width="116" height="16"/><rect class="cls-3" x="108" y="231" width="116" height="16"/></g></g></g></svg>