<svg xmlns="http://www.w3.org/2000/svg" viewBox="0 0 382 382"><defs><style>.cls-1{fill:none;}.cls-2{opacity:0.6;}.cls-3{fill:#414141;}</style></defs><title>Cloud Settings</title><g id="Layer_2" data-name="Layer 2"><g id="Layer_1-2" data-name="Layer 1"><rect class="cls-1" width="382" height="382"/><g class="cls-2"><path class="cls-3" d="M319,158H294.66A61.35,61.35,0,0,0,217,103.59,61.33,61.33,0,0,0,98.61,122.11H81A63.7,63.7,0,0,0,81,249.5H92.5v-15H81a48.7,48.7,0,0,1,0-97.39h22.25a10.38,10.38,0,0,0,7.36-3.09,10.2,10.2,0,0,0,2.93-7.41c0-.26,0-.52,0-.78a46.33,46.33,0,0,1,90.69-13.39,10.29,10.29,0,0,0,13.41,6.7,46.34,46.34,0,0,1,62.23,43.55A10.29,10.29,0,0,0,290.1,173H319a30.75,30.75,0,0,1,0,61.5H289.5v15H319a45.75,45.75,0,0,0,0-91.5Z"/><path class="cls-3" d="M247.9,223.31h-7.43c-.39-1-.82-2.06-1.27-3.07l5.25-5.26a5.1,5.1,0,0,0,0-7.21l-19.22-19.22a5.08,5.08,0,0,0-7.21,0l-5.26,5.25c-1-.45-2-.88-3.07-1.27V185.1a5.1,5.1,0,0,0-5.1-5.1H177.41a5.1,5.1,0,0,0-5.1,5.1v7.43c-1,.39-2.07.82-3.07,1.27L164,188.55a5.08,5.08,0,0,0-7.21,0l-19.22,19.22a5.1,5.1,0,0,0,0,7.21l5.25,5.26c-.45,1-.88,2-1.27,3.07H134.1a5.1,5.1,0,0,0-5.1,5.1v27.18a5.1,5.1,0,0,0,5.1,5.1h7.43c.39,1,.82,2.06,1.27,3.07L137.55,269a5.1,5.1,0,0,0,0,7.21l19.22,19.22a5.08,5.08,0,0,0,7.21,0l5.26-5.25c1,.45,2,.88,3.07,1.27v7.43a5.1,5.1,0,0,0,5.1,5.1h27.18a5.1,5.1,0,0,0,5.1-5.1v-7.43c1-.39,2.06-.82,3.07-1.27l5.26,5.25a5.08,5.08,0,0,0,7.21,0l19.22-19.22a5.1,5.1,0,0,0,0-7.21l-5.25-5.26c.45-1,.88-2,1.27-3.07h7.43a5.1,5.1,0,0,0,5.1-5.1V228.41A5.1,5.1,0,0,0,247.9,223.31Zm-7,25.24h-1.24a11,11,0,0,0-10.28,7.23c-.43,1.21-.93,2.42-1.48,3.59A10.93,10.93,0,0,0,230,271.74l.88.88-9.27,9.27-.88-.88a10.88,10.88,0,0,0-12.37-2.15,37.59,37.59,0,0,1-3.59,1.48,11,11,0,0,0-7.23,10.28v1.24h-13.1v-1.24a11,11,0,0,0-7.23-10.28c-1.22-.44-2.43-.94-3.59-1.48A10.88,10.88,0,0,0,161.26,281l-.88.88-9.27-9.27.88-.88a10.93,10.93,0,0,0,2.15-12.37c-.55-1.17-1-2.38-1.48-3.59a11,11,0,0,0-10.28-7.23h-1.24v-13.1h1.24a11,11,0,0,0,10.28-7.23c.43-1.21.93-2.42,1.48-3.59A10.93,10.93,0,0,0,152,212.26l-.88-.88,9.27-9.27.88.88a10.88,10.88,0,0,0,12.37,2.15,37.59,37.59,0,0,1,3.59-1.48,11,11,0,0,0,7.23-10.28v-1.24h13.1v1.24a11,11,0,0,0,7.23,10.28c1.22.44,2.43.94,3.59,1.48A10.88,10.88,0,0,0,220.74,203l.88-.88,9.27,9.27-.88.88a10.93,10.93,0,0,0-2.15,12.37c.55,1.17,1,2.38,1.48,3.59a11,11,0,0,0,10.28,7.23h1.24Z"/><path class="cls-3" d="M191,215.54A26.46,26.46,0,1,0,217.46,242,26.49,26.49,0,0,0,191,215.54Zm0,40.78A14.32,14.32,0,1,1,205.32,242,14.33,14.33,0,0,1,191,256.32Z"/></g></g></g></svg>