<svg xmlns="http://www.w3.org/2000/svg" viewBox="0 0 282.84 355.89"><defs><style>.cls-1{opacity:0.45;}.cls-2{fill:none;}.cls-3{fill:#b2d3ea;}.cls-4{fill:#396caa;}.cls-5{fill:#5793ce;}.cls-10,.cls-6{fill:#d4ecff;}.cls-7{fill:#fff;}.cls-8{fill:#fafdff;}.cls-9{fill:#173d7a;}.cls-10{opacity:0.4;}</style></defs><title>Cloud Settings Page</title><g id="Layer_2" data-name="Layer 2"><g id="Ñëîé_1" data-name="Ñëîé 1"><g class="cls-1"><path class="cls-2" d="M1.73,248.5a.28.28,0,0,0-.13.23.28.28,0,0,0,.13.24l19.44,11a2,2,0,0,0,2.13-.06l6.36-4.11L21.37,251c-1.61-.93-1.41-2.55.45-3.61l3.78-2.19L16.5,240Z"/><path class="cls-2" d="M162.12,295.68l-1.52-.88a2.28,2.28,0,0,1-1.35-2.1v-8.46L153,280.67l-9.72,6.16a.84.84,0,0,0-.39.73.82.82,0,0,0,.42.72l16.58,9.52a5,5,0,0,1,1.29-1.05l1.41-.81-.45-.26Z"/><path class="cls-2" d="M86.19,238.87l-11,6.34,4.23,2.45c1.6.92,1.4,2.54-.45,3.61L53.75,265.83a6.92,6.92,0,0,1-6.25.26l-6.34-3.65-8.73,5.06a.18.18,0,0,0-.09.17.18.18,0,0,0,.09.17l16.49,9.57a3.81,3.81,0,0,0,3.78,0L85,259a5.43,5.43,0,0,1,5.38,0l27.05,15.62a3.81,3.81,0,0,0,3.81,0l10.55-6.1-21.46-12.24c-2.06-1.19-1.8-3.27.58-4.65l.39-.22L87.54,237.74A4.57,4.57,0,0,1,86.19,238.87Z"/><path class="cls-2" d="M146,322a.88.88,0,0,0-.45.78.86.86,0,0,0,.46.78l54.19,30.17a4.14,4.14,0,0,0,4.14-.07L225,341a.4.4,0,0,0,.19-.34.41.41,0,0,0-.19-.33l-12.21-7.43-12.47,7.2a7,7,0,0,1-6.26.26l-26.13-15.08c-1.6-.93-1.4-2.55.45-3.62l3.78-2.18-10.68-6.17Z"/><path class="cls-2" d="M117,23.22l0,0Z"/><path class="cls-2" d="M257.59,216c1.6.93,1.4,2.55-.45,3.62l-10.92,6.3,9.51,5.7a2.82,2.82,0,0,0,2.86,0l22.1-12.93a1.1,1.1,0,0,0,.55-1,1.11,1.11,0,0,0-.58-1l-17.05-9.13-10.25,5.92Z"/><path class="cls-2" d="M152.09,80.65a2.3,2.3,0,0,1-1.36-1.89h0V76a3.13,3.13,0,0,1-.32.15v8.09a1.14,1.14,0,0,1-.24.66,5.26,5.26,0,0,1,.72.33l1.61.92V80.85Z"/><path class="cls-2" d="M159.9,85.31a2.28,2.28,0,0,1-1.36-1.89V80.69a3.18,3.18,0,0,1-.32.16v8.09a1,1,0,0,1-.12.43l2.21,1.26V85.51A3.91,3.91,0,0,1,159.9,85.31Z"/><path class="cls-2" d="M167.7,90a2.29,2.29,0,0,1-1.35-1.89h0V85.36l-.32.15V93.6a.86.86,0,0,1-.05.27l2.14,1.22V90.17A3.23,3.23,0,0,1,167.7,90Z"/><path class="cls-3" d="M281.41,215.33l-16.26-8.71a5.66,5.66,0,0,1-.8.57l-.74.42,17.05,9.13a1.11,1.11,0,0,1,.58,1,1.1,1.1,0,0,1-.55,1l-22.1,12.93a2.82,2.82,0,0,1-2.86,0l-9.51-5.7,10.92-6.3c1.85-1.07,2.05-2.69.45-3.62l-4.23-2.44-20.61,11.9a7.32,7.32,0,0,1-1.06.49h0a7.24,7.24,0,0,1-.79.25c-.12,0-.25.06-.37.09s-.38.09-.57.12l-.43.06-.54.05-.43,0H228l-.36,0-.23,0a5.4,5.4,0,0,1-.58-.08l-.16,0-.24-.07-.45-.12-.21-.06-.16-.07-.14-.05v0a3.81,3.81,0,0,1-.5-.23l-12-6.9v8.23l12.69,7.33a7,7,0,0,0,6.26-.26l12.72-7.35L254.91,233a4.39,4.39,0,0,0,4.48,0l22.11-12.93a2.71,2.71,0,0,0-.09-4.73Z"/><path class="cls-3" d="M159.26,299.13a2.46,2.46,0,0,1,.61-1.33l-16.58-9.52a.82.82,0,0,1-.42-.72.84.84,0,0,1,.39-.73l9.72-6.16,6.27,3.57v-3.15h0a3.36,3.36,0,0,1,1.9-2.38l1.41-.81-2-1.14a2.28,2.28,0,0,1-1.35-2.1V272.8l-42.72-24.36-3.64,2.1L88.1,236.22a2.32,2.32,0,0,1-.56,1.52l23.75,13.73-.39.22c-2.38,1.38-2.64,3.46-.58,4.65l21.46,12.24-10.55,6.1a3.81,3.81,0,0,1-3.81,0l-27-15.62A5.43,5.43,0,0,0,85,259L52.7,277.43a3.81,3.81,0,0,1-3.78,0l-16.49-9.57a.18.18,0,0,1-.09-.17.18.18,0,0,1,.09-.17l8.73-5.06,6.34,3.65a6.92,6.92,0,0,0,6.25-.26L79,251.27c1.85-1.07,2-2.69.45-3.61l-4.23-2.45-20.6,11.9a7.44,7.44,0,0,1-1.07.49h0c-.26.1-.52.18-.79.26l-.36.08-.58.12-.43.06-.54.05-.42,0h-.62l-.36,0a1.46,1.46,0,0,1-.22,0l-.58-.07-.17,0-.24-.07a3.17,3.17,0,0,1-.44-.12l-.22-.06-.16-.07-.13-.05h0c-.17-.08-.35-.15-.51-.24L25.6,245.21l-3.78,2.19c-1.86,1.06-2.06,2.68-.45,3.61l8.29,4.79-6.36,4.11a2,2,0,0,1-2.13.06L1.73,249a.28.28,0,0,1-.13-.24.28.28,0,0,1,.13-.23L16.5,240,14.9,239l-14,8.08a1.87,1.87,0,0,0,0,3.24l19.43,11a3.69,3.69,0,0,0,1.81.48,3.64,3.64,0,0,0,2-.59l7-4.56,8.35,4.83-7.94,4.6a1.79,1.79,0,0,0,0,3.1l16.49,9.57a5.37,5.37,0,0,0,5.37,0l32.3-18.4a3.81,3.81,0,0,1,3.78,0l27.05,15.62a5.39,5.39,0,0,0,5.41,0l11.36-6.57,18,10.28-9,5.71a2.44,2.44,0,0,0,.09,4.19l16.75,9.62v-.16Z"/><path class="cls-4" d="M264.35,195.62l-31.6,18.24a7.32,7.32,0,0,1-1.06.49v11.57a7.32,7.32,0,0,0,1.06-.49l20.61-11.9,10.25-5.92.74-.42a5.66,5.66,0,0,0,.8-.57,2.59,2.59,0,0,0,1.1-2.14V193.19h0A3.36,3.36,0,0,1,264.35,195.62ZM252.9,209.75c-.73.42-1.32.08-1.32-.76a2.92,2.92,0,0,1,1.32-2.29c.73-.42,1.32-.08,1.32.76A2.91,2.91,0,0,1,252.9,209.75Zm5.57-4.74a2.92,2.92,0,0,1-1.32,2.29c-.73.42-1.32.08-1.32-.77a2.91,2.91,0,0,1,1.32-2.28C257.88,203.82,258.47,204.17,258.47,205Zm2.93-.17c-.73.42-1.32.08-1.32-.76a2.92,2.92,0,0,1,1.32-2.29c.73-.42,1.32-.08,1.32.76A2.91,2.91,0,0,1,261.4,204.84Z"/><path class="cls-4" d="M230,226.39l-.43.06Z"/><path class="cls-4" d="M229,226.5l-.43,0Z"/><path class="cls-4" d="M230.9,226.18c-.12,0-.25.06-.37.09C230.65,226.24,230.78,226.22,230.9,226.18Z"/><path class="cls-4" d="M228.55,226.53Z"/><path class="cls-4" d="M225.56,226.05l.16.07.21.06Z"/><path class="cls-4" d="M226.38,226.3l.24.07.16,0C226.64,226.37,226.51,226.33,226.38,226.3Z"/><path class="cls-4" d="M227.36,226.47l.23,0,.36,0Z"/><path class="cls-4" d="M224.92,225.75a3.81,3.81,0,0,0,.5.23V214.41a3.81,3.81,0,0,1-.5-.23l-12-6.9v-6.47l12,6.9a3.81,3.81,0,0,0,.5.23V196.37a3.81,3.81,0,0,1-.5-.23l-12-6.9v-6.47l12,6.9a3.81,3.81,0,0,0,.5.23V178.33a3.81,3.81,0,0,1-.5-.23l-12-6.9V156.76l13.63-7.87a4,4,0,0,1,3.67-.15l15.26,8.81h0a2.47,2.47,0,0,0,.29-.24h0a1.16,1.16,0,0,0,.2-.25v0a1.71,1.71,0,0,0,.12-.23.43.43,0,0,1,0-.05.78.78,0,0,0,0-.21v-.08a1.1,1.1,0,0,0,0-.18.37.37,0,0,0,0-.11l-.06-.14-.12-.15-.08-.09a1.27,1.27,0,0,0-.29-.21l-15.31-8.84a3.91,3.91,0,0,0-2.77-.22,3.78,3.78,0,0,0-.9.37L213,154.77V122.12c0,.06,0,.12,0,.18h0a2.46,2.46,0,0,1-.15.51v0a3.29,3.29,0,0,1-.26.49.18.18,0,0,0-.05.07,4.82,4.82,0,0,1-.36.43.08.08,0,0,1,0,0,5,5,0,0,1-.48.43l-.13.09a5.88,5.88,0,0,1-.61.41L176,144.92a9.09,9.09,0,0,1-1.18.55V252.78l5.73-3.31a5.48,5.48,0,0,1,2.25-3.61l7.42-4.25v-15.2l-7.42,4.25a1.86,1.86,0,0,1-.49.21l-.08,0a1.36,1.36,0,0,1-.39,0h0a1.24,1.24,0,0,1-.39-.09h0a1.94,1.94,0,0,1-.94-1.94v-8.2a5.58,5.58,0,0,1,2.33-4.46l7.42-4.25v-15.2L182.8,201a1.86,1.86,0,0,1-.49.21l-.08,0a1.36,1.36,0,0,1-.39,0h0a1.24,1.24,0,0,1-.39-.09h0a1.94,1.94,0,0,1-.94-1.94v-8.2a5.58,5.58,0,0,1,2.33-4.46l14.45-8.28V163.13L182.8,171.4a1.86,1.86,0,0,1-.49.21l-.08,0a1.36,1.36,0,0,1-.39,0h0a1.24,1.24,0,0,1-.39-.09h0a1.94,1.94,0,0,1-.94-1.94v-8.2A5.58,5.58,0,0,1,182.8,157l22.94-13.13a1.34,1.34,0,0,1,2,.35.21.21,0,0,1,0,.06,2.09,2.09,0,0,1,.19.48.83.83,0,0,1,0,.15,3.24,3.24,0,0,1,.08.72v8.21a5.59,5.59,0,0,1-.4,2A5.94,5.94,0,0,1,207,157a4.57,4.57,0,0,1-.83,1,3.46,3.46,0,0,1-.47.34l-7.42,4.25v15.19l7.42-4.24a1.34,1.34,0,0,1,2,.35.21.21,0,0,1,0,.06,2.09,2.09,0,0,1,.19.48.83.83,0,0,1,0,.15,3.24,3.24,0,0,1,.08.72v8.21a5.59,5.59,0,0,1-.4,2,5.92,5.92,0,0,1-1,1.72,3.58,3.58,0,0,1-.9.77l-14.45,8.27v15.2l14.45-8.27a1.34,1.34,0,0,1,2,.35.21.21,0,0,1,0,.06,2.09,2.09,0,0,1,.19.48.83.83,0,0,1,0,.15,3.24,3.24,0,0,1,.08.72v8.21h0a5.59,5.59,0,0,1-.4,2,5.94,5.94,0,0,1-.63,1.2,4.2,4.2,0,0,1-1.3,1.29l-14.45,8.27V241l14.45-8.27a1.34,1.34,0,0,1,2,.35.21.21,0,0,1,0,.06,2.09,2.09,0,0,1,.19.48.83.83,0,0,1,0,.15,3.24,3.24,0,0,1,.08.72h0v8.21a5,5,0,0,1-.18,1.31,6.42,6.42,0,0,1-.5,1.28,5,5,0,0,1-.33.55l5.9,3.41v-30.4Z"/><path class="cls-5" d="M225.42,214.41V226l.14.05.37.13.45.12c.13,0,.26.07.4.09a5.4,5.4,0,0,0,.58.08l.59.05h.61l.43,0,.54-.05.43-.06c.19,0,.38-.08.57-.12s.25-.05.37-.09a7.24,7.24,0,0,0,.79-.25h0V214.35A8.86,8.86,0,0,1,225.42,214.41Z"/><path class="cls-6" d="M258.55,195.23l-26.48,15.28a7.26,7.26,0,0,1-6.56.27L213,203.54v3.74l12,6.9a3.81,3.81,0,0,0,.5.23,8.86,8.86,0,0,0,6.27-.06,7.32,7.32,0,0,0,1.06-.49l31.6-18.24a3.36,3.36,0,0,0,1.9-2.43,2.27,2.27,0,0,0-1.34-2.09l-2-1.14-3.34,1.92C260.6,192.87,260.22,194.26,258.55,195.23Z"/><path class="cls-5" d="M225.51,210.78a7.26,7.26,0,0,0,6.56-.27l26.48-15.28c1.67-1,2.05-2.36,1.05-3.35l-26.85,15.51a7.32,7.32,0,0,1-1.06.49V196.31a8.86,8.86,0,0,1-6.27.06v11.57a3.81,3.81,0,0,1-.5-.23l-12-6.9v2.73Zm1.27-2.43a.9.9,0,0,1-.16,0,1.68,1.68,0,0,1-.24-.06C226.51,208.29,226.64,208.33,226.78,208.35Zm1.17.12h-.36l-.23,0A5.65,5.65,0,0,0,228,208.47Zm.56,0h0Zm.05,0,.43,0Zm2-.25c.12,0,.25,0,.37-.09C230.78,208.18,230.65,208.2,230.53,208.23Zm-1,.18.43-.06Zm-3.6-.27-.21-.06-.16-.07Z"/><path class="cls-6" d="M252.9,206.7a2.92,2.92,0,0,0-1.32,2.29c0,.84.59,1.18,1.32.76a2.91,2.91,0,0,0,1.32-2.29C254.22,206.62,253.63,206.28,252.9,206.7Z"/><path class="cls-6" d="M257.15,204.25a2.91,2.91,0,0,0-1.32,2.28c0,.85.59,1.19,1.32.77a2.92,2.92,0,0,0,1.32-2.29C258.47,204.17,257.88,203.82,257.15,204.25Z"/><path class="cls-6" d="M262.72,202.55c0-.84-.59-1.18-1.32-.76a2.92,2.92,0,0,0-1.32,2.29c0,.84.59,1.18,1.32.76A2.91,2.91,0,0,0,262.72,202.55Z"/><path class="cls-4" d="M264.35,177.58l-31.6,18.24a7.32,7.32,0,0,1-1.06.49v11.57a7.32,7.32,0,0,0,1.06-.49l26.85-15.51,3.34-1.92,1.41-.81c1.33-.78,2-1.78,1.9-2.71V175.15h0A3.36,3.36,0,0,1,264.35,177.58Zm-3,6.17c.73-.42,1.32-.08,1.32.76a2.91,2.91,0,0,1-1.32,2.29c-.73.42-1.32.08-1.32-.76A2.92,2.92,0,0,1,261.4,183.75Zm-7.18,5.67a2.91,2.91,0,0,1-1.32,2.29c-.73.42-1.32.08-1.32-.76a2.92,2.92,0,0,1,1.32-2.29C253.63,188.24,254.22,188.58,254.22,189.42Zm2.93-.16c-.73.42-1.32.08-1.32-.77a2.94,2.94,0,0,1,1.32-2.29c.73-.42,1.32-.08,1.32.77A2.94,2.94,0,0,1,257.15,189.26Z"/><path class="cls-4" d="M228.56,208.48l.43,0Z"/><path class="cls-4" d="M230,208.35l-.43.06Z"/><path class="cls-4" d="M230.9,208.14c-.12,0-.25.06-.37.09C230.65,208.2,230.78,208.18,230.9,208.14Z"/><path class="cls-4" d="M225.93,208.14l-.37-.13.16.07Z"/><path class="cls-4" d="M226.78,208.35c-.14,0-.27-.06-.4-.09a1.68,1.68,0,0,0,.24.06A.9.9,0,0,0,226.78,208.35Z"/><path class="cls-4" d="M228,208.47a5.65,5.65,0,0,1-.59,0l.23,0Z"/><path class="cls-4" d="M228.51,208.49h0Z"/><path class="cls-6" d="M258.55,177.19l-26.48,15.28a7.3,7.3,0,0,1-6.56.27L213,185.5v3.74l12,6.9a3.81,3.81,0,0,0,.5.23,8.86,8.86,0,0,0,6.27-.06,7.32,7.32,0,0,0,1.06-.49l31.6-18.24a3.36,3.36,0,0,0,1.9-2.43,2.29,2.29,0,0,0-1.34-2.1l-2-1.13-3.34,1.92C260.6,174.83,260.22,176.22,258.55,177.19Z"/><path class="cls-5" d="M225.51,192.74a7.3,7.3,0,0,0,6.56-.27l26.48-15.28c1.67-1,2.05-2.36,1.05-3.35l-26.85,15.51a7.32,7.32,0,0,1-1.06.49V178.27a9.56,9.56,0,0,1-5,.46,6.2,6.2,0,0,1-1.24-.4V189.9a3.81,3.81,0,0,1-.5-.23l-12-6.9v2.73Zm1.27-2.43-.16,0a1.68,1.68,0,0,1-.24-.06C226.51,190.25,226.64,190.29,226.78,190.31Zm1.16.12h-.35l-.23,0A5.65,5.65,0,0,0,227.94,190.43Zm.57,0h0Zm.05,0,.43,0Zm2-.25c.12,0,.25-.05.37-.09C230.78,190.14,230.65,190.16,230.53,190.19Zm-1,.18.43-.06Zm-3.6-.27-.21-.06-.16-.07Z"/><path class="cls-6" d="M252.9,188.66a2.92,2.92,0,0,0-1.32,2.29c0,.84.59,1.18,1.32.76a2.91,2.91,0,0,0,1.32-2.29C254.22,188.58,253.63,188.24,252.9,188.66Z"/><path class="cls-6" d="M257.15,186.2a2.94,2.94,0,0,0-1.32,2.29c0,.85.59,1.19,1.32.77a2.94,2.94,0,0,0,1.32-2.29C258.47,186.12,257.88,185.78,257.15,186.2Z"/><path class="cls-6" d="M261.4,186.8a2.91,2.91,0,0,0,1.32-2.29c0-.84-.59-1.18-1.32-.76a2.92,2.92,0,0,0-1.32,2.29C260.08,186.88,260.67,187.22,261.4,186.8Z"/><path class="cls-4" d="M266.24,157.26a2.07,2.07,0,0,1-.16.52.91.91,0,0,1-.09.17,4.11,4.11,0,0,1-.24.39c-.05.06-.1.13-.16.19a4.07,4.07,0,0,1-.36.36l-.18.17a8.49,8.49,0,0,1-.7.48h0l-31.6,18.24a7.32,7.32,0,0,1-1.06.49v11.57a7.32,7.32,0,0,0,1.06-.49l26.85-15.51,3.34-1.92,1.41-.81c1.33-.78,2-1.78,1.9-2.71V157.11h0A.76.76,0,0,0,266.24,157.26Zm-4.84,8.45c.73-.42,1.32-.08,1.32.76a2.92,2.92,0,0,1-1.32,2.29c-.73.42-1.32.08-1.32-.76A2.91,2.91,0,0,1,261.4,165.71Zm-7.18,5.67a2.92,2.92,0,0,1-1.32,2.29c-.73.42-1.32.08-1.32-.76a2.91,2.91,0,0,1,1.32-2.29C253.63,170.2,254.22,170.54,254.22,171.38Zm2.93-.16c-.73.42-1.32.08-1.32-.77a2.92,2.92,0,0,1,1.32-2.29c.73-.42,1.32-.08,1.32.77A2.94,2.94,0,0,1,257.15,171.22Z"/><path class="cls-4" d="M230.9,190.1c-.12,0-.25.06-.37.09C230.65,190.16,230.78,190.14,230.9,190.1Z"/><path class="cls-4" d="M228.56,190.44l.43,0Z"/><path class="cls-4" d="M230,190.31l-.43.06Z"/><path class="cls-4" d="M225.93,190.1l-.37-.13.16.07Z"/><path class="cls-4" d="M227.94,190.43a5.65,5.65,0,0,1-.58,0l.23,0Z"/><path class="cls-4" d="M226.78,190.31c-.14,0-.27-.06-.4-.09a1.68,1.68,0,0,0,.24.06Z"/><path class="cls-4" d="M228.51,190.45h0Z"/><path class="cls-6" d="M266.17,156.47a1.05,1.05,0,0,1,.06.24A1.05,1.05,0,0,0,266.17,156.47Z"/><path class="cls-6" d="M265.93,156l.13.23Z"/><path class="cls-6" d="M226.59,146.9a3.78,3.78,0,0,1,.9-.37,3.91,3.91,0,0,1,2.77.22l15.31,8.84a1.27,1.27,0,0,1,.29.21l.08.09.12.15.06.14a.37.37,0,0,1,0,.11,1.1,1.1,0,0,1,0,.18v.08a.78.78,0,0,1,0,.21.43.43,0,0,0,0,.05,1.71,1.71,0,0,1-.12.23v0a1.16,1.16,0,0,1-.2.25h0a2.47,2.47,0,0,1-.29.24h0a1.21,1.21,0,0,1-.22.15l-14.78,8.54a4.11,4.11,0,0,1-3.67.15l-13.89-8V169l12,6.91c2,1.16,5.51,1,7.83-.32l31.6-18.24a4.4,4.4,0,0,0,1.55-1.41,2.91,2.91,0,0,0-1-.9l-32.72-18.89c-2-1.16-5.52-1-7.84.33L213,143v11.74Z"/><path class="cls-6" d="M266.24,157.26a.76.76,0,0,1,0-.15s0,0,0-.07A1.61,1.61,0,0,1,266.24,157.26Z"/><path class="cls-6" d="M266,158a.91.91,0,0,0,.09-.17A.91.91,0,0,1,266,158Z"/><path class="cls-6" d="M265.23,158.89l-.18.17Z"/><path class="cls-6" d="M265.59,158.53c.06-.06.11-.13.16-.19S265.65,158.47,265.59,158.53Z"/><path class="cls-6" d="M231.69,178.27a7.32,7.32,0,0,0,1.06-.49l31.6-18.24h0l-31.6,18.24a9.33,9.33,0,0,1-6.09.95A9.56,9.56,0,0,0,231.69,178.27Z"/><path class="cls-7" d="M264.35,157.32l-31.6,18.24c-2.32,1.33-5.82,1.48-7.83.32L213,169v2.23l12,6.9a3.81,3.81,0,0,0,.5.23,6.2,6.2,0,0,0,1.24.4,9.33,9.33,0,0,0,6.09-.95l31.6-18.24h0a8.49,8.49,0,0,0,.7-.48l.18-.17a4.07,4.07,0,0,0,.36-.36c.06-.06.11-.13.16-.19A4.11,4.11,0,0,0,266,158a.91.91,0,0,0,.09-.17,2.07,2.07,0,0,0,.16-.52,1.61,1.61,0,0,0,0-.22,1.22,1.22,0,0,0,0-.33,1.05,1.05,0,0,0-.06-.24c0-.1-.07-.19-.11-.29l-.13-.23,0,0h0A4.4,4.4,0,0,1,264.35,157.32Z"/><path class="cls-6" d="M252.9,170.62a2.91,2.91,0,0,0-1.32,2.29c0,.84.59,1.18,1.32.76a2.92,2.92,0,0,0,1.32-2.29C254.22,170.54,253.63,170.2,252.9,170.62Z"/><path class="cls-6" d="M257.15,168.16a2.92,2.92,0,0,0-1.32,2.29c0,.85.59,1.19,1.32.77a2.94,2.94,0,0,0,1.32-2.29C258.47,168.08,257.88,167.74,257.15,168.16Z"/><path class="cls-6" d="M261.4,168.76a2.92,2.92,0,0,0,1.32-2.29c0-.84-.59-1.18-1.32-.76a2.91,2.91,0,0,0-1.32,2.29C260.08,168.84,260.67,169.18,261.4,168.76Z"/><path class="cls-5" d="M246.19,156.55a.78.78,0,0,1,0,.21A.78.78,0,0,0,246.19,156.55Z"/><path class="cls-5" d="M246.12,156.18l-.06-.14Z"/><path class="cls-5" d="M246,157.06a1.16,1.16,0,0,1-.2.25A1.16,1.16,0,0,0,246,157.06Z"/><path class="cls-5" d="M246.19,156.47a1.1,1.1,0,0,0,0-.18A1.1,1.1,0,0,1,246.19,156.47Z"/><path class="cls-5" d="M246,157a1.71,1.71,0,0,0,.12-.23A1.71,1.71,0,0,1,246,157Z"/><path class="cls-5" d="M245.86,155.8l.08.09Z"/><path class="cls-5" d="M245.81,157.31a2.47,2.47,0,0,1-.29.24A2.47,2.47,0,0,0,245.81,157.31Z"/><path class="cls-5" d="M226.85,166.39a4.11,4.11,0,0,0,3.67-.15l14.78-8.54a1.21,1.21,0,0,0,.22-.15l-15.26-8.81a4,4,0,0,0-3.67.15L213,156.76v1.61Zm4-8.6-2,1.18a.61.61,0,0,1-.51,0l-2.12-1.22c-.13-.08-.11-.21,0-.3l2-1.18a.61.61,0,0,1,.51,0l2.12,1.22C231,157.57,231,157.7,230.87,157.79Z"/><path class="cls-6" d="M228.79,156.27a.61.61,0,0,0-.51,0l-2,1.18c-.15.09-.17.22,0,.3l2.12,1.22a.61.61,0,0,0,.51,0l2-1.18c.15-.09.17-.22,0-.3Z"/><path class="cls-5" d="M167.91,145.53V256.77l6.91-4V145.47c-.31.11-.62.22-.94.31A9.49,9.49,0,0,1,167.91,145.53Z"/><path class="cls-6" d="M157.38,90.1a3.59,3.59,0,0,1-1.22.41v9.4l6.21,3.6V95.17a3.38,3.38,0,0,1-1.22-.41,1.41,1.41,0,0,1-.84-1.16h0v-3l-2.21-1.26A1.73,1.73,0,0,1,157.38,90.1Z"/><path class="cls-6" d="M150.17,84.93a2.06,2.06,0,0,1-.6.51,3.82,3.82,0,0,1-1.22.41v9.79a3,3,0,0,1,1,.34l5.18,3V90.51a3.66,3.66,0,0,1-1.22-.41,1.41,1.41,0,0,1-.84-1.16h0V86.18l-1.61-.92A5.26,5.26,0,0,0,150.17,84.93Z"/><path class="cls-6" d="M106.77,108.28l60.58,34.55c2.22,1.28,6.09,1.12,8.65-.36l34.85-20.12a4.86,4.86,0,0,0,1.73-1.56,2,2,0,0,1,.37,1,2.61,2.61,0,0,0-1.48-2L173.82,98.34a1.47,1.47,0,0,1-.82,1.09,3.9,3.9,0,0,1-1.22.41V109l17.93,10.4a1.65,1.65,0,0,1,.32.23l.1.11a1,1,0,0,1,.12.16.71.71,0,0,1,.08.15s0,.08,0,.12a.69.69,0,0,1,0,.2v.09a.93.93,0,0,1,0,.23s0,0,0,0a1.59,1.59,0,0,1-.12.27l0,0a1.74,1.74,0,0,1-.22.27h0c-.09.09-.2.18-.31.27h0l-.25.16-16.31,9.42a4.49,4.49,0,0,1-4,.17l-40.31-23.37h0a1.17,1.17,0,0,1-.69-1.13,1.78,1.78,0,0,1,1-1.21l16.32-9.41a4.37,4.37,0,0,1,1.41-.49V85.85a3.9,3.9,0,0,1-1.22-.41,1.69,1.69,0,0,1-.74-.77,9.2,9.2,0,0,0-2.54,1l-34.86,20.13a4.26,4.26,0,0,0-1.93,2,2.74,2.74,0,0,1,.21-.42A3.22,3.22,0,0,0,106.77,108.28Z"/><path class="cls-6" d="M165.19,94.76a3.45,3.45,0,0,1-1.22.41v9.27l6.21,3.6v-8.2a3.82,3.82,0,0,1-1.22-.41,1.44,1.44,0,0,1-.84-1.17h0V95.09L166,93.87A1.57,1.57,0,0,1,165.19,94.76Z"/><path class="cls-6" d="M105.32,108.17c0-.11.06-.23.1-.34C105.38,107.94,105.35,108.06,105.32,108.17Z"/><path class="cls-6" d="M212.78,122.84a3.29,3.29,0,0,1-.26.49A3.29,3.29,0,0,0,212.78,122.84Z"/><path class="cls-6" d="M212.94,122.3c0-.06,0-.12,0-.18a1.3,1.3,0,0,0,0-.34A1.81,1.81,0,0,1,212.94,122.3Z"/><path class="cls-6" d="M212.94,122.31a2.46,2.46,0,0,1-.15.51A2.46,2.46,0,0,0,212.94,122.31Z"/><path class="cls-6" d="M211.46,124.39a5.88,5.88,0,0,1-.61.41A5.88,5.88,0,0,0,211.46,124.39Z"/><path class="cls-6" d="M212.07,123.87a5,5,0,0,1-.48.43A5,5,0,0,0,212.07,123.87Z"/><path class="cls-6" d="M212.47,123.4a4.82,4.82,0,0,1-.36.43A4.82,4.82,0,0,0,212.47,123.4Z"/><path class="cls-6" d="M105.3,108.26s0,.08,0,.11h0v0a2.26,2.26,0,0,0,0,.26A2,2,0,0,1,105.3,108.26Z"/><path class="cls-8" d="M106.77,110.74l60.58,34.54a4.75,4.75,0,0,0,.56.25,9.49,9.49,0,0,0,6,.25c.32-.09.63-.2.94-.31a9.09,9.09,0,0,0,1.18-.55l34.85-20.12a5.88,5.88,0,0,0,.61-.41l.13-.09a5,5,0,0,0,.48-.43.08.08,0,0,0,0,0,4.82,4.82,0,0,0,.36-.43.18.18,0,0,1,.05-.07,3.29,3.29,0,0,0,.26-.49v0a2.46,2.46,0,0,0,.15-.51h0a1.81,1.81,0,0,0,0-.52h0a2,2,0,0,0-.37-1,4.86,4.86,0,0,1-1.73,1.56L176,142.47c-2.56,1.48-6.43,1.64-8.65.36l-60.58-34.55a3.22,3.22,0,0,1-1.1-1,2.74,2.74,0,0,0-.21.42.76.76,0,0,0,0,.11c0,.11-.07.23-.1.34a.29.29,0,0,1,0,.09,2,2,0,0,0,0,.42s0,0,0,.06A2.63,2.63,0,0,0,106.77,110.74Z"/><path class="cls-9" d="M171.78,111.16v8.57l1.79,1c.15.08.13.23,0,.32l-2.25,1.31a.65.65,0,0,1-.56,0l-2.34-1.35c-.14-.08-.13-.23,0-.32l1.76-1v-9.5l-6.21-3.6v8.61l1.8,1c.14.08.12.23,0,.32l-2.26,1.31a.65.65,0,0,1-.56,0l-2.34-1.35c-.14-.08-.12-.23,0-.32l1.76-1v-9.53l-6.21-3.6v8.64l1.8,1c.14.08.12.23,0,.32l-2.26,1.31a.65.65,0,0,1-.56,0l-2.34-1.35c-.14-.08-.12-.23,0-.32l1.76-1v-9.57l-5.18-3a3,3,0,0,0-1-.34v8.42l1.8,1c.14.08.12.23,0,.32l-2.26,1.31a.65.65,0,0,1-.56,0L145,107.6c-.15-.08-.13-.23,0-.32l1.75-1V97.85a4.37,4.37,0,0,0-1.41.49L129,107.76a2.07,2.07,0,0,0-.24.17l0,0,40.31,23.37a4.49,4.49,0,0,0,4-.17l16.31-9.42.25-.16Z"/><path class="cls-9" d="M190,121.26c-.09.09-.2.18-.31.27C189.78,121.44,189.89,121.35,190,121.26Z"/><path class="cls-9" d="M190,119.59l.1.11Z"/><path class="cls-9" d="M190.25,119.86a.71.71,0,0,1,.08.15A.71.71,0,0,0,190.25,119.86Z"/><path class="cls-9" d="M190.37,120.13a.69.69,0,0,1,0,.2A.69.69,0,0,0,190.37,120.13Z"/><path class="cls-9" d="M190.2,121a1.74,1.74,0,0,1-.22.27A1.74,1.74,0,0,0,190.2,121Z"/><path class="cls-9" d="M190.4,120.42a.93.93,0,0,1,0,.23A.93.93,0,0,0,190.4,120.42Z"/><path class="cls-9" d="M190.34,120.7a1.59,1.59,0,0,1-.12.27A1.59,1.59,0,0,0,190.34,120.7Z"/><path class="cls-6" d="M145,107.6l2.33,1.35a.65.65,0,0,0,.56,0l2.26-1.31c.16-.09.18-.24,0-.32l-1.8-1v.64a.8.8,0,0,1-1.6,0v-.64l-1.75,1C144.83,107.37,144.81,107.52,145,107.6Z"/><path class="cls-6" d="M152.76,112.09l2.34,1.35a.65.65,0,0,0,.56,0l2.26-1.31c.16-.09.18-.24,0-.32l-1.8-1v.81a.8.8,0,1,1-1.6,0v-.81l-1.76,1C152.64,111.86,152.62,112,152.76,112.09Z"/><path class="cls-6" d="M160.57,116.58l2.34,1.35a.65.65,0,0,0,.56,0l2.26-1.31c.16-.09.18-.24,0-.32l-1.8-1v1a.8.8,0,0,1-1.6,0v-1l-1.76,1C160.45,116.35,160.43,116.5,160.57,116.58Z"/><path class="cls-6" d="M168.38,121.07l2.34,1.35a.65.65,0,0,0,.56,0l2.25-1.31c.17-.09.19-.24,0-.32l-1.79-1v1.16a.8.8,0,0,1-1.6,0v-1.16l-1.76,1C168.25,120.84,168.24,121,168.38,121.07Z"/><path class="cls-9" d="M208,144.88a3.24,3.24,0,0,1,.08.72A3.24,3.24,0,0,0,208,144.88Z"/><path class="cls-9" d="M182.19,171.09l15.06-8.62v-4.34l-.52.3c-.28.16-.5,0-.5-.39V155.8a1.23,1.23,0,0,1,.5-1l2.11-1.21c.28-.16.51,0,.51.39v2.24a1.24,1.24,0,0,1-.51,1l-.52.29v4.35l6.8-3.9a5.58,5.58,0,0,0,2.34-4.46v-8.2a2.3,2.3,0,0,0-.59-1.71,1.25,1.25,0,0,1,.85.6,1.34,1.34,0,0,0-2-.35L182.8,157a5.58,5.58,0,0,0-2.33,4.46v8.2a1.94,1.94,0,0,0,.94,1.94,1.16,1.16,0,0,1-.36-.23A1.68,1.68,0,0,0,182.19,171.09Zm7-11.23a1.21,1.21,0,0,1,.51-1l2.1-1.22c.29-.16.51,0,.51.39v2.24a1.21,1.21,0,0,1-.51,1l-2.1,1.21c-.28.16-.51,0-.51-.38Z"/><path class="cls-9" d="M182.23,171.63a1.36,1.36,0,0,1-.39,0A1.36,1.36,0,0,0,182.23,171.63Z"/><path class="cls-9" d="M182.8,171.4a1.86,1.86,0,0,1-.49.21A1.86,1.86,0,0,0,182.8,171.4Z"/><path class="cls-9" d="M181.8,171.67a1.24,1.24,0,0,1-.39-.09A1.24,1.24,0,0,0,181.8,171.67Z"/><path class="cls-9" d="M207.76,144.25a2.09,2.09,0,0,1,.19.48A2.09,2.09,0,0,0,207.76,144.25Z"/><polygon class="cls-9" points="182.8 171.4 197.25 163.13 197.25 163.13 182.8 171.4"/><path class="cls-9" d="M207.67,155.78A5.94,5.94,0,0,1,207,157,5.94,5.94,0,0,0,207.67,155.78Z"/><path class="cls-9" d="M198.32,162.52h0l7.42-4.25a3.46,3.46,0,0,0,.47-.34,3.46,3.46,0,0,1-.47.34Z"/><path class="cls-4" d="M189.7,162.49l2.1-1.21a1.21,1.21,0,0,0,.51-1v-2.24c0-.38-.22-.55-.51-.39l-2.1,1.22a1.21,1.21,0,0,0-.51,1v2.25C189.19,162.48,189.42,162.65,189.7,162.49Z"/><path class="cls-9" d="M182.23,230.89a1.36,1.36,0,0,1-.39,0A1.36,1.36,0,0,0,182.23,230.89Z"/><path class="cls-9" d="M182.8,230.66a1.86,1.86,0,0,1-.49.21A1.86,1.86,0,0,0,182.8,230.66Z"/><path class="cls-9" d="M191.8,216.93c.29-.16.51,0,.51.39v2.24a1.21,1.21,0,0,1-.51,1l-.51.3v4.3l13.83-7.92a5.58,5.58,0,0,0,2.34-4.46v-8.2a2.3,2.3,0,0,0-.59-1.71,1.25,1.25,0,0,1,.85.6,1.34,1.34,0,0,0-2-.35l-14.45,8.27v5.86Zm4.43.37v-2.24a1.23,1.23,0,0,1,.5-1l2.11-1.21c.28-.16.51,0,.51.39v2.24a1.24,1.24,0,0,1-.51,1l-2.11,1.21C196.45,217.85,196.23,217.68,196.23,217.3Z"/><path class="cls-9" d="M181.8,230.93a1.24,1.24,0,0,1-.39-.09A1.24,1.24,0,0,0,181.8,230.93Z"/><polygon class="cls-9" points="182.8 230.66 190.22 226.41 190.22 226.41 182.8 230.66"/><path class="cls-9" d="M182.19,230.35l8-4.6v-4.3l-.52.3c-.28.16-.51,0-.51-.38v-2.25a1.21,1.21,0,0,1,.51-1l.52-.3V212l-7.42,4.25a5.58,5.58,0,0,0-2.33,4.46v8.2a1.94,1.94,0,0,0,.94,1.94,1.16,1.16,0,0,1-.36-.23A1.68,1.68,0,0,0,182.19,230.35Z"/><path class="cls-9" d="M207,216.24a5.94,5.94,0,0,0,.63-1.2A5.94,5.94,0,0,1,207,216.24Z"/><path class="cls-9" d="M205.74,217.53l-14.45,8.27h0l14.45-8.27a4.2,4.2,0,0,0,1.3-1.29A4.2,4.2,0,0,1,205.74,217.53Z"/><path class="cls-9" d="M208.07,204.86a3.24,3.24,0,0,0-.08-.72A3.24,3.24,0,0,1,208.07,204.86Z"/><path class="cls-9" d="M208.07,213.07h0a5.59,5.59,0,0,1-.4,2A5.59,5.59,0,0,0,208.07,213.07Z"/><path class="cls-9" d="M207.76,203.51a2.09,2.09,0,0,1,.19.48A2.09,2.09,0,0,0,207.76,203.51Z"/><path class="cls-4" d="M189.19,219.12v2.25c0,.37.23.54.51.38l.52-.3v-3.6l-.52.3A1.21,1.21,0,0,0,189.19,219.12Z"/><path class="cls-4" d="M192.31,219.56v-2.24c0-.38-.22-.55-.51-.39l-.51.3v3.61l.51-.3A1.21,1.21,0,0,0,192.31,219.56Z"/><path class="cls-4" d="M199.35,215.5v-2.24c0-.38-.23-.55-.51-.39l-2.11,1.21a1.23,1.23,0,0,0-.5,1v2.24c0,.38.22.55.5.39l2.11-1.21A1.24,1.24,0,0,0,199.35,215.5Z"/><path class="cls-9" d="M190.22,243.89v-2.28l-7.42,4.25a5.48,5.48,0,0,0-2.25,3.61Z"/><path class="cls-9" d="M208,233.77a3.24,3.24,0,0,1,.08.72A3.24,3.24,0,0,0,208,233.77Z"/><path class="cls-9" d="M207.89,244a6.42,6.42,0,0,1-.5,1.28A6.42,6.42,0,0,0,207.89,244Z"/><path class="cls-9" d="M192.75,242.43c2.32-1.34,5.83-1.49,7.84-.33l5.88,3.4a6,6,0,0,0,1-3.11v-8.2a2.3,2.3,0,0,0-.59-1.71,1.25,1.25,0,0,1,.85.6,1.34,1.34,0,0,0-2-.35L191.29,241v2.28Z"/><path class="cls-9" d="M208.07,242.7a5,5,0,0,1-.18,1.31A5,5,0,0,0,208.07,242.7Z"/><path class="cls-9" d="M207.76,233.14a2.09,2.09,0,0,1,.19.48A2.09,2.09,0,0,0,207.76,233.14Z"/><path class="cls-7" d="M206.87,232.48a2.3,2.3,0,0,1,.59,1.71v8.2a6,6,0,0,1-1,3.11l.59.34a5,5,0,0,0,.33-.55,6.42,6.42,0,0,0,.5-1.28,5,5,0,0,0,.18-1.31v-8.21h0a3.24,3.24,0,0,0-.08-.72.83.83,0,0,0,0-.15,2.09,2.09,0,0,0-.19-.48.21.21,0,0,0,0-.06A1.25,1.25,0,0,0,206.87,232.48Z"/><polygon class="cls-9" points="182.8 201.03 190.22 196.78 190.22 196.78 182.8 201.03"/><path class="cls-9" d="M182.23,201.26a1.36,1.36,0,0,1-.39,0A1.36,1.36,0,0,0,182.23,201.26Z"/><path class="cls-9" d="M182.19,200.72l8-4.6v-4.3l-.52.3c-.28.16-.51,0-.51-.38v-2.25a1.21,1.21,0,0,1,.51-1l2.1-1.22c.29-.16.51,0,.51.39v.5l3.92-2.25v-.51a1.23,1.23,0,0,1,.5-1l.52-.29v-5.84L182.8,186.6a5.58,5.58,0,0,0-2.33,4.46v8.2a1.94,1.94,0,0,0,.94,1.94,1.16,1.16,0,0,1-.36-.23A1.68,1.68,0,0,0,182.19,200.72Z"/><path class="cls-9" d="M181.8,201.3a1.24,1.24,0,0,1-.39-.09A1.24,1.24,0,0,0,181.8,201.3Z"/><path class="cls-9" d="M182.8,201a1.86,1.86,0,0,1-.49.21A1.86,1.86,0,0,0,182.8,201Z"/><path class="cls-9" d="M198.32,183.54l.52-.3c.28-.16.51,0,.51.39v2.24a1.24,1.24,0,0,1-.51,1l-2.11,1.21c-.28.16-.5,0-.5-.39v-.5l-3.92,2.26v.5a1.21,1.21,0,0,1-.51,1l-.51.3v4.3l13.83-7.92a5.58,5.58,0,0,0,2.34-4.46v-8.2a2.3,2.3,0,0,0-.59-1.71,1.25,1.25,0,0,1,.85.6,1.34,1.34,0,0,0-2-.35l-7.42,4.24Z"/><path class="cls-9" d="M191.29,196.17h0l14.45-8.27a3.58,3.58,0,0,0,.9-.77,3.58,3.58,0,0,1-.9.77Z"/><path class="cls-9" d="M208.07,183.44a5.59,5.59,0,0,1-.4,2A5.59,5.59,0,0,0,208.07,183.44Z"/><path class="cls-9" d="M207.76,173.88a2.09,2.09,0,0,1,.19.48A2.09,2.09,0,0,0,207.76,173.88Z"/><path class="cls-9" d="M208.07,175.23a3.24,3.24,0,0,0-.08-.72A3.24,3.24,0,0,1,208.07,175.23Z"/><path class="cls-5" d="M110,132.46,162.94,163c1.19.69,2.15,0,2.15-1.62V151.3a5.12,5.12,0,0,0-2.15-4.1L110,116.65c-1.18-.68-2.14,0-2.14,1.62v10.09A5.14,5.14,0,0,0,110,132.46Zm.44-11.45c0-.8.48-1.17,1.08-.82L161.42,149a2.62,2.62,0,0,1,1.09,2.08v7.58c0,.81-.49,1.17-1.09.83l-49.87-28.79a2.61,2.61,0,0,1-1.08-2.08Z"/><path class="cls-5" d="M111.55,130.68l49.87,28.79c.6.34,1.09,0,1.09-.83v-7.58a2.62,2.62,0,0,0-1.09-2.08l-49.87-28.79c-.6-.35-1.08,0-1.08.82v7.59A2.61,2.61,0,0,0,111.55,130.68Zm44.59,19.17c0-.5.3-.73.68-.51l2.5,1.44a1.62,1.62,0,0,1,.68,1.3v2.65c0,.5-.3.73-.68.51l-2.5-1.44a1.62,1.62,0,0,1-.68-1.3ZM140,140.44a2.68,2.68,0,0,1,1.22,2.11c0,.78-.55,1.09-1.22.7a2.67,2.67,0,0,1-1.22-2.11C138.76,140.36,139.3,140.05,140,140.44ZM135.67,138a2.69,2.69,0,0,1,1.22,2.11c0,.78-.54,1.1-1.22.71a2.72,2.72,0,0,1-1.22-2.12C134.45,137.88,135,137.56,135.67,138Zm-4.3-2.48a2.7,2.7,0,0,1,1.22,2.11c0,.78-.55,1.09-1.22.7a2.7,2.7,0,0,1-1.22-2.11C130.15,135.39,130.7,135.08,131.37,135.47Zm-4.3-2.49a2.72,2.72,0,0,1,1.22,2.11c0,.78-.55,1.1-1.22.71a2.69,2.69,0,0,1-1.22-2.11C125.85,132.91,126.39,132.59,127.07,133Zm-12.57-7.25L122,130a2.54,2.54,0,0,1,1,2c0,.78-.47,1.14-1,.8l-7.45-4.3a2.52,2.52,0,0,1-1-2C113.45,125.75,113.92,125.39,114.5,125.73Z"/><path class="cls-10" d="M111.55,130.68l49.87,28.79c.6.34,1.09,0,1.09-.83v-7.58a2.62,2.62,0,0,0-1.09-2.08l-49.87-28.79c-.6-.35-1.08,0-1.08.82v7.59A2.61,2.61,0,0,0,111.55,130.68Zm44.59,19.17c0-.5.3-.73.68-.51l2.5,1.44a1.62,1.62,0,0,1,.68,1.3v2.65c0,.5-.3.73-.68.51l-2.5-1.44a1.62,1.62,0,0,1-.68-1.3ZM140,140.44a2.68,2.68,0,0,1,1.22,2.11c0,.78-.55,1.09-1.22.7a2.67,2.67,0,0,1-1.22-2.11C138.76,140.36,139.3,140.05,140,140.44ZM135.67,138a2.69,2.69,0,0,1,1.22,2.11c0,.78-.54,1.1-1.22.71a2.72,2.72,0,0,1-1.22-2.12C134.45,137.88,135,137.56,135.67,138Zm-4.3-2.48a2.7,2.7,0,0,1,1.22,2.11c0,.78-.55,1.09-1.22.7a2.7,2.7,0,0,1-1.22-2.11C130.15,135.39,130.7,135.08,131.37,135.47Zm-4.3-2.49a2.72,2.72,0,0,1,1.22,2.11c0,.78-.55,1.1-1.22.71a2.69,2.69,0,0,1-1.22-2.11C125.85,132.91,126.39,132.59,127.07,133Zm-12.57-7.25L122,130a2.54,2.54,0,0,1,1,2c0,.78-.47,1.14-1,.8l-7.45-4.3a2.52,2.52,0,0,1-1-2C113.45,125.75,113.92,125.39,114.5,125.73Z"/><path class="cls-6" d="M114.5,128.54l7.45,4.3c.58.34,1,0,1-.8a2.54,2.54,0,0,0-1-2l-7.45-4.29c-.58-.34-1,0-1,.8A2.52,2.52,0,0,0,114.5,128.54Z"/><path class="cls-9" d="M127.07,135.8c.67.39,1.22.07,1.22-.71a2.72,2.72,0,0,0-1.22-2.11c-.68-.39-1.22-.07-1.22.71A2.69,2.69,0,0,0,127.07,135.8Z"/><path class="cls-9" d="M131.37,138.28c.67.39,1.22.08,1.22-.7a2.7,2.7,0,0,0-1.22-2.11c-.67-.39-1.22-.08-1.22.7A2.7,2.7,0,0,0,131.37,138.28Z"/><path class="cls-6" d="M135.67,140.77c.68.39,1.22.07,1.22-.71a2.69,2.69,0,0,0-1.22-2.11c-.67-.39-1.22-.07-1.22.7A2.72,2.72,0,0,0,135.67,140.77Z"/><path class="cls-9" d="M140,143.25c.67.39,1.22.08,1.22-.7a2.68,2.68,0,0,0-1.22-2.11c-.68-.39-1.22-.08-1.22.7A2.67,2.67,0,0,0,140,143.25Z"/><path class="cls-9" d="M156.82,153.8l2.5,1.44c.38.22.68,0,.68-.51v-2.65a1.62,1.62,0,0,0-.68-1.3l-2.5-1.44c-.38-.22-.68,0-.68.51v2.65A1.62,1.62,0,0,0,156.82,153.8Z"/><path class="cls-5" d="M110,150.25l52.91,30.54c1.19.69,2.15,0,2.15-1.62V169.09a5.12,5.12,0,0,0-2.15-4.1L110,134.44c-1.18-.68-2.14,0-2.14,1.62v10.09A5.14,5.14,0,0,0,110,150.25Zm.44-11.45c0-.8.48-1.17,1.08-.82l49.87,28.79a2.62,2.62,0,0,1,1.09,2.08v7.58c0,.81-.49,1.17-1.09.83l-49.87-28.79a2.61,2.61,0,0,1-1.08-2.08Z"/><path class="cls-5" d="M111.55,148.47l49.87,28.79c.6.34,1.09,0,1.09-.83v-7.58a2.62,2.62,0,0,0-1.09-2.08L111.55,138c-.6-.35-1.08,0-1.08.82v7.59A2.61,2.61,0,0,0,111.55,148.47Zm44.59,19.17c0-.5.3-.73.68-.51l2.5,1.44a1.62,1.62,0,0,1,.68,1.3v2.65c0,.5-.3.73-.68.51l-2.5-1.44a1.62,1.62,0,0,1-.68-1.3ZM140,158.22a2.72,2.72,0,0,1,1.22,2.12c0,.78-.55,1.09-1.22.7a2.67,2.67,0,0,1-1.22-2.11C138.76,158.15,139.3,157.84,140,158.22Zm-4.31-2.48a2.69,2.69,0,0,1,1.22,2.11c0,.78-.54,1.1-1.22.71a2.72,2.72,0,0,1-1.22-2.12C134.45,155.67,135,155.35,135.67,155.74Zm-4.3-2.48a2.7,2.7,0,0,1,1.22,2.11c0,.78-.55,1.09-1.22.7a2.7,2.7,0,0,1-1.22-2.11C130.15,153.18,130.7,152.87,131.37,153.26Zm-4.3-2.49a2.72,2.72,0,0,1,1.22,2.11c0,.78-.55,1.1-1.22.71a2.69,2.69,0,0,1-1.22-2.11C125.85,150.7,126.39,150.38,127.07,150.77Zm-12.57-7.25,7.45,4.29a2.54,2.54,0,0,1,1,2c0,.78-.47,1.14-1,.8l-7.45-4.3a2.52,2.52,0,0,1-1-2C113.45,143.54,113.92,143.18,114.5,143.52Z"/><path class="cls-10" d="M111.55,148.47l49.87,28.79c.6.34,1.09,0,1.09-.83v-7.58a2.62,2.62,0,0,0-1.09-2.08L111.55,138c-.6-.35-1.08,0-1.08.82v7.59A2.61,2.61,0,0,0,111.55,148.47Zm44.59,19.17c0-.5.3-.73.68-.51l2.5,1.44a1.62,1.62,0,0,1,.68,1.3v2.65c0,.5-.3.73-.68.51l-2.5-1.44a1.62,1.62,0,0,1-.68-1.3ZM140,158.22a2.72,2.72,0,0,1,1.22,2.12c0,.78-.55,1.09-1.22.7a2.67,2.67,0,0,1-1.22-2.11C138.76,158.15,139.3,157.84,140,158.22Zm-4.31-2.48a2.69,2.69,0,0,1,1.22,2.11c0,.78-.54,1.1-1.22.71a2.72,2.72,0,0,1-1.22-2.12C134.45,155.67,135,155.35,135.67,155.74Zm-4.3-2.48a2.7,2.7,0,0,1,1.22,2.11c0,.78-.55,1.09-1.22.7a2.7,2.7,0,0,1-1.22-2.11C130.15,153.18,130.7,152.87,131.37,153.26Zm-4.3-2.49a2.72,2.72,0,0,1,1.22,2.11c0,.78-.55,1.1-1.22.71a2.69,2.69,0,0,1-1.22-2.11C125.85,150.7,126.39,150.38,127.07,150.77Zm-12.57-7.25,7.45,4.29a2.54,2.54,0,0,1,1,2c0,.78-.47,1.14-1,.8l-7.45-4.3a2.52,2.52,0,0,1-1-2C113.45,143.54,113.92,143.18,114.5,143.52Z"/><path class="cls-6" d="M114.5,146.33l7.45,4.3c.58.34,1,0,1-.8a2.54,2.54,0,0,0-1-2l-7.45-4.29c-.58-.34-1,0-1,.8A2.52,2.52,0,0,0,114.5,146.33Z"/><path class="cls-7" d="M127.07,153.59c.67.39,1.22.07,1.22-.71a2.72,2.72,0,0,0-1.22-2.11c-.68-.39-1.22-.07-1.22.71A2.69,2.69,0,0,0,127.07,153.59Z"/><path class="cls-9" d="M131.37,156.07c.67.39,1.22.08,1.22-.7a2.7,2.7,0,0,0-1.22-2.11c-.67-.39-1.22-.08-1.22.7A2.7,2.7,0,0,0,131.37,156.07Z"/><path class="cls-6" d="M135.67,158.56c.68.39,1.22.07,1.22-.71a2.69,2.69,0,0,0-1.22-2.11c-.67-.39-1.22-.07-1.22.7A2.72,2.72,0,0,0,135.67,158.56Z"/><path class="cls-9" d="M140,161c.67.39,1.22.08,1.22-.7a2.72,2.72,0,0,0-1.22-2.12c-.68-.38-1.22-.07-1.22.71A2.67,2.67,0,0,0,140,161Z"/><path class="cls-9" d="M156.82,171.59l2.5,1.44c.38.22.68,0,.68-.51v-2.65a1.62,1.62,0,0,0-.68-1.3l-2.5-1.44c-.38-.22-.68,0-.68.51v2.65A1.62,1.62,0,0,0,156.82,171.59Z"/><path class="cls-5" d="M165.09,186.88a5.12,5.12,0,0,0-2.15-4.1L110,152.23c-1.18-.68-2.14,0-2.14,1.62v10.09A5.14,5.14,0,0,0,110,168l52.91,30.54c1.19.69,2.15,0,2.15-1.62Zm-2.58,7.34c0,.81-.49,1.17-1.09.83l-49.87-28.79a2.61,2.61,0,0,1-1.08-2.08v-7.59c0-.8.48-1.17,1.08-.82l49.87,28.79a2.62,2.62,0,0,1,1.09,2.08Z"/><path class="cls-5" d="M161.42,184.56l-49.87-28.79c-.6-.35-1.08,0-1.08.82v7.59a2.61,2.61,0,0,0,1.08,2.08l49.87,28.79c.6.34,1.09,0,1.09-.83v-7.58A2.62,2.62,0,0,0,161.42,184.56ZM122,168.42l-7.45-4.3a2.52,2.52,0,0,1-1-2c0-.78.47-1.14,1-.8L122,165.6a2.54,2.54,0,0,1,1,2C123,168.4,122.53,168.76,122,168.42Zm5.12,3a2.69,2.69,0,0,1-1.22-2.11c0-.78.54-1.1,1.22-.71a2.72,2.72,0,0,1,1.22,2.11C128.29,171.45,127.74,171.77,127.07,171.38Zm4.3,2.48a2.7,2.7,0,0,1-1.22-2.11c0-.78.55-1.09,1.22-.7a2.7,2.7,0,0,1,1.22,2.11C132.59,173.94,132,174.25,131.37,173.86Zm4.3,2.49a2.72,2.72,0,0,1-1.22-2.12c0-.77.55-1.09,1.22-.7a2.69,2.69,0,0,1,1.22,2.11C136.89,176.42,136.35,176.74,135.67,176.35Zm4.31,2.48a2.67,2.67,0,0,1-1.22-2.11c0-.78.54-1.09,1.22-.7a2.68,2.68,0,0,1,1.22,2.11C141.2,178.91,140.65,179.22,140,178.83Zm20,11.48c0,.5-.3.73-.68.51l-2.5-1.44a1.62,1.62,0,0,1-.68-1.3v-2.65c0-.5.3-.73.68-.51l2.5,1.44a1.62,1.62,0,0,1,.68,1.3Z"/><path class="cls-10" d="M161.42,184.56l-49.87-28.79c-.6-.35-1.08,0-1.08.82v7.59a2.61,2.61,0,0,0,1.08,2.08l49.87,28.79c.6.34,1.09,0,1.09-.83v-7.58A2.62,2.62,0,0,0,161.42,184.56ZM122,168.42l-7.45-4.3a2.52,2.52,0,0,1-1-2c0-.78.47-1.14,1-.8L122,165.6a2.54,2.54,0,0,1,1,2C123,168.4,122.53,168.76,122,168.42Zm5.12,3a2.69,2.69,0,0,1-1.22-2.11c0-.78.54-1.1,1.22-.71a2.72,2.72,0,0,1,1.22,2.11C128.29,171.45,127.74,171.77,127.07,171.38Zm4.3,2.48a2.7,2.7,0,0,1-1.22-2.11c0-.78.55-1.09,1.22-.7a2.7,2.7,0,0,1,1.22,2.11C132.59,173.94,132,174.25,131.37,173.86Zm4.3,2.49a2.72,2.72,0,0,1-1.22-2.12c0-.77.55-1.09,1.22-.7a2.69,2.69,0,0,1,1.22,2.11C136.89,176.42,136.35,176.74,135.67,176.35Zm4.31,2.48a2.67,2.67,0,0,1-1.22-2.11c0-.78.54-1.09,1.22-.7a2.68,2.68,0,0,1,1.22,2.11C141.2,178.91,140.65,179.22,140,178.83Zm20,11.48c0,.5-.3.73-.68.51l-2.5-1.44a1.62,1.62,0,0,1-.68-1.3v-2.65c0-.5.3-.73.68-.51l2.5,1.44a1.62,1.62,0,0,1,.68,1.3Z"/><path class="cls-6" d="M122,165.6l-7.45-4.29c-.58-.34-1,0-1,.8a2.52,2.52,0,0,0,1,2l7.45,4.3c.58.34,1,0,1-.8A2.54,2.54,0,0,0,122,165.6Z"/><path class="cls-7" d="M127.07,168.56c-.68-.39-1.22-.07-1.22.71a2.69,2.69,0,0,0,1.22,2.11c.67.39,1.22.07,1.22-.71A2.72,2.72,0,0,0,127.07,168.56Z"/><path class="cls-9" d="M131.37,171.05c-.67-.39-1.22-.08-1.22.7a2.7,2.7,0,0,0,1.22,2.11c.67.39,1.22.08,1.22-.7A2.7,2.7,0,0,0,131.37,171.05Z"/><path class="cls-6" d="M135.67,173.53c-.67-.39-1.22-.07-1.22.7a2.72,2.72,0,0,0,1.22,2.12c.68.39,1.22.07,1.22-.71A2.69,2.69,0,0,0,135.67,173.53Z"/><path class="cls-9" d="M140,176c-.68-.39-1.22-.08-1.22.7a2.67,2.67,0,0,0,1.22,2.11c.67.39,1.22.08,1.22-.7A2.68,2.68,0,0,0,140,176Z"/><path class="cls-9" d="M159.32,186.36l-2.5-1.44c-.38-.22-.68,0-.68.51v2.65a1.62,1.62,0,0,0,.68,1.3l2.5,1.44c.38.22.68,0,.68-.51v-2.65A1.62,1.62,0,0,0,159.32,186.36Z"/><path class="cls-5" d="M107.89,171.64v10.09a5.16,5.16,0,0,0,2.14,4.1l52.91,30.54c1.19.69,2.15,0,2.15-1.62V204.67a5.12,5.12,0,0,0-2.15-4.1L110,170C108.85,169.34,107.89,170.06,107.89,171.64Zm2.58,2.74c0-.8.48-1.17,1.08-.82l49.87,28.79a2.62,2.62,0,0,1,1.09,2.08V212c0,.81-.49,1.17-1.09.83l-49.87-28.79a2.61,2.61,0,0,1-1.08-2.08Z"/><path class="cls-5" d="M111.55,184.05l49.87,28.79c.6.34,1.09,0,1.09-.83v-7.58a2.62,2.62,0,0,0-1.09-2.08l-49.87-28.79c-.6-.35-1.08,0-1.08.82V182A2.61,2.61,0,0,0,111.55,184.05Zm44.59,19.17c0-.5.3-.73.68-.51l2.5,1.44a1.62,1.62,0,0,1,.68,1.3v2.65c0,.5-.3.73-.68.51l-2.5-1.44a1.62,1.62,0,0,1-.68-1.3ZM140,193.8a2.72,2.72,0,0,1,1.22,2.12c0,.78-.55,1.09-1.22.7a2.67,2.67,0,0,1-1.22-2.11C138.76,193.73,139.3,193.42,140,193.8Zm-4.31-2.48a2.69,2.69,0,0,1,1.22,2.11c0,.78-.54,1.1-1.22.71a2.72,2.72,0,0,1-1.22-2.12C134.45,191.25,135,190.93,135.67,191.32Zm-4.3-2.48a2.68,2.68,0,0,1,1.22,2.11c0,.78-.55,1.09-1.22.7a2.7,2.7,0,0,1-1.22-2.11C130.15,188.76,130.7,188.45,131.37,188.84Zm-4.3-2.49a2.72,2.72,0,0,1,1.22,2.11c0,.78-.55,1.1-1.22.71a2.69,2.69,0,0,1-1.22-2.11C125.85,186.28,126.39,186,127.07,186.35ZM114.5,179.1l7.45,4.29a2.54,2.54,0,0,1,1,2c0,.78-.47,1.14-1,.8l-7.45-4.3a2.52,2.52,0,0,1-1-2C113.45,179.12,113.92,178.76,114.5,179.1Z"/><path class="cls-10" d="M111.55,184.05l49.87,28.79c.6.34,1.09,0,1.09-.83v-7.58a2.62,2.62,0,0,0-1.09-2.08l-49.87-28.79c-.6-.35-1.08,0-1.08.82V182A2.61,2.61,0,0,0,111.55,184.05Zm44.59,19.17c0-.5.3-.73.68-.51l2.5,1.44a1.62,1.62,0,0,1,.68,1.3v2.65c0,.5-.3.73-.68.51l-2.5-1.44a1.62,1.62,0,0,1-.68-1.3ZM140,193.8a2.72,2.72,0,0,1,1.22,2.12c0,.78-.55,1.09-1.22.7a2.67,2.67,0,0,1-1.22-2.11C138.76,193.73,139.3,193.42,140,193.8Zm-4.31-2.48a2.69,2.69,0,0,1,1.22,2.11c0,.78-.54,1.1-1.22.71a2.72,2.72,0,0,1-1.22-2.12C134.45,191.25,135,190.93,135.67,191.32Zm-4.3-2.48a2.68,2.68,0,0,1,1.22,2.11c0,.78-.55,1.09-1.22.7a2.7,2.7,0,0,1-1.22-2.11C130.15,188.76,130.7,188.45,131.37,188.84Zm-4.3-2.49a2.72,2.72,0,0,1,1.22,2.11c0,.78-.55,1.1-1.22.71a2.69,2.69,0,0,1-1.22-2.11C125.85,186.28,126.39,186,127.07,186.35ZM114.5,179.1l7.45,4.29a2.54,2.54,0,0,1,1,2c0,.78-.47,1.14-1,.8l-7.45-4.3a2.52,2.52,0,0,1-1-2C113.45,179.12,113.92,178.76,114.5,179.1Z"/><path class="cls-6" d="M114.5,181.91l7.45,4.3c.58.34,1,0,1-.8a2.54,2.54,0,0,0-1-2l-7.45-4.29c-.58-.34-1,0-1,.8A2.52,2.52,0,0,0,114.5,181.91Z"/><path class="cls-9" d="M127.07,189.17c.67.39,1.22.07,1.22-.71a2.72,2.72,0,0,0-1.22-2.11c-.68-.39-1.22-.07-1.22.71A2.69,2.69,0,0,0,127.07,189.17Z"/><path class="cls-9" d="M131.37,191.65c.67.39,1.22.08,1.22-.7a2.68,2.68,0,0,0-1.22-2.11c-.67-.39-1.22-.08-1.22.7A2.7,2.7,0,0,0,131.37,191.65Z"/><path class="cls-6" d="M135.67,194.14c.68.39,1.22.07,1.22-.71a2.69,2.69,0,0,0-1.22-2.11c-.67-.39-1.22-.07-1.22.7A2.72,2.72,0,0,0,135.67,194.14Z"/><path class="cls-9" d="M140,196.62c.67.39,1.22.08,1.22-.7A2.72,2.72,0,0,0,140,193.8c-.68-.38-1.22-.07-1.22.71A2.67,2.67,0,0,0,140,196.62Z"/><path class="cls-6" d="M156.82,207.17l2.5,1.44c.38.22.68,0,.68-.51v-2.65a1.62,1.62,0,0,0-.68-1.3l-2.5-1.44c-.38-.22-.68,0-.68.51v2.65A1.62,1.62,0,0,0,156.82,207.17Z"/><path class="cls-5" d="M110,203.62l52.91,30.54c1.19.69,2.15,0,2.15-1.62V222.45a5.12,5.12,0,0,0-2.15-4.09L110,187.81c-1.18-.68-2.14,0-2.14,1.62v10.09A5.16,5.16,0,0,0,110,203.62Zm.44-11.45c0-.8.48-1.17,1.08-.82l49.87,28.79a2.62,2.62,0,0,1,1.09,2.08v7.58c0,.81-.49,1.17-1.09.83l-49.87-28.79a2.61,2.61,0,0,1-1.08-2.08Z"/><path class="cls-5" d="M111.55,201.84l49.87,28.79c.6.34,1.09,0,1.09-.83v-7.58a2.62,2.62,0,0,0-1.09-2.08l-49.87-28.79c-.6-.35-1.08,0-1.08.82v7.59A2.61,2.61,0,0,0,111.55,201.84ZM156.14,221c0-.5.3-.73.68-.51l2.5,1.44a1.62,1.62,0,0,1,.68,1.3v2.65c0,.5-.3.73-.68.51l-2.5-1.44a1.62,1.62,0,0,1-.68-1.3ZM140,211.59a2.72,2.72,0,0,1,1.22,2.12c0,.78-.55,1.09-1.22.7a2.67,2.67,0,0,1-1.22-2.11C138.76,211.52,139.3,211.21,140,211.59Zm-4.31-2.48a2.69,2.69,0,0,1,1.22,2.11c0,.78-.54,1.1-1.22.71a2.72,2.72,0,0,1-1.22-2.12C134.45,209,135,208.72,135.67,209.11Zm-4.3-2.48a2.7,2.7,0,0,1,1.22,2.11c0,.78-.55,1.09-1.22.7a2.7,2.7,0,0,1-1.22-2.11C130.15,206.55,130.7,206.24,131.37,206.63Zm-4.3-2.49a2.72,2.72,0,0,1,1.22,2.11c0,.78-.55,1.1-1.22.71a2.69,2.69,0,0,1-1.22-2.11C125.85,204.07,126.39,203.75,127.07,204.14Zm-12.57-7.25,7.45,4.29a2.54,2.54,0,0,1,1,2c0,.78-.47,1.14-1,.8l-7.45-4.3a2.52,2.52,0,0,1-1-2C113.45,196.91,113.92,196.55,114.5,196.89Z"/><path class="cls-10" d="M111.55,201.84l49.87,28.79c.6.34,1.09,0,1.09-.83v-7.58a2.62,2.62,0,0,0-1.09-2.08l-49.87-28.79c-.6-.35-1.08,0-1.08.82v7.59A2.61,2.61,0,0,0,111.55,201.84ZM156.14,221c0-.5.3-.73.68-.51l2.5,1.44a1.62,1.62,0,0,1,.68,1.3v2.65c0,.5-.3.73-.68.51l-2.5-1.44a1.62,1.62,0,0,1-.68-1.3ZM140,211.59a2.72,2.72,0,0,1,1.22,2.12c0,.78-.55,1.09-1.22.7a2.67,2.67,0,0,1-1.22-2.11C138.76,211.52,139.3,211.21,140,211.59Zm-4.31-2.48a2.69,2.69,0,0,1,1.22,2.11c0,.78-.54,1.1-1.22.71a2.72,2.72,0,0,1-1.22-2.12C134.45,209,135,208.72,135.67,209.11Zm-4.3-2.48a2.7,2.7,0,0,1,1.22,2.11c0,.78-.55,1.09-1.22.7a2.7,2.7,0,0,1-1.22-2.11C130.15,206.55,130.7,206.24,131.37,206.63Zm-4.3-2.49a2.72,2.72,0,0,1,1.22,2.11c0,.78-.55,1.1-1.22.71a2.69,2.69,0,0,1-1.22-2.11C125.85,204.07,126.39,203.75,127.07,204.14Zm-12.57-7.25,7.45,4.29a2.54,2.54,0,0,1,1,2c0,.78-.47,1.14-1,.8l-7.45-4.3a2.52,2.52,0,0,1-1-2C113.45,196.91,113.92,196.55,114.5,196.89Z"/><path class="cls-6" d="M114.5,199.7,122,204c.58.34,1,0,1-.8a2.54,2.54,0,0,0-1-2l-7.45-4.29c-.58-.34-1,0-1,.8A2.52,2.52,0,0,0,114.5,199.7Z"/><path class="cls-9" d="M127.07,207c.67.39,1.22.07,1.22-.71a2.72,2.72,0,0,0-1.22-2.11c-.68-.39-1.22-.07-1.22.71A2.69,2.69,0,0,0,127.07,207Z"/><path class="cls-7" d="M131.37,209.44c.67.39,1.22.08,1.22-.7a2.7,2.7,0,0,0-1.22-2.11c-.67-.39-1.22-.08-1.22.7A2.7,2.7,0,0,0,131.37,209.44Z"/><path class="cls-6" d="M135.67,211.93c.68.39,1.22.07,1.22-.71a2.69,2.69,0,0,0-1.22-2.11c-.67-.39-1.22-.07-1.22.7A2.72,2.72,0,0,0,135.67,211.93Z"/><path class="cls-7" d="M140,214.41c.67.39,1.22.08,1.22-.7a2.72,2.72,0,0,0-1.22-2.12c-.68-.38-1.22-.07-1.22.71A2.67,2.67,0,0,0,140,214.41Z"/><path class="cls-6" d="M156.82,225l2.5,1.44c.38.22.68,0,.68-.51v-2.65a1.62,1.62,0,0,0-.68-1.3l-2.5-1.44c-.38-.22-.68,0-.68.51v2.65A1.62,1.62,0,0,0,156.82,225Z"/><path class="cls-5" d="M165.09,240.25a5.12,5.12,0,0,0-2.15-4.1L110,205.6c-1.18-.68-2.14,0-2.14,1.62v10.09a5.16,5.16,0,0,0,2.14,4.1L162.94,252c1.19.69,2.15,0,2.15-1.62Zm-2.58,7.34c0,.81-.49,1.17-1.09.83l-49.87-28.8a2.58,2.58,0,0,1-1.08-2.07V210c0-.8.48-1.17,1.08-.82l49.87,28.79a2.62,2.62,0,0,1,1.09,2.08Z"/><path class="cls-5" d="M161.42,237.93l-49.87-28.79c-.6-.35-1.08,0-1.08.82v7.59a2.58,2.58,0,0,0,1.08,2.07l49.87,28.8c.6.34,1.09,0,1.09-.83V240A2.62,2.62,0,0,0,161.42,237.93ZM122,221.79l-7.45-4.3a2.52,2.52,0,0,1-1-2c0-.78.47-1.14,1-.8L122,219a2.54,2.54,0,0,1,1,2C123,221.77,122.53,222.13,122,221.79Zm5.12,3a2.69,2.69,0,0,1-1.22-2.11c0-.78.54-1.1,1.22-.71a2.72,2.72,0,0,1,1.22,2.11C128.29,224.82,127.74,225.14,127.07,224.75Zm4.3,2.48a2.7,2.7,0,0,1-1.22-2.11c0-.78.55-1.09,1.22-.7a2.68,2.68,0,0,1,1.22,2.11C132.59,227.31,132,227.62,131.37,227.23Zm4.3,2.49a2.72,2.72,0,0,1-1.22-2.12c0-.77.55-1.09,1.22-.7a2.69,2.69,0,0,1,1.22,2.11C136.89,229.79,136.35,230.11,135.67,229.72Zm4.31-.34a2.72,2.72,0,0,1,1.22,2.12c0,.78-.55,1.09-1.22.7a2.67,2.67,0,0,1-1.22-2.11C138.76,229.31,139.3,229,140,229.38Zm20,14.3c0,.5-.3.73-.68.51l-2.5-1.44a1.62,1.62,0,0,1-.68-1.3V238.8c0-.5.3-.73.68-.51l2.5,1.44A1.62,1.62,0,0,1,160,241Z"/><path class="cls-10" d="M161.42,237.93l-49.87-28.79c-.6-.35-1.08,0-1.08.82v7.59a2.58,2.58,0,0,0,1.08,2.07l49.87,28.8c.6.34,1.09,0,1.09-.83V240A2.62,2.62,0,0,0,161.42,237.93ZM122,221.79l-7.45-4.3a2.52,2.52,0,0,1-1-2c0-.78.47-1.14,1-.8L122,219a2.54,2.54,0,0,1,1,2C123,221.77,122.53,222.13,122,221.79Zm5.12,3a2.69,2.69,0,0,1-1.22-2.11c0-.78.54-1.1,1.22-.71a2.72,2.72,0,0,1,1.22,2.11C128.29,224.82,127.74,225.14,127.07,224.75Zm4.3,2.48a2.7,2.7,0,0,1-1.22-2.11c0-.78.55-1.09,1.22-.7a2.68,2.68,0,0,1,1.22,2.11C132.59,227.31,132,227.62,131.37,227.23Zm4.3,2.49a2.72,2.72,0,0,1-1.22-2.12c0-.77.55-1.09,1.22-.7a2.69,2.69,0,0,1,1.22,2.11C136.89,229.79,136.35,230.11,135.67,229.72Zm4.31-.34a2.72,2.72,0,0,1,1.22,2.12c0,.78-.55,1.09-1.22.7a2.67,2.67,0,0,1-1.22-2.11C138.76,229.31,139.3,229,140,229.38Zm20,14.3c0,.5-.3.73-.68.51l-2.5-1.44a1.62,1.62,0,0,1-.68-1.3V238.8c0-.5.3-.73.68-.51l2.5,1.44A1.62,1.62,0,0,1,160,241Z"/><path class="cls-6" d="M122,219l-7.45-4.29c-.58-.34-1,0-1,.8a2.52,2.52,0,0,0,1,2l7.45,4.3c.58.34,1,0,1-.8A2.54,2.54,0,0,0,122,219Z"/><path class="cls-9" d="M127.07,221.93c-.68-.39-1.22-.07-1.22.71a2.69,2.69,0,0,0,1.22,2.11c.67.39,1.22.07,1.22-.71A2.72,2.72,0,0,0,127.07,221.93Z"/><path class="cls-9" d="M131.37,224.42c-.67-.39-1.22-.08-1.22.7a2.7,2.7,0,0,0,1.22,2.11c.67.39,1.22.08,1.22-.7A2.68,2.68,0,0,0,131.37,224.42Z"/><path class="cls-6" d="M135.67,226.9c-.67-.39-1.22-.07-1.22.7a2.72,2.72,0,0,0,1.22,2.12c.68.39,1.22.07,1.22-.71A2.69,2.69,0,0,0,135.67,226.9Z"/><path class="cls-9" d="M140,232.2c.67.39,1.22.08,1.22-.7a2.72,2.72,0,0,0-1.22-2.12c-.68-.38-1.22-.07-1.22.71A2.67,2.67,0,0,0,140,232.2Z"/><path class="cls-9" d="M159.32,239.73l-2.5-1.44c-.38-.22-.68,0-.68.51v2.65a1.62,1.62,0,0,0,.68,1.3l2.5,1.44c.38.22.68,0,.68-.51V241A1.62,1.62,0,0,0,159.32,239.73Z"/><path class="cls-5" d="M161.42,255.72l-49.87-28.79c-.6-.35-1.08,0-1.08.82v7.59a2.58,2.58,0,0,0,1.08,2.07L159.25,265v-1.9h0a.22.22,0,0,1,0-.08,1.82,1.82,0,0,1,.15-.54l.07-.13a1.13,1.13,0,0,1,.11-.22v0l0-.05a.51.51,0,0,1-.32-.07l-2.5-1.44a1.62,1.62,0,0,1-.68-1.3v-2.65c0-.5.3-.73.68-.51l2.5,1.44a1.62,1.62,0,0,1,.68,1.3v2.65a.59.59,0,0,1,0,.14,5.08,5.08,0,0,1,1.18-.94l1.35-.78V257.8A2.62,2.62,0,0,0,161.42,255.72ZM114.5,232.47l7.45,4.29a2.54,2.54,0,0,1,1,2c0,.78-.47,1.14-1,.8l-7.45-4.3a2.52,2.52,0,0,1-1-2C113.45,232.49,113.92,232.13,114.5,232.47Zm12.57,10.07a2.69,2.69,0,0,1-1.22-2.11c0-.78.54-1.1,1.22-.71a2.72,2.72,0,0,1,1.22,2.11C128.29,242.61,127.74,242.93,127.07,242.54Zm4.3,2.48a2.7,2.7,0,0,1-1.22-2.11c0-.78.55-1.09,1.22-.7a2.68,2.68,0,0,1,1.22,2.11C132.59,245.1,132,245.41,131.37,245Zm4.3,2.49a2.72,2.72,0,0,1-1.22-2.12c0-.77.55-1.09,1.22-.7a2.69,2.69,0,0,1,1.22,2.11C136.89,247.58,136.35,247.9,135.67,247.51ZM140,250a2.67,2.67,0,0,1-1.22-2.11c0-.78.54-1.09,1.22-.71a2.72,2.72,0,0,1,1.22,2.12C141.2,250.07,140.65,250.38,140,250Z"/><path class="cls-10" d="M161.42,255.72l-49.87-28.79c-.6-.35-1.08,0-1.08.82v7.59a2.58,2.58,0,0,0,1.08,2.07L159.25,265v-1.9h0a.22.22,0,0,1,0-.08,1.82,1.82,0,0,1,.15-.54l.07-.13a1.13,1.13,0,0,1,.11-.22v0l0-.05a.51.51,0,0,1-.32-.07l-2.5-1.44a1.62,1.62,0,0,1-.68-1.3v-2.65c0-.5.3-.73.68-.51l2.5,1.44a1.62,1.62,0,0,1,.68,1.3v2.65a.59.59,0,0,1,0,.14,5.08,5.08,0,0,1,1.18-.94l1.35-.78V257.8A2.62,2.62,0,0,0,161.42,255.72ZM114.5,232.47l7.45,4.29a2.54,2.54,0,0,1,1,2c0,.78-.47,1.14-1,.8l-7.45-4.3a2.52,2.52,0,0,1-1-2C113.45,232.49,113.92,232.13,114.5,232.47Zm12.57,10.07a2.69,2.69,0,0,1-1.22-2.11c0-.78.54-1.1,1.22-.71a2.72,2.72,0,0,1,1.22,2.11C128.29,242.61,127.74,242.93,127.07,242.54Zm4.3,2.48a2.7,2.7,0,0,1-1.22-2.11c0-.78.55-1.09,1.22-.7a2.68,2.68,0,0,1,1.22,2.11C132.59,245.1,132,245.41,131.37,245Zm4.3,2.49a2.72,2.72,0,0,1-1.22-2.12c0-.77.55-1.09,1.22-.7a2.69,2.69,0,0,1,1.22,2.11C136.89,247.58,136.35,247.9,135.67,247.51ZM140,250a2.67,2.67,0,0,1-1.22-2.11c0-.78.54-1.09,1.22-.71a2.72,2.72,0,0,1,1.22,2.12C141.2,250.07,140.65,250.38,140,250Z"/><path class="cls-6" d="M114.5,235.28l7.45,4.3c.58.34,1,0,1-.8a2.54,2.54,0,0,0-1-2l-7.45-4.29c-.58-.34-1,0-1,.8A2.52,2.52,0,0,0,114.5,235.28Z"/><path class="cls-7" d="M127.07,239.72c-.68-.39-1.22-.07-1.22.71a2.69,2.69,0,0,0,1.22,2.11c.67.39,1.22.07,1.22-.71A2.72,2.72,0,0,0,127.07,239.72Z"/><path class="cls-9" d="M131.37,242.21c-.67-.39-1.22-.08-1.22.7a2.7,2.7,0,0,0,1.22,2.11c.67.39,1.22.08,1.22-.7A2.68,2.68,0,0,0,131.37,242.21Z"/><path class="cls-6" d="M135.67,244.69c-.67-.39-1.22-.07-1.22.7a2.72,2.72,0,0,0,1.22,2.12c.68.39,1.22.07,1.22-.71A2.69,2.69,0,0,0,135.67,244.69Z"/><path class="cls-9" d="M140,247.17c-.68-.38-1.22-.07-1.22.71A2.67,2.67,0,0,0,140,250c.67.39,1.22.08,1.22-.7A2.72,2.72,0,0,0,140,247.17Z"/><path class="cls-5" d="M145.53,85.44a3.9,3.9,0,0,0,1.22.41v9.81a4.37,4.37,0,0,0-1.41.49L129,105.56a1.78,1.78,0,0,0-1,1.21,1.17,1.17,0,0,0,.69,1.13h0l0,0a2.07,2.07,0,0,1,.24-.17l16.32-9.42a4.37,4.37,0,0,1,1.41-.49v9.05a.8.8,0,0,0,1.6,0V97.84a3,3,0,0,1,1,.34l5.18,3v10.38a.8.8,0,1,0,1.6,0v-9.45l6.21,3.6v10.51a.8.8,0,0,0,1.6,0v-9.59l6.21,3.6v10.66a.8.8,0,0,0,1.6,0v-9.73l17.89,10.37h0c.11-.09.22-.18.31-.27h0a1.74,1.74,0,0,0,.22-.27l0,0a1.59,1.59,0,0,0,.12-.27s0,0,0,0a.93.93,0,0,0,0-.23v-.09a.69.69,0,0,0,0-.2s0-.08,0-.12a.71.71,0,0,0-.08-.15,1,1,0,0,0-.12-.16l-.1-.11a1.65,1.65,0,0,0-.32-.23L171.78,109V99.84a3.9,3.9,0,0,0,1.22-.41,1.47,1.47,0,0,0,.82-1.09s0,0,0-.08V92.13a7.35,7.35,0,0,1-5.71,0v6.13h0a1.44,1.44,0,0,0,.84,1.17,3.82,3.82,0,0,0,1.22.41V108l-6.21-3.6V95.17a3.45,3.45,0,0,0,1.22-.41,1.57,1.57,0,0,0,.79-.89.86.86,0,0,0,.05-.27V87.47a7.46,7.46,0,0,1-5.72,0V93.6h0a1.41,1.41,0,0,0,.84,1.16,3.38,3.38,0,0,0,1.22.41v8.34l-6.21-3.6v-9.4a3.59,3.59,0,0,0,1.22-.41,1.73,1.73,0,0,0,.72-.73,1,1,0,0,0,.12-.43V82.81a7.46,7.46,0,0,1-5.72,0v6.13h0a1.41,1.41,0,0,0,.84,1.16,3.66,3.66,0,0,0,1.22.41V99l-5.18-3a3,3,0,0,0-1-.34V85.85a3.82,3.82,0,0,0,1.22-.41,2.06,2.06,0,0,0,.6-.51,1.14,1.14,0,0,0,.24-.66V78.14a7.35,7.35,0,0,1-5.71,0v6.13h0a.93.93,0,0,0,.09.4A1.69,1.69,0,0,0,145.53,85.44Zm23.76,9.4a2,2,0,0,1,.89,1.55c0,.56-.4.79-.89.51a1.93,1.93,0,0,1-.89-1.54C168.4,94.79,168.79,94.56,169.29,94.84Zm-8.73-4.23c0-.57.4-.8.89-.52a2,2,0,0,1,.89,1.55c0,.56-.4.79-.89.51A2,2,0,0,1,160.56,90.61Zm-7.83-4.75c0-.57.4-.8.89-.52a2,2,0,0,1,.89,1.55c0,.56-.4.79-.89.51A2,2,0,0,1,152.73,85.86Zm-6.94-5.27a2,2,0,0,1,.89,1.55c0,.56-.4.79-.89.51a1.93,1.93,0,0,1-.89-1.54C144.9,80.54,145.29,80.31,145.79,80.59Z"/><path class="cls-4" d="M150.41,78.14v-2a7.35,7.35,0,0,1-5.71,0v2A7.35,7.35,0,0,0,150.41,78.14Z"/><path class="cls-5" d="M150.41,76.18a3.13,3.13,0,0,0,.32-.15v2.73h0a2.3,2.3,0,0,0,1.36,1.89l.41.2a7.46,7.46,0,0,0,5.72,0,3.18,3.18,0,0,0,.32-.16v2.73a2.28,2.28,0,0,0,1.36,1.89,3.91,3.91,0,0,0,.41.2,7.46,7.46,0,0,0,5.72,0l.32-.15v2.72h0A2.29,2.29,0,0,0,167.7,90a3.23,3.23,0,0,0,.42.2,7.35,7.35,0,0,0,5.71,0,3.64,3.64,0,0,0,1-.61L142.92,71.13v3h0A2.31,2.31,0,0,0,144.28,76c.13.07.28.13.42.19A7.35,7.35,0,0,0,150.41,76.18Z"/><path class="cls-4" d="M152.5,80.85v2a7.46,7.46,0,0,0,5.72,0v-2A7.46,7.46,0,0,1,152.5,80.85Z"/><path class="cls-4" d="M160.31,85.51v2a7.46,7.46,0,0,0,5.72,0v-2A7.46,7.46,0,0,1,160.31,85.51Z"/><path class="cls-4" d="M168.12,90.17v2a7.35,7.35,0,0,0,5.71,0v-2A7.35,7.35,0,0,1,168.12,90.17Z"/><path class="cls-5" d="M209.73,101.52l.15-.26Z"/><path class="cls-5" d="M210.78,98.45c.05-.27.09-.55.12-.83C210.87,97.9,210.83,98.18,210.78,98.45Z"/><path class="cls-5" d="M210.12,100.73c.06-.14.12-.29.17-.44C210.24,100.44,210.18,100.59,210.12,100.73Z"/><path class="cls-5" d="M210.46,99.81a9.16,9.16,0,0,0,.25-1A9.16,9.16,0,0,1,210.46,99.81Z"/><path class="cls-5" d="M207.27,104.1l0,0,0,0Z"/><path class="cls-5" d="M122.38,22.16h0Z"/><path class="cls-5" d="M127.11,23.52Z"/><path class="cls-5" d="M118.19,22.65l-.08,0Z"/><path class="cls-5" d="M123.91,22.41l-.42-.07Z"/><path class="cls-5" d="M125.49,22.86l-.43-.12Z"/><path class="cls-5" d="M119.51,22.29l-.16,0Z"/><path class="cls-5" d="M127.08,22.09v.06a23.35,23.35,0,0,1,.52-5.06l-7.46,4.29A11.65,11.65,0,0,1,127.08,22.09Z"/><path class="cls-5" d="M120.66,22.14l.25,0Z"/><path class="cls-5" d="M192.24,62.62a39.76,39.76,0,0,1,2.94,9,12.52,12.52,0,0,1,4.29,1.59C206.4,77.23,212,87,212,95c0,3.59-1.15,6.22-3,7.66a6.25,6.25,0,0,1-1.65,1.44l12.24-7.21h0l.08,0h0c2.21-1.33,3.58-4.11,3.58-8.06,0-8-5.62-17.72-12.54-21.72a12.52,12.52,0,0,0-4.29-1.59,40.85,40.85,0,0,0-3.94-11.06c.3.57.58,1.14.85,1.72Z"/><path class="cls-5" d="M162.14,4c.33.23.65.47,1,.71C162.79,4.5,162.47,4.26,162.14,4Z"/><path class="cls-5" d="M200.47,50.85c.35.55.68,1.1,1,1.66C201.15,52,200.82,51.4,200.47,50.85Z"/><path class="cls-5" d="M201.52,52.59c.32.55.63,1.11.92,1.67C202.15,53.69,201.84,53.14,201.52,52.59Z"/><path class="cls-5" d="M191.08,63.31a42.55,42.55,0,0,1,2.09,5.37,42.55,42.55,0,0,0-2.09-5.37Z"/><path class="cls-5" d="M168.78,43.46a14.15,14.15,0,0,1,2.63.47,14.15,14.15,0,0,0-2.63-.47Z"/><path class="cls-5" d="M169.8,42.47A17.6,17.6,0,0,1,177.17,45,36.07,36.07,0,0,1,188.3,55.69l11-6.51c.38.54.75,1.09,1.1,1.64a42.3,42.3,0,0,0-4.74-6.14l-.29-.31c-.42-.44-.85-.87-1.28-1.28l-.47-.44c-.39-.35-.79-.7-1.19-1l-.54-.46c-.41-.32-.82-.63-1.23-.92-.17-.13-.34-.26-.52-.38-.58-.4-1.17-.78-1.77-1.13l-1-.55h0c-.33-.17-.65-.32-1-.47h0A16.21,16.21,0,0,0,181,36.24c-1-11.28-8.12-23.91-17.2-31l-11,6.45C161.83,18.82,168.76,31.31,169.8,42.47Z"/><path class="cls-5" d="M211,96c0,.44,0,.87-.06,1.28C211,96.82,211,96.39,211,96Z"/><path class="cls-5" d="M136,7.53l-.17,0Z"/><path class="cls-5" d="M141.15,7.45l-.24,0Z"/><path class="cls-5" d="M137.85,7.25h0Z"/><path class="cls-5" d="M160.26,2.85q-.51-.3-1-.57h0L159,2.14C159.39,2.36,159.82,2.59,160.26,2.85Z"/><path class="cls-5" d="M142.32,7.7,142,7.61Z"/><path class="cls-5" d="M138.76,7.22h0Z"/><path class="cls-5" d="M135,7.8l-.11,0Z"/><path class="cls-5" d="M143.9,6.86,154.68.5a20.91,20.91,0,0,1,4,1.5l-.43-.21-.46-.2-.53-.23-.47-.18L156.27,1l-.46-.16-.49-.16-.46-.12-.49-.13-.45-.1-.47-.09L153,.16c-.16,0-.31,0-.47-.06l-.42,0-.46,0-.42,0h-.85L150,0l-.39,0-.44.06-.36.06-.44.1L148,.37l-.45.13-.3.09-.49.19-.24.09-.7.34h0l-.18.1-.29.17-8.76,5.18A13.26,13.26,0,0,1,143.9,6.86Z"/><path class="cls-5" d="M136.89,7.35l-.19,0Z"/><path class="cls-5" d="M187.09,56.41h0a41.91,41.91,0,0,0-4.73-5.64A41.91,41.91,0,0,1,187.09,56.41Z"/><path class="cls-5" d="M174.21,45a21.21,21.21,0,0,1,1.94,1,29.53,29.53,0,0,1,4.73,3.43A29.53,29.53,0,0,0,176.15,46,21.21,21.21,0,0,0,174.21,45Z"/><path class="cls-6" d="M154.68.5,143.9,6.86A23,23,0,0,1,149,9.08a32,32,0,0,1,3.87,2.65l11-6.45h0c-.24-.19-.49-.36-.74-.54s-.64-.48-1-.71c-.62-.42-1.24-.82-1.88-1.18-.44-.26-.87-.49-1.31-.71L158.67,2A20.91,20.91,0,0,0,154.68.5Z"/><path class="cls-6" d="M199.35,49.18l-11,6.51a45.63,45.63,0,0,1,3.94,6.93l11.1-6.55c-.27-.58-.55-1.15-.85-1.72a.41.41,0,0,0-.05-.09c-.29-.56-.6-1.12-.92-1.67l0-.08c-.33-.56-.66-1.11-1-1.66l0,0C200.1,50.27,199.73,49.72,199.35,49.18Z"/><path class="cls-6" d="M174.84,89.56l23.61,13.63c3.44,2,6.55,2.18,8.81.91l0,0,0,0a6.25,6.25,0,0,0,1.65-1.44h0a6.61,6.61,0,0,0,.74-1.1l.15-.26c.08-.17.16-.34.24-.53s.12-.29.17-.44.12-.31.17-.48a9.16,9.16,0,0,0,.25-1c0-.13,0-.26.07-.39s.09-.55.12-.83,0-.26,0-.39c0-.41.06-.84.06-1.28a23.72,23.72,0,0,0-2.15-9.34,29.49,29.49,0,0,0-1.53-3c-.28-.5-.58-1-.89-1.45a24.79,24.79,0,0,0-8-7.92,12.52,12.52,0,0,0-4.29-1.59c-.12-.65-.27-1.31-.43-2s-.35-1.32-.56-2a42.55,42.55,0,0,0-2.09-5.37h0a46.92,46.92,0,0,0-2.26-4.26c-.37-.61-.75-1.22-1.15-1.81l-.58-.83h0a41.91,41.91,0,0,0-4.73-5.64c-.49-.48-1-.94-1.48-1.38A29.53,29.53,0,0,0,176.15,46a21.21,21.21,0,0,0-1.94-1,17.81,17.81,0,0,0-1.88-.74c-.31-.11-.61-.2-.92-.28a14.15,14.15,0,0,0-2.63-.47h0A44.39,44.39,0,0,0,163.3,26.6a47.69,47.69,0,0,0-9.5-12.23,34.1,34.1,0,0,0-5.8-4.3,22.51,22.51,0,0,0-5.68-2.37L142,7.61l-.81-.16-.24,0a13.63,13.63,0,0,0-2.08-.19h-.07c-.31,0-.61,0-.91,0h-.18l-.78.09-.19,0q-.37.06-.75.15l-.17,0c-.26.07-.51.14-.76.23l-.11,0a10.12,10.12,0,0,0-3.2,1.84,13.29,13.29,0,0,0-4.11,7.42,23.35,23.35,0,0,0-.52,5.06c0,.45,0,.91,0,1.37h0c-.55-.25-1.08-.46-1.61-.65l-.43-.12c-.39-.13-.77-.24-1.15-.33l-.42-.07c-.37-.07-.75-.14-1.11-.18H122a10.87,10.87,0,0,0-1.13,0l-.25,0a8.39,8.39,0,0,0-1.15.15l-.16,0a10.39,10.39,0,0,0-1.16.33l-.08,0a9,9,0,0,0-1.13.53l0,0a8.51,8.51,0,0,0-1.07.74h0c-2.38,2-3.82,5.39-3.82,10,0,10.66,7.48,23.61,16.71,28.94l14.15,8.17ZM130.52,59.93c-8.11-4.68-15-16.55-15-25.91,0-3.67,1.08-6.47,3-7.67a5.07,5.07,0,0,1,2.78-.75,10.48,10.48,0,0,1,4.33,1.1l5.23,2.43-.26-5.77c0-.41,0-.81,0-1.21,0-5.15,1.55-8.88,4.37-10.51s6.84-1.11,11.3,1.47c9.59,5.53,17.95,19,19,30.68l.28,2.94,2.94.22a14.23,14.23,0,0,1,5.89,2c7.62,4.4,14.48,14.62,16.32,24.3l.46,2.42,2.44.38a9.4,9.4,0,0,1,3.08,1.16c5.85,3.38,10.79,11.94,10.79,18.7,0,2.53-.7,4.38-1.92,5.09s-3.18.38-5.37-.88Z"/><path class="cls-7" d="M117,23.24l0,0a9,9,0,0,1,1.13-.53l.08,0a10.39,10.39,0,0,1,1.16-.33l.16,0a8.39,8.39,0,0,1,1.15-.15l.25,0a10.87,10.87,0,0,1,1.13,0h.34c.36,0,.74.11,1.11.18l.42.07c.38.09.76.2,1.15.33l.43.12c.53.19,1.06.4,1.61.65h0c0-.46,0-.92,0-1.37v-.06a11.65,11.65,0,0,0-6.94-.71,8.08,8.08,0,0,0-4.26,2.6h0A8.51,8.51,0,0,1,117,23.24Z"/><path class="cls-7" d="M134.91,7.83l.11,0c.25-.09.5-.16.76-.23l.17,0q.38-.09.75-.15l.19,0,.78-.09h.18c.3,0,.6,0,.91,0h.07a13.63,13.63,0,0,1,2.08.19l.24,0,.81.16.36.09A22.51,22.51,0,0,1,148,10.07a34.1,34.1,0,0,1,5.8,4.3,47.69,47.69,0,0,1,9.5,12.23,44.39,44.39,0,0,1,5.48,16.86h0a14.15,14.15,0,0,1,2.63.47c.31.08.61.17.92.28a17.81,17.81,0,0,1,1.88.74,21.21,21.21,0,0,1,1.94,1,29.53,29.53,0,0,1,4.73,3.43c.5.44,1,.9,1.48,1.38a41.91,41.91,0,0,1,4.73,5.64l.58.83c.4.59.78,1.2,1.15,1.81a46.92,46.92,0,0,1,2.26,4.26,42.55,42.55,0,0,1,2.09,5.37c.21.66.39,1.32.56,2s.31,1.32.43,2a12.52,12.52,0,0,1,4.29,1.59,24.79,24.79,0,0,1,8,7.92c.31.47.61,1,.89,1.45a29.49,29.49,0,0,1,1.53,3A23.72,23.72,0,0,1,211,96c0,.44,0,.87-.06,1.28,0,.13,0,.26,0,.39s-.07.56-.12.83,0,.26-.07.39a9.16,9.16,0,0,1-.25,1c-.05.17-.11.33-.17.48s-.11.3-.17.44-.16.36-.24.53l-.15.26a6.61,6.61,0,0,1-.74,1.1h0c1.88-1.44,3-4.07,3-7.66,0-8-5.62-17.73-12.55-21.73a12.52,12.52,0,0,0-4.29-1.59,39.76,39.76,0,0,0-2.94-9,45.63,45.63,0,0,0-3.94-6.93A36.07,36.07,0,0,0,177.17,45a17.6,17.6,0,0,0-7.37-2.49c-1-11.16-8-23.65-16.91-30.74A32,32,0,0,0,149,9.08a23,23,0,0,0-5.12-2.22,13.26,13.26,0,0,0-7.33-.21,10,10,0,0,0-4.86,3h0A10.12,10.12,0,0,1,134.91,7.83Z"/><path class="cls-4" d="M200.2,100.16c2.19,1.26,4.15,1.58,5.37.88s1.92-2.56,1.92-5.09c0-6.76-4.94-15.32-10.79-18.7a9.4,9.4,0,0,0-3.08-1.16l-2.44-.38-.46-2.42c-1.84-9.68-8.7-19.9-16.32-24.3a14.23,14.23,0,0,0-5.89-2l-2.94-.22-.28-2.94c-1.09-11.67-9.45-25.15-19-30.68-4.46-2.58-8.47-3.1-11.3-1.47s-4.37,5.36-4.37,10.51c0,.4,0,.8,0,1.21l.26,5.77-5.23-2.43a10.48,10.48,0,0,0-4.33-1.1,5.07,5.07,0,0,0-2.78.75c-1.89,1.2-3,4-3,7.67,0,9.36,6.85,21.23,15,25.91ZM145.92,53.21c-.6-.36-.93-1.32-.53-1.57l9.4-6a.31.31,0,0,1,.12-.05h0l1.79-.9h0c.41-.24,1.11.18,1.51.91l9.34,17.08c.25.46.21.86,0,1h0l-1.86.93h0a.5.5,0,0,1-.54-.06L162.54,63l0,5.88a.59.59,0,0,1-.28.57h0l-1.83.92a.54.54,0,0,1-.57,0l-8.7-5.13a1.83,1.83,0,0,1-.8-1.46l0-7.91Z"/><path class="cls-5" d="M156.33,46.49l9.33,17.08c.25.45.21.85,0,1l1.86-.93h0c.22-.14.26-.54,0-1l-9.34-17.08c-.4-.73-1.1-1.15-1.51-.91h0l-1.79.9h0C155.33,45.41,156,45.82,156.33,46.49Z"/><polygon class="cls-5" points="165.66 64.57 165.66 64.56 165.66 64.56 165.66 64.57"/><path class="cls-5" d="M160.65,69.81a.64.64,0,0,1-.23.56l1.83-.92h0a.59.59,0,0,0,.28-.57l0-5.88-1.87-1.1Z"/><path class="cls-6" d="M151.15,65.2l8.7,5.13a.54.54,0,0,0,.57,0,.64.64,0,0,0,.23-.56l0-7.92,1.87,1.1,2.58,1.52a.5.5,0,0,0,.54.06h0c.21-.14.25-.54,0-1l-9.33-17.08c-.37-.67-1-1.08-1.42-1a.31.31,0,0,0-.12.05l-9.4,6c-.4.25-.07,1.21.53,1.57l4.45,2.62,0,7.91A1.83,1.83,0,0,0,151.15,65.2Z"/><path class="cls-7" d="M191.29,243.28V225.8h0l14.45-8.27a4.2,4.2,0,0,0,1.3-1.29,5.94,5.94,0,0,0,.63-1.2,5.59,5.59,0,0,0,.4-2v-8.21a3.24,3.24,0,0,0-.08-.72.83.83,0,0,0,0-.15,2.09,2.09,0,0,0-.19-.48.21.21,0,0,0,0-.06,1.25,1.25,0,0,0-.85-.6,2.3,2.3,0,0,1,.59,1.71v8.2a5.58,5.58,0,0,1-2.34,4.46l-13.83,7.92v-29h0l14.45-8.27a3.58,3.58,0,0,0,.9-.77,5.92,5.92,0,0,0,1-1.72,5.59,5.59,0,0,0,.4-2v-8.21a3.24,3.24,0,0,0-.08-.72.83.83,0,0,0,0-.15,2.09,2.09,0,0,0-.19-.48.21.21,0,0,0,0-.06,1.25,1.25,0,0,0-.85-.6,2.3,2.3,0,0,1,.59,1.71v8.2a5.58,5.58,0,0,1-2.34,4.46l-13.83,7.92v-4.3l.51-.3a1.21,1.21,0,0,0,.51-1v-.5l3.92-2.26v.5c0,.38.22.55.5.39l2.11-1.21a1.24,1.24,0,0,0,.51-1v-2.24c0-.38-.23-.55-.51-.39l-.52.3v-21h0l7.42-4.25a3.46,3.46,0,0,0,.47-.34,4.57,4.57,0,0,0,.83-1,5.94,5.94,0,0,0,.63-1.2,5.59,5.59,0,0,0,.4-2V145.6a3.24,3.24,0,0,0-.08-.72.83.83,0,0,0,0-.15,2.09,2.09,0,0,0-.19-.48.21.21,0,0,0,0-.06,1.25,1.25,0,0,0-.85-.6,2.3,2.3,0,0,1,.59,1.71v8.2a5.58,5.58,0,0,1-2.34,4.46l-6.8,3.9v-4.35l.52-.29a1.24,1.24,0,0,0,.51-1V154c0-.38-.23-.55-.51-.39l-2.11,1.21a1.23,1.23,0,0,0-.5,1V158c0,.38.22.55.5.39l.52-.3v4.34l-15.06,8.62a1.68,1.68,0,0,1-1.14.25,1.16,1.16,0,0,0,.36.23h0a1.24,1.24,0,0,0,.39.09h0a1.36,1.36,0,0,0,.39,0l.08,0a1.86,1.86,0,0,0,.49-.21l14.45-8.27h0v21l-.52.29a1.23,1.23,0,0,0-.5,1v.51l-3.92,2.25v-.5c0-.38-.22-.55-.51-.39l-2.1,1.22a1.21,1.21,0,0,0-.51,1v2.25c0,.37.23.54.51.38l.52-.3v4.3l-8,4.6a1.68,1.68,0,0,1-1.14.25,1.16,1.16,0,0,0,.36.23h0a1.24,1.24,0,0,0,.39.09h0a1.36,1.36,0,0,0,.39,0l.08,0a1.86,1.86,0,0,0,.49-.21l7.42-4.25h0v29l-8,4.6a1.68,1.68,0,0,1-1.14.25,1.16,1.16,0,0,0,.36.23h0a1.24,1.24,0,0,0,.39.09h0a1.36,1.36,0,0,0,.39,0l.08,0a1.86,1.86,0,0,0,.49-.21l7.42-4.25h0v17.48Z"/><path class="cls-4" d="M86.19,227.3,54.6,245.54a8.75,8.75,0,0,1-1.07.5V257.6a7.44,7.44,0,0,0,1.07-.49l20.6-11.9,11-6.34a4.57,4.57,0,0,0,1.35-1.13,2.32,2.32,0,0,0,.56-1.52V224.88h0A3.31,3.31,0,0,1,86.19,227.3ZM74.74,241.43c-.73.42-1.32.08-1.32-.76a2.92,2.92,0,0,1,1.32-2.29c.73-.42,1.32-.08,1.32.76A2.91,2.91,0,0,1,74.74,241.43ZM79,239c-.73.42-1.32.08-1.32-.76A2.91,2.91,0,0,1,79,235.93c.73-.42,1.33-.08,1.33.76A2.93,2.93,0,0,1,79,239Zm5.58-4.75a2.91,2.91,0,0,1-1.32,2.29c-.73.43-1.33.08-1.33-.76a2.93,2.93,0,0,1,1.33-2.29C84,233.05,84.57,233.39,84.57,234.23Z"/><path class="cls-4" d="M52.74,257.87l-.36.08Z"/><path class="cls-4" d="M51.8,258.07l-.43.06Z"/><path class="cls-4" d="M50.83,258.18l-.42,0Z"/><path class="cls-4" d="M50.4,258.21Z"/><path class="cls-4" d="M25.6,245.21l21.16,12.22c.16.09.34.16.51.24V246.1l-.51-.23-31.19-18v11.57L14,238.54l.86.5,1.6.92Zm18.17,2.23a2,2,0,0,1,.88,1.54c0,.57-.39.8-.88.52a2,2,0,0,1-.89-1.54C42.88,247.39,43.27,247.16,43.77,247.44Zm0,3.33a2,2,0,0,1,.88,1.54c0,.57-.39.8-.88.52a2,2,0,0,1-.89-1.54C42.88,250.72,43.27,250.49,43.77,250.77ZM41,245.86a2,2,0,0,1,.89,1.54c0,.57-.4.8-.89.52a2,2,0,0,1-.89-1.54C40.12,245.81,40.52,245.58,41,245.86Zm0,3.33a2,2,0,0,1,.89,1.54c0,.57-.4.8-.89.52a2,2,0,0,1-.89-1.54C40.12,249.14,40.52,248.91,41,249.19Z"/><path class="cls-4" d="M48.22,258l.24.07.17,0Z"/><path class="cls-4" d="M49.21,258.15a1.46,1.46,0,0,0,.22,0l.36,0Z"/><path class="cls-4" d="M47.4,257.73l.16.07.22.06Z"/><path class="cls-5" d="M15.57,239.42V227.85L14,227a2.23,2.23,0,0,1-1.33-2.14h0v11.61a2.26,2.26,0,0,0,1.34,2.1Z"/><path class="cls-5" d="M47.27,246.1v11.57h0l.13.05.38.13a3.17,3.17,0,0,0,.44.12l.41.1.58.07.58.05h.62l.42,0,.54-.05.43-.06.58-.12.36-.08c.27-.08.53-.16.79-.26h0V246A8.94,8.94,0,0,1,47.27,246.1Z"/><path class="cls-6" d="M14,227l1.53.88,31.19,18,.51.23a8.94,8.94,0,0,0,6.26-.06,8.75,8.75,0,0,0,1.07-.5L86.19,227.3a3.31,3.31,0,0,0,1.9-2.42,2.24,2.24,0,0,0-1.34-2.1l-2-1.14-3.33,1.93c1,1,.61,2.37-1.06,3.34L53.92,242.19a7.32,7.32,0,0,1-6.57.28L19.93,226.63a1.79,1.79,0,0,1-.5-3l-3.42-2-1.4.81a3.36,3.36,0,0,0-1.9,2.38A2.23,2.23,0,0,0,14,227Z"/><path class="cls-5" d="M54.6,239.07a7.44,7.44,0,0,1-1.07.49V228a8.83,8.83,0,0,1-6.26.06v11.57a4.67,4.67,0,0,1-.51-.23L19.43,223.61a1.79,1.79,0,0,0,.5,3l27.42,15.84a7.32,7.32,0,0,0,6.57-.28l26.47-15.28c1.67-1,2.06-2.36,1.06-3.34Zm-6,1-.16,0-.24-.07A2.88,2.88,0,0,0,48.62,240Zm1.17.13-.36,0a1.81,1.81,0,0,1-.23,0Zm-2-.34-.22-.06-.15-.07Zm2.57.35h0Zm.06,0,.42,0Zm2.33-.33-.36.08Zm-.94.2-.43.06Z"/><path class="cls-6" d="M74.74,238.38a2.92,2.92,0,0,0-1.32,2.29c0,.84.59,1.18,1.32.76a2.91,2.91,0,0,0,1.32-2.29C76.06,238.3,75.47,238,74.74,238.38Z"/><path class="cls-6" d="M79,235.93a2.91,2.91,0,0,0-1.32,2.29c0,.84.59,1.18,1.32.76a2.93,2.93,0,0,0,1.33-2.29C80.32,235.85,79.72,235.51,79,235.93Z"/><path class="cls-6" d="M83.25,233.47a2.93,2.93,0,0,0-1.33,2.29c0,.84.6,1.19,1.33.76a2.91,2.91,0,0,0,1.32-2.29C84.57,233.39,84,233.05,83.25,233.47Z"/><path class="cls-4" d="M86.19,209.26,54.6,227.5a7.44,7.44,0,0,1-1.07.49v11.57a7.44,7.44,0,0,0,1.07-.49l26.85-15.5,3.33-1.93,1.41-.81c1.34-.77,2-1.77,1.91-2.71V206.84h0A3.31,3.31,0,0,1,86.19,209.26Zm-2.94,6.17c.73-.42,1.32-.08,1.32.76a2.91,2.91,0,0,1-1.32,2.29c-.73.42-1.33.08-1.33-.76A2.93,2.93,0,0,1,83.25,215.43Zm-7.19,5.67a2.91,2.91,0,0,1-1.32,2.29c-.73.42-1.32.08-1.32-.76a2.92,2.92,0,0,1,1.32-2.29C75.47,219.92,76.06,220.26,76.06,221.1Zm2.93-.16c-.73.42-1.32.08-1.32-.77A2.91,2.91,0,0,1,79,217.89c.73-.43,1.33-.08,1.33.76A2.93,2.93,0,0,1,79,220.94Z"/><path class="cls-4" d="M50.41,240.16l.42,0Z"/><path class="cls-4" d="M52.38,239.91l.36-.08Z"/><path class="cls-4" d="M51.37,240.09l.43-.06Z"/><path class="cls-4" d="M47.78,239.82l-.37-.13.15.07Z"/><path class="cls-4" d="M48.62,240a2.88,2.88,0,0,1-.4-.09l.24.07Z"/><path class="cls-4" d="M49.79,240.16l-.59,0a1.81,1.81,0,0,0,.23,0Z"/><path class="cls-4" d="M50.35,240.17h0Z"/><polygon class="cls-4" points="12.71 206.79 12.7 206.79 12.71 206.79 12.71 206.79"/><path class="cls-4" d="M46.76,239.39a4.67,4.67,0,0,0,.51.23V228.05a4.67,4.67,0,0,1-.51-.23l-31.19-18v11.57l.44.26,3.42,2Zm-4.86-9.94c0,.57-.4.8-.89.51a2,2,0,0,1-.89-1.54c0-.56.4-.79.89-.51A2,2,0,0,1,41.9,229.45Zm-1.78,2.3c0-.56.4-.79.89-.51a2,2,0,0,1,.89,1.54c0,.57-.4.8-.89.51A2,2,0,0,1,40.12,231.75Zm3.65-2.26a2,2,0,0,1,.88,1.54c0,.57-.39.8-.88.52a2,2,0,0,1-.89-1.54C42.88,229.44,43.27,229.21,43.77,229.49Zm0,3.33a2,2,0,0,1,.88,1.54c0,.57-.39.8-.88.52a2,2,0,0,1-.89-1.54C42.88,232.77,43.27,232.54,43.77,232.82Z"/><path class="cls-5" d="M14,208.93a2.23,2.23,0,0,1-1.33-2.14h0V218.4A2.26,2.26,0,0,0,14,220.5l1.53.88h0V209.81Z"/><path class="cls-6" d="M14,208.93l1.53.88,31.19,18a4.67,4.67,0,0,0,.51.23,8.83,8.83,0,0,0,6.26-.06,7.44,7.44,0,0,0,1.07-.49l31.59-18.24a3.31,3.31,0,0,0,1.9-2.42,2.24,2.24,0,0,0-1.34-2.1l-2-1.14-3.33,1.92c1,1,.61,2.38-1.06,3.35L53.92,224.15a7.29,7.29,0,0,1-6.57.27L19.93,208.59a1.79,1.79,0,0,1-.5-3l-3.42-2-1.4.81a3.34,3.34,0,0,0-1.9,2.38h0A2.23,2.23,0,0,0,14,208.93Z"/><path class="cls-5" d="M54.6,221a7.44,7.44,0,0,1-1.07.49V210a9.67,9.67,0,0,1-4.15.58,6.88,6.88,0,0,1-2.11-.52v11.57a4.67,4.67,0,0,1-.51-.23L19.43,205.57a1.79,1.79,0,0,0,.5,3l27.42,15.83a7.29,7.29,0,0,0,6.57-.27l26.47-15.28c1.67-1,2.06-2.36,1.06-3.35Zm-6,1-.16,0-.24-.07Zm1.17.13-.36,0-.23,0Zm-2-.34-.22-.06-.15-.07Zm2.57.35h0Zm.06,0,.42,0Zm2.33-.34-.36.09Zm-.94.21-.43.06Z"/><path class="cls-6" d="M74.74,220.34a2.92,2.92,0,0,0-1.32,2.29c0,.84.59,1.18,1.32.76a2.91,2.91,0,0,0,1.32-2.29C76.06,220.26,75.47,219.92,74.74,220.34Z"/><path class="cls-6" d="M79,217.89a2.91,2.91,0,0,0-1.32,2.28c0,.85.59,1.19,1.32.77a2.93,2.93,0,0,0,1.33-2.29C80.32,217.81,79.72,217.46,79,217.89Z"/><path class="cls-6" d="M83.25,218.48a2.91,2.91,0,0,0,1.32-2.29c0-.84-.59-1.18-1.32-.76a2.93,2.93,0,0,0-1.33,2.29C81.92,218.56,82.52,218.9,83.25,218.48Z"/><path class="cls-4" d="M88.08,188.94a2.83,2.83,0,0,1-.15.53l-.09.16a2.84,2.84,0,0,1-.25.39,1.39,1.39,0,0,1-.15.19,3.23,3.23,0,0,1-.37.37l-.18.16a6.58,6.58,0,0,1-.7.48L54.6,209.46a7.44,7.44,0,0,1-1.07.49v11.57A7.44,7.44,0,0,0,54.6,221l26.85-15.51,3.33-1.92,1.41-.81c1.34-.78,2-1.78,1.91-2.71V188.79h0A.76.76,0,0,1,88.08,188.94Zm-4.83,8.45c.73-.42,1.32-.08,1.32.76a2.91,2.91,0,0,1-1.32,2.29c-.73.42-1.33.08-1.33-.76A2.93,2.93,0,0,1,83.25,197.39Zm-7.19,5.67a2.91,2.91,0,0,1-1.32,2.29c-.73.42-1.32.08-1.32-.76a2.92,2.92,0,0,1,1.32-2.29C75.47,201.88,76.06,202.22,76.06,203.06ZM79,202.9c-.73.42-1.32.08-1.32-.77A2.94,2.94,0,0,1,79,199.84c.73-.42,1.33-.07,1.33.77A2.93,2.93,0,0,1,79,202.9Z"/><path class="cls-4" d="M51.37,222.05l.43-.06Z"/><path class="cls-4" d="M52.38,221.87l.36-.09Z"/><path class="cls-4" d="M50.41,222.12l.42,0Z"/><path class="cls-4" d="M48.62,222l-.4-.09.24.07Z"/><path class="cls-4" d="M49.79,222.12l-.59-.05.23,0Z"/><path class="cls-4" d="M47.78,221.78l-.37-.13.15.07Z"/><path class="cls-4" d="M50.35,222.13h0Z"/><path class="cls-4" d="M46.76,221.35a4.67,4.67,0,0,0,.51.23V210a4.67,4.67,0,0,1-.51-.23L30.4,200.34l-14.83-8.57v11.57L14,202.46l2,1.14,3.42,2Zm-5.75-6a2,2,0,0,1-.89-1.54c0-.56.4-.79.89-.51a2,2,0,0,1,.89,1.54C41.9,215.4,41.5,215.63,41,215.34Zm2.76,1.58a1.93,1.93,0,0,1-.89-1.54c0-.56.39-.79.89-.51a2,2,0,0,1,.88,1.54C44.65,217,44.26,217.21,43.77,216.92Zm0-3.32a2,2,0,0,1-.89-1.54c0-.57.39-.8.89-.52a2,2,0,0,1,.88,1.54C44.65,213.65,44.26,213.88,43.77,213.6Zm-1.87-2.1c0,.57-.4.8-.89.51a2,2,0,0,1-.89-1.54c0-.56.4-.79.89-.51A2,2,0,0,1,41.9,211.5Z"/><path class="cls-5" d="M15.57,191.77,14,190.89h0a3.24,3.24,0,0,1-.57-.42l-.13-.12a2.24,2.24,0,0,1-.34-.42l-.05-.06a2,2,0,0,1-.2-.51.68.68,0,0,1,0-.14.7.7,0,0,1,0-.14v11.28a2.27,2.27,0,0,0,1.34,2.1l1.53.88Z"/><path class="cls-5" d="M12.71,188.75h0v.17a.61.61,0,0,1,0-.14S12.7,188.76,12.71,188.75Z"/><path class="cls-6" d="M14,188.67l32.72,18.89c2,1.16,5.52,1,7.84-.32L86.19,189a4.43,4.43,0,0,0,1.56-1.41,3,3,0,0,0-1-.89L54,167.81c-2-1.16-5.51-1-7.83.32L14.61,186.37a4.18,4.18,0,0,0-1.55,1.43A3,3,0,0,0,14,188.67Zm19.61-1.55,14.78-8.54a4.08,4.08,0,0,1,3.67-.15l15.31,8.84a1.27,1.27,0,0,1,.29.21.32.32,0,0,1,.08.09.79.79,0,0,1,.12.15.61.61,0,0,1,.07.14s0,.07,0,.11a.55.55,0,0,1,0,.18s0,0,0,.08a1.55,1.55,0,0,1,0,.21l0,.05a.8.8,0,0,1-.11.23v0a2.43,2.43,0,0,1-.2.25h0a2.07,2.07,0,0,1-.5.39l-14.79,8.54a4.06,4.06,0,0,1-3.66.15l-15.27-8.81h0l0,0C32.45,188.69,32.57,187.74,33.65,187.12Z"/><path class="cls-6" d="M12.87,188.13l.06-.13Z"/><path class="cls-6" d="M88,188.15a1.84,1.84,0,0,1,0,.25A1.84,1.84,0,0,0,88,188.15Z"/><path class="cls-6" d="M87.78,187.63a1.34,1.34,0,0,1,.12.24A1.34,1.34,0,0,0,87.78,187.63Z"/><path class="cls-6" d="M87.84,189.63l.09-.16Z"/><path class="cls-6" d="M88.08,188.94a.76.76,0,0,0,0-.15v-.07A1.55,1.55,0,0,1,88.08,188.94Z"/><path class="cls-6" d="M87.44,190.21a1.39,1.39,0,0,0,.15-.19A1.39,1.39,0,0,1,87.44,190.21Z"/><path class="cls-6" d="M87.07,190.58l-.18.16Z"/><polygon class="cls-6" points="14.04 190.89 14.04 190.89 14.04 190.89 15.57 191.77 30.4 200.34 14.04 190.89"/><path class="cls-6" d="M12.75,189.36a.68.68,0,0,1,0-.14A.68.68,0,0,0,12.75,189.36Z"/><path class="cls-6" d="M13,189.93l-.05-.06Z"/><path class="cls-6" d="M13.47,190.47l-.13-.12Z"/><path class="cls-6" d="M12.71,188.78v0S12.71,188.77,12.71,188.78Z"/><path class="cls-6" d="M53.53,210a7.44,7.44,0,0,0,1.07-.49l31.59-18.24L54.6,209.46a9.26,9.26,0,0,1-5.22,1.07A9.67,9.67,0,0,0,53.53,210Z"/><path class="cls-7" d="M12.75,189.36a2,2,0,0,0,.2.51l.05.06a2.24,2.24,0,0,0,.34.42l.13.12a3.24,3.24,0,0,0,.57.42h0l16.36,9.45,16.36,9.44a4.67,4.67,0,0,0,.51.23,6.88,6.88,0,0,0,2.11.52,9.26,9.26,0,0,0,5.22-1.07l31.59-18.24a6.58,6.58,0,0,0,.7-.48l.18-.16a3.23,3.23,0,0,0,.37-.37,1.39,1.39,0,0,0,.15-.19,2.84,2.84,0,0,0,.25-.39l.09-.16a2.83,2.83,0,0,0,.15-.53,1.55,1.55,0,0,0,0-.22,1.67,1.67,0,0,0,0-.32,1.84,1.84,0,0,0,0-.25,1.39,1.39,0,0,0-.12-.28,1.34,1.34,0,0,0-.12-.24s0,0,0,0h0A4.43,4.43,0,0,1,86.19,189L54.6,207.24c-2.32,1.34-5.83,1.48-7.84.32L14,188.67a3,3,0,0,1-1-.87l0,0c0,.07-.07.15-.11.22l-.06.13a2.21,2.21,0,0,0-.16.54v.11a.61.61,0,0,0,0,.14v.16a.7.7,0,0,0,0,.14A.68.68,0,0,0,12.75,189.36Z"/><path class="cls-6" d="M74.74,202.3a2.92,2.92,0,0,0-1.32,2.29c0,.84.59,1.18,1.32.76a2.91,2.91,0,0,0,1.32-2.29C76.06,202.22,75.47,201.88,74.74,202.3Z"/><path class="cls-6" d="M79,199.84a2.94,2.94,0,0,0-1.32,2.29c0,.85.59,1.19,1.32.77a2.93,2.93,0,0,0,1.33-2.29C80.32,199.77,79.72,199.42,79,199.84Z"/><path class="cls-6" d="M83.25,200.44a2.91,2.91,0,0,0,1.32-2.29c0-.84-.59-1.18-1.32-.76a2.93,2.93,0,0,0-1.33,2.29C81.92,200.52,82.52,200.86,83.25,200.44Z"/><path class="cls-5" d="M67.7,187.48l.08.09A.32.32,0,0,0,67.7,187.48Z"/><path class="cls-5" d="M68,188.49a.7.7,0,0,1-.11.23A.8.8,0,0,0,68,188.49Z"/><path class="cls-5" d="M67.9,187.72a.61.61,0,0,1,.07.14A.61.61,0,0,0,67.9,187.72Z"/><path class="cls-5" d="M68,188a.55.55,0,0,1,0,.18A.55.55,0,0,0,68,188Z"/><path class="cls-5" d="M68,188.23a1.55,1.55,0,0,1,0,.21A1.55,1.55,0,0,0,68,188.23Z"/><path class="cls-5" d="M67.66,189a2.43,2.43,0,0,0,.2-.25A2.43,2.43,0,0,1,67.66,189Z"/><path class="cls-5" d="M52.1,180.42a4.08,4.08,0,0,0-3.67.15l-14.78,8.54a1.7,1.7,0,0,0-.22.15l15.27,8.81a4.06,4.06,0,0,0,3.66-.15l14.79-8.54a2.07,2.07,0,0,0,.5-.39,1.31,1.31,0,0,1-.28.24Zm.62,9.05-2,1.18a.54.54,0,0,1-.51,0l-2.11-1.22c-.13-.08-.12-.21,0-.3L50.13,188a.59.59,0,0,1,.5,0l2.12,1.23C52.88,189.25,52.87,189.38,52.72,189.47Z"/><path class="cls-6" d="M50.63,188a.59.59,0,0,0-.5,0l-2.05,1.18c-.15.09-.16.22,0,.3l2.11,1.22a.54.54,0,0,0,.51,0l2-1.18c.15-.09.16-.22,0-.29Z"/><path class="cls-4" d="M33.39,189.23l0,0h0a1.7,1.7,0,0,1,.22-.15l14.78-8.54a4.08,4.08,0,0,1,3.67-.15l15.27,8.81a1.31,1.31,0,0,0,.28-.24h0a2.43,2.43,0,0,0,.2-.25v0a.7.7,0,0,0,.11-.23l0-.05a1.55,1.55,0,0,0,0-.21s0-.06,0-.08a.55.55,0,0,0,0-.18s0-.08,0-.11a.61.61,0,0,0-.07-.14.79.79,0,0,0-.12-.15l-.08-.09a1.27,1.27,0,0,0-.29-.21L52.1,178.43a4.08,4.08,0,0,0-3.67.15l-14.78,8.54C32.57,187.74,32.45,188.69,33.39,189.23Z"/><ellipse class="cls-6" cx="43.77" cy="212.57" rx="0.73" ry="1.26" transform="translate(-100.42 50.36) rotate(-30)"/><path class="cls-6" d="M41,210c-.49-.28-.89-.05-.89.51A2,2,0,0,0,41,212c.49.29.89.06.89-.51A2,2,0,0,0,41,210Z"/><path class="cls-6" d="M43.77,214.87c-.5-.28-.89-.05-.89.51a1.93,1.93,0,0,0,.89,1.54c.49.29.88.06.88-.51A2,2,0,0,0,43.77,214.87Z"/><path class="cls-6" d="M41,213.29c-.49-.28-.89,0-.89.51a2,2,0,0,0,.89,1.54c.49.29.89.06.89-.51A2,2,0,0,0,41,213.29Z"/><path class="cls-6" d="M43.77,231.55c.49.28.88,0,.88-.52a2,2,0,0,0-.88-1.54c-.5-.28-.89-.05-.89.52A2,2,0,0,0,43.77,231.55Z"/><path class="cls-6" d="M40.12,228.42A2,2,0,0,0,41,230c.49.29.89.06.89-.51a2,2,0,0,0-.89-1.54C40.52,227.63,40.12,227.86,40.12,228.42Z"/><path class="cls-6" d="M43.77,234.88c.49.28.88.05.88-.52a2,2,0,0,0-.88-1.54c-.5-.28-.89,0-.89.52A2,2,0,0,0,43.77,234.88Z"/><path class="cls-6" d="M41.9,232.78a2,2,0,0,0-.89-1.54c-.49-.28-.89-.05-.89.51a2,2,0,0,0,.89,1.54C41.5,233.58,41.9,233.35,41.9,232.78Z"/><path class="cls-6" d="M43.77,249.5c.49.28.88.05.88-.52a2,2,0,0,0-.88-1.54c-.5-.28-.89-.05-.89.52A2,2,0,0,0,43.77,249.5Z"/><path class="cls-6" d="M41,247.92c.49.28.89.05.89-.52a2,2,0,0,0-.89-1.54c-.49-.28-.89-.05-.89.52A2,2,0,0,0,41,247.92Z"/><path class="cls-6" d="M43.77,252.83c.49.28.88,0,.88-.52a2,2,0,0,0-.88-1.54c-.5-.28-.89-.05-.89.52A2,2,0,0,0,43.77,252.83Z"/><path class="cls-6" d="M41,251.25c.49.28.89.05.89-.52a2,2,0,0,0-.89-1.54c-.49-.28-.89-.05-.89.52A2,2,0,0,0,41,251.25Z"/><path class="cls-3" d="M200.08,331.9h0c-.25.1-.52.18-.78.26l-.37.08-.57.12-.43.06-.54.05-.43,0h-.61l-.37,0-.22,0a5.4,5.4,0,0,1-.58-.08l-.17,0-.24-.07a3.6,3.6,0,0,1-.44-.12l-.21-.06L194,332l-.14,0v0a3.81,3.81,0,0,1-.5-.23l-21.17-12.22-3.78,2.18c-1.85,1.07-2.05,2.69-.45,3.62l26.13,15.08a7,7,0,0,0,6.26-.26l12.47-7.2L225,340.36a.41.41,0,0,1,.19.33.4.4,0,0,1-.19.34L204.38,353.7a4.14,4.14,0,0,1-4.14.07L146.05,323.6a.86.86,0,0,1-.46-.78A.88.88,0,0,1,146,322l15.43-8.7-.87-.5a3,3,0,0,1-.65-.48l-14.7,8.29a2.5,2.5,0,0,0,0,4.35l54.19,30.17a5.73,5.73,0,0,0,5.75-.11l20.62-12.67a2,2,0,0,0,.94-1.7,2,2,0,0,0-1-1.7l-11.47-7,11.19-6.45c1.85-1.07,2.05-2.69.44-3.62l-4.22-2.44-20.61,11.9A7,7,0,0,1,200.08,331.9Z"/><path class="cls-4" d="M232.74,301.6l-31.59,18.24a7,7,0,0,1-1.07.49V331.9a7,7,0,0,0,1.07-.49l20.61-11.9,11-6.34c1.34-.77,2-1.77,1.91-2.71V299.18h0A3.31,3.31,0,0,1,232.74,301.6ZM221.3,315.73c-.73.42-1.33.08-1.33-.76a2.93,2.93,0,0,1,1.33-2.29c.73-.42,1.32-.08,1.32.76A2.91,2.91,0,0,1,221.3,315.73Zm4.25-2.45c-.73.42-1.32.08-1.32-.76a2.91,2.91,0,0,1,1.32-2.29c.73-.43,1.32-.08,1.32.76A2.92,2.92,0,0,1,225.55,313.28Zm4.25-2.46c-.73.42-1.32.08-1.32-.76a2.92,2.92,0,0,1,1.32-2.29c.73-.42,1.32-.08,1.32.76A2.91,2.91,0,0,1,229.8,310.82Z"/><path class="cls-4" d="M198.36,332.37l-.43.06Z"/><path class="cls-4" d="M197.39,332.48l-.43,0Z"/><path class="cls-4" d="M199.3,332.17l-.37.08Z"/><path class="cls-4" d="M197,332.51Z"/><path class="cls-4" d="M162.12,313.72l-1.52-.88.87.5,10.68,6.17,21.17,12.22a3.81,3.81,0,0,0,.5.23V320.39a3.81,3.81,0,0,1-.5-.23l-31.2-18Z"/><path class="cls-4" d="M195.76,332.45l.22,0,.37,0Z"/><path class="cls-4" d="M194.77,332.28l.24.07.17,0A3,3,0,0,1,194.77,332.28Z"/><path class="cls-4" d="M194,332l.16.07.21.06Z"/><path class="cls-5" d="M160.6,312.84l1.52.88V302.15l-1.52-.88a2.24,2.24,0,0,1-1.34-2.14h0v11.61a2,2,0,0,0,.7,1.62A3,3,0,0,0,160.6,312.84Z"/><path class="cls-5" d="M193.82,332v0l.14,0,.37.13a3.6,3.6,0,0,0,.44.12,3,3,0,0,0,.41.09,5.4,5.4,0,0,0,.58.08l.59.05H197l.43,0,.54-.05.43-.06.57-.12.37-.08c.26-.08.53-.16.78-.26h0V320.33a8.83,8.83,0,0,1-6.26.06Z"/><path class="cls-6" d="M227,301.21l-26.48,15.28a7.26,7.26,0,0,1-6.56.27l-27.42-15.83a1.79,1.79,0,0,1-.5-3l-3.42-2-1.41.81a5,5,0,0,0-1.29,1.05,2.46,2.46,0,0,0-.61,1.33,2.24,2.24,0,0,0,1.34,2.14l1.52.88,31.2,18a3.81,3.81,0,0,0,.5.23,8.83,8.83,0,0,0,6.26-.06,7,7,0,0,0,1.07-.49l31.59-18.24a3.31,3.31,0,0,0,1.9-2.42,2.25,2.25,0,0,0-1.33-2.1l-2-1.14L228,297.86C229,298.85,228.62,300.24,227,301.21Z"/><path class="cls-6" d="M221.3,312.68A2.93,2.93,0,0,0,220,315c0,.84.6,1.18,1.33.76a2.91,2.91,0,0,0,1.32-2.29C222.62,312.6,222,312.26,221.3,312.68Z"/><path class="cls-6" d="M225.55,310.23a2.91,2.91,0,0,0-1.32,2.29c0,.84.59,1.18,1.32.76a2.92,2.92,0,0,0,1.32-2.29C226.87,310.15,226.28,309.8,225.55,310.23Z"/><path class="cls-6" d="M229.8,307.77a2.92,2.92,0,0,0-1.32,2.29c0,.84.59,1.18,1.32.76a2.91,2.91,0,0,0,1.32-2.29C231.12,307.69,230.53,307.35,229.8,307.77Z"/><path class="cls-4" d="M232.74,283.56,201.15,301.8a7,7,0,0,1-1.07.49v11.57a7,7,0,0,0,1.07-.49L228,297.86l3.34-1.92,1.4-.81c1.34-.77,2-1.78,1.91-2.71V281.13h0A3.31,3.31,0,0,1,232.74,283.56Zm-2.94,6.17c.73-.42,1.32-.08,1.32.76a2.91,2.91,0,0,1-1.32,2.29c-.73.42-1.32.08-1.32-.76A2.92,2.92,0,0,1,229.8,289.73Zm-7.18,5.67a2.91,2.91,0,0,1-1.32,2.29c-.73.42-1.33.08-1.33-.76a2.93,2.93,0,0,1,1.33-2.29C222,294.22,222.62,294.56,222.62,295.4Zm2.93-.16c-.73.42-1.32.08-1.32-.77a2.91,2.91,0,0,1,1.32-2.28c.73-.43,1.32-.08,1.32.76A2.92,2.92,0,0,1,225.55,295.24Z"/><path class="cls-4" d="M199.3,314.12c-.12,0-.25.06-.37.09C199.05,314.18,199.18,314.16,199.3,314.12Z"/><path class="cls-4" d="M197,314.46l.42,0Z"/><path class="cls-4" d="M198.35,314.33l-.42.06Z"/><path class="cls-4" d="M194.33,314.12,194,314l.16.07Z"/><path class="cls-4" d="M194.78,314.24l.23.07.17,0C195,314.31,194.91,314.27,194.78,314.24Z"/><path class="cls-4" d="M196.91,314.47h0Z"/><path class="cls-4" d="M195.76,314.41l.22,0,.36,0Z"/><path class="cls-4" d="M162.12,295.68l.45.26,3.42,2,27.33,15.78a3.81,3.81,0,0,0,.5.23V302.35a3.81,3.81,0,0,1-.5-.23l-31.2-18Z"/><path class="cls-5" d="M159.25,284.24v8.46a2.28,2.28,0,0,0,1.35,2.1l1.52.88h0V284.11l-1.52-.88a2.24,2.24,0,0,1-1.34-2.14h0Z"/><path class="cls-5" d="M193.82,313.92a3.81,3.81,0,0,1-.5-.23L166,297.91a1.79,1.79,0,0,0,.5,3l27.42,15.83a7.26,7.26,0,0,0,6.56-.27L227,301.21c1.67-1,2.05-2.36,1.05-3.35l-26.85,15.51a7,7,0,0,1-1.07.49V302.29a8.83,8.83,0,0,1-6.26.06Zm.51.2-.21-.06L194,314Zm2,.34-.36,0-.22,0Zm-1.16-.13-.17,0-.23-.07C194.91,314.27,195,314.31,195.18,314.33Zm1.73.14h0Zm.05,0,.42,0Zm2-.25c.12,0,.25,0,.37-.09C199.18,314.16,199.05,314.18,198.93,314.21Zm-1,.18.42-.06Z"/><path class="cls-6" d="M227,283.17l-26.48,15.28a7.3,7.3,0,0,1-6.56.27l-27.42-15.83a1.79,1.79,0,0,1-.5-3l-3.42-2-1.41.81a3.36,3.36,0,0,0-1.9,2.38,2.24,2.24,0,0,0,1.34,2.14l1.52.88,31.2,18a3.81,3.81,0,0,0,.5.23,8.83,8.83,0,0,0,6.26-.06,7,7,0,0,0,1.07-.49l31.59-18.24a3.31,3.31,0,0,0,1.9-2.43,2.24,2.24,0,0,0-1.33-2.09l-2-1.14L228,279.82C229,280.81,228.62,282.2,227,283.17Z"/><path class="cls-6" d="M221.3,294.64a2.93,2.93,0,0,0-1.33,2.29c0,.84.6,1.18,1.33.76a2.91,2.91,0,0,0,1.32-2.29C222.62,294.56,222,294.22,221.3,294.64Z"/><path class="cls-6" d="M225.55,292.19a2.91,2.91,0,0,0-1.32,2.28c0,.85.59,1.19,1.32.77a2.92,2.92,0,0,0,1.32-2.29C226.87,292.11,226.28,291.76,225.55,292.19Z"/><path class="cls-6" d="M229.8,292.78a2.91,2.91,0,0,0,1.32-2.29c0-.84-.59-1.18-1.32-.76a2.92,2.92,0,0,0-1.32,2.29C228.48,292.86,229.07,293.2,229.8,292.78Z"/><path class="cls-4" d="M234.63,263.24a1.7,1.7,0,0,1-.15.52.91.91,0,0,1-.09.17,4.11,4.11,0,0,1-.24.39c-.05.06-.1.13-.16.19a4.08,4.08,0,0,1-.36.36l-.18.17a5.84,5.84,0,0,1-.71.48l-31.59,18.24a7,7,0,0,1-1.07.49v11.57a7,7,0,0,0,1.07-.49L228,279.82l3.34-1.92,1.4-.81c1.34-.78,2-1.78,1.91-2.71V263.09h0A.76.76,0,0,1,234.63,263.24Zm-4.83,8.45c.73-.42,1.32-.08,1.32.76a2.91,2.91,0,0,1-1.32,2.29c-.73.42-1.32.08-1.32-.76A2.92,2.92,0,0,1,229.8,271.69Zm-7.18,5.67a2.92,2.92,0,0,1-1.32,2.29c-.73.42-1.33.08-1.33-.76a2.93,2.93,0,0,1,1.33-2.29C222,276.18,222.62,276.52,222.62,277.36Zm2.93-.16c-.73.42-1.32.08-1.32-.77a2.94,2.94,0,0,1,1.32-2.29c.73-.42,1.32-.08,1.32.77A2.94,2.94,0,0,1,225.55,277.2Z"/><path class="cls-4" d="M198.35,296.29l-.42.06Z"/><path class="cls-4" d="M199.3,296.08c-.12,0-.25.06-.37.09C199.05,296.14,199.18,296.12,199.3,296.08Z"/><path class="cls-4" d="M197,296.42l.42,0Z"/><path class="cls-4" d="M194.33,296.08,194,296l.16.07Z"/><path class="cls-4" d="M196.91,296.43h0Z"/><path class="cls-4" d="M195.75,296.37l.24,0h.35A5.85,5.85,0,0,1,195.75,296.37Z"/><path class="cls-4" d="M194.77,296.2a2.27,2.27,0,0,0,.25.06.76.76,0,0,0,.16,0C195,296.27,194.91,296.23,194.77,296.2Z"/><path class="cls-4" d="M162.12,266.07v11.57l-1.52-.88,2,1.14,3.42,2,27.33,15.78a3.81,3.81,0,0,0,.5.23V284.31a3.81,3.81,0,0,1-.5-.23Z"/><path class="cls-5" d="M159.26,263.05h0v.17c0-.05,0-.1,0-.14Z"/><path class="cls-5" d="M160.6,276.76l1.52.88V266.07l-1.52-.88h0a3.33,3.33,0,0,1-.58-.42l-.12-.12a2,2,0,0,1-.35-.42l0-.06a2,2,0,0,1-.21-.51c0-.05,0-.09,0-.14l0-.14V265l-47.7-27.54a2.58,2.58,0,0,1-1.08-2.07v-7.59c0-.8.48-1.17,1.08-.82l49.87,28.79a2.62,2.62,0,0,1,1.09,2.08v2.09l2.58-1.49V258a5.12,5.12,0,0,0-2.15-4.09L110,223.39c-1.18-.68-2.14,0-2.14,1.62V235.1a5.16,5.16,0,0,0,2.14,4.1l49.22,28.42v7A2.28,2.28,0,0,0,160.6,276.76Z"/><path class="cls-5" d="M193.82,295.88a3.81,3.81,0,0,1-.5-.23L166,279.87a1.79,1.79,0,0,0,.5,3l27.42,15.83a7.3,7.3,0,0,0,6.56-.27L227,283.17c1.67-1,2.05-2.36,1.05-3.35l-26.85,15.51a7,7,0,0,1-1.07.49V284.25a7.72,7.72,0,0,1-.85.29,8.67,8.67,0,0,1-5.41-.23Zm.51.2-.21-.06L194,296Zm2,.33H196l-.24,0A5.85,5.85,0,0,0,196.34,296.41Zm-1.16-.12a.76.76,0,0,1-.16,0,2.27,2.27,0,0,1-.25-.06C194.91,296.23,195,296.27,195.18,296.29Zm1.73.14h0Zm.05,0,.42,0Zm2-.25c.12,0,.25-.05.37-.09C199.18,296.12,199.05,296.14,198.93,296.17Zm-1,.18.42-.06Z"/><path class="cls-6" d="M234.33,261.93c0,.08.09.16.13.24C234.42,262.09,234.38,262,234.33,261.93Z"/><path class="cls-6" d="M234.57,262.45a1.83,1.83,0,0,1,.06.25A1.83,1.83,0,0,0,234.57,262.45Z"/><path class="cls-6" d="M206.47,245.5l-5.88-3.4c-2-1.16-5.52-1-7.84.33l-1.46.85-1.07.61-9.67,5.58-5.73,3.31-6.91,4V145.53a4.75,4.75,0,0,1-.56-.25l-60.58-34.54a2.63,2.63,0,0,1-1.48-2V240.56a2.51,2.51,0,0,0,1.48,2.32l9.76,5.56,42.72,24.36v-5.18L110,239.2a5.16,5.16,0,0,1-2.14-4.1V225c0-1.58,1-2.3,2.14-1.62l52.91,30.55a5.12,5.12,0,0,1,2.15,4.09v.37l-2.58,1.49-1.35.78a5.08,5.08,0,0,0-1.18.94.59.59,0,0,0,0-.14v-2.65a1.62,1.62,0,0,0-.68-1.3l-2.5-1.44c-.38-.22-.68,0-.68.51v2.65a1.62,1.62,0,0,0,.68,1.3l2.5,1.44a.51.51,0,0,0,.32.07l0,.05a3.05,3.05,0,0,0,1,.87l32.72,18.89c2,1.16,5.51,1,7.83-.32l31.59-18.24a4.26,4.26,0,0,0,1.56-1.41,2.91,2.91,0,0,0-1-.9L213,249.25l-5.9-3.41ZM110,170l52.91,30.55a5.12,5.12,0,0,1,2.15,4.1v10.08c0,1.58-1,2.31-2.15,1.62L110,185.83a5.16,5.16,0,0,1-2.14-4.1V171.64C107.89,170.06,108.85,169.34,110,170Zm52.91,28.56L110,168a5.14,5.14,0,0,1-2.14-4.1V153.85c0-1.58,1-2.3,2.14-1.62l52.91,30.55a5.12,5.12,0,0,1,2.15,4.1V197C165.09,198.54,164.13,199.27,162.94,198.58Zm-55-9.15c0-1.58,1-2.3,2.14-1.62l52.91,30.55a5.12,5.12,0,0,1,2.15,4.09v10.09c0,1.58-1,2.31-2.15,1.62L110,203.62a5.16,5.16,0,0,1-2.14-4.1Zm0-71.16c0-1.58,1-2.3,2.14-1.62l52.91,30.55a5.12,5.12,0,0,1,2.15,4.1v10.08c0,1.58-1,2.31-2.15,1.62L110,132.46a5.14,5.14,0,0,1-2.14-4.1Zm0,17.79c0-1.58,1-2.3,2.14-1.62L162.94,165a5.12,5.12,0,0,1,2.15,4.1v10.08c0,1.58-1,2.31-2.15,1.62L110,150.25a5.14,5.14,0,0,1-2.14-4.1ZM162.94,252,110,221.41a5.16,5.16,0,0,1-2.14-4.1V207.22c0-1.58,1-2.3,2.14-1.62l52.91,30.55a5.12,5.12,0,0,1,2.15,4.1v10.08C165.09,251.91,164.13,252.64,162.94,252Zm51.32,9.83.08.09.11.15a.61.61,0,0,1,.07.14.36.36,0,0,1,0,.11,1.13,1.13,0,0,1,0,.18v.08a.78.78,0,0,1,0,.21s0,0,0,.05a1.27,1.27,0,0,1-.12.23v0a1.16,1.16,0,0,1-.2.25h0a2.31,2.31,0,0,1-.29.24h0a1.7,1.7,0,0,1-.22.15l-14.78,8.54a4.08,4.08,0,0,1-3.67.15L180,263.56h0l0,0c-.94-.54-.82-1.49.26-2.12L195,252.88a4.26,4.26,0,0,1,1.89-.52,3.43,3.43,0,0,1,1.77.37L214,261.57A1.54,1.54,0,0,1,214.26,261.78Z"/><path class="cls-6" d="M159.26,263.05v0a.37.37,0,0,1,0-.11A.22.22,0,0,0,159.26,263.05Z"/><path class="cls-6" d="M159.49,262.3l-.07.13Z"/><path class="cls-6" d="M234.39,263.93a.91.91,0,0,0,.09-.17A.91.91,0,0,1,234.39,263.93Z"/><path class="cls-6" d="M233.63,264.87l-.18.17Z"/><path class="cls-6" d="M234.63,263.24a.76.76,0,0,0,0-.15s0,0,0-.07A.83.83,0,0,1,234.63,263.24Z"/><path class="cls-6" d="M234,264.51c.06-.06.11-.13.16-.19S234.05,264.45,234,264.51Z"/><path class="cls-6" d="M160,264.77l-.12-.12Z"/><polygon class="cls-6" points="162.12 266.07 193.32 284.08 160.6 265.19 160.6 265.19 160.6 265.19 162.12 266.07"/><path class="cls-6" d="M159.51,264.17l0,.06Z"/><path class="cls-6" d="M159.28,263.52c0,.05,0,.09,0,.14S159.29,263.57,159.28,263.52Z"/><path class="cls-7" d="M232.74,263.3l-31.59,18.24c-2.32,1.33-5.82,1.48-7.83.32L160.6,263a3.05,3.05,0,0,1-1-.87v0a1.13,1.13,0,0,0-.11.22l-.07.13a1.82,1.82,0,0,0-.15.54.37.37,0,0,0,0,.11s0,.09,0,.14v.16l0,.14c0,.05,0,.09,0,.14a2,2,0,0,0,.21.51l0,.06a2,2,0,0,0,.35.42l.12.12a3.33,3.33,0,0,0,.58.42h0l32.72,18.89a3.81,3.81,0,0,0,.5.23,8.67,8.67,0,0,0,5.41.23,7.72,7.72,0,0,0,.85-.29,7,7,0,0,0,1.07-.49l31.59-18.24a5.84,5.84,0,0,0,.71-.48l.18-.17a4.08,4.08,0,0,0,.36-.36c.06-.06.11-.13.16-.19a4.11,4.11,0,0,0,.24-.39.91.91,0,0,0,.09-.17,1.7,1.7,0,0,0,.15-.52.83.83,0,0,0,0-.22c0-.11,0-.22,0-.32a1.83,1.83,0,0,0-.06-.25,2.33,2.33,0,0,0-.11-.28c0-.08-.08-.16-.13-.24s0,0,0-.05h0A4.26,4.26,0,0,1,232.74,263.3Z"/><path class="cls-6" d="M221.3,276.6a2.93,2.93,0,0,0-1.33,2.29c0,.84.6,1.18,1.33.76a2.92,2.92,0,0,0,1.32-2.29C222.62,276.52,222,276.18,221.3,276.6Z"/><path class="cls-6" d="M225.55,274.14a2.94,2.94,0,0,0-1.32,2.29c0,.85.59,1.19,1.32.77a2.94,2.94,0,0,0,1.32-2.29C226.87,274.06,226.28,273.72,225.55,274.14Z"/><path class="cls-6" d="M229.8,274.74a2.91,2.91,0,0,0,1.32-2.29c0-.84-.59-1.18-1.32-.76a2.92,2.92,0,0,0-1.32,2.29C228.48,274.82,229.07,275.16,229.8,274.74Z"/><path class="cls-5" d="M198.65,254.72a4,4,0,0,0-3.66.15L180.2,263.4l-.22.16,15.27,8.81a4.08,4.08,0,0,0,3.67-.15l14.78-8.54a1.7,1.7,0,0,0,.22-.15Zm.62,9-2,1.18a.57.57,0,0,1-.51,0l-2.12-1.22c-.13-.08-.11-.21,0-.3l2-1.18a.61.61,0,0,1,.51,0l2.12,1.22C199.44,263.55,199.42,263.68,199.27,263.77Z"/><path class="cls-5" d="M214.56,262.27a1.13,1.13,0,0,1,0,.18A1.13,1.13,0,0,0,214.56,262.27Z"/><path class="cls-5" d="M214.45,262a.61.61,0,0,1,.07.14A.61.61,0,0,0,214.45,262Z"/><path class="cls-5" d="M214.26,261.78l.08.09Z"/><path class="cls-5" d="M214.54,262.79a1.71,1.71,0,0,1-.12.23A1.27,1.27,0,0,0,214.54,262.79Z"/><path class="cls-5" d="M214.59,262.53a.78.78,0,0,1,0,.21A.78.78,0,0,0,214.59,262.53Z"/><path class="cls-5" d="M214.21,263.29a1.16,1.16,0,0,0,.2-.25A1.57,1.57,0,0,1,214.21,263.29Z"/><path class="cls-5" d="M214.21,263.29a2.31,2.31,0,0,1-.29.24A2.31,2.31,0,0,0,214.21,263.29Z"/><path class="cls-6" d="M199.31,263.47l-2.12-1.22a.61.61,0,0,0-.51,0l-2,1.18c-.15.09-.17.22,0,.3l2.12,1.22a.57.57,0,0,0,.51,0l2-1.18C199.42,263.68,199.44,263.55,199.31,263.47Z"/><path class="cls-4" d="M198.65,252.73a3.43,3.43,0,0,0-1.77-.37,4.26,4.26,0,0,0-1.89.52l-14.79,8.53c-1.08.63-1.2,1.58-.26,2.12l0,0h0l.22-.16L195,254.87a4,4,0,0,1,3.66-.15l15.27,8.81h0a2.31,2.31,0,0,0,.29-.24h0a1.57,1.57,0,0,0,.2-.25v0a1.71,1.71,0,0,0,.12-.23s0,0,0-.05a.78.78,0,0,0,0-.21v-.08a1.13,1.13,0,0,0,0-.18.36.36,0,0,0,0-.11.61.61,0,0,0-.07-.14l-.11-.15-.08-.09a1.54,1.54,0,0,0-.29-.21Z"/><path class="cls-6" d="M145.79,82.65c.49.28.89,0,.89-.51a2,2,0,0,0-.89-1.55c-.5-.28-.89,0-.89.52A1.93,1.93,0,0,0,145.79,82.65Z"/><path class="cls-6" d="M153.62,87.4c.49.28.89,0,.89-.51a2,2,0,0,0-.89-1.55c-.49-.28-.89,0-.89.52A2,2,0,0,0,153.62,87.4Z"/><path class="cls-6" d="M161.45,92.15c.49.28.89,0,.89-.51a2,2,0,0,0-.89-1.55c-.49-.28-.89,0-.89.52A2,2,0,0,0,161.45,92.15Z"/><path class="cls-6" d="M169.29,96.9c.49.28.89,0,.89-.51a2,2,0,0,0-.89-1.55c-.5-.28-.89,0-.89.52A1.93,1.93,0,0,0,169.29,96.9Z"/></g></g></g></svg>