<svg xmlns="http://www.w3.org/2000/svg" viewBox="0 0 382 382"><defs><style>.cls-1{fill:none;}.cls-2{opacity:0.6;}.cls-3{fill:#414141;}</style></defs><title>Manage Users</title><g id="Layer_2" data-name="Layer 2"><g id="Layer_1-2" data-name="Layer 1"><rect class="cls-1" width="382" height="382"/><g class="cls-2"><path class="cls-3" d="M191,178.05a42.76,42.76,0,1,0-42.76-42.76A42.76,42.76,0,0,0,191,178.05Zm0-70.51a27.76,27.76,0,1,1-27.76,27.75A27.78,27.78,0,0,1,191,107.54Z"/><path class="cls-3" d="M191,197.37a92.27,92.27,0,0,0-92.17,92.18h15a77.17,77.17,0,1,1,154.34,0h15A92.28,92.28,0,0,0,191,197.37Z"/><path class="cls-3" d="M300.35,202.2a33.66,33.66,0,1,0-33.65-33.65A33.66,33.66,0,0,0,300.35,202.2Zm0-52.31a18.66,18.66,0,1,1-18.65,18.66A18.68,18.68,0,0,1,300.35,149.89Z"/><path class="cls-3" d="M300.35,215.82a73.91,73.91,0,0,0-23.6,3.84l4.77,14.22a59.19,59.19,0,0,1,78,56.08h15A74.23,74.23,0,0,0,300.35,215.82Z"/><path class="cls-3" d="M81,202.2a33.66,33.66,0,1,0-33.65-33.65A33.66,33.66,0,0,0,81,202.2Zm0-52.31a18.66,18.66,0,1,1-18.65,18.66A18.68,18.68,0,0,1,81,149.89Z"/><path class="cls-3" d="M104.61,219.66A74.19,74.19,0,0,0,6.86,290h15a59.19,59.19,0,0,1,78-56.08Z"/></g></g></g></svg>