<svg xmlns="http://www.w3.org/2000/svg" viewBox="0 0 382 382"><defs><style>.cls-1{fill:none;}.cls-2{opacity:0.6;}.cls-3{fill:#414141;}</style></defs><title>Profile Setting</title><g id="Layer_2" data-name="Layer 2"><g id="Layer_1-2" data-name="Layer 1"><rect class="cls-1" width="382" height="382"/><g class="cls-2"><path class="cls-3" d="M170.5,174A61.48,61.48,0,1,0,109,112.48,61.48,61.48,0,0,0,170.5,174ZM170.5,66A46.48,46.48,0,1,1,124,112.48,46.53,46.53,0,0,1,170.5,66Z"/><path class="cls-3" d="M48.28,326h15A107.87,107.87,0,0,1,200.57,222.32l4.1-14.43A122.87,122.87,0,0,0,48.28,326Z"/><path class="cls-3" d="M328.62,250.31h-7.43c-.39-1-.82-2.06-1.27-3.07l5.25-5.26a5.1,5.1,0,0,0,0-7.21L306,215.55a5.08,5.08,0,0,0-7.21,0l-5.26,5.25c-1-.45-2-.88-3.07-1.27V212.1a5.1,5.1,0,0,0-5.1-5.1H258.13a5.1,5.1,0,0,0-5.1,5.1v7.43c-1,.39-2.07.82-3.07,1.27l-5.26-5.25a5.08,5.08,0,0,0-7.21,0l-19.22,19.22a5.1,5.1,0,0,0,0,7.21l5.25,5.26c-.45,1-.88,2-1.27,3.07h-7.43a5.1,5.1,0,0,0-5.1,5.1v27.18a5.1,5.1,0,0,0,5.1,5.1h7.43c.39,1,.82,2.06,1.27,3.07L218.27,296a5.1,5.1,0,0,0,0,7.21l19.22,19.22a5.08,5.08,0,0,0,7.21,0L250,317.2c1,.45,2,.88,3.07,1.27v7.43a5.1,5.1,0,0,0,5.1,5.1h27.18a5.1,5.1,0,0,0,5.1-5.1v-7.43c1-.39,2.06-.82,3.07-1.27l5.26,5.25a5.08,5.08,0,0,0,7.21,0l19.22-19.22a5.1,5.1,0,0,0,0-7.21l-5.25-5.26c.45-1,.88-2,1.27-3.07h7.43a5.1,5.1,0,0,0,5.1-5.1V255.41A5.1,5.1,0,0,0,328.62,250.31Zm-7,25.24h-1.24a11,11,0,0,0-10.28,7.23c-.43,1.21-.93,2.42-1.48,3.59a10.93,10.93,0,0,0,2.15,12.37l.88.88-9.27,9.27-.88-.88a10.88,10.88,0,0,0-12.37-2.15,37.59,37.59,0,0,1-3.59,1.48,11,11,0,0,0-7.23,10.28v1.24h-13.1v-1.24a11,11,0,0,0-7.23-10.28c-1.22-.44-2.43-.94-3.59-1.48A10.88,10.88,0,0,0,242,308l-.88.88-9.27-9.27.88-.88a10.93,10.93,0,0,0,2.15-12.37c-.55-1.17-1.05-2.38-1.48-3.59a11,11,0,0,0-10.28-7.23h-1.24v-13.1h1.24a11,11,0,0,0,10.28-7.23c.43-1.21.93-2.42,1.48-3.59a10.93,10.93,0,0,0-2.15-12.37l-.88-.88,9.27-9.27.88.88a10.88,10.88,0,0,0,12.37,2.15,37.59,37.59,0,0,1,3.59-1.48,11,11,0,0,0,7.23-10.28v-1.24h13.1v1.24a11,11,0,0,0,7.23,10.28c1.22.44,2.43.94,3.59,1.48A10.88,10.88,0,0,0,301.46,230l.88-.88,9.27,9.27-.88.88a10.93,10.93,0,0,0-2.15,12.37c.55,1.17,1.05,2.38,1.48,3.59a11,11,0,0,0,10.28,7.23h1.24Z"/><path class="cls-3" d="M271.72,242.54A26.46,26.46,0,1,0,298.18,269,26.49,26.49,0,0,0,271.72,242.54Zm0,40.78A14.32,14.32,0,1,1,286,269,14.33,14.33,0,0,1,271.72,283.32Z"/></g></g></g></svg>