<svg xmlns="http://www.w3.org/2000/svg" viewBox="0 0 382 382"><defs><style>.cls-1{fill:none;}.cls-2{opacity:0.6;}.cls-3{fill:#414141;}</style></defs><title>Subscription</title><g id="Layer_2" data-name="Layer 2"><g id="Layer_1-2" data-name="Layer 1"><rect class="cls-1" width="382" height="382"/><g class="cls-2"><rect class="cls-3" x="135" y="81.74" width="112.08" height="15"/><rect class="cls-3" x="135" y="127.74" width="112.08" height="15"/><path class="cls-3" d="M343.33,154.59,307.5,129.28V36.5a5,5,0,0,0-5-5H79.5a5,5,0,0,0-5,5v93.73L39.37,155l-.37-.18V337.69A5.16,5.16,0,0,0,44,343H338a5.16,5.16,0,0,0,5-5.31V155.05Zm-15.26,7.58L307.5,172.24V147.65ZM89.5,46.5h203V179.59L191,229.27,89.5,179.58Zm-15,102.09v23.64l-19.77-9.67ZM328,328H54V178.9l130.44,63.84L191,246l6.6-3.23L328,178.91Z"/></g></g></g></svg>