<?xml version="1.0" encoding="UTF-8"?>
<svg width="17px" height="24px" viewBox="0 0 17 24" version="1.1" xmlns="http://www.w3.org/2000/svg" xmlns:xlink="http://www.w3.org/1999/xlink">
    <title>Slice 1</title>
    <g id="Page-1" stroke="none" stroke-width="1" fill="none" fill-rule="evenodd">
        <g id="noun_CSV-File_56841-Copy">
            <g id="Group-6">
                <path d="M2.70204104,0.336344855 C1.40750188,0.336344855 0.353988021,1.37608769 0.353988021,2.65370527 L0.353988021,21.2443839 C0.353988021,22.5220015 1.40750188,23.5617443 2.70204104,23.5617443 L14.2253834,23.5617443 C15.5199225,23.5617443 16.5734364,22.5220015 16.5734364,21.2443839 L16.5738251,2.65370527 C16.5738251,1.37608769 15.5203113,0.336344855 14.2257721,0.336344855 L2.70204104,0.336344855 Z" id="Path" fill="#2B2F96" fill-rule="nonzero" opacity="0.198893229"></path>
                <path d="M11.4742481,19.9150743 L3.46205762,19.9150743 C3.19996997,19.9150743 2.98726115,20.1381231 2.98726115,20.4129512 C2.98726115,20.6877792 3.19996997,20.910828 3.46205762,20.910828 L11.4742481,20.910828 C11.7363358,20.910828 11.9490446,20.6877792 11.9490446,20.4129512 C11.9490446,20.1381231 11.7365732,19.9150743 11.4742481,19.9150743 Z" id="Path" fill="#31359D"></path>
                <path d="M14.3032438,13.940552 L3.62032311,13.940552 C3.27087291,13.940552 2.98726115,14.1636008 2.98726115,14.4384289 C2.98726115,14.7132569 3.27087291,14.9363057 3.62032311,14.9363057 L14.3032438,14.9363057 C14.652694,14.9363057 14.9363057,14.7132569 14.9363057,14.4384289 C14.9363057,14.1636008 14.6530105,13.940552 14.3032438,13.940552 Z" id="Path" fill="#31359D"></path>
                <path d="M12.4172467,16.9278132 L3.51481278,16.9278132 C3.22360428,16.9278132 2.98726115,17.150862 2.98726115,17.42569 C2.98726115,17.700518 3.22360428,17.9235669 3.51481278,17.9235669 L12.4172467,17.9235669 C12.7084552,17.9235669 12.9447983,17.700518 12.9447983,17.42569 C12.9447983,17.150862 12.7087189,16.9278132 12.4172467,16.9278132 Z" id="Path" fill="#31359D"></path>
            </g>
            <path d="M11.2369589,7.8122376 C11.1320627,7.70394307 10.9621955,7.70394307 10.8572993,7.8122376 L8.73259441,10.0057778 L8.73259441,4.26027957 C8.73259441,4.10718234 8.61232341,3.98301486 8.46403052,3.98301486 C8.31573762,3.98301486 8.19546663,4.10718234 8.19546663,4.26027957 L8.19546663,10.0060338 L6.07076171,7.81249362 C5.96586557,7.70419909 5.79599829,7.70419909 5.69110214,7.81249362 C5.586206,7.92078814 5.586206,8.09615871 5.69110214,8.20445323 L8.25820593,10.8547249 C8.26291758,10.8606133 8.2678772,10.8665016 8.2733328,10.872134 C8.32565688,10.9261532 8.39434774,10.9532909 8.46303859,10.9532909 C8.46328657,10.9532909 8.46353455,10.9532909 8.46378254,10.9532909 C8.46403052,10.9532909 8.4642785,10.9532909 8.46452648,10.9532909 C8.53321734,10.9532909 8.60190819,10.9261532 8.65423228,10.872134 C8.65968787,10.8665016 8.6646475,10.8606133 8.66935914,10.8547249 L11.2364629,8.20445323 C11.3416071,8.09590269 11.3416071,7.92053213 11.2369589,7.8122376 Z" id="Path" fill="#31359D" fill-rule="nonzero"></path>
        </g>
    </g>
</svg>