<svg xmlns="http://www.w3.org/2000/svg" viewBox="0 0 382 382"><defs><style>.cls-1{fill:none;}</style></defs><title>Github Icon</title><g id="Layer_2" data-name="Layer 2"><g id="Layer_1-2" data-name="Layer 1"><rect class="cls-1" width="382" height="382"/><path d="M322.61,118.42A151.3,151.3,0,0,0,267.29,63.1,148.66,148.66,0,0,0,191,42.72,148.7,148.7,0,0,0,114.7,63.1a151.27,151.27,0,0,0-55.31,55.32A148.69,148.69,0,0,0,39,194.71q0,49.68,29,89.36T142.9,339c3.57.66,6.2.2,7.92-1.38a7.75,7.75,0,0,0,2.57-5.94c0-.39,0-4-.1-10.69s-.1-12.6-.1-17.61l-4.55.79a57.66,57.66,0,0,1-11,.69,83.64,83.64,0,0,1-13.76-1.38,30.72,30.72,0,0,1-13.26-5.94,25.11,25.11,0,0,1-8.71-12.16l-2-4.56a48.89,48.89,0,0,0-6.23-10.09q-4.26-5.55-8.61-7.52l-1.38-1a14.75,14.75,0,0,1-2.58-2.38,11.05,11.05,0,0,1-1.78-2.77q-.59-1.4,1-2.28c1.06-.6,3-.89,5.74-.89l4,.6q4,.78,9.8,4.74a31.88,31.88,0,0,1,9.59,10.29,34.88,34.88,0,0,0,11,12.37,23.3,23.3,0,0,0,13,4.26,56,56,0,0,0,11.28-1,39.2,39.2,0,0,0,8.91-3q1.78-13.26,9.69-20.39A135.63,135.63,0,0,1,143,258.24a80.24,80.24,0,0,1-18.6-7.72,53.12,53.12,0,0,1-15.94-13.26q-6.33-7.92-10.39-20.78t-4-29.69q0-24,15.63-40.77-7.32-18,1.39-40.37,5.74-1.79,17,2.67a119.28,119.28,0,0,1,16.53,7.62c3.49,2.11,6.3,3.9,8.41,5.34a143,143,0,0,1,76,0l7.52-4.74a106.35,106.35,0,0,1,18.21-8.71q10.49-4,16-2.18Q279.67,128,272.34,146,288,162.85,288,186.79a99.92,99.92,0,0,1-4.06,29.79q-4.05,13-10.48,20.78a55.36,55.36,0,0,1-16,13.16,80.86,80.86,0,0,1-18.6,7.72,134.67,134.67,0,0,1-20.29,3.57q10.29,8.9,10.29,28.1v41.76a7.88,7.88,0,0,0,2.48,5.93c1.65,1.58,4.25,2,7.81,1.38Q285,323.76,314,284.06t29-89.35A148.89,148.89,0,0,0,322.61,118.42Z"/></g></g></svg>