<svg xmlns="http://www.w3.org/2000/svg" viewBox="0 0 382 382"><defs><style>.cls-1{fill:none;}</style></defs><title>Local</title><g id="Layer_2" data-name="Layer 2"><g id="Layer_1-2" data-name="Layer 1"><rect class="cls-1" width="382" height="382"/><path d="M337.5,51.25H44.5a5,5,0,0,0-5,5v197a5,5,0,0,0,5,5H159v43a13.49,13.49,0,0,1-13.5,13.5c-.17,0-.33,0-.5,0v0H102a5,5,0,0,0-5,5v6a5,5,0,0,0,5,5H280a5,5,0,0,0,5-5v-6a5,5,0,0,0-5-5H237v0a13.48,13.48,0,0,1-13-13.47v-43H337.5a5,5,0,0,0,5-5v-197A5,5,0,0,0,337.5,51.25Zm-10,192H54.5v-177h273Z"/></g></g></svg>