<svg xmlns="http://www.w3.org/2000/svg" viewBox="0 0 983 789.06"><defs><style>.cls-1{fill:none;}.cls-2{fill:#414141;}.cls-3{fill:#4b47b6;}.cls-4{fill:#f55;}.cls-5{fill:#23c87e;}</style></defs><title>Create Project Line</title><g id="Layer_2" data-name="Layer 2"><g id="Layer_1-2" data-name="Layer 1"><circle class="cls-1" cx="474" cy="250.06" r="31.5"/><path class="cls-1" d="M531.79,109.48c-49.64-17.18-103.49-3.63-116.67.19C385.41,173.55,370,241.91,370,311.55c0,73.26,16.73,144.41,49.74,211.51H527.28C560.29,456,577,384.81,577,311.55,577,241.84,561.56,173.42,531.79,109.48ZM474,296.56a46.5,46.5,0,1,1,46.5-46.5A46.55,46.55,0,0,1,474,296.56Z"/><path class="cls-1" d="M354.47,401.61A116.9,116.9,0,0,0,320,484.82v89.81l68.05-68.06A551,551,0,0,1,360.88,395.2Z"/><path class="cls-1" d="M522.82,91.21A527.34,527.34,0,0,0,475.52,16a2.53,2.53,0,0,0-4,0A525.6,525.6,0,0,0,423.8,91.94C445,87.17,483.62,81.51,522.82,91.21Z"/><path class="cls-1" d="M627,484.82a116.9,116.9,0,0,0-34.47-83.21l-6.41-6.41A551,551,0,0,1,559,506.57l68,68.06Z"/><path class="cls-2" d="M431.34,559.3a5,5,0,0,0,4.68,3.26h75a5,5,0,0,0,4.68-3.26l7.87-21.24H423.47Z"/><path class="cls-3" d="M474,203.56a46.5,46.5,0,1,0,46.5,46.5A46.55,46.55,0,0,0,474,203.56Zm0,78a31.5,31.5,0,1,1,31.5-31.5A31.53,31.53,0,0,1,474,281.56Z"/><path class="cls-3" d="M629.25,592.84A12.77,12.77,0,0,0,642,580.09V484.82A131.77,131.77,0,0,0,603.14,391l-15.33-15.33A488.72,488.72,0,0,0,592,311.55C592,203.18,555.88,97.87,487.51,7a17.52,17.52,0,0,0-28,0C391.12,97.87,355,203.18,355,311.55a488.72,488.72,0,0,0,4.21,64.13L343.86,391A131.77,131.77,0,0,0,305,484.82v95.27a12.73,12.73,0,0,0,21.74,9L399.8,516q3.49,7.66,7.26,15.27a12.63,12.63,0,0,0,11.33,6.75H528.61a12.63,12.63,0,0,0,11.33-6.75q3.76-7.6,7.26-15.27l73.06,73.06A12.7,12.7,0,0,0,629.25,592.84ZM471.48,16a2.52,2.52,0,0,1,4,0,527.34,527.34,0,0,1,47.3,75.2c-39.2-9.7-77.84-4-99,.73A525.6,525.6,0,0,1,471.48,16ZM320,574.63V484.82a116.9,116.9,0,0,1,34.47-83.21l6.41-6.41a551,551,0,0,0,27.17,111.37Zm207.28-51.57H419.72C386.71,456,370,384.81,370,311.55c0-69.64,15.43-138,45.14-201.88,13.18-3.82,67-17.37,116.67-.19C561.56,173.42,577,241.84,577,311.55,577,384.81,560.29,456,527.28,523.06ZM586.12,395.2l6.41,6.41A116.9,116.9,0,0,1,627,484.82v89.81l-68-68.06A551,551,0,0,0,586.12,395.2Z"/><path class="cls-4" d="M437,579.56a7.5,7.5,0,0,0-7.5,7.5v113a7.5,7.5,0,0,0,15,0v-113A7.5,7.5,0,0,0,437,579.56Z"/><path class="cls-4" d="M511,579.56a7.5,7.5,0,0,0-7.5,7.5v113a7.5,7.5,0,0,0,15,0v-113A7.5,7.5,0,0,0,511,579.56Z"/><path class="cls-4" d="M474,610.56a7.5,7.5,0,0,0-7.5,7.5v163.5a7.5,7.5,0,0,0,15,0V618.06A7.5,7.5,0,0,0,474,610.56Z"/><path class="cls-2" d="M800,659.56a72.57,72.57,0,0,0-47.41,17.68,72.68,72.68,0,0,0-91-26A54.5,54.5,0,0,0,561.5,681.06a7.5,7.5,0,0,0,15,0,39.49,39.49,0,0,1,72.16-22.19,72.94,72.94,0,0,0-18.55,20.41,7.5,7.5,0,0,0,12.8,7.83,57.69,57.69,0,0,1,18.93-19.06,7.09,7.09,0,0,0,1.28-.76A57.61,57.61,0,0,1,742,688.6a72.08,72.08,0,0,0-8.12,13.76,7.5,7.5,0,0,0,13.68,6.15,57.07,57.07,0,0,1,8.91-14l0,0a57.51,57.51,0,0,1,92.29,68,7.5,7.5,0,1,0,12.71,8A72.52,72.52,0,0,0,800,659.56Z"/><path class="cls-2" d="M331,626.56a54.75,54.75,0,0,0-45.58,24.63,72.68,72.68,0,0,0-91,26,72.5,72.5,0,0,0-108.9,93.25,7.5,7.5,0,1,0,12.71-8,57.5,57.5,0,0,1,92.29-68l.05,0a57.07,57.07,0,0,1,8.91,14,7.5,7.5,0,0,0,13.68-6.15A72.08,72.08,0,0,0,205,688.6a57.61,57.61,0,0,1,78.85-21.31,7.09,7.09,0,0,0,1.28.76,57.69,57.69,0,0,1,18.93,19.06,7.5,7.5,0,0,0,12.8-7.83,72.94,72.94,0,0,0-18.55-20.41,39.49,39.49,0,0,1,72.16,22.19,7.5,7.5,0,0,0,15,0A54.56,54.56,0,0,0,331,626.56Z"/><path class="cls-3" d="M753.5,173.53h15v15a5,5,0,0,0,10,0v-15h15a5,5,0,0,0,0-10h-15v-15a5,5,0,1,0-10,0v15h-15a5,5,0,0,0,0,10Z"/><path class="cls-2" d="M40,372.53H27.5V360a5,5,0,0,0-10,0v12.5H5a5,5,0,0,0,0,10H17.5V395a5,5,0,0,0,10,0v-12.5H40a5,5,0,0,0,0-10Z"/><path class="cls-5" d="M174.5,72.53h19v19a5,5,0,0,0,10,0v-19h19a5,5,0,0,0,0-10h-19v-19a5,5,0,0,0-10,0v19h-19a5,5,0,0,0,0,10Z"/><path class="cls-4" d="M978,466.53H955.5V444a5,5,0,0,0-10,0v22.5H923a5,5,0,0,0,0,10h22.5V499a5,5,0,0,0,10,0v-22.5H978a5,5,0,0,0,0-10Z"/></g></g></svg>