<svg height="512" viewBox="0 0 512 512" width="512" xmlns="http://www.w3.org/2000/svg"><g><path d="m424 128v-92a19.994 19.994 0 0 0 -20-20h-268l-48 48v64h24v80h-24v268a19.994 19.994 0 0 0 20 20h296a19.994 19.994 0 0 0 20-20v-268h-24v-80zm-32 336h-272v-160h272z" fill="#57a4ff"/><g fill="#004fac"><path d="m424 136a8 8 0 0 0 8-8v-92a28.031 28.031 0 0 0 -28-28h-268a8.008 8.008 0 0 0 -5.66 2.34l-48 48a8.008 8.008 0 0 0 -2.34 5.66v412a28.031 28.031 0 0 0 28 28h296a28.031 28.031 0 0 0 28-28v-268a8 8 0 0 0 -8-8h-16v-8h16a8 8 0 0 0 8-8v-32a8 8 0 0 0 -8-8h-16v-8zm-328 0h8v64h-8zm320 24v16h-8v-16zm-16-40a8 8 0 0 0 -8 8v80a8 8 0 0 0 8 8h16v260a12.01 12.01 0 0 1 -12 12h-296a12.01 12.01 0 0 1 -12-12v-260h16a8 8 0 0 0 8-8v-80a8 8 0 0 0 -8-8h-16v-52.69l43.31-43.31h264.69a12.01 12.01 0 0 1 12 12v84z"/><path d="m256 104a8 8 0 0 0 8-8v-48a8 8 0 0 0 -16 0v48a8 8 0 0 0 8 8z"/><path d="m224 104a8 8 0 0 0 8-8v-48a8 8 0 0 0 -16 0v48a8 8 0 0 0 8 8z"/><path d="m192 104a8 8 0 0 0 8-8v-48a8 8 0 0 0 -16 0v48a8 8 0 0 0 8 8z"/><path d="m160 104a8 8 0 0 0 8-8v-48a8 8 0 0 0 -16 0v48a8 8 0 0 0 8 8z"/><path d="m128 104a8 8 0 0 0 8-8v-24a8 8 0 0 0 -16 0v24a8 8 0 0 0 8 8z"/><path d="m352 104a8 8 0 0 0 8-8v-48a8 8 0 0 0 -16 0v48a8 8 0 0 0 8 8z"/><path d="m384 104a8 8 0 0 0 8-8v-48a8 8 0 0 0 -16 0v48a8 8 0 0 0 8 8z"/><path d="m320 104a8 8 0 0 0 8-8v-48a8 8 0 0 0 -16 0v48a8 8 0 0 0 8 8z"/><path d="m288 104a8 8 0 0 0 8-8v-48a8 8 0 0 0 -16 0v48a8 8 0 0 0 8 8z"/><path d="m392 296h-272a8 8 0 0 0 -8 8v160a8 8 0 0 0 8 8h272a8 8 0 0 0 8-8v-160a8 8 0 0 0 -8-8zm-8 160h-256v-144h256z"/></g></g></svg>