<svg xmlns="http://www.w3.org/2000/svg" viewBox="0 0 382 382"><defs><style><style>.cls-1{fill:none;}.cls-2{fill:#4b47b6;}</style></defs><title>URL </title><g id="Layer_2" data-name="Layer 2"><g id="Layer_1-2" data-name="Layer 1"><rect class="cls-1" width="382" height="382"/><path d="M191,39A152,152,0,1,0,343,191,152,152,0,0,0,191,39Zm125.62,97.17H248.84c-5.35-33.9-15.51-61.92-28.44-79a137.57,137.57,0,0,1,96.22,79ZM328,191a137.37,137.37,0,0,1-6.69,42.5H250.54A361.87,361.87,0,0,0,253,191a361.55,361.55,0,0,0-2.16-39.83h71.31A137.59,137.59,0,0,1,328,191ZM191,328c-14.29,0-33.41-29.7-42.21-79.5h84.42C224.41,298.3,205.29,328,191,328Zm-44.45-94.5a356.11,356.11,0,0,1-.32-82.33h89.54A346.22,346.22,0,0,1,238,191a346,346,0,0,1-2.55,42.5ZM54,191a137.59,137.59,0,0,1,5.85-39.83h71.31a368.33,368.33,0,0,0,.3,82.33H60.69A137.37,137.37,0,0,1,54,191ZM191,54c14.55,0,34.09,30.76,42.66,82.17H148.34C156.91,84.76,176.45,54,191,54ZM94.13,94.13a136.07,136.07,0,0,1,67.47-37c-12.93,17.1-23.09,45.12-28.44,79H65.38A136.79,136.79,0,0,1,94.13,94.13ZM66.58,248.5h67c5.46,32.7,15.42,59.7,28,76.35a137.61,137.61,0,0,1-95-76.35Zm221.29,39.37a136.07,136.07,0,0,1-67.47,37C233,308.2,243,281.2,248.41,248.5h67A137,137,0,0,1,287.87,287.87Z"/></g></g></svg>