<svg xmlns="http://www.w3.org/2000/svg" viewBox="0 0 382 382"><defs><style>.cls-1{fill:none;}.cls-2{fill:#23c87e;}</style></defs><title>Change Password</title><g id="Layer_2" data-name="Layer 2"><g id="Layer_1-2" data-name="Layer 1"><rect class="cls-1" width="382" height="382"/><path class="cls-2" d="M313,183.6a7.51,7.51,0,0,0-7.5,7.5,114.77,114.77,0,0,1-181.35,93.36h45a7.5,7.5,0,0,0,0-15H103.92a7.51,7.51,0,0,0-7.5,7.5v63.85a7.5,7.5,0,0,0,15,0V293.68A129.71,129.71,0,0,0,320.5,191.1,7.51,7.51,0,0,0,313,183.6Z"/><path class="cls-2" d="M258.34,98.39H213.92a7.5,7.5,0,0,0,0,15h63.86a7.51,7.51,0,0,0,7.5-7.5V40.69a7.5,7.5,0,0,0-15,0V88.58A129.72,129.72,0,0,0,61.1,191.19a7.5,7.5,0,1,0,15,0A114.71,114.71,0,0,1,258.34,98.39Z"/><path class="cls-2" d="M191.43,140.61A24.43,24.43,0,0,0,167,165v8.68h-4a10.2,10.2,0,0,0-10.15,10.22v47.25a10.23,10.23,0,0,0,10.22,10.22h56.7A10.23,10.23,0,0,0,230,231.16V183.91a10.24,10.24,0,0,0-10.22-10.22h-4V165A24.42,24.42,0,0,0,191.43,140.61Zm13.4,33.08H178V165a13.41,13.41,0,0,1,26.81,0Z"/></g></g></svg>