<svg xmlns="http://www.w3.org/2000/svg" viewBox="0 0 382 382"><defs><style>.cls-1{fill:none;}.cls-2{fill:#ff4141;}</style></defs><title>Revoke</title><g id="Layer_2" data-name="Layer 2"><g id="Layer_1-2" data-name="Layer 1"><rect class="cls-1" width="382" height="382"/><path class="cls-2" d="M319,164.25H294.66A61.35,61.35,0,0,0,217,109.84,61.33,61.33,0,0,0,98.61,128.36H81a63.7,63.7,0,0,0,0,127.39H92.5v-15H81a48.7,48.7,0,0,1,0-97.39h22.25a10.38,10.38,0,0,0,7.36-3.09,10.2,10.2,0,0,0,2.93-7.41c0-.26,0-.52,0-.78a46.33,46.33,0,0,1,90.69-13.39,10.29,10.29,0,0,0,13.41,6.7,46.34,46.34,0,0,1,62.23,43.55,10.29,10.29,0,0,0,10.27,10.31H319a30.75,30.75,0,0,1,0,61.5H289.5v15H319a45.75,45.75,0,0,0,0-91.5Z"/><path class="cls-2" d="M191,185.25a63,63,0,1,0,63,63A63,63,0,0,0,191,185.25Zm-48,63a48,48,0,0,1,75.15-39.55l-66.7,66.7A47.66,47.66,0,0,1,143,248.25Zm48,48a47.77,47.77,0,0,1-29.23-10L229,219a48,48,0,0,1-38,77.23Z"/></g></g></svg>