<svg xmlns="http://www.w3.org/2000/svg" viewBox="0 0 876.84 120.89"><defs><style>.cls-1{fill:#fff;}</style></defs><title>Clouderizer Logo White</title><g id="Layer_2" data-name="Layer 2"><g id="Layer_1-2" data-name="Layer 1"><g id="Layer_1-2-2" data-name="Layer 1-2"><path class="cls-1" d="M254.67,30.81a42,42,0,0,0-14.39,10.28,45.48,45.48,0,0,0-9.14,15.43,56.29,56.29,0,0,0-3.2,19.2,52.57,52.57,0,0,0,3,18.09,41.7,41.7,0,0,0,8.54,14.29,38.73,38.73,0,0,0,13.37,9.4,43.74,43.74,0,0,0,17.46,3.38,55.77,55.77,0,0,0,24-4.93v-8.23a46.68,46.68,0,0,1-23,5.51,34.71,34.71,0,0,1-15-3A31,31,0,0,1,245.5,102,35.4,35.4,0,0,1,239,89.85a47.75,47.75,0,0,1-2.22-14.77A50.41,50.41,0,0,1,239.2,59a37.49,37.49,0,0,1,7.15-12.78,32.25,32.25,0,0,1,11.51-8.44,38,38,0,0,1,15.62-3,45.85,45.85,0,0,1,20.81,4.87v-9a56.59,56.59,0,0,0-20.68-3.54A46.28,46.28,0,0,0,254.67,30.81Z"/><rect class="cls-1" x="314.14" y="23.41" width="8.1" height="95.89"/><path class="cls-1" d="M394.76,62a25.93,25.93,0,0,0-9.55-6.67A33,33,0,0,0,372.56,53a36,36,0,0,0-13.28,2.34,27.52,27.52,0,0,0-10.15,6.8A30.53,30.53,0,0,0,342.64,73a42.69,42.69,0,0,0-2.28,14.48,40.59,40.59,0,0,0,2.16,13.6,29.9,29.9,0,0,0,6.19,10.53,27.56,27.56,0,0,0,9.78,6.8,33.07,33.07,0,0,0,12.93,2.41,33.53,33.53,0,0,0,13.16-2.47,27.44,27.44,0,0,0,9.87-7,31.3,31.3,0,0,0,6.23-10.72,41.85,41.85,0,0,0,2.18-13.82,45.18,45.18,0,0,0-2.09-14.23A29.7,29.7,0,0,0,394.76,62ZM393,98.36a23.15,23.15,0,0,1-4.39,8.45,19.06,19.06,0,0,1-7.09,5.25,26.12,26.12,0,0,1-19.23-.07,20,20,0,0,1-7.3-5.34,24.61,24.61,0,0,1-4.65-8.35,33.85,33.85,0,0,1-1.65-10.94,37.36,37.36,0,0,1,1.65-11.55,24.28,24.28,0,0,1,4.71-8.6,20.26,20.26,0,0,1,7.37-5.35A24.36,24.36,0,0,1,372.05,60q10.83,0,16.64,7t5.82,20A40,40,0,0,1,393,98.36Z"/><path class="cls-1" d="M463.37,91.53a28.18,28.18,0,0,1-1.39,9.11,21.23,21.23,0,0,1-3.89,7,17.48,17.48,0,0,1-5.95,4.56,17.87,17.87,0,0,1-7.62,1.61q-8.55,0-12.68-5.57T427.7,91V54.53h-8.1V92.61q0,28.2,23.09,28.21,13.85,0,20.43-12.53h.25v11h8.1V54.53h-8.1Z"/><path class="cls-1" d="M539.57,64.21h-.25Q533.23,53,519.27,53a28.41,28.41,0,0,0-12.18,2.56,27,27,0,0,0-9.36,7.21,33.12,33.12,0,0,0-6,11.13,45.79,45.79,0,0,0-2.12,14.33,44.13,44.13,0,0,0,1.93,13.6A30.19,30.19,0,0,0,497,112.09a23.56,23.56,0,0,0,8.51,6.48,26.34,26.34,0,0,0,11,2.25,27,27,0,0,0,13.56-3.39,23,23,0,0,0,9.21-9.52h.25V119.3h8.1V23.41h-8.1Zm0,26.81a26.56,26.56,0,0,1-1.49,8.92,22.07,22.07,0,0,1-4.23,7.28,19.74,19.74,0,0,1-6.71,4.87,21.59,21.59,0,0,1-8.89,1.77,19.07,19.07,0,0,1-8.28-1.77,18,18,0,0,1-6.42-5.12,24,24,0,0,1-4.15-8.23,38.23,38.23,0,0,1-1.45-11,38.56,38.56,0,0,1,1.61-11.64,26.4,26.4,0,0,1,4.49-8.7A19.27,19.27,0,0,1,511,61.93a20.65,20.65,0,0,1,8.86-1.9,20,20,0,0,1,8,1.58,19.16,19.16,0,0,1,6.23,4.3,19.69,19.69,0,0,1,4,6.39,21.41,21.41,0,0,1,1.45,7.91Z"/><path class="cls-1" d="M614.35,61.42a21.79,21.79,0,0,0-8.07-6.23A26.66,26.66,0,0,0,595.21,53a27,27,0,0,0-11.76,2.56,28.2,28.2,0,0,0-9.3,7.09A33,33,0,0,0,568,73.38a39.85,39.85,0,0,0-2.21,13.47,46.93,46.93,0,0,0,2,14.42,30.19,30.19,0,0,0,5.76,10.66,24.43,24.43,0,0,0,9,6.61,29.56,29.56,0,0,0,11.82,2.28q13.23,0,22.52-6.64v-8q-9.75,7.65-20.68,7.65a23.25,23.25,0,0,1-9.21-1.74,18.68,18.68,0,0,1-6.92-5,22.74,22.74,0,0,1-4.37-8,36.18,36.18,0,0,1-1.58-10.69H621V84.32a46.44,46.44,0,0,0-1.71-13A28.3,28.3,0,0,0,614.35,61.42Zm-40,19.86a33.35,33.35,0,0,1,2.44-8.88,22.64,22.64,0,0,1,4.39-6.71,18.14,18.14,0,0,1,6.17-4.2A19.58,19.58,0,0,1,595,60q8.22,0,12.84,5.57t4.81,15.68Z"/><path class="cls-1" d="M664.52,53.33a15.64,15.64,0,0,0-5.66,1,16.48,16.48,0,0,0-5,2.94,20,20,0,0,0-4,4.74A28.76,28.76,0,0,0,647,68.38h-.26V54.53h-8V119.3h8V87.61a50.31,50.31,0,0,1,.35-5.76,40.7,40.7,0,0,1,1.14-6,33.18,33.18,0,0,1,2.09-5.72,19.6,19.6,0,0,1,3.16-4.84A14.34,14.34,0,0,1,657.81,62a12.63,12.63,0,0,1,5.7-1.23,12.17,12.17,0,0,1,7.33,2.08V54.34a13.13,13.13,0,0,0-2.81-.76A21.73,21.73,0,0,0,664.52,53.33Z"/><rect class="cls-1" x="684.42" y="54.53" width="8.1" height="64.77"/><path class="cls-1" d="M692.55,28.21A5.9,5.9,0,0,0,690.68,27a6.55,6.55,0,0,0-2.27-.41,5.68,5.68,0,0,0-4,1.62,5.35,5.35,0,0,0-1.71,4.08,5.52,5.52,0,0,0,1.71,4.17,5.6,5.6,0,0,0,4,1.64,5.9,5.9,0,0,0,2.31-.44,6.09,6.09,0,0,0,1.86-1.23,5.54,5.54,0,0,0,1.27-1.87,6.07,6.07,0,0,0,.44-2.27,5.41,5.41,0,0,0-.48-2.31A5.56,5.56,0,0,0,692.55,28.21Z"/><polygon class="cls-1" points="710.97 61.61 748.29 61.61 707.61 116.58 707.61 119.3 759.86 119.3 759.86 112.22 719.95 112.22 760.81 56.8 760.81 54.53 710.97 54.53 710.97 61.61"/><path class="cls-1" d="M820.34,61.42a21.86,21.86,0,0,0-8.06-6.23A26.66,26.66,0,0,0,801.21,53a27,27,0,0,0-11.77,2.56,28.17,28.17,0,0,0-9.29,7.09A33,33,0,0,0,774,73.38a39.61,39.61,0,0,0-2.21,13.47,46.93,46.93,0,0,0,2,14.42,30.19,30.19,0,0,0,5.76,10.66,24.43,24.43,0,0,0,9,6.61,29.61,29.61,0,0,0,11.83,2.28q13.2,0,22.52-6.64v-8q-9.75,7.65-20.69,7.65a23.16,23.16,0,0,1-9.2-1.74,18.71,18.71,0,0,1-6.93-5,22.71,22.71,0,0,1-4.36-8,36.18,36.18,0,0,1-1.58-10.69H827V84.32a46.44,46.44,0,0,0-1.71-13A28.32,28.32,0,0,0,820.34,61.42ZM780.4,81.28a33,33,0,0,1,2.43-8.88,22.87,22.87,0,0,1,4.4-6.71,18.14,18.14,0,0,1,6.17-4.2A19.7,19.7,0,0,1,801,60q8.22,0,12.84,5.57t4.81,15.68Z"/><path class="cls-1" d="M874,53.58a21.73,21.73,0,0,0-3.51-.25,15.64,15.64,0,0,0-5.66,1,16.48,16.48,0,0,0-5,2.94,20,20,0,0,0-4,4.74A28.59,28.59,0,0,0,853,68.38h-.25V54.53h-8V119.3h8V87.61a50.31,50.31,0,0,1,.35-5.76,40.7,40.7,0,0,1,1.14-6,33.14,33.14,0,0,1,2.08-5.72,19.64,19.64,0,0,1,3.17-4.84A14.14,14.14,0,0,1,863.81,62a12.56,12.56,0,0,1,5.69-1.23,12.2,12.2,0,0,1,7.34,2.08V54.34A13.41,13.41,0,0,0,874,53.58Z"/><path class="cls-1" d="M179.81,63.87c-.05-.24-.1-.5-.15-.8a34.15,34.15,0,0,0-6.91-15.63c-5.28-6.87-10.69-11.19-16.54-13.19a50.48,50.48,0,0,0-13.77-2.53,42.41,42.41,0,0,0-6.6-14.07A41.16,41.16,0,0,0,106.74.44,66.47,66.47,0,0,0,99.15,0C90.13,0,81.68,1.77,76,4.85c-8.4,4.51-11.3,7.72-14.63,13.2a22,22,0,0,0-2.69,7.86c-.87-.08-1.75-.12-2.63-.12a27.59,27.59,0,0,0-10.8,2.13C34.49,32.49,28.61,38.56,25.13,49a45.47,45.47,0,0,0-4.51,1.86A35,35,0,0,0,7,62.51,38.15,38.15,0,0,0,4.67,102.8c6.41,11.82,16.57,18.07,29.38,18.07H173.32a25.77,25.77,0,0,0,14.43-4.41A28.45,28.45,0,0,0,199.5,100c2.69-9.3.88-18.51-5.24-26.63A25.71,25.71,0,0,0,179.81,63.87Zm13.28,34.3a21.67,21.67,0,0,1-9,12.71,19.14,19.14,0,0,1-10.79,3.33H34.05c-10.34,0-18.35-5-23.52-14.58a31.66,31.66,0,0,1,1.86-33.3,28.26,28.26,0,0,1,11.14-9.45,54.71,54.71,0,0,1,7-2.65C33.23,44,37.61,38.4,47.84,34.05A21.07,21.07,0,0,1,56,32.46a20.31,20.31,0,0,1,9.28,2.07c-1-5.08.19-10.47,1.74-13,2.7-4.44,4.72-6.84,12.07-10.79,4.78-2.58,12.34-4,20-4a59.49,59.49,0,0,1,6.8.39,34.59,34.59,0,0,1,24.49,14.49c5.24,7.26,6.1,14.34,6.66,17.15a18.48,18.48,0,0,1,3.86-.34A42.89,42.89,0,0,1,154,40.58c5.35,1.83,9.8,6.24,13.41,10.94a27.5,27.5,0,0,1,5.62,12.63,33.41,33.41,0,0,1,.73,5.72h.2a18.7,18.7,0,0,1,15,7.53C193.55,83.51,195.31,90.5,193.09,98.17Z"/><path class="cls-1" d="M104.14,35.14h-.53c-1.79,0-3.1,1.29-4,2.4a3.39,3.39,0,0,1-2.83,1.15H86c-1,0-2.26,0-2.48-1.33-.35-2.07-.28-9.61.21-10.58h0c.2-.31.65-.61,2.38-.62h3.19A3.17,3.17,0,0,1,92,27.53a5.44,5.44,0,0,0,4.16,2.14,4.69,4.69,0,0,0,3.35-1.45,5.8,5.8,0,0,0,0-7.56A4.66,4.66,0,0,0,96.1,19a5.12,5.12,0,0,0-3.83,1.85,4.65,4.65,0,0,1-3.74,1.68h-3c-3.47.08-5.18,1.85-5.23,5.45,0,.72.08,7.94.1,8.58A2.87,2.87,0,0,1,80,38.5a.88.88,0,0,1-.73.27H76.87c-2.2,0-3.5.28-4,.86-.15.28-.48,2.21-.32,14v.55H63.91a1.8,1.8,0,0,1-1.76-1.84s0-.06,0-.09c0-1.21,0-2.39-.07-3.24V48c0-.68-.46-.92-1.8-.92H57.84c-1.36,0-1.53-.15-2.62-1.6h0a4.52,4.52,0,0,0-6.29-1,5.59,5.59,0,0,0-.52.45,5.71,5.71,0,0,0-1,7.19,5,5,0,0,0,4.26,2.17,4.38,4.38,0,0,0,3.57-1.57,6.58,6.58,0,0,0,.93-1.55l.17-.35h1.37a1,1,0,0,1,.78.24c.26.28.27.76.27,1.81V63h-.5l-1.4.06c-1,0-2.13.08-3.29.08-1.47,0-7.76-.07-9-.25A5.36,5.36,0,0,1,41.7,61a4.58,4.58,0,0,0-3.29-1.36,4.31,4.31,0,0,0-3.36,1.49,5.19,5.19,0,0,0,.14,7,4.58,4.58,0,0,0,3.29,1.47A4.47,4.47,0,0,0,41.86,68a4.46,4.46,0,0,1,3.74-1.64H58.71v6.86a2.19,2.19,0,0,1-.4,1.61,1.68,1.68,0,0,1-1.29.41H28l-.13-.34a6.56,6.56,0,0,0-.35-.76A5,5,0,0,0,23.24,72a7.1,7.1,0,0,0-1.53.17,4.28,4.28,0,0,0-3.15,2.91,6,6,0,0,0-.46,2.43A4.13,4.13,0,0,0,19.39,81l.16.18A4,4,0,0,0,21,82.29l.31.13v.77a12,12,0,0,1,.06,1.47v.66c-.08,1.82-.13,3.13.28,3.64s2,.8,4.65.8H29a.84.84,0,0,1,.67.25A2.65,2.65,0,0,1,30,91.73c0,.65-.1,4.54-.09,5.19,0,3.34,1.63,5,4.85,5.06h2.83A4.36,4.36,0,0,1,41,103.55a4.69,4.69,0,0,0,3.55,1.71,4.34,4.34,0,0,0,3.18-1.42,5.37,5.37,0,0,0,0-7,4.3,4.3,0,0,0-3.1-1.35,5,5,0,0,0-3.86,2,3,3,0,0,1-2.56,1.27H35.34c-1.61,0-2-.3-2.22-.59-.47-.77-.54-5.17-.22-7.08.21-1.23,1.42-1.23,2.31-1.24h22.1v.55c0,1.3.08,6.38.1,7s0,1.33,0,2v2.14c.07,1.17.32,1.47,1.21,1.47H80.33A3.94,3.94,0,0,1,84,104.82a4,4,0,0,0,3.34,1.82A5.93,5.93,0,0,0,89.9,106a5.29,5.29,0,0,0,2.59-6,4.77,4.77,0,0,0-4.38-4,4.68,4.68,0,0,0-.53,0c-1.79,0-3.1,1.29-4,2.41a3.39,3.39,0,0,1-2.83,1.15H63c-.95,0-2.26,0-2.48-1.32a41.48,41.48,0,0,1-.07-7.8V90h7.28A3.14,3.14,0,0,1,70.34,91a5.14,5.14,0,0,0,3.75,2.23,4,4,0,0,0,.49,0,4.42,4.42,0,0,0,4.07-3.7A4.91,4.91,0,0,0,76.24,84a5.48,5.48,0,0,0-2.35-.59,3.71,3.71,0,0,0-3.11,1.69,3.66,3.66,0,0,1-3.43,1.68H26.55c-1,0-1.61-.2-1.79-.59v-.07a2.66,2.66,0,0,1-.3-1.91v-.46a3,3,0,0,1,.05-.7v-.38l.35-.11a4.56,4.56,0,0,0,1.66-1A5.44,5.44,0,0,0,28,79.18l.12-.34H56.74c2.4,0,4.15-.71,4.69-1.89a11.41,11.41,0,0,0,.72-4.17c0-.83,1.25-.83,1.66-.83h8.7a3.31,3.31,0,0,1,2.89,1.26l.28.32h0a5.19,5.19,0,0,0,3.71,2.41,6,6,0,0,0,1,.08,4.83,4.83,0,0,0,4-2.18,5.77,5.77,0,0,0-1-8,5.13,5.13,0,0,0-4.08-1.08,5.45,5.45,0,0,0-2.54,1.15,5.91,5.91,0,0,0-1.45,1.7l-.34.53H63.29l-1-.3c-.13-.23-.14-.57-.12-1.55V59a1,1,0,0,1,.23-.72,2.44,2.44,0,0,1,1.74-.44h.67c5.52,0,8.57,0,12.1-.05h8.3c1.59,0,2.89.12,4,1.69a4.86,4.86,0,0,0,3.46,1.71H93a4.81,4.81,0,0,0,4.8-3.81,5,5,0,0,0-2.18-5.89,5.28,5.28,0,0,0-2.74-.92,4,4,0,0,0-3.07,1.64l-.06.06c-.78.94-1.6,1.92-3.17,1.92H76V53.6c0-2.3-.08-9.85.28-10.83.19-.42.82-.62,1.92-.62H96.37A3.94,3.94,0,0,1,100,44a4,4,0,0,0,3.35,1.81,6.07,6.07,0,0,0,2.54-.63,5.28,5.28,0,0,0,2.58-6A4.75,4.75,0,0,0,104.14,35.14Z"/></g></g></g></svg>