<svg xmlns="http://www.w3.org/2000/svg" viewBox="0 0 876.86 120.88"><defs><style>.cls-1{fill:none;}.cls-2{fill:#076fa6;}.cls-3{fill:#056fa6;}</style></defs><title>Logo</title><g id="Layer_2" data-name="Layer 2"><g id="Layer_1-2" data-name="Layer 1"><path class="cls-1" d="M534.09,65.91a19.11,19.11,0,0,0-6.23-4.3,19.93,19.93,0,0,0-8-1.58,20.54,20.54,0,0,0-8.86,1.9,19.33,19.33,0,0,0-6.93,5.47,26.49,26.49,0,0,0-4.49,8.7A38.85,38.85,0,0,0,498,87.74a38.36,38.36,0,0,0,1.45,11,24,24,0,0,0,4.15,8.23,18.11,18.11,0,0,0,6.42,5.12,19.09,19.09,0,0,0,8.28,1.77,21.51,21.51,0,0,0,8.89-1.77,19.6,19.6,0,0,0,6.71-4.87,21.92,21.92,0,0,0,4.23-7.28A26.38,26.38,0,0,0,539.59,91V80.21a21.26,21.26,0,0,0-1.45-7.91A19.77,19.77,0,0,0,534.09,65.91Z"/><path class="cls-1" d="M595,60a19.7,19.7,0,0,0-7.62,1.46,18.19,18.19,0,0,0-6.17,4.2,22.75,22.75,0,0,0-4.39,6.71,33.76,33.76,0,0,0-2.44,8.88h38.27q-.2-10.11-4.81-15.68T595,60Z"/><path class="cls-1" d="M174,69.85h-.2a32.64,32.64,0,0,0-.73-5.72,27.51,27.51,0,0,0-5.62-12.63c-3.61-4.7-8.06-9.11-13.41-10.94A42.89,42.89,0,0,0,141,38.36a18.49,18.49,0,0,0-3.86.34c-.56-2.81-1.42-9.89-6.66-17.15A34.58,34.58,0,0,0,106,7.06a59,59,0,0,0-6.8-.39c-7.69,0-15.25,1.47-20,4.05-7.35,3.95-9.37,6.35-12.07,10.79-1.55,2.55-2.7,7.94-1.74,13a20.29,20.29,0,0,0-9.28-2.07,21.08,21.08,0,0,0-8.19,1.59C37.63,38.4,33.25,44,30.56,54.22a53.87,53.87,0,0,0-7,2.65,28.18,28.18,0,0,0-11.14,9.45,31.69,31.69,0,0,0-1.86,33.3c5.17,9.54,13.18,14.58,23.52,14.58H173.35a19.08,19.08,0,0,0,10.79-3.33,21.68,21.68,0,0,0,9-12.71c2.22-7.67.46-14.66-4.15-20.77A18.71,18.71,0,0,0,174,69.85ZM106,45.14a6,6,0,0,1-2.54.63A4,4,0,0,1,100.06,44a3.93,3.93,0,0,0-3.69-1.81l-2.46,0H89.5l-.52,0h-4.8l-5.15,0h-.79c-1.1,0-1.73.2-1.92.62C76,43.75,76,51.3,76,53.6v.54h.52c3.19,0,6.37,0,10,0,1.57,0,2.39-1,3.17-1.92l.06-.06a4,4,0,0,1,3.07-1.64,5.28,5.28,0,0,1,2.74.92,5,5,0,0,1,2.18,5.89A4.81,4.81,0,0,1,93,61.19h-.17a4.85,4.85,0,0,1-3.46-1.71c-1.12-1.57-2.42-1.69-4-1.69H77c-3.53,0-6.58,0-12.1.05h-.67a2.45,2.45,0,0,0-1.74.44,1,1,0,0,0-.23.72c0,.68,0,2.2,0,3.81l0,1.65c0,.59,0,1,0,1.11v1.09c0,1,0,1.32.12,1.55l1,.3.75,0c.53,0,1.15,0,1.94,0h.75l2.4,0,.9,0c.33,0,.72,0,1.49,0h.08c.13,0,.29,0,.47,0l1.18,0,1.77,0,.34-.53a5.84,5.84,0,0,1,1.45-1.7A5.48,5.48,0,0,1,79.38,65a5.19,5.19,0,0,1,.87-.07A5.08,5.08,0,0,1,83.46,66a5.77,5.77,0,0,1,1,8,4.84,4.84,0,0,1-4,2.18,6,6,0,0,1-.95-.08,5.21,5.21,0,0,1-3.71-2.41l0,0,0,0-.28-.32a3.29,3.29,0,0,0-2.89-1.26l-3.53,0H68l-3.29,0h-.26l-.55,0c-.41,0-1.66,0-1.66.83A11.4,11.4,0,0,1,61.49,77C61,78.19,59.2,78.9,56.8,78.9l-7.23,0-21,0h-.36l-.12.34a5.42,5.42,0,0,1-1.47,2.16,4.45,4.45,0,0,1-1.66,1l-.35.11,0,.38c0,.2,0,.43-.05.7l0,.46a2.68,2.68,0,0,0,.3,1.91l0,.07c.18.39.78.59,1.79.59h.72l4.79,0h4.43l.54,0h16.8c7,0,11.35,0,13.41,0h.12a3.65,3.65,0,0,0,3.43-1.68,3.73,3.73,0,0,1,3.11-1.69,5.51,5.51,0,0,1,2.35.59,4.9,4.9,0,0,1,2.41,5.58,4.41,4.41,0,0,1-4.07,3.7,2.7,2.7,0,0,1-.49,0,5.13,5.13,0,0,1-3.75-2.23,3.13,3.13,0,0,0-2.63-1.07h-.09c-.87,0-3,0-6.64,0h-.47l0,.49a41.48,41.48,0,0,0,.07,7.8c.22,1.32,1.53,1.32,2.48,1.32H75.2c2.16,0,4.09,0,5.45,0h.09a3.39,3.39,0,0,0,2.83-1.15c.94-1.12,2.25-2.41,4-2.41a3.15,3.15,0,0,1,.53,0,4.76,4.76,0,0,1,4.38,4,5.29,5.29,0,0,1-2.59,6,5.81,5.81,0,0,1-2.54.64,4,4,0,0,1-3.34-1.82A3.94,3.94,0,0,0,80.36,103h-.13c-2.59,0-4.07,0-5.46,0H68.53L68,103c-2.53,0-3.48,0-4.42,0H58.65c-.89,0-1.14-.3-1.21-1.47,0-.66,0-1.41,0-2.14s0-1.34,0-2-.1-5.74-.1-7v-.55H35.23c-.89,0-2.1,0-2.31,1.24-.32,1.91-.25,6.31.22,7.08.2.29.61.58,2.22.59H37l1.24,0h.12a3,3,0,0,0,2.56-1.27,5,5,0,0,1,3.86-2,4.29,4.29,0,0,1,3.1,1.35,5.36,5.36,0,0,1,0,7,4.33,4.33,0,0,1-3.18,1.42,4.7,4.7,0,0,1-3.55-1.71A4.35,4.35,0,0,0,37.61,102H36.09l-1.31,0c-3.22-.07-4.81-1.72-4.85-5.06,0-.65.07-4.54.09-5.19A2.6,2.6,0,0,0,29.69,90a.85.85,0,0,0-.67-.25h-.09c-.18,0-.44,0-.75,0-.55,0-1.19,0-1.87,0-2.66,0-4.22-.27-4.65-.8s-.36-1.82-.28-3.64l0-.66a12.6,12.6,0,0,0-.06-1.47c0-.17,0-.31,0-.42v-.35L21,82.29a4,4,0,0,1-1.42-1.1L19.41,81a4.16,4.16,0,0,1-1.29-3.48,6.12,6.12,0,0,1,.46-2.43,4.3,4.3,0,0,1,3.15-2.91A7.39,7.39,0,0,1,23.26,72a5,5,0,0,1,4.31,2.1,5.54,5.54,0,0,1,.35.76l.13.34h29a1.65,1.65,0,0,0,1.29-.41,2.16,2.16,0,0,0,.4-1.61v-.82c0-1.09,0-3,0-5.4v-.55h-2.8c-2.39,0-9.13,0-10.19,0h-.12A4.45,4.45,0,0,0,41.88,68,4.46,4.46,0,0,1,38.5,69.6a4.6,4.6,0,0,1-3.29-1.39,5.2,5.2,0,0,1-.14-7,4.33,4.33,0,0,1,3.36-1.49A4.56,4.56,0,0,1,41.72,61,5.39,5.39,0,0,0,44.5,63c1.27.18,7.56.25,9,.25,1.16,0,2.25,0,3.29-.08l1.4-.06h.5v-.53c0-2.77,0-6.56,0-9.48v-.13c0-1,0-1.53-.27-1.81a1,1,0,0,0-.78-.24c-.47,0-.77,0-1,0l-.37,0-.17.35a6.81,6.81,0,0,1-.93,1.55,4.37,4.37,0,0,1-3.57,1.57,5,5,0,0,1-4.26-2.17,5.72,5.72,0,0,1,1-7.19,4.5,4.5,0,0,1,6.81.56l0,0c1.09,1.45,1.26,1.6,2.62,1.6H58c.47,0,.91,0,1.31,0l1,0c1.34,0,1.79.24,1.8.92,0,.24,0,.56,0,.93V49c0,.85.07,2,.07,3.24A1.8,1.8,0,0,0,64,54.19l4.12,0,4,0h.52v-.55c-.16-11.8.17-13.73.32-14,.47-.58,1.77-.86,4-.86.55,0,1.07,0,1.51,0l.78,0h.09A.89.89,0,0,0,80,38.5a2.82,2.82,0,0,0,.35-1.91c0-.64-.11-7.86-.1-8.58,0-3.6,1.76-5.37,5.23-5.45l1.39,0h.39l1.26,0a4.64,4.64,0,0,0,3.74-1.68A5.12,5.12,0,0,1,96.12,19a4.64,4.64,0,0,1,3.42,1.54,5.78,5.78,0,0,1,0,7.56,4.68,4.68,0,0,1-3.35,1.45,5.44,5.44,0,0,1-4.16-2.14A3.17,3.17,0,0,0,89.32,26h-.14l-1.34,0H86.13c-1.73,0-2.18.31-2.38.62l0,0v0c-.49,1-.56,8.51-.21,10.58C83.73,38.6,85,38.61,86,38.62h7.26l3.41,0h.1a3.36,3.36,0,0,0,2.83-1.15c.94-1.11,2.25-2.4,4-2.4a3.23,3.23,0,0,1,.53,0,4.75,4.75,0,0,1,4.37,4A5.28,5.28,0,0,1,106,45.14Z"/><path class="cls-1" d="M372.07,60a24.32,24.32,0,0,0-9.61,1.83,20.29,20.29,0,0,0-7.37,5.35,24.34,24.34,0,0,0-4.71,8.6,37.41,37.41,0,0,0-1.65,11.55,34,34,0,0,0,1.65,10.94,24.62,24.62,0,0,0,4.65,8.35,20,20,0,0,0,7.3,5.34,26.11,26.11,0,0,0,19.23.07,19,19,0,0,0,7.09-5.25A23.15,23.15,0,0,0,393,98.36,39.93,39.93,0,0,0,394.53,87q0-13.1-5.82-20T372.07,60Z"/><path class="cls-1" d="M801,60a19.7,19.7,0,0,0-7.62,1.46,18.19,18.19,0,0,0-6.17,4.2,22.78,22.78,0,0,0-4.4,6.71,33.38,33.38,0,0,0-2.43,8.88h38.27q-.2-10.11-4.81-15.68T801,60Z"/><path class="cls-2" d="M254.69,30.81A42.16,42.16,0,0,0,240.3,41.09a45.51,45.51,0,0,0-9.14,15.43,56.35,56.35,0,0,0-3.2,19.2,52.58,52.58,0,0,0,3,18.09,41.82,41.82,0,0,0,8.54,14.29,38.85,38.85,0,0,0,13.37,9.4,43.74,43.74,0,0,0,17.46,3.38,55.72,55.72,0,0,0,24-4.93v-8.23a46.69,46.69,0,0,1-23,5.51,34.77,34.77,0,0,1-15-3A30.91,30.91,0,0,1,245.52,102,35.46,35.46,0,0,1,239,89.85a48.07,48.07,0,0,1-2.22-14.77A50.54,50.54,0,0,1,239.22,59a37.62,37.62,0,0,1,7.15-12.78,32.31,32.31,0,0,1,11.51-8.44,38,38,0,0,1,15.62-3,45.85,45.85,0,0,1,20.81,4.87v-9a56.72,56.72,0,0,0-20.68-3.54A46.33,46.33,0,0,0,254.69,30.81Z"/><rect class="cls-2" x="314.16" y="23.41" width="8.1" height="95.89"/><path class="cls-2" d="M394.78,62a25.8,25.8,0,0,0-9.55-6.67A33,33,0,0,0,372.58,53a36,36,0,0,0-13.28,2.34,27.64,27.64,0,0,0-10.15,6.8A30.43,30.43,0,0,0,342.66,73a42.93,42.93,0,0,0-2.28,14.48,40.71,40.71,0,0,0,2.16,13.6,30,30,0,0,0,6.19,10.53,27.51,27.51,0,0,0,9.78,6.8,33,33,0,0,0,12.93,2.41,33.52,33.52,0,0,0,13.16-2.47,27.47,27.47,0,0,0,9.87-7,31.32,31.32,0,0,0,6.23-10.72,41.69,41.69,0,0,0,2.18-13.82,44.93,44.93,0,0,0-2.09-14.23A29.6,29.6,0,0,0,394.78,62ZM393,98.36a23.15,23.15,0,0,1-4.39,8.45,19,19,0,0,1-7.09,5.25,26.11,26.11,0,0,1-19.23-.07,20,20,0,0,1-7.3-5.34,24.62,24.62,0,0,1-4.65-8.35,34,34,0,0,1-1.65-10.94,37.41,37.41,0,0,1,1.65-11.55,24.34,24.34,0,0,1,4.71-8.6,20.29,20.29,0,0,1,7.37-5.35A24.32,24.32,0,0,1,372.07,60Q382.9,60,388.71,67t5.82,20A39.93,39.93,0,0,1,393,98.36Z"/><path class="cls-2" d="M463.39,91.53a28.23,28.23,0,0,1-1.39,9.11,21.26,21.26,0,0,1-3.89,7,17.52,17.52,0,0,1-5.95,4.56,17.78,17.78,0,0,1-7.62,1.61q-8.54,0-12.68-5.57t-4.14-17.2V54.53h-8.1V92.61q0,28.2,23.09,28.21,13.85,0,20.43-12.53h.25v11h8.1V54.53h-8.1Z"/><path class="cls-2" d="M539.59,64.21h-.25Q533.26,53,519.29,53a28.36,28.36,0,0,0-12.18,2.56,27,27,0,0,0-9.36,7.21,33.24,33.24,0,0,0-6,11.13,46.05,46.05,0,0,0-2.12,14.33,44.27,44.27,0,0,0,1.93,13.6A30.25,30.25,0,0,0,497,112.09a23.65,23.65,0,0,0,8.51,6.48,26.44,26.44,0,0,0,11,2.25,27,27,0,0,0,13.56-3.39,23,23,0,0,0,9.21-9.52h.25V119.3h8.1V23.41h-8.1Zm0,26.81a26.38,26.38,0,0,1-1.49,8.92,21.92,21.92,0,0,1-4.23,7.28,19.6,19.6,0,0,1-6.71,4.87,21.51,21.51,0,0,1-8.89,1.77,19.09,19.09,0,0,1-8.28-1.77,18.11,18.11,0,0,1-6.42-5.12,24,24,0,0,1-4.15-8.23,38.36,38.36,0,0,1-1.45-11,38.85,38.85,0,0,1,1.61-11.64,26.49,26.49,0,0,1,4.49-8.7A19.33,19.33,0,0,1,511,61.93a20.54,20.54,0,0,1,8.86-1.9,19.93,19.93,0,0,1,8,1.58,19.11,19.11,0,0,1,6.23,4.3,19.77,19.77,0,0,1,4,6.39,21.26,21.26,0,0,1,1.45,7.91Z"/><path class="cls-2" d="M614.37,61.42a21.81,21.81,0,0,0-8.07-6.23A26.57,26.57,0,0,0,595.23,53a26.93,26.93,0,0,0-11.76,2.56,28.17,28.17,0,0,0-9.3,7.09A33.07,33.07,0,0,0,568,73.38a39.9,39.9,0,0,0-2.21,13.47,47.21,47.21,0,0,0,2,14.42,30.19,30.19,0,0,0,5.76,10.66,24.5,24.5,0,0,0,9,6.61,29.66,29.66,0,0,0,11.82,2.28q13.23,0,22.52-6.64v-8q-9.74,7.65-20.68,7.65a23.27,23.27,0,0,1-9.21-1.74,18.79,18.79,0,0,1-6.92-5,22.73,22.73,0,0,1-4.37-8,36.29,36.29,0,0,1-1.58-10.69H621V84.32a46.15,46.15,0,0,0-1.71-13A28.27,28.27,0,0,0,614.37,61.42Zm-40,19.86a33.76,33.76,0,0,1,2.44-8.88,22.75,22.75,0,0,1,4.39-6.71,18.19,18.19,0,0,1,6.17-4.2A19.7,19.7,0,0,1,595,60q8.22,0,12.84,5.57t4.81,15.68Z"/><path class="cls-2" d="M664.54,53.33a15.77,15.77,0,0,0-5.66,1,16.56,16.56,0,0,0-5,2.94,19.93,19.93,0,0,0-4,4.74A29,29,0,0,0,647,68.38h-.26V54.53h-8V119.3h8V87.61a51.33,51.33,0,0,1,.35-5.76,41.59,41.59,0,0,1,1.14-6,33.41,33.41,0,0,1,2.09-5.72,19.55,19.55,0,0,1,3.16-4.84A14.39,14.39,0,0,1,657.83,62a12.62,12.62,0,0,1,5.7-1.23,12.1,12.1,0,0,1,7.33,2.08V54.34a13.24,13.24,0,0,0-2.81-.76A21.92,21.92,0,0,0,664.54,53.33Z"/><rect class="cls-2" x="684.44" y="54.53" width="8.1" height="64.77"/><path class="cls-2" d="M692.57,28.21A5.7,5.7,0,0,0,690.7,27a6.35,6.35,0,0,0-2.27-.41,5.69,5.69,0,0,0-4,1.62,5.35,5.35,0,0,0-1.71,4.08,5.55,5.55,0,0,0,1.71,4.17,5.63,5.63,0,0,0,4,1.64,5.8,5.8,0,0,0,2.31-.44,6,6,0,0,0,1.86-1.23,5.49,5.49,0,0,0,1.27-1.87,6,6,0,0,0,.44-2.27,5.43,5.43,0,0,0-.48-2.31A5.66,5.66,0,0,0,692.57,28.21Z"/><polygon class="cls-2" points="710.99 61.61 748.31 61.61 707.63 116.58 707.63 119.3 759.88 119.3 759.88 112.22 719.97 112.22 760.83 56.8 760.83 54.53 710.99 54.53 710.99 61.61"/><path class="cls-2" d="M820.36,61.42a21.77,21.77,0,0,0-8.06-6.23A26.64,26.64,0,0,0,801.23,53a27,27,0,0,0-11.77,2.56,28.24,28.24,0,0,0-9.29,7.09A33.07,33.07,0,0,0,774,73.38a39.65,39.65,0,0,0-2.21,13.47,47.21,47.21,0,0,0,2,14.42,30.19,30.19,0,0,0,5.76,10.66,24.47,24.47,0,0,0,9,6.61,29.71,29.71,0,0,0,11.83,2.28q13.21,0,22.52-6.64v-8q-9.75,7.65-20.69,7.65a23.25,23.25,0,0,1-9.2-1.74,18.83,18.83,0,0,1-6.93-5,22.72,22.72,0,0,1-4.36-8,36.29,36.29,0,0,1-1.58-10.69H827V84.32a46.15,46.15,0,0,0-1.71-13A28.29,28.29,0,0,0,820.36,61.42ZM780.42,81.28a33.38,33.38,0,0,1,2.43-8.88,22.78,22.78,0,0,1,4.4-6.71,18.19,18.19,0,0,1,6.17-4.2A19.7,19.7,0,0,1,801,60q8.22,0,12.84,5.57t4.81,15.68Z"/><path class="cls-2" d="M874,53.58a21.75,21.75,0,0,0-3.51-.25,15.81,15.81,0,0,0-5.66,1,16.52,16.52,0,0,0-5,2.94,19.93,19.93,0,0,0-4,4.74A29,29,0,0,0,853,68.38h-.25V54.53h-8V119.3h8V87.61a51.33,51.33,0,0,1,.35-5.76,41.59,41.59,0,0,1,1.14-6,33.37,33.37,0,0,1,2.08-5.72,19.87,19.87,0,0,1,3.17-4.84A14.27,14.27,0,0,1,863.83,62a12.57,12.57,0,0,1,5.69-1.23,12.13,12.13,0,0,1,7.34,2.08V54.34A13.34,13.34,0,0,0,874,53.58Z"/><path class="cls-3" d="M179.83,63.87c-.05-.24-.1-.5-.15-.8a34,34,0,0,0-6.91-15.63c-5.28-6.87-10.69-11.19-16.54-13.19a50.59,50.59,0,0,0-13.77-2.53,42.4,42.4,0,0,0-6.6-14.07A41.16,41.16,0,0,0,106.76.44,64.91,64.91,0,0,0,99.17,0C90.15,0,81.7,1.77,76,4.85,67.6,9.36,64.7,12.57,61.37,18.05a22.17,22.17,0,0,0-2.69,7.86c-.87-.08-1.75-.12-2.63-.12a27.53,27.53,0,0,0-10.8,2.13C34.51,32.49,28.63,38.56,25.15,49a48.24,48.24,0,0,0-4.51,1.86A35,35,0,0,0,7,62.51,38.17,38.17,0,0,0,4.69,102.8c6.41,11.82,16.57,18.07,29.38,18.07H173.34a25.75,25.75,0,0,0,14.43-4.41A28.39,28.39,0,0,0,199.52,100c2.69-9.3.88-18.51-5.24-26.63A25.73,25.73,0,0,0,179.83,63.87Zm13.28,34.3a21.68,21.68,0,0,1-9,12.71,19.08,19.08,0,0,1-10.79,3.33H34.07c-10.34,0-18.35-5-23.52-14.58a31.69,31.69,0,0,1,1.86-33.3,28.18,28.18,0,0,1,11.14-9.45,53.87,53.87,0,0,1,7-2.65C33.25,44,37.63,38.4,47.86,34.05a21.08,21.08,0,0,1,8.19-1.59,20.29,20.29,0,0,1,9.28,2.07c-1-5.08.19-10.47,1.74-13,2.7-4.44,4.72-6.84,12.07-10.79,4.78-2.58,12.34-4.05,20-4.05a59,59,0,0,1,6.8.39,34.58,34.58,0,0,1,24.49,14.49c5.24,7.26,6.1,14.34,6.66,17.15a18.49,18.49,0,0,1,3.86-.34,42.89,42.89,0,0,1,13.09,2.2c5.35,1.83,9.8,6.24,13.41,10.94a27.51,27.51,0,0,1,5.62,12.63,32.64,32.64,0,0,1,.73,5.72h.2A18.71,18.71,0,0,1,189,77.4C193.57,83.51,195.33,90.5,193.11,98.17Z"/><path class="cls-2" d="M104.16,35.14a3.23,3.23,0,0,0-.53,0c-1.79,0-3.1,1.29-4,2.4a3.36,3.36,0,0,1-2.83,1.15h-.1l-3.41,0H86c-.95,0-2.26,0-2.48-1.33-.35-2.07-.28-9.61.21-10.58v0l0,0c.2-.31.65-.61,2.38-.62h1.71l1.34,0h.14a3.17,3.17,0,0,1,2.74,1.37,5.44,5.44,0,0,0,4.16,2.14,4.68,4.68,0,0,0,3.35-1.45,5.78,5.78,0,0,0,0-7.56A4.64,4.64,0,0,0,96.12,19a5.12,5.12,0,0,0-3.83,1.85,4.64,4.64,0,0,1-3.74,1.68l-1.26,0H86.9l-1.39,0c-3.47.08-5.18,1.85-5.23,5.45,0,.72.08,7.94.1,8.58A2.82,2.82,0,0,1,80,38.5a.89.89,0,0,1-.73.27h-.09l-.78,0c-.44,0-1,0-1.51,0-2.2,0-3.5.28-4,.86-.15.28-.48,2.21-.32,14v.55h-.52l-4,0-4.12,0a1.8,1.8,0,0,1-1.75-1.93c0-1.21,0-2.39-.07-3.24v-.11c0-.37,0-.69,0-.93,0-.68-.46-.92-1.8-.92l-1,0c-.4,0-.84,0-1.31,0h-.14c-1.36,0-1.53-.15-2.62-1.6l0,0a4.5,4.5,0,0,0-6.81-.56,5.72,5.72,0,0,0-1,7.19,5,5,0,0,0,4.26,2.17,4.37,4.37,0,0,0,3.57-1.57,6.81,6.81,0,0,0,.93-1.55l.17-.35.37,0c.19,0,.49,0,1,0a1,1,0,0,1,.78.24c.26.28.27.76.27,1.81V53c0,2.92,0,6.71,0,9.48v.53h-.5l-1.4.06c-1,0-2.13.08-3.29.08-1.47,0-7.76-.07-9-.25A5.39,5.39,0,0,1,41.72,61a4.56,4.56,0,0,0-3.29-1.36,4.33,4.33,0,0,0-3.36,1.49,5.2,5.2,0,0,0,.14,7A4.6,4.6,0,0,0,38.5,69.6,4.46,4.46,0,0,0,41.88,68a4.45,4.45,0,0,1,3.74-1.64h.12c1.06,0,7.8,0,10.19,0h2.8V67c0,2.39,0,4.31,0,5.4v.82a2.16,2.16,0,0,1-.4,1.61,1.65,1.65,0,0,1-1.29.41h-29l-.13-.34a5.54,5.54,0,0,0-.35-.76A5,5,0,0,0,23.26,72a7.39,7.39,0,0,0-1.53.17,4.3,4.3,0,0,0-3.15,2.91,6.12,6.12,0,0,0-.46,2.43A4.16,4.16,0,0,0,19.41,81l.16.18A4,4,0,0,0,21,82.29l.31.13v.35c0,.11,0,.25,0,.42a12.6,12.6,0,0,1,.06,1.47l0,.66c-.08,1.82-.13,3.13.28,3.64s2,.8,4.65.8c.68,0,1.32,0,1.87,0,.31,0,.57,0,.75,0H29a.85.85,0,0,1,.67.25A2.6,2.6,0,0,1,30,91.73c0,.65-.1,4.54-.09,5.19,0,3.34,1.63,5,4.85,5.06l1.31,0h1.52a4.35,4.35,0,0,1,3.47,1.57,4.7,4.7,0,0,0,3.55,1.71,4.33,4.33,0,0,0,3.18-1.42,5.36,5.36,0,0,0,0-7,4.29,4.29,0,0,0-3.1-1.35,5,5,0,0,0-3.86,2,3,3,0,0,1-2.56,1.27h-.12l-1.24,0H35.36c-1.61,0-2-.3-2.22-.59-.47-.77-.54-5.17-.22-7.08.21-1.23,1.42-1.23,2.31-1.24h22.1v.55c0,1.3.08,6.38.1,7s0,1.33,0,2,0,1.48,0,2.14c.07,1.17.32,1.47,1.21,1.47h4.94c.94,0,1.89,0,4.42,0l.52,0h6.24c1.39,0,2.87,0,5.46,0h.13a3.94,3.94,0,0,1,3.69,1.81,4,4,0,0,0,3.34,1.82,5.81,5.81,0,0,0,2.54-.64,5.29,5.29,0,0,0,2.59-6,4.76,4.76,0,0,0-4.38-4,3.15,3.15,0,0,0-.53,0c-1.79,0-3.1,1.29-4,2.41a3.39,3.39,0,0,1-2.83,1.15h-.09c-1.36,0-3.29,0-5.45,0H63c-.95,0-2.26,0-2.48-1.32a41.48,41.48,0,0,1-.07-7.8l0-.49H61c3.66,0,5.77,0,6.64,0h.09a3.13,3.13,0,0,1,2.63,1.07,5.13,5.13,0,0,0,3.75,2.23,2.7,2.7,0,0,0,.49,0,4.41,4.41,0,0,0,4.07-3.7,4.9,4.9,0,0,0-2.41-5.58,5.51,5.51,0,0,0-2.35-.59,3.73,3.73,0,0,0-3.11,1.69,3.65,3.65,0,0,1-3.43,1.68h-.12c-2.06,0-6.45,0-13.41,0H37.05l-.54,0H32.08l-4.79,0h-.72c-1,0-1.61-.2-1.79-.59l0-.07a2.68,2.68,0,0,1-.3-1.91l0-.46c0-.27,0-.5.05-.7l0-.38.35-.11a4.45,4.45,0,0,0,1.66-1A5.42,5.42,0,0,0,28,79.18l.12-.34h.36l21.05,0,7.23,0c2.4,0,4.15-.71,4.69-1.89a11.4,11.4,0,0,0,.72-4.17c0-.83,1.25-.83,1.66-.83l.55,0h.26l3.29,0H69l3.53,0a3.29,3.29,0,0,1,2.89,1.26l.28.32,0,0,0,0a5.21,5.21,0,0,0,3.71,2.41,6,6,0,0,0,.95.08,4.84,4.84,0,0,0,4-2.18,5.77,5.77,0,0,0-1-8,5.08,5.08,0,0,0-3.21-1.15,5.19,5.19,0,0,0-.87.07,5.48,5.48,0,0,0-2.54,1.15,5.84,5.84,0,0,0-1.45,1.7l-.34.53-1.77,0-1.18,0c-.18,0-.34,0-.47,0h-.08c-.77,0-1.16,0-1.49,0l-.9,0-2.4,0H66c-.79,0-1.41,0-1.94,0l-.75,0-1-.3c-.13-.23-.14-.57-.12-1.55V65.57c0-.12,0-.52,0-1.11l0-1.65c0-1.61,0-3.13,0-3.81a1,1,0,0,1,.23-.72,2.45,2.45,0,0,1,1.74-.44h.67c5.52,0,8.57,0,12.1-.05h8.3c1.59,0,2.89.12,4,1.69a4.85,4.85,0,0,0,3.46,1.71H93a4.81,4.81,0,0,0,4.8-3.81,5,5,0,0,0-2.18-5.89,5.28,5.28,0,0,0-2.74-.92,4,4,0,0,0-3.07,1.64l-.06.06c-.78.94-1.6,1.92-3.17,1.92-3.63,0-6.81,0-10,0H76V53.6c0-2.3-.08-9.85.28-10.83.19-.42.82-.62,1.92-.62H79l5.15,0H89l.52,0h4.41l2.46,0A3.93,3.93,0,0,1,100.06,44a4,4,0,0,0,3.35,1.81,6,6,0,0,0,2.54-.63,5.28,5.28,0,0,0,2.58-6A4.75,4.75,0,0,0,104.16,35.14Z"/></g></g></svg>