<svg id="Capa_1" enable-background="new 0 0 512.006 512.006" height="512" viewBox="0 0 512.006 512.006" width="512" xmlns="http://www.w3.org/2000/svg" xmlns:xlink="http://www.w3.org/1999/xlink"><linearGradient id="SVGID_1_" gradientUnits="userSpaceOnUse" x1="256.003" x2="256.003" y1="512.006" y2="0"><stop offset="0" stop-color="#5558ff"/><stop offset="1" stop-color="#00c0ff"/></linearGradient><g><g><path d="m435.08 121.099c-6.811-51.358-50.889-91.099-104.077-91.099-14.106 0-27.876 2.93-41.089 8.745-25.239-24.756-58.857-38.745-93.911-38.745-70.62 0-128.76 54.507-134.399 124.937-35.743 12.363-61.601 46.42-61.601 85.063 0 49.629 41.371 90 91 90h330c49.629 0 91-40.371 91-90 0-44.839-33.959-82.119-76.923-88.901zm-14.077 148.901h-330c-33.091 0-61-26.909-61-60 0-28.462 21.229-53.188 49.105-58.799 7.002-1.406 11.895-9.053 11.895-16.201 0-57.891 47.109-105 105-105 30.205 0 59.092 13.462 79.263 36.943 4.717 5.449 12.568 6.812 18.838 3.252 11.806-6.767 24.228-10.195 36.899-10.195 41.353 0 75 33.647 75 75 0 8.291 6.709 15 15 15 33.091 0 61 26.909 61 60s-27.909 60-61 60zm-332.314 182.571c-7.91-2.212-16.26 2.329-18.545 10.313l-8.569 30c-2.271 7.969 2.344 16.26 10.313 18.545 8.24 2.279 16.318-2.543 18.545-10.313l8.569-30c2.27-7.969-2.345-16.26-10.313-18.545zm34.292-120c-8.013-2.271-16.274 2.344-18.545 10.313l-17.153 60c-2.271 7.954 2.344 16.26 10.313 18.545 8.219 2.273 16.313-2.527 18.545-10.313l17.153-60c2.27-7.954-2.345-16.26-10.313-18.545zm55.708 120c-7.866-2.212-16.26 2.329-18.545 10.313l-8.569 30c-2.271 7.969 2.344 16.26 10.313 18.545 8.24 2.279 16.318-2.543 18.545-10.313l8.569-30c2.27-7.969-2.345-16.26-10.313-18.545zm34.292-120c-8.027-2.271-16.274 2.344-18.545 10.313l-17.153 60c-2.271 7.954 2.344 16.26 10.313 18.545 8.219 2.273 16.313-2.527 18.545-10.313l17.153-60c2.27-7.954-2.345-16.26-10.313-18.545zm55.708 120c-7.91-2.212-16.245 2.329-18.545 10.313l-8.569 30c-2.271 7.969 2.344 16.26 10.313 18.545 8.24 2.279 16.318-2.543 18.545-10.313l8.569-30c2.27-7.969-2.345-16.26-10.313-18.545zm34.292-120c-8.042-2.271-16.26 2.344-18.545 10.313l-17.153 60c-2.271 7.954 2.344 16.26 10.313 18.545 8.219 2.273 16.313-2.527 18.545-10.313l17.153-60c2.27-7.954-2.345-16.26-10.313-18.545zm55.708 120c-7.866-2.212-16.26 2.329-18.545 10.313l-8.569 30c-2.271 7.969 2.344 16.26 10.313 18.545 8.658 2.395 16.442-2.976 18.545-10.313l8.569-30c2.27-7.969-2.345-16.26-10.313-18.545zm34.292-120c-8.042-2.271-16.26 2.344-18.545 10.313l-17.153 60c-2.271 7.954 2.344 16.26 10.313 18.545 8.219 2.273 16.313-2.527 18.545-10.313l17.153-60c2.27-7.954-2.345-16.26-10.313-18.545z" fill="url(#SVGID_1_)"/></g></g></svg>