<?xml version="1.0" encoding="iso-8859-1"?>
<!-- Generator: Adobe Illustrator 19.0.0, SVG Export Plug-In . SVG Version: 6.00 Build 0)  -->
<svg version="1.1" id="Capa_1" xmlns="http://www.w3.org/2000/svg" xmlns:xlink="http://www.w3.org/1999/xlink" x="0px" y="0px"
	 viewBox="0 0 512 512" style="enable-background:new 0 0 512 512;" xml:space="preserve">
<path style="fill:#ED633E;" d="M465.963,171.748C455.046,73.927,372.244,0,273.816,0h-5.431h-24.77h-5.431
	C139.755,0,56.953,73.927,46.037,171.748c-2.638,23.641-3.58,50.165-2.11,79.831V376.95c0,2.761,2.239,5,5,5h194.688h24.77h194.688
	c2.761,0,5-2.239,5-5V251.58C469.542,221.913,468.601,195.389,465.963,171.748z"/>
<path style="fill:#E54829;" d="M468.075,251.578v125.375c0,2.761-2.239,5-5,5h-37.938V251.578
	c1.467-29.662,0.527-56.194-2.118-79.833C412.242,75.144,331.356,1.841,234.537,0.033c1.209-0.021,2.428-0.031,3.647-0.031h35.634
	c98.43,0,181.228,73.923,192.148,171.743C468.602,195.384,469.542,221.916,468.075,251.578z"/>
<path style="fill:#F3D1BB;" d="M101.149,148.848v87.522h-2.072c-16.613,0-30.08,13.467-30.08,30.08l0,0
	c0,16.613,13.467,30.08,30.08,30.08h2.139c1.946,60.029,51.214,108.097,111.716,108.097h22.298c0,3.697,0,6.584,0,6.593
	c0,10-0.127,9.71-9.677,11.055c-7.364,1.037-14.429,3.886-20.46,8.236c-11.935,8.609-19.156,22.693-19.157,37.411V512h140.126
	v-44.078c0-14.718-7.221-28.802-19.157-37.411c-6.031-4.35-13.095-7.199-20.46-8.236c-9.549-1.344-9.677-1.055-9.677-11.055
	c0-0.01,0-2.896,0-6.593h22.298c61.736,0,111.783-50.047,111.783-111.783V148.848c0-13.463-10.914-24.378-24.378-24.378H125.527
	C112.063,124.47,101.149,135.384,101.149,148.848z"/>
<path style="fill:#ECC19C;" d="M412.406,236.37h-1.552V135.375h-44.192v157.466c0,61.743-50.038,111.781-111.781,111.781h44.192
	c60.494,0,109.766-48.057,111.714-108.091h1.619c8.729,0,16.59-3.718,22.084-9.657c4.963-5.364,7.996-12.539,7.996-20.423l0,0
	C442.486,249.838,429.019,236.37,412.406,236.37z"/>
<path style="fill:#ED633E;" d="M334.204,73.129H177.795l0,0c-44.284,0-80.184,35.378-80.184,79.019v31.027
	c0,0.88,0.568,1.655,1.409,1.912c7.908,2.412,47.45,10.576,76.59-55.475c0.736-1.669,3.144-1.556,3.72,0.175
	c5.141,15.445,24.931,59.674,84.557,66.977c1.644,0.201,2.816-1.57,1.981-3l-12.276-21.026c-1.121-1.92,1.257-3.97,2.98-2.565
	c13.32,10.857,39.77,27.274,77.748,27.053c1.246-0.007,2.175-1.159,1.938-2.382l-3.388-17.526c-0.311-1.607,1.328-2.889,2.809-2.192
	c12.438,5.852,54.39,24.595,76.912,22.299c1.022-0.104,1.796-0.968,1.796-1.996v-43.282
	C414.388,108.507,378.488,73.129,334.204,73.129z"/>
<g>
	<circle style="fill:#E8979F;" cx="162.89" cy="337" r="17.15"/>
	<circle style="fill:#E8979F;" cx="349.11" cy="337" r="17.15"/>
</g>
<path style="fill:#ABC129;" d="M326.059,467.924V512H185.94v-44.076c0-14.721,7.215-28.804,19.149-37.409
	c3.854-2.779,8.128-4.945,12.637-6.415c2.545-0.832,5.171-1.446,7.829-1.826c3.894-0.549,6.221-0.816,7.611-1.632l1.786,0.396
	l4.5,2.545c10.172,5.769,22.607,5.809,32.82,0.113l4.775-2.658l1.786-0.396c1.39,0.816,3.717,1.083,7.611,1.632
	c2.658,0.38,5.284,0.994,7.829,1.826c4.508,1.471,8.783,3.636,12.637,6.415C318.844,439.12,326.059,453.203,326.059,467.924z"/>
<path style="fill:#ED633E;" d="M240.771,371.994c-1.007,0-2.03-0.197-3.015-0.614c-3.941-1.667-5.785-6.214-4.118-10.155
	c3.809-9.004,12.586-14.822,22.362-14.822c9.299,0,17.898,5.423,21.909,13.816c1.845,3.861,0.211,8.487-3.65,10.333
	c-3.86,1.847-8.486,0.211-10.333-3.65c-1.451-3.037-4.563-5-7.926-5c-3.536,0-6.711,2.105-8.089,5.362
	C246.66,370.218,243.79,371.994,240.771,371.994z"/>
<path style="fill:#DDA68C;" d="M261.714,317.765h-11.431c-4.279,0-7.749-3.469-7.749-7.749v-30.799c0-4.279,3.469-7.749,7.749-7.749
	c4.279,0,7.749,3.469,7.749,7.749v23.05h3.682c4.279,0,7.749,3.469,7.749,7.749C269.463,314.295,265.993,317.765,261.714,317.765z"
	/>
<g>
	<path style="fill:#ED7149;" d="M171.622,262.823c-3.114,0-6.051-1.891-7.235-4.972c-1.535-3.994,0.459-8.477,4.454-10.012
		l33.688-12.944c3.992-1.535,8.477,0.46,10.012,4.454c1.535,3.994-0.459,8.477-4.454,10.012L174.4,262.305
		C173.486,262.656,172.546,262.823,171.622,262.823z"/>
	<path style="fill:#ED7149;" d="M340.374,262.823c-0.924,0-1.864-0.166-2.778-0.518l-33.688-12.944
		c-3.995-1.535-5.989-6.018-4.454-10.012c1.535-3.995,6.019-5.987,10.012-4.454l33.688,12.944c3.995,1.535,5.989,6.018,4.454,10.012
		C346.425,260.932,343.488,262.823,340.374,262.823z"/>
</g>
<g>
	<path style="fill:#BF8540;" d="M208.2,307.663c-4.279,0-7.749-3.469-7.749-7.749v-24.902c0-4.279,3.469-7.749,7.749-7.749
		c4.279,0,7.749,3.469,7.749,7.749v24.902C215.949,304.194,212.479,307.663,208.2,307.663z"/>
	<path style="fill:#BF8540;" d="M303.797,307.663c-4.279,0-7.749-3.469-7.749-7.749v-24.902c0-4.279,3.469-7.749,7.749-7.749
		c4.279,0,7.749,3.469,7.749,7.749v24.902C311.546,304.194,308.076,307.663,303.797,307.663z"/>
</g>
<g>
</g>
<g>
</g>
<g>
</g>
<g>
</g>
<g>
</g>
<g>
</g>
<g>
</g>
<g>
</g>
<g>
</g>
<g>
</g>
<g>
</g>
<g>
</g>
<g>
</g>
<g>
</g>
<g>
</g>
</svg>
