<?xml version="1.0" encoding="iso-8859-1"?>
<!-- Generator: Adobe Illustrator 19.0.0, SVG Export Plug-In . SVG Version: 6.00 Build 0)  -->
<svg version="1.1" id="Capa_1" xmlns="http://www.w3.org/2000/svg" xmlns:xlink="http://www.w3.org/1999/xlink" x="0px" y="0px"
	 viewBox="0 0 512.003 512.003" style="enable-background:new 0 0 512.003 512.003;" xml:space="preserve">
<path style="fill:#78B9EB;" d="M418.14,290.133c-8.746-0.026-17.441,1.323-25.769,4.01c-2.5-37.622-35.019-66.087-72.632-63.596
	c-33.526,2.227-60.447,28.508-63.468,61.975c-10.035-7.151-22.066-10.965-34.388-10.922c-33.056,0.068-59.799,26.913-59.73,59.969
	c0.009,5.726,0.845,11.426,2.475,16.912c-0.819-0.077-1.647-0.102-2.475-0.085c-10.052-0.043-19.89,2.935-28.244,8.533
	c-11.81,7.808-19.839,20.172-22.186,34.132c-0.521,2.816-0.776,5.674-0.768,8.533c0,28.278,22.919,51.197,51.197,51.197H418.14
	c2.901,0,5.717-0.171,8.533-0.427c46.829-4.65,81.029-46.376,76.378-93.205c-0.973-9.787-3.626-19.336-7.859-28.218
	c-2.654-5.751-5.973-11.161-9.898-16.127C469.116,302.19,444.353,290.142,418.14,290.133z"/>
<path style="fill:#41769E;" d="M466.522,219.822c-18.397-15.248-41.555-23.585-65.447-23.551
	c-11.69-0.034-23.295,1.963-34.302,5.888c0.085-1.963,0.171-3.925,0.171-5.888c0.034-44.456-28.662-83.844-70.994-97.446h-0.085
	c-10.112-3.311-20.684-4.975-31.316-4.949c-56.462-0.085-102.31,45.625-102.395,102.088c0,0.102,0,0.205,0,0.307
	c-0.017,4.454,0.265,8.9,0.853,13.311c-8.448-3.208-17.416-4.821-26.452-4.778c-36.495,0.085-67.922,25.769-75.26,61.522
	c-36.709,8.584-59.517,45.301-50.933,82.01c7.219,30.881,34.755,52.725,66.463,52.725h34.9c2.347-13.96,10.376-26.324,22.186-34.132
	c8.354-5.598,18.192-8.576,28.244-8.533c0.828-0.017,1.655,0.009,2.475,0.085c-9.403-31.691,8.652-65.004,40.344-74.407
	c5.487-1.63,11.187-2.466,16.912-2.475c12.322-0.043,24.353,3.772,34.388,10.922c3.388-37.545,36.581-65.234,74.125-61.847
	c33.458,3.021,59.747,29.942,61.975,63.468c8.328-2.688,17.023-4.036,25.769-4.01c26.213,0.009,50.967,12.057,67.154,32.681
	c3.925,4.966,7.244,10.376,9.898,16.127c5.495-12.714,8.311-26.426,8.277-40.275C503.461,268.203,489.928,239.32,466.522,219.822z"
	/>
<path style="fill:#FF9811;" d="M163.006,209.582c-0.589-4.412-0.87-8.857-0.853-13.311c-0.085-26.802,10.402-52.554,29.183-71.676
	c-44.328-16.085-93.307,6.818-109.392,51.146c-3.379,9.318-5.111,19.148-5.12,29.063c0.009,8.294,1.212,16.545,3.584,24.489
	c14.48-15.632,34.831-24.515,56.147-24.489C145.591,204.753,154.559,206.374,163.006,209.582z"/>
<g>
	<path style="fill:#231F20;" d="M512.002,298.666c-0.085-61.352-49.883-111.013-111.235-110.928
		c-8.559,0.009-17.091,1.015-25.428,2.987c-2.176-46.112-32.809-86.012-76.796-100.023c-0.188-0.06-0.384-0.119-0.58-0.162
		c-10.803-3.456-22.075-5.214-33.415-5.197c-27.971-0.051-54.918,10.547-75.363,29.635c-49.499-15.035-101.815,12.893-116.85,62.393
		c-4.923,16.195-5.359,33.423-1.271,49.849c-7.893,9.378-13.661,20.368-16.887,32.195c-40.531,12.501-63.246,55.498-50.745,96.021
		c9.932,32.195,39.695,54.158,73.392,54.158h25.599c0.043,32.971,26.759,59.688,59.73,59.73H418.14c3.166,0,6.238-0.179,9.386-0.469
		c48.049-4.65,84.655-45.122,84.476-93.393c-0.026-12.629-2.645-25.112-7.68-36.691
		C509.383,326.005,511.994,312.395,512.002,298.666z M162.153,128.008c4.659,0,9.309,0.418,13.892,1.246
		c-1.015,1.34-1.92,2.739-2.867,4.121c-0.606,0.853-1.254,1.707-1.835,2.62c-1.783,2.756-3.464,5.572-4.983,8.465
		c-0.23,0.427-0.41,0.853-0.631,1.314c-1.28,2.509-2.475,5.051-3.558,7.68c-0.435,1.041-0.802,2.116-1.212,3.174
		c-0.776,2.039-1.51,4.087-2.167,6.178c-0.375,1.195-0.717,2.398-1.05,3.609c-0.563,2.039-1.075,4.096-1.519,6.169
		c-0.265,1.212-0.521,2.423-0.742,3.644c-0.41,2.236-0.717,4.488-0.99,6.758c-0.119,1.075-0.29,2.133-0.384,3.217
		c-0.299,3.302-0.486,6.656-0.486,10.069c0,0.572,0,1.143,0,1.707c-5.615-1.143-11.332-1.715-17.066-1.707
		c-2.679,0-5.342,0.162-7.995,0.418c-0.811,0.077-1.621,0.196-2.432,0.299c-1.877,0.23-3.746,0.521-5.598,0.853
		c-0.853,0.162-1.707,0.333-2.56,0.521c-1.971,0.444-3.917,0.973-5.845,1.553c-0.623,0.179-1.246,0.333-1.86,0.529
		c-2.475,0.811-4.906,1.707-7.296,2.756c-0.657,0.273-1.28,0.606-1.92,0.896c-1.758,0.811-3.481,1.655-5.171,2.56
		c-0.853,0.452-1.655,0.93-2.483,1.416c-1.519,0.896-3.012,1.835-4.471,2.833c-0.759,0.503-1.519,0.998-2.261,1.536
		c-0.273,0.196-0.563,0.367-0.853,0.572c-4.574-42.127,25.872-79.987,68.007-84.561
		C156.581,128.153,159.371,127.999,162.153,128.008z M76.824,392.528c-32.988,0.009-59.739-26.734-59.739-59.722
		c-0.009-27.74,19.088-51.829,46.086-58.16c3.251-0.751,5.76-3.328,6.434-6.596c6.528-31.802,34.481-54.653,66.949-54.713
		c7.987-0.051,15.914,1.374,23.38,4.207c4.394,1.698,9.335-0.486,11.033-4.889c0.521-1.348,0.691-2.799,0.495-4.224
		c-0.538-4.028-0.802-8.089-0.776-12.159c-0.085-51.752,41.803-93.777,93.555-93.862c0.102,0,0.205,0,0.307,0
		c9.728-0.017,19.404,1.51,28.654,4.522c0.213,0.068,0.418,0.128,0.64,0.179c38.594,12.552,64.679,48.578,64.569,89.16
		c0,1.843-0.085,3.669-0.162,5.529c-0.196,4.71,3.456,8.687,8.166,8.883c1.109,0.043,2.21-0.119,3.251-0.495
		c10.077-3.601,20.709-5.418,31.41-5.384c51.914,0.077,93.939,42.221,93.862,94.135c-0.009,6.613-0.717,13.2-2.108,19.66
		l-0.853-1.075c-21.921-27.894-57.665-41.069-92.445-34.08c-8.362-41.581-48.842-68.511-90.432-60.148
		c-28.756,5.785-51.701,27.433-59.142,55.805c-8.814-3.993-18.388-6.058-28.073-6.033c-37.681,0.043-68.221,30.582-68.263,68.263
		c0,3.029,0.196,6.05,0.589,9.053c-12.151,1.604-23.491,6.98-32.425,15.359c-0.375,0.35-0.768,0.674-1.143,1.032
		c-2.159,2.108-4.156,4.369-5.973,6.775c-0.324,0.427-0.631,0.853-0.956,1.306c-1.818,2.509-3.43,5.145-4.847,7.901
		c-0.094,0.188-0.171,0.393-0.256,0.58c-1.365,2.773-2.509,5.64-3.413,8.593c-0.068,0.222-0.188,0.418-0.256,0.64L76.824,392.528z
		 M425.888,451.866c-2.56,0.23-5.12,0.393-7.748,0.393H162.153c-23.551-0.026-42.639-19.114-42.665-42.665
		c-0.009-2.389,0.213-4.778,0.648-7.125c1.971-11.647,8.687-21.955,18.542-28.466c5.316-3.524,11.357-5.802,17.672-6.656
		c0.512-0.068,1.032-0.06,1.544-0.111c1.579-0.188,3.166-0.29,4.753-0.307c0.35-0.026,0.708-0.026,1.058,0
		c4.685,0.503,8.891-2.884,9.403-7.569c0.119-1.126,0.017-2.261-0.307-3.345c-1.408-4.77-2.116-9.71-2.116-14.685
		c0.026-28.261,22.936-51.172,51.197-51.197c10.555-0.026,20.854,3.26,29.447,9.386c3.84,2.731,9.173,1.826,11.895-2.014
		c0.87-1.229,1.408-2.671,1.544-4.173c2.969-32.852,32.007-57.085,64.867-54.116c29.268,2.645,52.264,26.187,54.218,55.507
		c0.299,4.702,4.352,8.277,9.053,7.978c0.717-0.043,1.425-0.179,2.116-0.41c7.466-2.423,15.265-3.644,23.116-3.626
		c23.619-0.017,45.924,10.845,60.473,29.447c3.516,4.471,6.502,9.344,8.883,14.506c18.184,38.253,1.911,83.998-36.342,102.182
		c-7.953,3.78-16.503,6.161-25.266,7.04L425.888,451.866z"/>
	<path style="fill:#231F20;" d="M162.153,93.876c-4.71,0-8.533-3.823-8.533-8.533V51.212c0-4.71,3.823-8.533,8.533-8.533
		c4.71,0,8.533,3.823,8.533,8.533v34.132C170.686,90.053,166.863,93.876,162.153,93.876z"/>
	<path style="fill:#231F20;" d="M115.128,104.969c-3.447,0-6.562-2.073-7.884-5.265L94.18,68.132
		c-1.8-4.352,0.265-9.344,4.616-11.153c4.352-1.8,9.344,0.265,11.153,4.625l13.064,31.572c1.809,4.352-0.265,9.344-4.616,11.153
		c-1.032,0.427-2.15,0.649-3.268,0.649V104.969z"/>
	<path style="fill:#231F20;" d="M75.919,133.128c-2.261,0-4.437-0.896-6.033-2.5l-24.14-24.131
		c-3.388-3.277-3.481-8.678-0.213-12.066c3.277-3.388,8.678-3.481,12.066-0.213c0.068,0.068,0.145,0.137,0.213,0.213l24.131,24.14
		c3.328,3.336,3.328,8.738,0,12.066C80.34,132.232,78.172,133.136,75.919,133.128L75.919,133.128z"/>
	<path style="fill:#231F20;" d="M50.474,174.196c-1.118,0-2.236-0.222-3.268-0.649l-31.529-13.064
		c-4.352-1.809-6.425-6.801-4.616-11.153c1.809-4.352,6.801-6.425,11.153-4.616l0,0l31.572,13.064
		c4.352,1.8,6.425,6.792,4.625,11.144c-1.323,3.191-4.437,5.273-7.893,5.273H50.474z"/>
	<path style="fill:#231F20;" d="M42.692,221.87H8.561c-4.71,0-8.533-3.823-8.533-8.533c0-4.71,3.823-8.533,8.533-8.533h34.132
		c4.71,0,8.533,3.823,8.533,8.533C51.225,218.047,47.403,221.87,42.692,221.87z"/>
</g>
<g>
</g>
<g>
</g>
<g>
</g>
<g>
</g>
<g>
</g>
<g>
</g>
<g>
</g>
<g>
</g>
<g>
</g>
<g>
</g>
<g>
</g>
<g>
</g>
<g>
</g>
<g>
</g>
<g>
</g>
</svg>
