<?xml version="1.0" encoding="iso-8859-1"?>
<!-- Generator: Adobe Illustrator 19.0.0, SVG Export Plug-In . SVG Version: 6.00 Build 0)  -->
<svg version="1.1" id="Capa_1" xmlns="http://www.w3.org/2000/svg" xmlns:xlink="http://www.w3.org/1999/xlink" x="0px" y="0px"
	 viewBox="0 0 512 512" style="enable-background:new 0 0 512 512;" xml:space="preserve">
<path style="fill:#BF6015;" d="M437.048,512h-362l-15-25.8v-99.3l15-24.901h358.7c38.399,0,71.2,27.001,77.199,62.401
	C518.448,470.9,482.949,512,437.048,512z"/>
<path style="fill:#994C10;" d="M437.048,512h-181V362h177.7c38.399,0,71.2,27.001,77.199,62.401
	C518.448,470.9,482.949,512,437.048,512z"/>
<path style="fill:#FD4E26;" d="M419.549,141.599c2.1-4.499,2.1-10.199-0.601-14.399c-2.999-4.499-7.8-7.2-12.9-7.2h-30
	c-20.4,0-39,8.101-52.5,21.599c-11.4-40.199-35.4-75-67.5-100.199c-32.999-25.8-74.7-41.4-120-41.4c-6,0-11.4,3.6-13.801,9.3
	c-2.399,5.7-1.199,12.001,3.301,16.199l41.4,41.7c9,9,14.099,21.301,14.099,33.9c0,16.199-8.101,31.199-21.599,40.201l-9.6,6.299
	c-36.901,24.6-58.801,65.7-58.801,110.101c0,72.9,59.399,132.299,132.299,132.299h65.402c56.398,0,106.5-35.7,125.099-88.801
	c8.101-23.099,6-49.499-5.7-74.099c-9.6-20.099-9.6-43.801,0.601-63.6L419.549,141.599z"/>
<path style="fill:#FD3018;" d="M408.749,163.5c-10.201,19.799-10.201,43.5-0.601,63.6c11.7,24.6,13.801,51,5.7,74.099
	C395.249,354.3,345.148,390,288.749,390h-32.701V41.4c32.1,25.199,56.1,60,67.5,100.199c13.5-13.499,32.1-21.599,52.5-21.599h30
	c5.099,0,9.901,2.701,12.9,7.2c2.701,4.2,2.701,9.901,0.601,14.399L408.749,163.5z"/>
<path style="fill:#FE9923;" d="M310.348,304.501l-40.8-85.801c-2.401-5.099-8.101-7.798-13.5-7.798c-5.4,0-11.1,2.699-13.5,7.798
	l-40.8,85.801c-3.9,8.099-5.7,16.5-5.7,25.499c0,32.999,27.001,60,60,60s60-27.001,60-60
	C316.048,321,314.249,312.599,310.348,304.501z"/>
<path style="fill:#FE8821;" d="M316.048,330c0,32.999-27.001,60-60,60V210.901c5.4,0,11.1,2.699,13.5,7.798l40.8,85.801
	C314.249,312.599,316.048,321,316.048,330z"/>
<path style="fill:#994C10;" d="M75.048,512c-41.353,0-75-33.647-75-75s33.647-75,75-75s75,33.647,75,75S116.401,512,75.048,512z"/>
<path style="fill:#FEB756;" d="M75.048,482c-24.813,0-45-20.187-45-45s20.187-45,45-45s45,20.187,45,45S99.861,482,75.048,482z"/>
<path style="fill:#994C0F;" d="M271.048,437c0,8.401-6.599,15-15,15h-60c-8.401,0-15-6.599-15-15s6.599-15,15-15h60
	C264.449,422,271.048,428.599,271.048,437z"/>
<g>
	<path style="fill:#713708;" d="M407.048,452h-61c-8.291,0-15-6.709-15-15s6.709-15,15-15h61c8.291,0,15,6.709,15,15
		S415.34,452,407.048,452z"/>
	<path style="fill:#713708;" d="M271.048,437c0,8.401-6.599,15-15,15v-30C264.449,422,271.048,428.599,271.048,437z"/>
</g>
<g>
</g>
<g>
</g>
<g>
</g>
<g>
</g>
<g>
</g>
<g>
</g>
<g>
</g>
<g>
</g>
<g>
</g>
<g>
</g>
<g>
</g>
<g>
</g>
<g>
</g>
<g>
</g>
<g>
</g>
</svg>
