<svg height="506pt" viewBox="-52 0 506 506.04326" width="506pt" xmlns="http://www.w3.org/2000/svg"><path d="m393.347656 58v276c0 25.460938-19.300781 46.640625-44 49.621094v94.378906c0 5.359375-1.921875 9.878906-4.960937 13.261719-7.4375 8.339843-21.558594 9.777343-30.179688-.203125l-90.621093-107.058594h-165.558594c-27.5 0-50-22.5-50-50v-276c0-27.5 22.5-50 50-50h285.320312c27.5 0 50 22.5 50 50zm0 0" fill="#ffefee"/><path d="m393.347656 58v276c0 25.460938-19.300781 46.640625-44 49.621094v94.378906c0 5.359375-1.921875 9.878906-4.960937 13.261719-.058594-.0625-.117188-.140625-.179688-.203125l-24.859375-29.378906-65.761718-77.679688h-165.558594c-27.5 0-50-22.5-50-50v-276c0-27.5 22.5-50 50-50h255.320312c27.5 0 50 22.5 50 50zm0 0" fill="#ffe2e2"/><path d="m274.90625 140.109375h-27.140625l16.320313-24.398437c.460937-.660157.859374-1.339844 1.257812-2.019532 11-19.121094 3.523438-42.300781-17.816406-47.839844l-1.460938-.402343c-5.402344-1.519531-11 1.5-12.78125 6.820312-4.511718 13.59375-15.921875 39.433594-42.078125 63.4375-4.253906 3.90625-8.015625 8.316407-11.019531 13.25l-.703125 1.152344v143.402344c0 5.519531 4.460937 10 10 10h85.421875c27.613281 0 50-22.386719 50-50v-63.402344c0-27.613281-22.382812-50-50-50zm0 0" fill="#ffbb98"/><path d="m159.46875 326.941406h-63c-11.046875 0-20-8.953125-20-20v-176.546875c0-11.042969 8.953125-20 20-20h63c11.046875 0 20 8.957031 20 20v176.546875c0 11.046875-8.953125 20-20 20zm0 0" fill="#35b1fc"/><path d="m393.347656 58v276c0 25.460938-19.300781 46.640625-44 49.621094v94.378906c0 5.359375-1.921875 9.878906-4.960937 13.261719-.058594-.0625-.117188-.140625-.179688-.203125l-24.859375-29.378906v-78.058594c24.699219-2.980469 44-24.160156 44-49.621094v-276c0-27.5-22.5-50-50-50h30c27.5 0 50 22.5 50 50zm0 0" fill="#ffcfcf"/><g fill="#5f266d"><path d="m274.90625 132.113281h-12.167969c9.058594-13.546875 8.371094-12.429687 9.542969-14.429687 26.597656-46.226563-35.960938-79.703125-46.585938-47.929688-4.089843 12.320313-14.5 36.085938-38.332031 58.566406-1.070312-14.46875-13.15625-25.921874-27.894531-25.921874h-63c-15.4375 0-28 12.558593-28 28v176.542968c0 15.441406 12.5625 28 28 28h63c13.941406 0 25.503906-10.253906 27.621094-23.609375 2 .269531-4.648438.179688 87.816406.179688 31.980469 0 58-26.019531 58-58v-63.402344c0-31.980469-26.019531-57.996094-58-57.996094zm-103.4375 174.828125c0 6.617188-5.382812 12-12 12h-63c-6.617188 0-12-5.382812-12-12v-176.542968c0-6.617188 5.382812-12 12-12h63c6.617188 0 12 5.382812 12 12zm145.4375-53.429687c0 23.160156-18.84375 42-42 42-90.5 0-87.421875.894531-87.421875-2v-141.140625c8.71875-13.722656 38.203125-31.835938 53.390625-77.5625.429688-1.285156 1.757812-2.015625 3.074219-1.644532 21.082031 5.757813 21.957031 25.929688 13.484375 38.097657l-16.320313 24.398437c-3.550781 5.3125.269531 12.449219 6.648438 12.449219h27.140625c23.160156 0 42 18.839844 42 42v63.402344zm0 0"/><path d="m343.355469 0h-285.332031c-31.980469 0-58.0000005 26.019531-58.0000005 58v276c0 31.980469 26.0195315 58 58.0000005 58h161.855468l88.28125 104.292969c16.9375 19.625 49.195313 7.640625 49.195313-18.292969v-87.726562c25.527343-6.335938 44-29.390626 44-56.273438v-276c0-31.980469-26.023438-58-58-58zm42 334c0 21.210938-15.890625 39.132812-36.960938 41.683594-4.019531.484375-7.039062 3.894531-7.039062 7.941406v94.375c0 11.144531-13.851563 16.226562-21.035157 7.898438l-90.625-107.066407c-1.523437-1.796875-3.753906-2.832031-6.109374-2.832031h-165.5625c-23.160157 0-42-18.839844-42-42v-276c0-23.160156 18.839843-42 42-42h285.332031c23.15625 0 42 18.839844 42 42zm0 0"/></g></svg>