<svg height="510pt" viewBox="0 -46 510.0227 510" width="510pt" xmlns="http://www.w3.org/2000/svg"><path d="m487.722656 101.550781-371.539062 108.921875c-8.140625 2.398438-16.902344-.601562-21.859375-7.480468l-10.542969-14.621094-69.980469-97.019532c-3.917969-5.378906-5.796875-11.621093-5.796875-17.800781 0-8.558593 3.640625-17.019531 10.480469-22.917969.839844-.722656 1.71875-1.421874 2.660156-2.0625 10.257813-7.058593 23.796875-7.097656 34.117188-.117187l69.082031 55.476563c5.640625 4.5 13.257812 5.640624 19.957031 2.980468l229.683594-91.757812c11-4.402344 22.679687-7.0625 34.539063-7.140625 13.71875-.101563 27.121093 2.78125 39.339843 8.179687 20.839844 9.179688 38.300781 25.679688 48.320313 47.320313.019531.039062.039062.058593.039062.101562.058594.117188.121094.257813.160156.378907 1.878907 4.039062 3.5 8.300781 4.800782 12.699218 3.160156 10.578125-2.882813 21.71875-13.460938 24.859375zm0 0" fill="#ffcfcf"/><path d="m496.382812 63.992188c-.539062.199218-1.101562.398437-1.660156.558593l-371.539062 108.921875c-8.140625 2.398438-16.902344-.601562-21.859375-7.480468l-10.542969-14.621094-69.980469-97.019532c-.878906-1.199218-1.636719-2.441406-2.316406-3.71875.839844-.722656 1.71875-1.421874 2.660156-2.0625 10.257813-7.058593 23.796875-7.097656 34.117188-.117187l69.082031 55.476563c5.640625 4.5 13.257812 5.640624 19.957031 2.980468l229.683594-91.757812c11-4.402344 22.679687-7.0625 34.539063-7.140625 13.71875-.101563 27.121093 2.78125 39.339843 8.179687 20.839844 9.179688 38.300781 25.679688 48.320313 47.320313.019531.039062.039062.058593.039062.101562.058594.117188.121094.257813.160156.378907zm0 0" fill="#ffe2e2"/><path d="m487.722656 101.550781-167.621094 49.140625-88.917968 26.058594-115 33.722656c-8.140625 2.398438-16.902344-.601562-21.859375-7.480468l-10.542969-14.621094 3.480469-1.238282 150.761719-45.582031 102.757812-31.058593 154.480469-46.699219.921875-.28125c1.960937 4.199219 3.640625 8.601562 5 13.179687 3.160156 10.578125-2.882813 21.71875-13.460938 24.859375zm0 0" fill="#ffcfcf"/><path d="m340.78125 110.492188-20.679688 40.199218-54.859374 106.71875c-1.800782 3.5-4.578126 6.359375-7.960938 8.261719-1.378906.78125-2.839844 1.398437-4.378906 1.839844l-10.359375 2.941406c-14.339844 4.058594-27.941407-8.421875-25.101563-23.0625l13.742188-70.640625 6.839844-35.199219 40.898437-12.359375zm0 0" fill="#73d7f9"/><path d="m340.78125 110.492188-20.679688 40.199218-54.859374 106.71875c-1.800782 3.5-4.578126 6.359375-7.960938 8.261719-4.679688-4.441406-7.238281-11.101563-5.839844-18.28125l13.742188-70.640625 13.738281-47.558594zm0 0" fill="#5fcdff"/><path d="m318.261719 384.792969c0 13.9375-11.398438 25.339843-25.339844 25.339843h-254.660156c-13.859375 0-25.339844-11.320312-25.339844-25.339843 0-13.941407 11.402344-25.339844 25.339844-25.339844h23.460937c9.761719-19.082031 29.058594-32.460937 51.621094-33.863281-3.300781-24.839844 15.9375-45.457032 39.578125-45.457032 5.300781 0 10.378906 1.039063 15 2.917969 10.722656 4.339844 19.140625 13.21875 22.859375 24.261719 29.660156-4.699219 53.582031 23.917969 44.082031 52.140625h58.058594c13.941406 0 25.339844 11.417969 25.339844 25.339844zm0 0" fill="#ffefee"/><path d="m318.261719 384.792969c0 13.9375-11.398438 25.339843-25.339844 25.339843h-224.660156c-13.859375 0-25.339844-11.320312-25.339844-25.339843 0-13.941407 11.402344-25.339844 25.339844-25.339844h23.460937c9.761719-19.082031 29.058594-32.460937 51.621094-33.863281-2.5625-19.277344 8.457031-36.019532 24.578125-42.539063 10.722656 4.339844 19.140625 13.21875 22.859375 24.261719 29.660156-4.699219 53.582031 23.917969 44.082031 52.140625h58.058594c13.941406 0 25.339844 11.417969 25.339844 25.339844zm0 0" fill="#ffe2e2"/><path d="m447.863281 16.191406c-12.21875-5.398437-25.621093-8.28125-39.339843-8.179687-11.859376.078125-23.539063 2.738281-34.539063 7.140625l-229.683594 91.757812c-6.699219 2.660156-14.316406 1.519532-19.957031-2.980468l-69.082031-55.476563c-10.320313-6.980469-23.859375-6.941406-34.117188.117187-.941406.640626-1.820312 1.339844-2.660156 2.0625-4.300781 3.71875-7.339844 8.4375-8.980469 13.558594 10.277344-4.679687 22.4375-3.761718 32.019532 2.71875l75 60.222656c6.121093 4.898438 14.378906 6.117188 21.660156 3.238282l249.320312-99.601563c11.957032-4.777343 24.617188-7.679687 37.5-7.757812 14.898438-.101563 29.4375 3.019531 42.699219 8.878906 2.179687.960937 4.660156 1.722656 7.359375 2.320313-7.980469-7.539063-17.199219-13.597657-27.199219-18.019532zm0 0" fill="#ffefee"/><path d="m496.222656 63.613281-57.28125 17.277344-10.339844 3.121094-8.539062 2.578125c-2.738281.820312-5.5 1.203125-8.21875 1.203125-11.722656 0-22.640625-7.203125-26.960938-18.703125-5.71875-15.21875 2.320313-32.179688 17.738282-37.378906l14.761718-5 4.058594-1.378907 22.320313-7.539062 3.722656-1.460938.378906-.140625.019531.019532c20.839844 9.179687 38.28125 25.660156 48.300782 47.300781.019531.039062.039062.058593.039062.101562zm0 0" fill="#73d7f9"/><path d="m496.222656 63.613281-57.28125 17.277344c-11.679687-1.160156-22.160156-8.777344-26.539062-20.398437-4.820313-12.820313-.757813-26.761719 9.039062-35.160157l22.320313-7.539062 3.722656-1.460938.378906-.140625.019531.019532c20.839844 9.179687 38.28125 25.660156 48.300782 47.300781.019531.039062.039062.058593.039062.101562zm0 0" fill="#5fcdff"/><path d="m496.183594 63.511719c-10.019532-21.640625-27.460938-38.121094-48.300782-47.300781l-.019531-.019532-.378906.140625-3.722656 1.460938-17.878907 6.039062c20.160157 10.800781 37.761719 26.320313 51 45.621094l19.339844-5.839844c0-.042969-.019531-.0625-.039062-.101562zm0 0" fill="#30b6ff"/><g fill="#5f266d"><path d="m408.460938.0117188c-24.722657.1601562-17.199219-.3867188-267.136719 99.4609372-4.023438 1.597656-8.601563.917969-11.960938-1.78125-.40625-.324218-69.171875-55.574218-69.601562-55.859375-23.277344-15.765625-54.554688-1.898437-59.199219 25.238281-1.761719 10.28125.640625 20.5625 6.761719 28.960938l80.519531 111.640625c6.859375 9.535156 19.117188 13.855469 30.578125 10.480469l102.421875-30.019532-17.441406 89.679688c-1.128906 5.675781 4.078125 10.828125 10.039062 9.21875 54.234375-15.417969 52.761719-14.050781 54.941406-18.238281l57.28125-111.382813 164.339844-48.179687c12.140625-3.617188 20.019532-14.777344 20.019532-26.859375 0-22.703125-33.996094-82.3593752-101.5625-82.3593752zm-294.539063 202.8007812c-9.398437 2.746094-13.683594-5.3125-17.199219-10.179688l130.941406-39.582031-3.382812 17.402344zm141.820313 55.558594-34.160157 9.699218c23.386719-120.1875 18.875-96.972656 23.378907-120.257812l80.0625-24.199219c-17.945313 34.964844 9.628906-18.71875-69.28125 134.757813zm-168.917969-79.460938-66.542969-92.257812c-14.386719-19.691406 9.449219-45.417969 30.242188-31.742188l68.820312 55.261719c7.859375 6.300781 18.558594 7.898437 27.917969 4.160156 234.835937-93.820312 244.070312-101.789062 274.195312-97.441406-20.90625 7.074219-34.742187 9.214844-42.855469 26.328125-7.460937 15.734375-2.832031 33.960938 10.1875 44.398438-108.574218 32.8125-22.824218 6.914062-301.964843 91.292968zm406.699219-99.9375c1.878906 6.339844-1.742188 13.019532-8.0625 14.898438l-149.699219 43.898437 10.582031-20.597656c119.058594-35.980469 46.238281-13.984375 145.257812-43.921875.699219 1.882812 1.339844 3.78125 1.921876 5.722656zm-76.816407.210938c-10.105469 2.433594-20.640625-3.054688-24.332031-12.894532-4.140625-11.042968 1.691406-23.242187 12.808594-27.003906 1.195312-.402344 41.140625-13.84375 42.257812-14.421875 16.210938 8.105469 28.472656 19.53125 37.097656 33.808594zm0 0"/><path d="m292.921875 351.453125h-48.179687c2.832031-28.183594-19.859376-53.382813-48.820313-52.621094-22.1875-44.929687-89.523437-29.3125-90.9375 19.71875-19.839844 3.539063-37.460937 15.5625-47.941406 32.902344h-18.78125c-18.378907 0-33.339844 14.957031-33.339844 33.339844 0 18.378906 14.960937 33.339843 33.339844 33.339843h254.660156c18.378906 0 33.339844-14.960937 33.339844-33.339843 0-18.382813-14.960938-33.339844-33.339844-33.339844zm0 50.679687h-254.660156c-9.558594 0-17.339844-7.78125-17.339844-17.339843 0-9.5625 7.78125-17.339844 17.339844-17.339844h23.460937c3.019532 0 5.761719-1.683594 7.121094-4.363281 8.71875-17.019532 25.957031-28.339844 45-29.519532 4.664062-.292968 8.023438-4.441406 7.4375-9.039062-1.257812-9.417969 1.421875-18.480469 7.5625-25.480469 16.1875-18.476562 46.484375-12.554687 54.359375 10.820313 1.257813 3.699218 4.980469 5.941406 8.839844 5.339844 23.710937-3.757813 42.828125 19.164062 35.238281 41.679687-1.753906 5.214844 2.1875 10.5625 7.582031 10.5625h58.058594c9.5625 0 17.339844 7.777344 17.339844 17.339844 0 9.558593-7.777344 17.339843-17.339844 17.339843zm0 0"/><path d="m323.601562 284.792969h81c4.417969 0 8-3.582031 8-8s-3.582031-8-8-8h-81c-4.417968 0-8 3.582031-8 8s3.582032 8 8 8zm0 0"/><path d="m439.601562 317.792969h-57c-4.417968 0-8 3.582031-8 8s3.582032 8 8 8h57c4.417969 0 8-3.582031 8-8s-3.582031-8-8-8zm0 0"/><path d="m481.601562 188.792969h-51c-4.417968 0-8 3.582031-8 8s3.582032 8 8 8h51c4.417969 0 8-3.582031 8-8s-3.582031-8-8-8zm0 0"/><path d="m297.488281 63.832031-49.933593 20.5625c-4.085938 1.679688-6.035157 6.355469-4.351563 10.441407 1.273437 3.089843 4.253906 4.957031 7.402344 4.957031 1.011719 0 2.042969-.195313 3.042969-.605469l49.933593-20.558594c4.082031-1.679687 6.03125-6.359375 4.347657-10.445312-1.679688-4.085938-6.347657-6.035156-10.441407-4.351563zm0 0"/><path d="m332.554688 49.394531-7.324219 3.015625c-4.085938 1.679688-6.035157 6.355469-4.351563 10.441406 1.273438 3.089844 4.253906 4.957032 7.398438 4.957032 1.015625 0 2.046875-.191406 3.042968-.601563l7.328126-3.019531c4.082031-1.679688 6.03125-6.355469 4.347656-10.441406-1.679688-4.085938-6.34375-6.035156-10.441406-4.351563zm0 0"/></g></svg>