<?xml version="1.0" encoding="utf-8"?>
<!-- Generator: Adobe Illustrator 21.0.0, SVG Export Plug-In . SVG Version: 6.00 Build 0)  -->
<svg xmlns="http://www.w3.org/2000/svg" xmlns:xlink="http://www.w3.org/1999/xlink" version="1.1" id="Layer_1" x="0px" y="0px" viewBox="0 0 256 256" style="enable-background:new 0 0 256 256;" xml:space="preserve" width="512" height="512">
<style type="text/css">
	.st0{fill:#F9D0B4;}
	.st1{fill:#E9E9EA;}
	.st2{fill:#55ACD5;}
	.st3{fill:#6DCC6D;}
	.st4{fill:#FFCD29;}
	.st5{fill:#EA4647;}
	.st6{fill:#231F20;}
</style>
<g id="Layer_25">
	<path class="st0" d="M116.3,18.4c-4.3-3.8-10.8-3.4-14.5,0.9c-3.8,4.3-3.4,10.8,0.9,14.5c0.1,0.1,0.1,0.1,0.2,0.2   c14.7,12.7,23.1,28.9,27.9,43.2c8,4.3,15.2,8.5,18.9,10.7c6.8,3.7,11.7,10.1,13.7,17.5C160.7,62.6,130.2,30.8,116.3,18.4z"/>
	<path class="st0" d="M96.9,36.9c-5-2.7-11.2-0.8-13.9,4.2s-0.8,11.2,4.2,13.9c4.8,2.6,9.4,5.6,13.7,9.1c2.5-0.1,5,0.4,7.2,1.4   c6.3,2.8,14.8,7.3,22.7,11.6c-3.1-9.4-7.5-18.3-13-26.5C111.1,45.6,104.2,41,96.9,36.9z"/>
	<path class="st0" d="M149.7,87.8c-7.3-4.2-28.9-16.5-41.6-22.2c-6-2.7-13-1.5-17.8,3L73.7,84.3c-4.1,3.9-4.3,10.4-0.4,14.5   c3.6,3.8,9.5,4.3,13.7,1.1l11.4-10c2-1.5,4.9-1.4,6.6,0.4c3.7,3.8,10.5,10.5,17.2,15l0,0c0,0,9.8,7,2.3,19.6l-1.1,1.7   c-0.5,0.7-0.7,1-1.7,2.6c-4.3,6.9-13.4,8.9-20.3,4.6c-0.1-0.1-0.3-0.2-0.4-0.3l-9-6.1c-3.8-2.7-7-5.1-8.3-9   c-2.8-8.1-8.8-20.8-17.9-16.8c-3,1.4-4.6,4.6-4,7.8l4.6,24.9c0.6,3.3,2.5,6.1,5.3,7.9c7.3,4.8,21.4,15.3,21.4,25.4h42.4   c-3.3-16.1,7-31.9,23.1-35.2c1-3.3,2.2-6.5,3.6-9.6C166.4,113.9,165.4,97,149.7,87.8z"/>
	<path class="st1" d="M135.5,167.8H90.1c-1.3,0-2.4,1.1-2.4,2.4v11.3h54.8C139,177.6,136.6,172.9,135.5,167.8z"/>
	<path class="st2" d="M142.4,181.5H85.3c-1.3,0-2.4,1.1-2.4,2.4v67.1c0,1.3,1.1,2.4,2.4,2.4h74.4c1.3,0,2.4-1.1,2.4-2.4v-59.7   C154.6,190.7,147.5,187.2,142.4,181.5z"/>
	<circle class="st3" cx="164.6" cy="161.7" r="29.7"/>
	<path class="st1" d="M180.4,150.2c-2-2-5.1-2-7.1,0l-14.2,14.2l-4.4-4.8c-1.9-2-5-2.2-7.1-0.3s-2.2,5-0.3,7.1l7.9,8.6   c1.9,2,5,2.2,7.1,0.3c0.1-0.1,0.1-0.1,0.2-0.2l17.9-17.9C182.3,155.3,182.3,152.2,180.4,150.2z"/>
	<path class="st2" d="M143.5,13.3h-1.8v-1.8c0-1.4-1.1-2.5-2.5-2.5s-2.5,1.1-2.5,2.5v1.8h-1.8c-1.4,0-2.5,1.1-2.5,2.5   s1.1,2.5,2.5,2.5h1.8v1.8c0,1.4,1.1,2.5,2.5,2.5s2.5-1.1,2.5-2.5v-1.8h1.8c1.4,0,2.5-1.1,2.5-2.5S144.9,13.3,143.5,13.3L143.5,13.3   z"/>
	<path class="st4" d="M162.7,2c0-0.2-0.1-0.3-0.1-0.5c-0.1-0.2-0.1-0.3-0.2-0.4c-0.1-0.1-0.2-0.3-0.3-0.4c-1-0.9-2.5-0.9-3.5,0   c-0.1,0.1-0.2,0.2-0.3,0.4c-0.1,0.1-0.2,0.3-0.2,0.4c-0.1,0.2-0.1,0.3-0.1,0.5c0,0.2,0,0.3-0.1,0.5c0,0.2,0,0.3,0.1,0.5   c0,0.2,0.1,0.3,0.1,0.5c0.1,0.1,0.1,0.3,0.2,0.4c0.1,0.1,0.2,0.3,0.3,0.4c1,1,2.5,1,3.5,0c0,0,0,0,0,0c0.1-0.1,0.2-0.2,0.3-0.4   c0.1-0.1,0.2-0.3,0.2-0.4c0.1-0.1,0.1-0.3,0.1-0.5c0-0.2,0.1-0.3,0.1-0.5C162.8,2.3,162.8,2.1,162.7,2z"/>
	<path class="st5" d="M44.9,104.8c-0.1-0.3-0.2-0.6-0.4-0.9c-0.1-0.1-0.2-0.3-0.3-0.4c-1-0.9-2.5-0.9-3.5,0   c-0.1,0.1-0.2,0.2-0.3,0.4c-0.1,0.1-0.2,0.3-0.2,0.4c-0.1,0.2-0.1,0.3-0.1,0.5c-0.1,0.3-0.1,0.7,0,1c0,0.2,0.1,0.3,0.1,0.5   c0.1,0.1,0.1,0.3,0.2,0.4c0.1,0.1,0.2,0.3,0.3,0.4c1,1,2.5,1,3.5,0c0,0,0,0,0,0c0.1-0.1,0.2-0.2,0.3-0.4c0.1-0.1,0.2-0.3,0.2-0.4   c0.1-0.1,0.1-0.3,0.1-0.5C44.9,105.5,44.9,105.1,44.9,104.8z"/>
	<path class="st6" d="M184.3,204.8c-0.1-0.3-0.2-0.6-0.4-0.9c-0.1-0.1-0.2-0.3-0.3-0.4c-1-0.9-2.5-0.9-3.5,0   c-0.1,0.1-0.2,0.2-0.3,0.4c-0.1,0.1-0.2,0.3-0.2,0.4c-0.1,0.2-0.1,0.3-0.1,0.5c-0.1,0.3-0.1,0.7,0,1c0,0.2,0.1,0.3,0.1,0.5   c0.1,0.1,0.1,0.3,0.2,0.4c0.1,0.1,0.2,0.3,0.3,0.4c1,1,2.5,1,3.5,0c0,0,0,0,0,0c0.1-0.1,0.2-0.2,0.3-0.4c0.1-0.1,0.2-0.3,0.2-0.4   c0.1-0.1,0.1-0.3,0.1-0.5C184.4,205.4,184.4,205.1,184.3,204.8z"/>
	<path class="st4" d="M61.5,78.4c-4.1-0.8-7.2-4-8-8c0-0.1-0.1-0.2-0.2-0.2c-0.1,0-0.1,0.1-0.2,0.2c-0.8,4.1-4,7.2-8,8   c-0.1,0-0.2,0.1-0.2,0.2c0,0.1,0.1,0.1,0.2,0.2c4.1,0.8,7.2,4,8,8c0,0.1,0.1,0.2,0.2,0.2c0.1,0,0.1-0.1,0.2-0.2c0.8-4.1,4-7.2,8-8   c0.1,0,0.2-0.1,0.2-0.2C61.6,78.4,61.5,78.4,61.5,78.4z"/>
	<path class="st3" d="M172.8,35.5c-4.1-0.8-7.2-4-8-8c0-0.1-0.1-0.2-0.2-0.2c-0.1,0-0.1,0.1-0.2,0.2c-0.8,4.1-4,7.2-8,8   c-0.1,0-0.2,0.1-0.2,0.2c0,0.1,0.1,0.1,0.2,0.2c4.1,0.8,7.2,4,8,8c0,0.1,0.1,0.2,0.2,0.2c0.1,0,0.1-0.1,0.2-0.2c0.8-4.1,4-7.2,8-8   c0.1,0,0.2-0.1,0.2-0.2C173,35.6,172.9,35.5,172.8,35.5z"/>
	<path class="st6" d="M118,16.6c-5.3-4.7-13.3-4.2-18,1.1c-2,2.3-3.2,5.2-3.2,8.3c0,3.8,1.6,7.5,4.5,10   c12.2,10.5,21.3,24.7,27.2,42.1c0.2,0.6,0.6,1.1,1.2,1.4c7.3,4,14.6,8.1,18.9,10.6c6.2,3.4,10.7,9.2,12.5,16   c0.4,1.3,1.7,2.1,3.1,1.8c1.2-0.3,1.9-1.4,1.9-2.6C163.1,61.3,131.4,28.6,118,16.6z M150.9,85.7c-4.2-2.4-11-6.3-18.1-10.2   c-6.1-17.8-15.7-32.4-28.3-43.3c-1.8-1.5-2.8-3.8-2.8-6.1c0.1-4.3,3.6-7.7,7.9-7.7c1.9,0,3.7,0.7,5,2   c11.6,10.4,37.2,36.6,44.5,71.9C156.7,89.6,154,87.4,150.9,85.7L150.9,85.7z"/>
	<path class="st6" d="M133,76.1c-3.2-9.5-7.6-18.5-13.3-26.8c-0.1-0.2-0.3-0.4-0.5-0.6c-6.7-5.2-13.8-9.8-21.2-13.9   c-6.2-3.4-13.9-1.2-17.4,5c-1.5,2.7-2,5.8-1.3,8.8c0.8,3.7,3.2,6.9,6.6,8.7c4.7,2.5,9.2,5.5,13.3,8.8c0.5,0.4,1.1,0.6,1.7,0.6   c2.1-0.1,4.2,0.3,6.1,1.2c5.4,2.4,13,6.3,22.5,11.5c1.2,0.7,2.7,0.2,3.4-1C133.4,77.7,133.4,76.8,133,76.1L133,76.1z M109.1,63.3   c-2.3-1-4.8-1.6-7.4-1.6c-4.2-3.3-8.7-6.3-13.4-8.8c-2.1-1.1-3.6-3.1-4.1-5.4c-0.9-4.2,1.8-8.3,6-9.2c1.8-0.4,3.7-0.1,5.3,0.8   c7.1,3.9,13.8,8.4,20.2,13.3c4.1,6.1,7.6,12.6,10.3,19.4C119.2,68.1,113.5,65.3,109.1,63.3L109.1,63.3z"/>
	<path class="st6" d="M164.6,129.5c-17.8,0-32.2,14.4-32.2,32.2c0,17.8,14.4,32.2,32.2,32.2c17.8,0,32.2-14.4,32.2-32.2c0,0,0,0,0,0   C196.9,143.9,182.4,129.5,164.6,129.5z M164.6,189c-15,0-27.2-12.2-27.2-27.2c0-15,12.2-27.2,27.2-27.2c15,0,27.2,12.2,27.2,27.2   c0,0,0,0,0,0C191.9,176.8,179.7,189,164.6,189z"/>
	<path class="st6" d="M144.3,179.9c-3.2-3.6-5.4-7.9-6.3-12.6c-0.2-1.2-1.3-2-2.4-2H90.1c-2.7,0-4.9,2.2-4.9,4.9v11.3   c0,1.4,1.1,2.5,2.5,2.5h54.8c1.4,0,2.5-1.1,2.5-2.5C144.9,180.9,144.7,180.3,144.3,179.9L144.3,179.9z M90.1,179l0-8.7h43.5   c0.9,3.1,2.2,6,3.9,8.7H90.1z"/>
	<path class="st6" d="M162.4,188.9c-7-0.6-13.4-3.8-18.1-9c-0.5-0.5-1.2-0.8-1.9-0.8H85.3c-2.7,0-4.9,2.2-4.9,4.9v67.1   c0,2.7,2.2,4.9,4.9,4.9h74.4c2.7,0,4.9-2.2,4.9-4.9v-59.7C164.7,190.1,163.7,189,162.4,188.9z M85.4,251.1l-0.1-67h56   c4.9,5.1,11.3,8.5,18.3,9.6l0.1,57.4L85.4,251.1z"/>
	<path class="st6" d="M165.8,104.8c-2.1-8.1-7.5-15-14.9-19.1c-1.1-0.6-27-15.7-41.8-22.3c-6.9-3.1-15-1.7-20.6,3.5L72,82.5   c-4.4,4.2-5.3,10.8-2.1,16c-1.8-0.1-3.5,0.2-5.2,1c-4.1,1.8-6.3,6.2-5.5,10.6l4.6,24.9c0.7,3.9,3,7.4,6.4,9.6   c18.3,11.9,20.3,20.3,20.3,23.3c0,1.4,1.1,2.5,2.5,2.5h42.4c1.4,0,2.5-1.1,2.5-2.5c0-0.2,0-0.3-0.1-0.5   c-3.1-14.7,6.4-29.2,21.1-32.3c0.9-0.2,1.6-0.8,1.9-1.7c1-3.2,2.1-6.3,3.5-9.3C167,117.9,167.5,111.2,165.8,104.8z M159.9,121.9   c-1.2,2.8-2.3,5.6-3.3,8.5c-15.6,4-25.8,18.8-24.1,34.8H95.4c-1.9-10.3-14.6-20-22.4-25c-2.2-1.4-3.7-3.7-4.2-6.3l-4.6-24.9   c-0.4-2.1,0.7-4.2,2.6-5.1c1.4-0.7,3.1-0.8,4.5-0.1c3.5,1.5,7.2,7.2,10,15.4c1.6,4.6,5.1,7.3,9.3,10.2l9,6.1   c3.8,2.6,8.5,3.6,13,2.7c4.6-1,8.7-3.8,11.2-7.7c1-1.6,1.1-1.8,1.6-2.5c0,0,0.1-0.1,0.1-0.1l0,0l1.1-1.7c0,0,0-0.1,0.1-0.1   c8.3-14.1-2.3-22.4-3-22.9l-0.1-0.1c-7-4.8-14.4-12.2-16.9-14.7c-2.7-2.7-6.9-3-9.9-0.7c0,0-0.1,0.1-0.1,0.1l-11.3,9.9   c-3.4,2.6-8.3,1.9-10.8-1.5c-2.4-3.2-2-7.6,0.9-10.3L92,70.4c4-3.8,10-4.8,15.1-2.6c14.5,6.5,40.3,21.5,41.3,22.1   C162.7,98.3,163.7,113.7,159.9,121.9L159.9,121.9z M79.4,104.4c3.3,0.3,6.5-0.6,9.1-2.6c0,0,0.1-0.1,0.1-0.1l11.3-9.9   c1-0.7,2.4-0.6,3.3,0.3c4.4,4.4,10.9,10.8,17.5,15.3c0.8,0.6,7.7,6.1,1.7,16.3c-0.3,0.5-0.6,0.9-0.8,1.3c-0.1,0.1-0.1,0.1-0.2,0.2   c-0.6,0.8-0.8,1.1-1.8,2.7c-1.8,2.8-4.7,4.8-8,5.5c-3.2,0.6-6.5,0-9.2-1.9l-9-6.1c-3.5-2.5-6.3-4.6-7.4-7.8   C84.5,112.9,82.3,108.5,79.4,104.4z"/>
	<path class="st6" d="M182.2,148.5c-2.9-2.9-7.7-2.9-10.6,0l-12.4,12.4l-2.6-2.8c-2.8-3.1-7.5-3.3-10.6-0.5   c-3.1,2.8-3.3,7.5-0.5,10.6l0,0l7.9,8.6l0,0c1.4,1.5,3.3,2.4,5.4,2.4h0.2c2,0,3.9-0.8,5.3-2.2l17.9-17.9   C185.1,156.1,185.1,151.4,182.2,148.5L182.2,148.5z M178.6,155.5l-17.9,17.9c-0.5,0.5-1.1,0.8-1.8,0.7c-0.7,0-1.3-0.3-1.8-0.8l0,0   l-7.9-8.6c-0.9-1-0.9-2.6,0.2-3.5c1-0.9,2.6-0.9,3.5,0.2l4.4,4.8c0.9,1,2.5,1.1,3.5,0.2c0,0,0.1-0.1,0.1-0.1l14.2-14.2   c1-0.9,2.5-0.9,3.5,0C179.6,153,179.6,154.6,178.6,155.5L178.6,155.5z"/>
</g>
</svg>
