<svg xmlns="http://www.w3.org/2000/svg" viewBox="0 0 382 382"><defs><style>.cls-1{fill:none;}.cls-2{fill:#e84c3d;}.cls-3{fill:#fff8d1;}.cls-4{fill:#23c87e;}.cls-5{fill:#00adef;}</style></defs><title>Giskard</title><g id="Layer_2" data-name="Layer 2"><g id="Layer_1-2" data-name="Layer 1"><rect class="cls-1" width="382" height="382"/><path d="M341.62,218.12l-19-35.75a53.19,53.19,0,0,1-6.12-24.68A104.92,104.92,0,0,0,211.61,52.75h-.89a104.09,104.09,0,0,0-57.13,17.43,2.5,2.5,0,0,0,2.77,4.16,99.07,99.07,0,0,1,54.4-16.59h.85c2.57,0,5.11.1,7.65.29l1.3,59.46L213.71,127a14.57,14.57,0,0,0-5.69-1.15,14.75,14.75,0,1,0,9.89,3.88l7.19-9.95a2.52,2.52,0,0,0,.46-1.52l-1.3-59.69A98.91,98.91,0,0,1,255.82,68l-.64,58.88a2.51,2.51,0,0,0,.44,1.43l6.29,9.25A14.67,14.67,0,1,0,272,133.49a14.42,14.42,0,0,0-6,1.29l-5.86-8.62.6-55.52A100.63,100.63,0,0,1,282,86.72a99.27,99.27,0,0,1,29.56,71,58.34,58.34,0,0,0,6.7,27l19,35.76a6.77,6.77,0,0,1-5.85,9.91l-17.34.31a2.49,2.49,0,0,0-2.45,2.49V271A19.08,19.08,0,0,1,292.52,290H262.85a2.49,2.49,0,0,0-2.5,2.49v26.62a5.06,5.06,0,0,1-5.05,5.06H224.13l-1.2-45.91a14.71,14.71,0,1,0-5,0l1.2,45.89H202.28l-.44-25.49a2.5,2.5,0,0,0-.83-1.81l-6.85-6.18a14.7,14.7,0,1,0-3.65,3.43l6.35,5.73.43,24.32H149.15a5.07,5.07,0,0,1-5.06-5.06V291.81a193.73,193.73,0,0,0-1.85-26.61,2.5,2.5,0,0,0-5,.69,188.43,188.43,0,0,1,1.81,25.92v27.31a10.06,10.06,0,0,0,10.05,10.05h72a2.12,2.12,0,0,0,.57.08h.07a3,3,0,0,0,.52-.08h33a10.06,10.06,0,0,0,10.05-10.05V295h27.17A24.09,24.09,0,0,0,316.57,271V235.63l14.88-.27a11.75,11.75,0,0,0,10.17-17.24ZM208,150.25a9.72,9.72,0,1,1,9.67-9.71A9.72,9.72,0,0,1,208,150.25Zm64,7.67a9.72,9.72,0,1,1,9.71-9.72A9.71,9.71,0,0,1,272,157.92ZM210.67,263.84a9.7,9.7,0,1,1,9.72,9.67A9.73,9.73,0,0,1,210.67,263.84Zm-28.24,8.33a9.7,9.7,0,1,1-9.67,9.68A9.7,9.7,0,0,1,182.43,272.17Z"/><path class="cls-2" d="M154.28,209.77l11.49,6.65,10-17.35-11.46-6.65a2.49,2.49,0,0,1-1.13-2.92,55.69,55.69,0,0,0,0-33.38,2.5,2.5,0,0,1,1.13-2.92l11.46-6.62-10-17.34-11.49,6.61a2.48,2.48,0,0,1-3.08-.47,55.19,55.19,0,0,0-28.88-16.69,2.5,2.5,0,0,1-2-2.44V103h-20v13.25a2.49,2.49,0,0,1-2,2.44,55.25,55.25,0,0,0-28.89,16.69,2.49,2.49,0,0,1-3.08.47L54.9,129.24l-10,17.34,11.44,6.62a2.5,2.5,0,0,1,1.13,2.92,55.69,55.69,0,0,0,0,33.38,2.49,2.49,0,0,1-1.13,2.92L44.9,199.07l10,17.35,11.47-6.65a2.49,2.49,0,0,1,3.09.47A55.25,55.25,0,0,0,98.34,227a2.49,2.49,0,0,1,2,2.44v13.22h20V229.4a2.5,2.5,0,0,1,2-2.44,55.18,55.18,0,0,0,28.87-16.72A2.5,2.5,0,0,1,154.28,209.77Zm-43.95,2.56a39.53,39.53,0,1,1,39.48-39.5A39.54,39.54,0,0,1,110.33,212.33Z"/><path d="M165.43,222a2.51,2.51,0,0,0,3.42-.91l12.48-21.67a2.5,2.5,0,0,0-.91-3.41l-11.92-6.91a60.5,60.5,0,0,0,0-32.55l11.91-6.88a2.49,2.49,0,0,0,.92-3.41l-12.48-21.66a2.5,2.5,0,0,0-3.41-.92l-11.95,6.88a60.09,60.09,0,0,0-28.14-16.27V100.5a2.5,2.5,0,0,0-2.5-2.5h-25a2.5,2.5,0,0,0-2.5,2.5v13.78a60.09,60.09,0,0,0-28.14,16.27l-11.94-6.88a2.5,2.5,0,0,0-3.41.92L39.33,146.25a2.51,2.51,0,0,0,.92,3.41l11.9,6.88a60.5,60.5,0,0,0,0,32.55L40.24,196a2.52,2.52,0,0,0-.91,3.41l12.49,21.67a2.48,2.48,0,0,0,1.52,1.16,2.51,2.51,0,0,0,1.89-.25l11.94-6.92a60.1,60.1,0,0,0,28.14,16.3v13.75a2.49,2.49,0,0,0,2.5,2.49h25a2.49,2.49,0,0,0,2.5-2.49V231.37a60,60,0,0,0,28.13-16.3Zm-43.11,5a2.5,2.5,0,0,0-2,2.44v13.22h-20V229.4a2.49,2.49,0,0,0-2-2.44,55.25,55.25,0,0,1-28.88-16.72,2.49,2.49,0,0,0-3.09-.47L54.9,216.42l-10-17.35,11.45-6.65a2.49,2.49,0,0,0,1.13-2.92,55.69,55.69,0,0,1,0-33.38,2.5,2.5,0,0,0-1.13-2.92l-11.44-6.62,10-17.34,11.48,6.61a2.49,2.49,0,0,0,3.08-.47,55.25,55.25,0,0,1,28.89-16.69,2.49,2.49,0,0,0,2-2.44V103h20v13.25a2.5,2.5,0,0,0,2,2.44,55.19,55.19,0,0,1,28.88,16.69,2.48,2.48,0,0,0,3.08.47l11.49-6.61,10,17.34L164.3,153.2a2.5,2.5,0,0,0-1.13,2.92,55.69,55.69,0,0,1,0,33.38,2.49,2.49,0,0,0,1.13,2.92l11.46,6.65-10,17.35-11.49-6.65a2.5,2.5,0,0,0-3.09.47A55.18,55.18,0,0,1,122.32,227Z"/><path class="cls-3" d="M110.33,138.28a34.53,34.53,0,1,0,34.48,34.55A34.56,34.56,0,0,0,110.33,138.28Zm0,57.51a23,23,0,1,1,23-23A23,23,0,0,1,110.33,195.79Z"/><path class="cls-3" d="M110.33,154.86a18,18,0,1,0,18,18A18,18,0,0,0,110.33,154.86Z"/><path d="M110.33,133.28a39.53,39.53,0,1,0,39.48,39.55A39.57,39.57,0,0,0,110.33,133.28Zm0,74.05a34.53,34.53,0,1,1,34.48-34.5A34.53,34.53,0,0,1,110.33,207.33Z"/><path d="M110.33,149.86a23,23,0,1,0,23,23A23,23,0,0,0,110.33,149.86Zm0,40.93a18,18,0,1,1,18-18A18,18,0,0,1,110.33,190.79Z"/><path class="cls-4" d="M208,130.82a9.72,9.72,0,1,0,9.67,9.72A9.72,9.72,0,0,0,208,130.82Z"/><path class="cls-5" d="M272,138.48a9.72,9.72,0,1,0,9.71,9.72A9.71,9.71,0,0,0,272,138.48Z"/><path class="cls-4" d="M230.06,263.84a9.7,9.7,0,1,0-9.67,9.67A9.71,9.71,0,0,0,230.06,263.84Z"/><path class="cls-5" d="M182.43,291.57a9.7,9.7,0,1,0-9.67-9.72A9.72,9.72,0,0,0,182.43,291.57Z"/></g></g></svg>