<svg xmlns="http://www.w3.org/2000/svg" viewBox="0 0 382 382"><defs><style>.cls-1{fill:none;}.cls-2{fill:#4b47b6;}.cls-3{fill:#23c87e;}.cls-4{fill:#e84c3d;}</style></defs><title>Robbie Plan</title><g id="Layer_2" data-name="Layer 2"><g id="Layer_1-2" data-name="Layer 1"><rect class="cls-1" width="382" height="382"/><path d="M341.66,227.78,323.19,193a51.4,51.4,0,0,1-6-24,101.74,101.74,0,0,0-56.36-91.41A2.5,2.5,0,0,0,258.62,82,96.76,96.76,0,0,1,312.23,169a56.28,56.28,0,0,0,6.55,26.34l18.47,34.81a6.54,6.54,0,0,1-5.65,9.58l-16.87.32a2.49,2.49,0,0,0-2.45,2.49v36.76a18.53,18.53,0,0,1-18.51,18.51H264.88a2.5,2.5,0,0,0-2.5,2.5v25.92a4.85,4.85,0,0,1-4.85,4.85H154.16a4.88,4.88,0,0,1-4.9-4.85V299.57a190,190,0,0,0-20.92-86.42,2.5,2.5,0,0,0-4.44,2.28,185,185,0,0,1,20.37,84.14v26.62a9.87,9.87,0,0,0,9.89,9.84H257.53a9.85,9.85,0,0,0,9.85-9.84V302.77h26.39a23.54,23.54,0,0,0,23.5-23.51V245l14.42-.27a11.53,11.53,0,0,0,10-16.9Z"/><path class="cls-2" d="M123.05,155.52h88.39V82.35H123.05Zm63.07-13H148.33a2.5,2.5,0,1,1,0-5h37.79a2.5,2.5,0,0,1,0,5ZM134,94.33a2.49,2.49,0,0,1,2.5-2.49l.25,0a2.55,2.55,0,0,1,.92-.18h59.11a2.49,2.49,0,0,1,2.49,2.5v32.95a2.5,2.5,0,1,1-5,0V96.68H139v30.45a2.5,2.5,0,0,1-5,0Z"/><path d="M133.46,71.7a2.5,2.5,0,0,0,2.5-2.5V48.46a2.5,2.5,0,0,0-5,0V69.2A2.49,2.49,0,0,0,133.46,71.7Z"/><path d="M167.22,71.7a2.5,2.5,0,0,0,2.5-2.5V48.46a2.5,2.5,0,0,0-5,0V69.2A2.5,2.5,0,0,0,167.22,71.7Z"/><path d="M201,71.7a2.5,2.5,0,0,0,2.5-2.5V48.46a2.5,2.5,0,0,0-5,0V69.2A2.5,2.5,0,0,0,201,71.7Z"/><path d="M227.69,87.68H246.2a2.5,2.5,0,1,0,0-5H227.69a2.5,2.5,0,1,0,0,5Z"/><path d="M227.69,121.42H246.2a2.5,2.5,0,1,0,0-5H227.69a2.5,2.5,0,1,0,0,5Z"/><path d="M227.69,155.2H246.2a2.5,2.5,0,0,0,0-5H227.69a2.5,2.5,0,0,0,0,5Z"/><path d="M198.48,169.7v20.7a2.5,2.5,0,0,0,5,0V169.7a2.5,2.5,0,0,0-5,0Z"/><path d="M131,169.7v20.7a2.5,2.5,0,1,0,5,0V169.7a2.5,2.5,0,1,0-5,0Z"/><path d="M108.27,150.2H88.16a2.5,2.5,0,0,0,0,5h20.11a2.5,2.5,0,0,0,0-5Z"/><path d="M88.16,87.68h20.11a2.5,2.5,0,0,0,0-5H88.16a2.5,2.5,0,0,0,0,5Z"/><path class="cls-3" d="M177.53,212.74a9.64,9.64,0,1,0,9.63,9.64A9.65,9.65,0,0,0,177.53,212.74Z"/><path class="cls-4" d="M53.63,109.28a9.65,9.65,0,1,0,9.63,9.65A9.65,9.65,0,0,0,53.63,109.28Z"/><path d="M167.29,182.56a2.53,2.53,0,0,0,.68,1.73l10.69,11.41-2.12,12.09a14.63,14.63,0,1,0,5,.52l2.28-13a2.52,2.52,0,0,0-.64-2.14l-10.87-11.6.15-21.08h41.49a2.5,2.5,0,0,0,2.5-2.5V79.85a2.49,2.49,0,0,0-2.5-2.49H120.55a2.48,2.48,0,0,0-2.49,2.49v36.08l-21.63-4a2.4,2.4,0,0,0-1.81.36L80.3,121.59l-12.16-4.45a14.64,14.64,0,1,0-.3,5.21l11.92,4.36a2.57,2.57,0,0,0,.86.16,2.49,2.49,0,0,0,1.36-.41L96.5,117l21.56,4v37a2.49,2.49,0,0,0,2.49,2.5h46.89ZM177.53,232a9.64,9.64,0,1,1,9.63-9.64A9.65,9.65,0,0,1,177.53,232ZM53.63,128.57a9.65,9.65,0,1,1,9.63-9.64A9.65,9.65,0,0,1,53.63,128.57Zm157.81,27H123.05V82.35h88.39Z"/><path d="M136.5,129.63a2.5,2.5,0,0,0,2.5-2.5V96.68h55.28v30.45a2.5,2.5,0,1,0,5,0V94.18a2.49,2.49,0,0,0-2.49-2.5H137.67a2.55,2.55,0,0,0-.92.18l-.25,0a2.49,2.49,0,0,0-2.5,2.49v32.8A2.5,2.5,0,0,0,136.5,129.63Z"/><path d="M186.12,137.55H148.33a2.5,2.5,0,1,0,0,5h37.79a2.5,2.5,0,0,0,0-5Z"/></g></g></svg>