<svg xmlns="http://www.w3.org/2000/svg" viewBox="0 0 382 382"><defs><style>.cls-1{fill:none;}.cls-2{fill:#4bbfe8;}.cls-3{fill:#e84c3d;}.cls-4{fill:#23c87e;}</style></defs><title>Speedy Plan</title><g id="Layer_2" data-name="Layer 2"><g id="Layer_1-2" data-name="Layer 1"><rect class="cls-1" width="382" height="382"/><path d="M76.69,141.46a2.49,2.49,0,0,0,2.18-1.29l26.71-48.42,93.48.72,21,12.47a8.68,8.68,0,0,0-.18,1.7A8.14,8.14,0,1,0,228,98.52a8,8,0,0,0-5.44,2.11L201,87.84a2.61,2.61,0,0,0-1.25-.35l-95.63-.73a2.51,2.51,0,0,0-2.2,1.29L75.25,136.42,42,135a2.49,2.49,0,0,0-.21,5l34.84,1.48Zm154.44-34.82A3.16,3.16,0,1,1,228,103.5,3.14,3.14,0,0,1,231.13,106.64Z"/><path d="M98.22,149.07a2.46,2.46,0,0,0,2-1l26.64-34.56,38.05,2.07a8.1,8.1,0,1,0-.64-5l-38.46-2.09a2.37,2.37,0,0,0-2.1,1L96.25,145.06a2.49,2.49,0,0,0,2,4Zm77.16-36.92a3.16,3.16,0,1,1-3.14-3.14A3.15,3.15,0,0,1,175.38,112.15Z"/><path d="M58.64,159.76a2.49,2.49,0,0,0,2.49,2.47h0l87.8-.72a8.15,8.15,0,1,0,.11-5l-87.95.72A2.5,2.5,0,0,0,58.64,159.76Zm101.25-.56a3.15,3.15,0,0,1-6.3,0,3.15,3.15,0,1,1,6.3,0Z"/><path d="M222.93,166.61a8.13,8.13,0,1,0,.31-5l-15.74-1.89a2.57,2.57,0,0,0-2.37,1.1l-25.24,37.85-63.36.36L94.28,167.46a2.49,2.49,0,0,0-4.07,2.87l23,32.65a2.51,2.51,0,0,0,2,1.06h0l130.41-.74a8.11,8.11,0,1,0-1.2-5l-58.57.33,22.53-33.79Zm11-2a3.16,3.16,0,1,1-3.17-3.13A3.16,3.16,0,0,1,234,164.59ZM255.72,199a3.15,3.15,0,0,1-6.3,0,3.15,3.15,0,0,1,6.3,0Z"/><path d="M179.62,257.48a2.51,2.51,0,0,0,2.09,1.13h20.63a8.1,8.1,0,1,0-1-5h-18.3l-17.49-26.85h57.3a8.16,8.16,0,1,0,0-5H161.35a2.43,2.43,0,0,0-.85,0H101.72L71.35,176.17a2.5,2.5,0,0,0-2-1.1l-22.27-.77H47a2.49,2.49,0,0,0-.09,5l21,.73,30.41,45.67a2.5,2.5,0,0,0,2.07,1.11h59.23Zm32.92-2.84a3.13,3.13,0,1,1-3.13-3.13A3.14,3.14,0,0,1,212.54,254.64Zm21.22-30.35a3.15,3.15,0,1,1-3.13-3.18A3.14,3.14,0,0,1,233.76,224.29Z"/><path class="cls-2" d="M224.82,106.64A3.16,3.16,0,1,0,228,103.5,3.16,3.16,0,0,0,224.82,106.64Z"/><path class="cls-3" d="M169.07,112.15a3.16,3.16,0,1,0,3.17-3.14A3.16,3.16,0,0,0,169.07,112.15Z"/><path class="cls-4" d="M153.59,159.2a3.15,3.15,0,1,0,3.17-3.18A3.16,3.16,0,0,0,153.59,159.2Z"/><path class="cls-4" d="M227.65,164.59a3.16,3.16,0,1,0,3.14-3.13A3.15,3.15,0,0,0,227.65,164.59Z"/><path class="cls-3" d="M249.42,199a3.15,3.15,0,1,0,3.13-3.14A3.11,3.11,0,0,0,249.42,199Z"/><path class="cls-3" d="M227.46,224.29a3.15,3.15,0,1,0,3.17-3.18A3.16,3.16,0,0,0,227.46,224.29Z"/><path class="cls-4" d="M206.28,254.64a3.13,3.13,0,1,0,3.13-3.13A3.14,3.14,0,0,0,206.28,254.64Z"/><path d="M341.38,215l-16.83-31.75a46.44,46.44,0,0,1-5.41-21.78A93.45,93.45,0,0,0,224.91,68a2.49,2.49,0,0,0,0,5h0a88.47,88.47,0,0,1,89.21,88.49,51.44,51.44,0,0,0,6,24.12L337,217.35a5.59,5.59,0,0,1-.12,5.54,5.7,5.7,0,0,1-4.83,2.84l-15.44.3a2.49,2.49,0,0,0-2.44,2.49v33.54a16.65,16.65,0,0,1-16.64,16.64H271.17a2.5,2.5,0,0,0-2.49,2.49V304.8A4.21,4.21,0,0,1,264.5,309H170.23A4.23,4.23,0,0,1,166,304.8V280.58a2.5,2.5,0,0,0-5,0V304.8a9.22,9.22,0,0,0,9.21,9.2H264.5a9.2,9.2,0,0,0,9.17-9.2V283.69h23.85a21.65,21.65,0,0,0,21.62-21.63V231l13-.25a10.7,10.7,0,0,0,9.24-15.7Z"/></g></g></svg>